<?xml version="1.0" standalone="no"?>
<!DOCTYPE svg PUBLIC "-//W3C//DTD SVG 20010904//EN"
 "http://www.w3.org/TR/2001/REC-SVG-20010904/DTD/svg10.dtd">
<svg version="1.0" xmlns="http://www.w3.org/2000/svg"
 width="260.000000pt" height="260.000000pt" viewBox="0 0 260.000000 260.000000"
 preserveAspectRatio="xMidYMid meet">
<metadata>
Created by potrace 1.14, written by Peter Selinger 2001-2017
</metadata>
<g transform="translate(0.000000,260.000000) scale(0.100000,-0.100000)"
fill="#000000" stroke="none">
<path d="M408 2564 c-162 -39 -296 -164 -351 -327 -21 -61 -22 -75 -25 -887
-2 -536 1 -853 7 -905 26 -192 157 -349 339 -405 62 -19 95 -20 933 -20 854 0
871 0 932 21 159 53 279 182 322 346 13 49 15 186 15 905 0 578 -3 864 -11
900 -37 179 -180 326 -364 373 -84 21 -1708 21 -1797 -1z m901 -601 c34 -20
54 -43 74 -83 25 -48 28 -63 24 -119 -4 -50 -11 -73 -36 -107 -38 -54 -665
-824 -729 -895 -26 -29 -65 -60 -87 -70 -77 -35 -177 -19 -239 39 -68 64 -87
181 -42 259 21 36 422 541 684 861 105 128 151 155 251 147 36 -2 69 -13 100
-32z m660 11 c32 -16 62 -41 76 -63 38 -57 328 -965 329 -1027 0 -71 -36 -140
-97 -181 -92 -62 -188 -53 -267 26 -44 44 -49 56 -135 313 -50 148 -92 268
-95 267 -3 0 -104 -122 -225 -270 -121 -149 -237 -289 -259 -310 -83 -84 -215
-86 -304 -5 -59 53 -83 162 -52 236 18 44 758 970 796 997 71 50 154 56 233
17z"/>
</g>
</svg>
