<svg xmlns="http://www.w3.org/2000/svg" width="560" height="520"><linearGradient id="a" gradientUnits="userSpaceOnUse" x1="246.7" y1="173.8" x2="357.7" y2="173.8" gradientTransform="matrix(1 0 0 -1 0 521)"><stop offset="0" stop-color="#3f65e9"/><stop offset=".1" stop-color="#4568e8"/><stop offset=".7" stop-color="#6474e5"/><stop offset="1" stop-color="#6f79e4"/></linearGradient><path fill="url(#a)" d="M355.4 335L250 274.1c-1.5-.8-3.3.2-3.3 1.9v79.4c0 1.7 1 3.2 2.4 4l105.4 61c1.4.8 3.2-.3 3.2-2V339c0-1.6-.9-3.2-2.3-4z"/><path fill="#303768" d="M354 336l-105.4-61c-1.4-.8-3.2.3-3.2 1.9v79.5c0 1.6.9 3.1 2.3 4l105.4 60.8c1.5.9 3.2-.2 3.2-1.8v-79.5c0-1.6-.8-3.2-2.3-4z"/><path fill="#202546" d="M350.1 341l-99.2-57.7V356l99.2 57.6z"/><linearGradient id="b" gradientUnits="userSpaceOnUse" x1="173.6" y1="106.1" x2="354.7" y2="106.1" gradientTransform="matrix(1 0 0 -1 0 521)"><stop offset="0" stop-color="#3f65e9"/><stop offset=".1" stop-color="#4568e8"/><stop offset=".7" stop-color="#6474e5"/><stop offset="1" stop-color="#6f79e4"/></linearGradient><path fill="url(#b)" d="M241.1 364.2l-67.5 35.6s-.4 5.3 1 6.1l103.5 59.7a8.6 8.6 0 0 0 8.5 0l66.5-38c2.7-1.6 1-6 1-6l-104.5-57.4a8.6 8.6 0 0 0-8.5 0z"/><path fill="#404A8B" d="M241.1 360.1l-66.4 38c-1.5.8-1.5 2.9 0 3.7L278 461.6a8.6 8.6 0 0 0 8.5 0l66.5-38c1.4-.8 1.4-3 0-3.7L249.7 360a8.6 8.6 0 0 0-8.6 0z"/><path fill="#666EA2" d="M235.2 409.3l-17.5 10c-.4.2-.4.8 0 1L245 436c.7.4 1.5.4 2.2 0l17.5-10c.4-.2.4-.7 0-1l-27.2-15.7c-.7-.4-1.6-.4-2.3 0z"/><path fill="#303768" d="M248.4 366l5.8 3.2c.2.2.2.5 0 .6l-2.9 1.6c-.2.2-.5.2-.7 0l-5.7-3.3a.3.3 0 0 1 0-.5l2.8-1.7h.7zM256.8 371l5.7 3.2c.3.2.3.5 0 .6l-2.8 1.6c-.2.2-.5.2-.7 0l-5.8-3.3a.3.3 0 0 1 0-.6l2.9-1.6h.7zM265.2 375.6l5.8 3.3c.2.2.2.5 0 .6l-2.9 1.7h-.7l-5.7-3.3a.3.3 0 0 1 0-.6l2.8-1.7h.7zM274 380.5l5.6 3.3c.3.2.3.5 0 .6l-2.8 1.7h-.7l-5.8-3.3a.3.3 0 0 1 0-.6l2.9-1.7h.7zM282.2 385.2l5.8 3.3c.2.1.2.4 0 .6l-2.9 1.6h-.7l-5.7-3.3a.3.3 0 0 1 0-.6l2.8-1.6c.2-.2.5-.2.7 0zM290.3 390.2l5.8 3.3c.2.1.2.4 0 .6l-2.9 1.6h-.7l-5.7-3.3a.3.3 0 0 1 0-.6l2.8-1.6c.2-.2.5-.2.7 0zM298.8 394.8l5.7 3.4c.3 0 .3.4 0 .5l-2.8 1.7h-.7l-5.8-3.3a.3.3 0 0 1 0-.6l2.9-1.7h.7zM307.2 399.8l5.7 3.3c.2.2.2.5 0 .6l-2.8 1.7h-.8l-5.7-3.4a.3.3 0 0 1 0-.5l2.8-1.7c.3-.1.5-.1.8 0zM315.4 404.7l5.7 3.3c.2.1.2.4 0 .6l-2.8 1.6c-.3.1-.5.1-.8 0l-5.7-3.3a.3.3 0 0 1 0-.6l2.9-1.6c.2-.2.5-.2.7 0zM324 409.7l5.8 3.3c.2 0 .2.4 0 .6l-2.9 1.6h-.7l-5.7-3.3a.3.3 0 0 1 0-.6l2.8-1.6c.2-.2.5-.2.8 0zM332.5 414.4l5.7 3.3c.2.1.2.4 0 .6l-2.9 1.6h-.7l-5.7-3.3a.3.3 0 0 1 0-.6l2.8-1.6c.3-.2.5-.2.8 0z"/><g fill="#303768"><path d="M236.8 372.1l3.9-2.2c.5-.3 1.1-.3 1.6 0l3.8 2.2c.5.3.5 1 0 1.3l-3.8 2.4c-.5.3-1.1.3-1.6 0l-3.9-2.3a.8.8 0 0 1 0-1.4zM245.5 377.1l3.9-2.2c.5-.3 1-.3 1.6 0l3.8 2.2c.5.3.5 1 0 1.3l-3.8 2.4c-.5.3-1.1.3-1.6 0l-4-2.3a.8.8 0 0 1 0-1.4zM254 381.9l3.8-2.3c.5-.3 1.1-.3 1.6 0l3.8 2.2c.5.3.5 1 0 1.4l-3.7 2.3c-.6.3-1.2.3-1.7 0l-3.9-2.2a.8.8 0 0 1 0-1.4zM262.9 386.8l3.9-2.3c.5-.3 1-.3 1.6 0l3.8 2.2c.5.3.5 1 0 1.4l-3.8 2.3c-.5.3-1.1.3-1.6 0l-4-2.2a.8.8 0 0 1 0-1.4zM270.8 391.4l3.9-2.3c.5-.3 1-.3 1.6 0l3.8 2.2c.5.3.5 1 0 1.4l-3.8 2.3c-.5.3-1.1.3-1.6 0l-4-2.2a.8.8 0 0 1 0-1.4zM278.8 396.4l3.9-2.3c.5-.3 1.1-.3 1.6 0l3.8 2.2c.5.3.5 1 0 1.4l-3.7 2.3c-.6.3-1.2.3-1.7 0l-3.9-2.2a.8.8 0 0 1 0-1.4zM287.4 401l3.9-2.2c.5-.3 1-.3 1.6 0l3.8 2.2c.5.3.5 1 0 1.4l-3.8 2.3c-.5.3-1.1.3-1.6 0l-4-2.2a.8.8 0 0 1 0-1.4zM295.8 405.8l3.9-2.2c.5-.3 1-.3 1.6 0l3.8 2.1c.5.3.5 1.1 0 1.4l-3.8 2.3c-.5.4-1.1.4-1.6 0l-4-2.2a.8.8 0 0 1 0-1.4zM304 410.9l4-2.3c.4-.3 1-.3 1.5 0l3.8 2.2c.6.3.6 1 0 1.4l-3.7 2.3c-.5.3-1.2.3-1.7 0l-3.9-2.2a.8.8 0 0 1 0-1.4zM313 416.2l3.9-2.3c.5-.3 1.1-.3 1.6 0l3.8 2.2c.5.3.6 1 0 1.4l-3.7 2.3c-.5.3-1.2.3-1.7 0l-3.9-2.2a.8.8 0 0 1 0-1.4zM321.2 420.6l3.8-2.3c.5-.3 1.2-.3 1.7 0l3.8 2.2c.5.3.5 1 0 1.4l-3.8 2.3c-.5.3-1.1.3-1.7 0l-3.8-2.2a.8.8 0 0 1 0-1.4z"/></g><g fill="#303768"><path d="M228.2 376.8l3.8-2.2c.5-.3 1.2-.3 1.7 0l3.7 2.2c.6.3.6 1 0 1.3l-3.7 2.4c-.5.3-1.1.3-1.7 0l-3.8-2.3a.8.8 0 0 1 0-1.4zM236.8 381.8l4-2.2c.4-.3 1-.3 1.5 0l3.8 2.1c.6.4.6 1.1 0 1.4l-3.7 2.4c-.5.3-1.2.3-1.7 0l-3.9-2.3a.8.8 0 0 1 0-1.4zM245.3 386.6l3.8-2.3c.5-.3 1.2-.3 1.7 0l3.8 2.2c.5.3.5 1 0 1.4l-3.8 2.3c-.5.3-1.1.3-1.6 0l-4-2.2a.8.8 0 0 1 0-1.4zM254.2 391.5l4-2.3c.4-.3 1-.3 1.5 0l3.8 2.2c.6.3.6 1 0 1.4l-3.7 2.3c-.5.3-1.2.3-1.7 0l-3.9-2.2a.8.8 0 0 1 0-1.4zM262.1 396.1l4-2.3c.4-.3 1-.3 1.5 0l3.8 2.2c.6.3.6 1 0 1.4l-3.7 2.3c-.5.3-1.2.3-1.7 0l-3.9-2.2a.8.8 0 0 1 0-1.4zM270.2 401l3.8-2.2c.5-.3 1.2-.3 1.7 0l3.8 2.2c.5.3.5 1 0 1.4l-3.8 2.3c-.5.3-1.1.3-1.6 0l-4-2.2a.8.8 0 0 1 0-1.4zM278.7 405.8l4-2.3c.4-.3 1-.3 1.6 0l3.7 2.2c.6.3.6 1 0 1.4l-3.7 2.3c-.5.3-1.2.3-1.7 0l-3.9-2.2a.8.8 0 0 1 0-1.4zM287.1 410.5l4-2.2c.4-.3 1-.3 1.5 0l3.8 2.1c.6.3.6 1.1 0 1.4l-3.7 2.3c-.5.4-1.2.4-1.7 0l-3.9-2.2a.8.8 0 0 1 0-1.4zM295.4 415.6l3.9-2.3c.5-.3 1-.3 1.6 0l3.8 2.2c.5.3.5 1 0 1.4l-3.8 2.3c-.5.3-1.1.3-1.6 0l-3.9-2.2a.8.8 0 0 1 0-1.4zM304.4 420.9l3.9-2.3c.5-.3 1-.3 1.6 0l3.8 2.2c.5.3.5 1 0 1.4l-3.8 2.3c-.5.3-1.1.3-1.6 0l-4-2.2a.8.8 0 0 1 0-1.4zM312.5 425.3l3.9-2.3c.5-.3 1.1-.3 1.6 0l3.8 2.2c.5.3.6 1 0 1.4l-3.7 2.3c-.5.3-1.2.3-1.7 0l-3.9-2.2a.8.8 0 0 1 0-1.4z"/></g><g fill="#303768"><path d="M219.5 381.5l3.9-2.2c.5-.3 1.1-.3 1.6 0l3.8 2.2c.5.3.6 1 0 1.3l-3.7 2.4c-.5.3-1.2.3-1.7 0l-3.9-2.3a.8.8 0 0 1 0-1.4zM228.2 386.5l3.9-2.2c.5-.3 1.1-.3 1.6 0l3.8 2.2c.5.3.5 1 0 1.3l-3.8 2.3c-.5.4-1.1.4-1.6 0l-3.9-2.2a.8.8 0 0 1 0-1.4zM236.6 391.3l3.9-2.3c.5-.3 1.1-.3 1.6 0l3.8 2.2c.6.3.6 1 0 1.4l-3.7 2.3c-.5.3-1.2.3-1.7 0l-3.9-2.2a.8.8 0 0 1 0-1.4zM245.6 396.2l3.9-2.3c.5-.3 1.1-.3 1.6 0l3.8 2.2c.5.3.5 1 0 1.4l-3.8 2.3c-.5.3-1.1.3-1.6 0l-3.9-2.3a.8.8 0 0 1 0-1.3zM253.5 400.8l3.9-2.3c.5-.3 1.1-.3 1.6 0l3.8 2.2c.5.3.5 1 0 1.4l-3.8 2.3c-.5.3-1.1.3-1.6 0l-3.9-2.2a.8.8 0 0 1 0-1.4zM261.5 405.8l3.9-2.3c.5-.3 1.1-.3 1.6 0l3.8 2.2c.5.3.6 1 0 1.4l-3.7 2.3c-.5.3-1.2.3-1.7 0l-3.9-2.2a.8.8 0 0 1 0-1.4zM270.1 410.5l3.9-2.3c.5-.3 1.1-.3 1.6 0l3.8 2.2c.5.3.5 1 0 1.4l-3.7 2.3c-.6.3-1.2.3-1.7 0l-3.9-2.2a.8.8 0 0 1 0-1.4zM278.5 415.2l3.9-2.2c.5-.3 1.1-.3 1.6 0l3.8 2.1c.5.3.5 1.1 0 1.4l-3.8 2.3c-.5.4-1.1.4-1.6 0l-3.9-2.2a.8.8 0 0 1 0-1.4zM286.8 420.3l3.8-2.3c.5-.3 1.2-.3 1.7 0l3.7 2.2c.6.3.6 1 0 1.4l-3.7 2.3c-.5.3-1.1.3-1.7 0l-3.8-2.2a.8.8 0 0 1 0-1.4zM295.7 425.6l4-2.3c.4-.3 1-.3 1.6 0l3.7 2.2c.6.3.6 1 0 1.4l-3.7 2.3c-.5.3-1.2.3-1.7 0l-3.9-2.2a.8.8 0 0 1 0-1.4zM303.9 430l3.9-2.3c.5-.3 1-.3 1.6 0l3.8 2.2c.5.3.5 1 0 1.4l-3.8 2.3c-.5.3-1.1.3-1.6 0l-4-2.2a.8.8 0 0 1 0-1.4z"/></g><g fill="#303768"><path d="M210.9 386.2l3.9-2.2c.5-.3 1-.3 1.6 0l3.8 2.2c.5.3.5 1 0 1.3l-3.8 2.4c-.5.3-1.1.3-1.6 0l-4-2.3a.8.8 0 0 1 0-1.4zM219.6 391.2l3.8-2.2c.5-.3 1.2-.3 1.7 0l3.8 2.1c.5.4.5 1.1 0 1.4l-3.8 2.3c-.5.4-1.1.4-1.7 0l-3.8-2.2a.8.8 0 0 1 0-1.4zM228 396l3.9-2.3c.5-.3 1-.3 1.6 0l3.8 2.2c.5.3.5 1 0 1.4l-3.8 2.3c-.5.3-1.1.3-1.6 0l-4-2.2a.8.8 0 0 1 0-1.4zM237 400.9l3.8-2.3c.5-.3 1.2-.3 1.7 0l3.7 2.2c.6.3.6 1 0 1.4l-3.7 2.3c-.5.3-1.1.3-1.7 0l-3.8-2.2a.8.8 0 0 1 0-1.4zM245.6 406l3.9-2.3c.5-.3 1.1-.3 1.6 0l19.7 11.4c.5.3.6 1 0 1.4l-3.7 2.3c-.5.3-1.2.3-1.7 0l-19.8-11.4a.8.8 0 0 1 0-1.4zM269.9 420l3.8-2.3c.5-.3 1.2-.3 1.7 0l3.8 2.1c.5.3.5 1.1 0 1.4l-3.8 2.3c-.5.3-1.1.4-1.7 0l-3.8-2.2a.8.8 0 0 1 0-1.4zM278.1 425l3.9-2.3c.5-.3 1.1-.3 1.6 0l3.8 2.2c.5.3.5 1 0 1.4l-3.7 2.3c-.5.3-1.2.3-1.7 0l-3.9-2.2a.8.8 0 0 1 0-1.4zM287.1 430.3l3.9-2.3c.5-.3 1.1-.3 1.6 0l3.8 2.2c.5.3.5 1 0 1.4l-3.7 2.3c-.6.3-1.2.3-1.7 0l-3.9-2.2a.8.8 0 0 1 0-1.4zM295.2 434.7l4-2.3c.4-.3 1-.3 1.5 0l3.8 2.2c.6.3.6 1 0 1.4l-3.7 2.3c-.5.3-1.2.3-1.7 0l-3.9-2.2a.8.8 0 0 1 0-1.4z"/></g><g><path fill="#404A8B" d="M113.3 445.5c-1.6-.9-4-1-5.5 0l-43 23.2v1.6c0 1 .5 1.8 1.3 2.2l41.8 24a6 6 0 0 0 5.5 0l41-23.8c.9-.4 1.4-1.3 1.4-2.3v-1l-42.5-24z"/><linearGradient id="c" gradientUnits="userSpaceOnUse" x1="64.8" y1="51.6" x2="155.8" y2="51.6" gradientTransform="matrix(1 0 0 -1 0 521)"><stop offset="0" stop-color="#c45b94"/><stop offset=".2" stop-color="#c55e96"/><stop offset=".5" stop-color="#c8669b"/><stop offset=".7" stop-color="#cd74a4"/><stop offset=".9" stop-color="#e57751"/><stop offset="1" stop-color="#e48f65"/></linearGradient><path fill="url(#c)" d="M113.3 443.9c-1.6-.9-4-.9-5.5 0l-41.9 23.7c-1.5.8-1.5 2.3 0 3.1l42 24.3a6 6 0 0 0 5.5 0l41.2-24c1.5-.8 1.5-2.3 0-3.1l-41.3-24z"/></g><g><path fill="#404A8B" d="M113.3 431.8c-1.6-.9-4-.9-5.5 0l-43 23.2v1.6c0 1 .5 1.8 1.3 2.2L108 483a6 6 0 0 0 5.5 0l41-23.8c.9-.5 1.4-1.4 1.4-2.3v-1l-42.5-24z"/><linearGradient id="d" gradientUnits="userSpaceOnUse" x1="64.8" y1="65.2" x2="155.8" y2="65.2" gradientTransform="matrix(1 0 0 -1 0 521)"><stop offset="0" stop-color="#c45b94"/><stop offset=".2" stop-color="#c55e96"/><stop offset=".5" stop-color="#c8669b"/><stop offset=".7" stop-color="#cd74a4"/><stop offset=".9" stop-color="#e57751"/><stop offset="1" stop-color="#e48f65"/></linearGradient><path fill="url(#d)" d="M113.3 430.2c-1.6-.9-4-.9-5.5 0l-41.9 23.7c-1.5.9-1.5 2.3 0 3.2l42 24.2a6 6 0 0 0 5.5 0l41.2-24c1.5-.8 1.5-2.2 0-3.1l-41.3-24z"/></g><g><path fill="#404A8B" d="M113.3 420.4c-1.6-.9-4-.9-5.5 0l-43 23.2v1.6c0 1 .5 1.8 1.3 2.2l41.8 24.1a6 6 0 0 0 5.5 0l41-23.8c.9-.5 1.4-1.4 1.4-2.3v-1l-42.5-24z"/><linearGradient id="e" gradientUnits="userSpaceOnUse" x1="64.8" y1="76.6" x2="155.8" y2="76.6" gradientTransform="matrix(1 0 0 -1 0 521)"><stop offset="0" stop-color="#c45b94"/><stop offset=".2" stop-color="#c55e96"/><stop offset=".5" stop-color="#c8669b"/><stop offset=".7" stop-color="#cd74a4"/><stop offset=".9" stop-color="#e57751"/><stop offset="1" stop-color="#e48f65"/></linearGradient><path fill="url(#e)" d="M113.3 418.8c-1.6-.9-4-.9-5.5 0l-41.9 23.7c-1.5.9-1.5 2.3 0 3.2l42 24.2a6 6 0 0 0 5.5 0l41.2-24c1.5-.8 1.5-2.2 0-3.1l-41.3-24z"/></g><g><linearGradient id="f" gradientUnits="userSpaceOnUse" x1="149.3" y1="251.7" x2="293.6" y2="251.7" gradientTransform="matrix(1 0 0 -1 0 521)"><stop offset="0" stop-color="#3f65e9"/><stop offset=".1" stop-color="#4568e8"/><stop offset=".7" stop-color="#6474e5"/><stop offset="1" stop-color="#6f79e4"/></linearGradient><path fill="url(#f)" d="M149.3 193.6l.4-.2c1.2-.6 2.5-.5 3.7.1l137.8 79.6c1.3.8 2.4 2.7 2.4 4.2v65.8c0 .8-.4 1.6-1 2l-.9.5-139.2-80.5a5.4 5.4 0 0 1-2.4-4.2l-.8-67.3z"/><path fill="#404A8B" d="M148.7 195.2c0-1.6 1-2.2 2.4-1.4l138.7 80c1.3.8 2.4 2.7 2.4 4.2v66.3c0 1.5-1.1 2.2-2.4 1.4L151 265.8a5.4 5.4 0 0 1-2.4-4.2v-66.4z"/><path fill="#303768" d="M164 231.3c0-.3.2-.4.4-.2l114.1 65.8c.2 0 .4.4.4.6v9.9c0 .2-.2.3-.4.2l-114-65.8a.8.8 0 0 1-.4-.6v-10z"/><linearGradient id="g" gradientUnits="userSpaceOnUse" x1="164.1" y1="262.6" x2="241" y2="262.6" gradientTransform="matrix(1 0 0 -1 0 521)"><stop offset="0" stop-color="#c45b94"/><stop offset=".3" stop-color="#c9689d"/><stop offset=".9" stop-color="#e2885b"/><stop offset="1" stop-color="#e48f65"/></linearGradient><path fill="url(#g)" d="M164 231.3c0-.3.2-.4.4-.2l76.3 43.9c.2.1.3.4.3.6v10c0 .1-.1.2-.3.1l-76.3-43.9a.8.8 0 0 1-.3-.6v-10z"/></g><g><linearGradient id="h" gradientUnits="userSpaceOnUse" x1="149.8" y1="328.7" x2="293.9" y2="328.7" gradientTransform="matrix(1 0 0 -1 0 521)"><stop offset="0" stop-color="#3f65e9"/><stop offset=".1" stop-color="#4568e8"/><stop offset=".7" stop-color="#6474e5"/><stop offset="1" stop-color="#6f79e4"/></linearGradient><path fill="url(#h)" d="M150 124h-.2v50.7c0 2.1 1.5 4.7 3.4 5.8l137.2 80.7 2.2-1.2c.8-.5 1.3-1.4 1.3-2.4v-49c0-2.1-1.5-4.8-3.3-5.8l-136.4-79c-1.3-.7-3-.7-4.3.1z"/><path fill="#404A8B" d="M151.2 124.4c-1.8-1-3.3-.2-3.3 2v49.2c0 2.2 1.5 4.8 3.3 5.9l137.4 79.3c1.9 1 3.4.2 3.4-2v-49.2c0-2.2-1.5-4.8-3.4-5.9l-137.4-79.3z"/><path fill="#FFF" d="M184.2 157l99.9 58.8v4l-99.9-58.7zM184.2 169.3l99.9 58.9v4l-99.9-58.7zM184.2 181.7L231 209v4L184.2 186z"/><linearGradient id="i" gradientUnits="userSpaceOnUse" x1="159.2" y1="355.3" x2="179.4" y2="355.3" gradientTransform="matrix(1 0 0 -1 0 521)"><stop offset="0" stop-color="#e48f65"/><stop offset=".2" stop-color="#e2885b"/><stop offset=".6" stop-color="#cf79a7"/><stop offset="1" stop-color="#c45b94"/></linearGradient><path fill="url(#i)" d="M173.9 163.5c1-.8 1.6-2.2 1.6-4.1 0-4.3-3-9.6-6.8-11.7-3.7-2.2-6.7-.4-6.7 3.9 0 3 1.4 6.3 3.4 8.8a10.8 10.8 0 0 0-6.2 9.8v2.7l20.2 11.8v-5.5c0-5.7-2-11.3-5.5-15.7z"/></g><g><linearGradient id="j" gradientUnits="userSpaceOnUse" x1="148.4" y1="424.7" x2="293.9" y2="424.7" gradientTransform="matrix(1 0 0 -1 0 521)"><stop offset="0" stop-color="#3f65e9"/><stop offset=".1" stop-color="#4568e8"/><stop offset=".7" stop-color="#6474e5"/><stop offset="1" stop-color="#6f79e4"/></linearGradient><path fill="url(#j)" d="M294 89.2c0-2.2-1.6-4.9-3.5-6L151.9 2.7c-2-1-3.5-.2-3.5 2v98.6c0 2.2 1.6 5 3.5 6l138.6 80.5c1.9 1.1 3.4.2 3.4-2V89.2z"/><path fill="#303768" d="M293 90.2c0-2.2-1.6-4.9-3.5-6L150.9 3.7c-2-1-3.5-.2-3.5 2v98.6c0 2.2 1.6 5 3.5 6l138.6 80.5c1.9 1.1 3.4.2 3.4-2V90.2z"/><path fill="#3B47BA" d="M289.5 84.2L150.9 3.7c-2-1-3.5-.2-3.5 2v5.6L293 95.8v-5.6c0-2.2-1.5-4.9-3.4-6z"/><path fill="#404A8B" d="M274.7 94c-2.7-1.6-5-.3-5 2.9 0 3.1 2.3 7 5 8.5 2.7 1.6 5 .3 5-2.8 0-3.2-2.3-7-5-8.6z"/><path fill="#FFF" d="M216 66.2l-.7-.5c-14.7-8.5-26.6-1.5-26.6 15.4l.1 3.1 27.3 15.5V66.2z"/><linearGradient id="k" gradientUnits="userSpaceOnUse" x1="194" y1="452.5" x2="245.9" y2="382.4" gradientTransform="matrix(1 0 0 -1 0 521)"><stop offset="0" stop-color="#c45b94"/><stop offset=".2" stop-color="#c55e96"/><stop offset=".5" stop-color="#c8669b"/><stop offset=".7" stop-color="#dd733e"/><stop offset=".9" stop-color="#e2895d"/><stop offset="1" stop-color="#e48f65"/></linearGradient><path fill="url(#k)" d="M219.4 67.7v37.6L189 88a67 67 0 0 0 29.7 48.2c16.4 9.5 29.8 1.7 29.8-17.3 0-18.6-13-41.4-29-51.2z"/></g><g><linearGradient id="l" gradientUnits="userSpaceOnUse" x1="306.6" y1="241.8" x2="501.9" y2="241.8" gradientTransform="matrix(1 0 0 -1 0 521)"><stop offset="0" stop-color="#3f65e9"/><stop offset=".1" stop-color="#4568e8"/><stop offset=".7" stop-color="#6474e5"/><stop offset="1" stop-color="#6f79e4"/></linearGradient><path fill="url(#l)" d="M501.9 210c0-3-2.1-6.6-4.7-8l-186-108c-2.5-1.5-4.6-.3-4.6 2.6v251.7c0 3 2 6.6 4.6 8l186 108c2.6 1.5 4.7.3 4.7-2.6V210z"/><path fill="#303768" d="M500.5 211.4c0-3-2-6.6-4.6-8.1l-186-108c-2.6-1.5-4.7-.3-4.7 2.7v251.6c0 3 2.1 6.6 4.7 8.1l186 108c2.5 1.5 4.6.3 4.6-2.7V211.4z"/><path fill="#404A8B" d="M495.9 203.3l-186-108c-2.6-1.5-4.7-.3-4.7 2.7v7.5L500.5 219v-7.5c0-3-2-6.6-4.6-8.1zM316.7 126.7v126l169 97.3V224.8zM316.3 266.3v73.9l99.1 57v-73.4zM426.9 330.6v73.9l58.8 34.6v-73.4z"/><path fill="#303768" d="M466.4 227.4c-3.6-2.1-6.6-.4-6.6 3.8s3 9.4 6.7 11.5c3.6 2.1 6.6.4 6.6-3.8s-3-9.4-6.7-11.5z"/><path fill="#FFF" d="M469.2 237.3h-.3l-5.6-3.3a.7.7 0 0 1-.2-.9c.2-.3.6-.4 1-.2l5.5 3.2a.7.7 0 0 1-.4 1.2zM469.2 241l-.3-.1-5.6-3.2a.7.7 0 0 1-.2-1c.2-.3.6-.4 1-.2l5.5 3.2a.7.7 0 0 1-.4 1.3zM469.2 233.7h-.3l-5.6-3.3a.7.7 0 0 1-.2-1c.2-.2.6-.3 1-.2l5.5 3.3c.3.1.4.6.2.9 0 .2-.3.3-.6.3z"/><linearGradient id="m" gradientUnits="userSpaceOnUse" x1="316.7" y1="226.5" x2="485.7" y2="226.5" gradientTransform="matrix(1 0 0 -1 0 521)"><stop offset="0" stop-color="#c45b94"/><stop offset=".3" stop-color="#c9689d"/><stop offset=".9" stop-color="#e2885b"/><stop offset="1" stop-color="#e48f65"/></linearGradient><path fill="url(#m)" d="M316.7 252.7l169 97.5v-97.5l-24.2 14h-24.1l-12.1-21-12 7-12.1 7-12.1-21-12 7h-24.2l-12.1 7z"/></g><g><path fill="#666EA2" d="M111.6 145.5l-1.1 1H101l-1-1c-3.1-2.8-4.9-6.8-4.9-11v-4H117v3.7c0 4.3-2 8.5-5.3 11.3z"/><path fill="#404A8B" d="M107.4 149.4h-3.6a3.2 3.2 0 0 1-3.1-3.2h9.9c0 1.7-1.4 3.2-3.2 3.2z"/><path fill="#289DA2" d="M113.7 126a17 17 0 0 0-15.4 0c-4.2 2.4-4.2 6.4 0 8.9a17 17 0 0 0 15.4 0c4.2-2.5 4.2-6.4 0-8.9z"/><linearGradient id="n" gradientUnits="userSpaceOnUse" x1="86.1" y1="407.8" x2="125.9" y2="407.8" gradientTransform="matrix(1 0 0 -1 0 521)"><stop offset="0" stop-color="#c45b94"/><stop offset=".2" stop-color="#c55e96"/><stop offset=".5" stop-color="#c8669b"/><stop offset=".7" stop-color="#dd733e"/><stop offset=".9" stop-color="#e2895d"/><stop offset="1" stop-color="#e48f65"/></linearGradient><path opacity=".9" fill="url(#n)" d="M106 89.6a19.9 19.9 0 0 0-10.9 36.5v4.5c.1 1.6 1.3 3.2 3.3 4.3a17 17 0 0 0 15.3 0c2-1.2 3-2.7 3.1-4.3h.1v-4.5A19.9 19.9 0 0 0 106 89.6z"/><path fill="#FFF" d="M94.9 111.7a13 13 0 0 1 13-13c6.7 0 6.1-5.6-2.3-5.6-8.5 0-15.4 6.9-15.4 15.4 0 5.3 4.7 7.7 4.7 3.2z"/><path opacity=".5" fill="#8C93B9" d="M113.7 136.6a17 17 0 0 1-15.3 0c-2-1.1-3.2-2.7-3.3-4.2v1.5c.1 1.5 1.3 3 3.3 4.3a17 17 0 0 0 15.3 0c2-1.2 3-2.8 3.1-4.3h.1v-1.5c-.1 1.5-1.2 3-3.2 4.2z"/><path opacity=".5" fill="#8C93B9" d="M113.6 141a17 17 0 0 1-15.3 0c-1.2-.7-2-1.5-2.6-2.4l1.1 2.8c.4.4 1 .7 1.5 1a17 17 0 0 0 15.3 0l1.3-.8c.5-1 1-2 1.3-3-.5.8-1.3 1.7-2.6 2.4z"/><g opacity=".9"><linearGradient id="o" gradientUnits="userSpaceOnUse" x1="104.3" y1="440.9" x2="107.6" y2="440.9" gradientTransform="matrix(1 0 0 -1 0 521)"><stop offset="0" stop-color="#c45b94"/><stop offset=".2" stop-color="#c55e96"/><stop offset=".5" stop-color="#c8669b"/><stop offset=".7" stop-color="#dd733e"/><stop offset=".9" stop-color="#e2895d"/><stop offset="1" stop-color="#e48f65"/></linearGradient><path fill="url(#o)" d="M106 88c-1 0-1.7-.8-1.7-1.7V74c0-.9.8-1.6 1.7-1.6 1 0 1.6.7 1.6 1.6v12.4c0 1-.8 1.7-1.7 1.7z"/></g><g opacity=".9"><linearGradient id="p" gradientUnits="userSpaceOnUse" x1="116.2" y1="436.9" x2="125.7" y2="436.9" gradientTransform="matrix(1 0 0 -1 0 521)"><stop offset="0" stop-color="#c45b94"/><stop offset=".2" stop-color="#c55e96"/><stop offset=".5" stop-color="#c8669b"/><stop offset=".7" stop-color="#dd733e"/><stop offset=".9" stop-color="#e2895d"/><stop offset="1" stop-color="#e48f65"/></linearGradient><path fill="url(#p)" d="M117.8 91.1c-.2 0-.5 0-.8-.2-.8-.5-1-1.5-.6-2.2l6.3-10.8a1.6 1.6 0 1 1 2.8 1.7l-6.3 10.7c-.3.5-.8.8-1.4.8z"/></g><g opacity=".9"><linearGradient id="q" gradientUnits="userSpaceOnUse" x1="124.9" y1="425.9" x2="139" y2="425.9" gradientTransform="matrix(1 0 0 -1 0 521)"><stop offset="0" stop-color="#c45b94"/><stop offset=".2" stop-color="#c55e96"/><stop offset=".5" stop-color="#c8669b"/><stop offset=".7" stop-color="#dd733e"/><stop offset=".9" stop-color="#e2895d"/><stop offset="1" stop-color="#e48f65"/></linearGradient><path fill="url(#q)" d="M126.5 99.8a1.6 1.6 0 0 1-.8-3l10.8-6.2a1.6 1.6 0 0 1 1.6 2.8l-10.8 6.2-.8.2z"/></g><g opacity=".9"><linearGradient id="r" gradientUnits="userSpaceOnUse" x1="73.3" y1="426.2" x2="87.2" y2="426.2" gradientTransform="matrix(1 0 0 -1 0 521)"><stop offset="0" stop-color="#c45b94"/><stop offset=".2" stop-color="#c55e96"/><stop offset=".5" stop-color="#c8669b"/><stop offset=".7" stop-color="#dd733e"/><stop offset=".9" stop-color="#e2895d"/><stop offset="1" stop-color="#e48f65"/></linearGradient><path fill="url(#r)" d="M85.6 99.6c-.3 0-.6 0-.9-.2L74.1 93a1.6 1.6 0 1 1 1.6-2.8l10.7 6.4a1.6 1.6 0 0 1-.8 3z"/></g><g opacity=".9"><linearGradient id="s" gradientUnits="userSpaceOnUse" x1="86.7" y1="437" x2="96" y2="437" gradientTransform="matrix(1 0 0 -1 0 521)"><stop offset="0" stop-color="#c45b94"/><stop offset=".2" stop-color="#c55e96"/><stop offset=".5" stop-color="#c8669b"/><stop offset=".7" stop-color="#dd733e"/><stop offset=".9" stop-color="#e2895d"/><stop offset="1" stop-color="#e48f65"/></linearGradient><path fill="url(#s)" d="M94.3 91c-.5 0-1-.3-1.4-.8l-6-10.9a1.6 1.6 0 1 1 2.8-1.5l6 10.8a1.6 1.6 0 0 1-1.4 2.4z"/></g></g><g><linearGradient id="t" gradientUnits="userSpaceOnUse" x1="261.1" y1="316.6" x2="329.7" y2="316.6" gradientTransform="matrix(1 0 0 -1 0 521)"><stop offset="0" stop-color="#3f65e9"/><stop offset=".1" stop-color="#4568e8"/><stop offset=".7" stop-color="#6474e5"/><stop offset="1" stop-color="#6f79e4"/></linearGradient><path fill="url(#t)" d="M323.2 181.1c3.6 2.1 6.5 7.2 6.5 11.4v62.7c0 1.9-1.2 3.6-3 4.2l-4.3-1.4c-1 .4-2.5-1.8-3.5-2.3l-48-27.4c-3.6-2-8.2-8.6-8.2-8.6v-64c-2.4-.3-1.7-2.6-.5-3.3v-1.6a7.3 7.3 0 0 1 7.8-.4l53.2 30.7z"/><path fill="#404A8B" d="M321 182.3c3.5 2 6.5 7.1 6.5 11.3v62.5c0 4.2-3 5.9-6.6 3.8l-54.1-31.3c-3.6-2-6.5-7.2-6.5-11.3v-62.5c0-4.2 2.9-5.9 6.5-3.8l54.1 31.3z"/><linearGradient id="u" gradientUnits="userSpaceOnUse" x1="260.3" y1="342.5" x2="327.5" y2="342.5" gradientTransform="matrix(1 0 0 -1 0 521)"><stop offset="0" stop-color="#c45b94"/><stop offset=".3" stop-color="#c9689d"/><stop offset=".9" stop-color="#e2885b"/><stop offset="1" stop-color="#e48f65"/></linearGradient><path fill="url(#u)" d="M321 182.3L266.7 151c-3.6-2-6.5-.4-6.5 3.8v12.4l67.2 39.7v-13.3c0-4.2-3-9.3-6.6-11.3z"/><g fill="#FFF"><path d="M282.8 208.7c.6-.5 1-1.2 1-2a5 5 0 0 0-.9-2.6 6 6 0 0 0-2.1-2.1c-1.6-1-3.1-.7-4.5.8l-4.6-5.3a6.3 6.3 0 0 1 4-2c1.3 0 3.1.5 5.3 1.8 2.2 1.2 4.1 3 5.8 5.4 1.6 2.3 2.4 4.7 2.4 7 0 1.4-.3 2.4-1 3.2s-1.8 1.7-3.6 2.5l-4.6 2 10 5.8v5.1L272.2 218v-4.2l7.4-3.3a14 14 0 0 0 3.2-1.8zM310.2 214.8v4.8l-10-5.7v4.2a19.8 19.8 0 0 1 8.8 7c1.8 2.5 2.7 5 2.7 7.5s-.9 4-2.7 4.6c-1.8.5-4 0-6.7-1.5a24 24 0 0 1-8.6-8.7l3-2.4a43.4 43.4 0 0 0 2.8 3.6c1 1.1 2 2 2.9 2.5 1 .5 1.8.8 2.6.6.7-.1 1-.8 1-1.9 0-1.1-.3-2.2-1.1-3.3-.8-1.1-1.9-2-3.1-2.8a9.4 9.4 0 0 0-4.5-1.2l-2.3-3.8v-12.4l15.2 8.9z"/></g></g><g opacity=".2"><path d="M236.4 280.7l4-4.1c.2-.3.2-.7 0-1l-.7-.6a.7.7 0 0 0-1 0l-7 7.5-.2.2c-.2.4-.5.7-.6 1.1l-.5.5-12.3 14a3.8 3.8 0 0 1-4.3 1v-9.1c0-8.3-4-16-10.4-21l-.5-1.8c4.8-2 8.2-6.7 8.2-12.2v-8.4l.3-.3c2.4-2.2 3.7-4.5 1.2-7.4-3.7-4.4-12.4-3.1-17.3-1.5-6 1.9-13.4 4-14.4 11.3-.3 1.8-.1 3.6-.1 5.5 0 4.2-1 8.5-2.9 12.3-2.7 5.4-4 8.9-1.1 14.5l44.1 25.4c1.4-.7 2.6-1.6 3.6-2.8l9.8-11.1 1.6-1.8a5.1 5.1 0 0 0 .5-10.2z"/></g><g><path fill="#404A8B" d="M120.7 417.7l-3-.8c-4.7-1.4-9.9-.5-13.9 2.4l-3-2.3-3.2 7.2-15-1.3 3.3 13.4c.2.8.8 1.5 1.7 1.8l6.2 1.8a15 15 0 0 0 14.6-3.6l13.6-13c1.9-1.8 1.1-4.9-1.3-5.6z"/><path fill="#FFF" d="M120.7 417.7l-3-.8c-4.7-1.4-9.9-.5-13.9 2.4l-3-2.3-3.2 7.2-15-1.3 1.7 7c.8 3 3.1 5.5 6.1 6.4l2.7.7a15 15 0 0 0 14.6-3.5l13.6-13c.5-.5.8-1.1 1-1.7-.4-.5-1-.9-1.6-1z"/><path fill="#404A8B" d="M99.6 422.8c3.1-3 2.3-6.5-2-7.7-4.1-1.2-10 .3-13.2 3.3-3.1 3-2.3 6.4 1.9 7.6 4.1 1.2 10.1-.2 13.3-3.2zM141.5 436.8l-2.7-1.5a16.2 16.2 0 0 0-14-1l-2.5-3-4.7 6.3-14.3-4.8v13.7c0 1 .5 1.7 1.2 2.2l5.6 3.2a15 15 0 0 0 15 0l16.4-9.4a3.3 3.3 0 0 0 0-5.7z"/><path fill="#FFF" d="M141.5 436.8l-2.7-1.5a16.2 16.2 0 0 0-14-1l-2.5-3-4.7 6.3-14.3-4.8v7.1c0 3.2 1.7 6.1 4.4 7.7l2.4 1.4a15 15 0 0 0 15 0l16.4-9.4c.6-.3 1-.8 1.3-1.4-.3-.5-.7-1-1.3-1.4z"/><path fill="#404A8B" d="M119.8 436.7c3.7-2.2 3.7-5.7 0-7.9-3.8-2.2-10-2.2-13.7 0-3.8 2.2-3.8 5.7 0 7.9 3.7 2.1 9.9 2.1 13.7 0z"/><path fill="#ECAF91" d="M113 435.9a5 5 0 0 1-5-5v-19.1a5 5 0 0 1 9.9 0v19.1a5 5 0 0 1-5 5zM91.3 423.2a5 5 0 0 1-5-5v-19a5 5 0 0 1 10 0v19a5 5 0 0 1-5 5z"/><path fill="#FFF" d="M91.3 303.2c-2 0-3.8-1-4.9-2.9l-10.2-17.7a42.6 42.6 0 0 1 11-55l2.8-2.2a5.7 5.7 0 0 1 6.9 9l-2.8 2.2a31.2 31.2 0 0 0-8.1 40.3l10.2 17.8a5.7 5.7 0 0 1-4.9 8.5z"/><path fill="#3F65E9" d="M113.9 332l-28.2-17.8v-35.8h29z"/><path fill="#3F65E9" d="M113 430.3a7.8 7.8 0 0 1-7.8-8.4l4.2-51.3-6.4-67c-.3-4.2 5.1-8 9.4-8.2 4.3-.3 8 3 8.3 7.3l4.3 68-4.3 52.5c-.3 4-3.8 7.1-7.8 7.1z"/><path opacity=".2" fill="#ECAF91" d="M120.7 302.7a7.8 7.8 0 0 0-8.8-7.2c3.6.4 6.5 3.4 6.7 7.2l4.3 68-4.3 52.5a7.8 7.8 0 0 1-6.7 7l.4.1h.6c4 0 7.4-3 7.8-7.1l4.3-52.4-4.3-68.1z"/><path fill="#3F65E9" d="M91.3 420.1H91a7.8 7.8 0 0 1-7.5-8.1l2.1-46.8-2-74.8a7.8 7.8 0 0 1 7.5-8c4.3-.2 10 3.2 10.1 7.5v75.7l-2.1 47a7.8 7.8 0 0 1-7.8 7.5z"/><path opacity=".6" fill="#ECAF91" d="M86.4 300.3a5.7 5.7 0 1 0 9.8-5.6L86 276.9c-1.7-3-2.9-6-3.5-9.2 0 5.2-.3 10.3-1 15.4l-.7 7.5 5.6 9.7z"/><path fill="#FFF" d="M82 197.9l24.5 14a35 35 0 0 1 17.5 30.4V312c-10 7-36.6-2.7-42-13.6l1.6-15.3c.8-6 1.1-12.1 1-18.2l-2.6-67z"/><path fill="#F0C0A8" d="M99.8 213.2h-8.3V180h28.8v12.7c0 11.4-9.2 20.6-20.5 20.6z"/><path fill="#F0C0A8" d="M102.9 218.7h-3.5c-2.3 0-4.3-1.9-4.3-4.3v-19.8h12v19.8c0 2.4-1.9 4.3-4.2 4.3z"/><path opacity=".6" fill="#ECAF91" d="M124 257.6a5 5 0 0 1-3.2-4.1l-2.3-17.7a5.7 5.7 0 0 0-6.3-5c-3.1.5-4.3 3.6-4 6.7l1.4 17.4a16.3 16.3 0 0 0 14.4 14.3v-11.6z"/><path fill="#FFF" d="M126 266.2a16.3 16.3 0 0 1-16.4-14.4l-2.3-17.7a5.7 5.7 0 0 1 11.2-1.4l2.3 17.7a5 5 0 0 0 3.6 4.2 5 5 0 0 0 5.4-1.5l16.4-18.6a5.7 5.7 0 0 1 8.5 7.4l-16.4 18.7a16.3 16.3 0 0 1-12.3 5.6z"/><path fill="#F0C0A8" d="M143.5 237.5l2.7-3a5.7 5.7 0 0 1 8.5 7.4l-3.3 3.8-7.9-8.2z"/><circle fill="#F0C0A8" cx="153.2" cy="236.5" r="6.9"/><path fill="#F0C0A8" d="M159.4 224.3L150 234a1 1 0 0 1-1.5 0l-.6-.5a1 1 0 0 1 0-1.6l9.2-9.7a1 1 0 0 1 1.5 0l.6.6a1 1 0 0 1 0 1.5z"/><path fill="#303768" d="M122.4 174.1c-5-5.9-16.6-4.1-23-2-8 2.5-18 5.4-19.4 15-.4 2.5-.1 5-.1 7.4 0 5.7-1.3 11.4-3.8 16.4-3.6 7.3-5.4 12-1.5 19.5 2.2 4.4 3.7 11.4 8.3 14 4.8 3 14.8 4.7 19.4 1.2 6.4-4.8 9.6-16.5 9-24-.7-8-4.7-16.2-2.2-24 1.5-4.8 8-10.2 11.7-13.6 3.2-3 4.9-6 1.6-9.9z"/><g opacity=".2"><path fill="#ECAF91" d="M122.4 174.1c-3-3.5-8.1-4.2-13.2-4 3.8.3 7.4 1.4 9.6 4 3.3 4 1.6 6.9-1.6 10-3.7 3.3-10.2 8.7-11.8 13.6-2.4 7.7 1.6 15.9 2.3 24 .5 7.4-2.7 19.1-9 24a11 11 0 0 1-5.7 1.7c3.6.3 7-.1 9.3-1.8 6.4-4.8 9.6-16.5 9-24-.7-8-4.7-16.2-2.2-24 1.5-4.8 8-10.2 11.7-13.6 3.2-3 4.9-6 1.6-9.9z"/></g></g></svg>