<svg xmlns="http://www.w3.org/2000/svg" xmlns:svgjs="http://svgjs.com/svgjs" xmlns:xlink="http://www.w3.org/1999/xlink" width="288" height="288"><svg xmlns="http://www.w3.org/2000/svg" width="288" height="288" baseProfile="basic" viewBox="0 0 560 520"><linearGradient id="a" x1="-555.4" x2="-116.8" y1="230.8" y2="230.8" gradientTransform="matrix(-.5535 0 0 1 92.7 0)" gradientUnits="userSpaceOnUse"><stop class="stopColor3f65e9 svgShape" offset="0" stop-color="#3f65e9"/><stop class="stopColor4568e8 svgShape" offset=".1" stop-color="#4568e8"/><stop class="stopColor6474e5 svgShape" offset=".7" stop-color="#6474e5"/><stop class="stopColor6f79e4 svgShape" offset="1" stop-color="#6f79e4"/></linearGradient><path fill="url(#a)" d="M400.1 18.5l-2.2-7.3-.7-3.7-3.8-1.8a6.8 6.8 0 0 0-6 .2L169 119.6a23 23 0 0 0-11.7 18.2v315.4a3 3 0 0 0 2.1 2.8l1.2.5L400.1 332V18.5z"/><path fill="#404a8b" d="M400.1 14c0-6.7-5.2-9.4-11.6-6.1L172.3 120.2a23 23 0 0 0-11.7 18.2v318L400.1 332V14z" class="color404A8B svgShape"/><path fill="#303768" d="M172.3 120.2L388.5 7.9c6.4-3.3 11.6-.6 11.6 6v29.4L160.6 167.7v-29.3a23 23 0 0 1 11.7-18.2z" class="color303768 svgShape"/><path fill="#e96ab2" d="M377.3 32c2.5-1.2 4.4-.1 4.4 2.4s-2 5.6-4.4 6.8c-2.4 1.3-4.4.2-4.4-2.3s2-5.6 4.4-6.8zM355.8 43.5c2.4-1.3 4.4-.3 4.4 2.2 0 2.6-2 5.6-4.4 6.9-2.4 1.2-4.4.2-4.4-2.3s2-5.6 4.4-6.8zM334.3 54.8c2.4-1.2 4.4-.2 4.4 2.3s-2 5.6-4.4 6.9c-2.4 1.2-4.4.2-4.4-2.3s2-5.6 4.4-6.9z" class="colorE96AB2 svgShape"/><linearGradient id="b" x1="-664.2" x2="-363.6" y1="127.4" y2="127.4" gradientTransform="matrix(-.5535 0 0 1 92.7 0)" gradientUnits="userSpaceOnUse"><stop class="stopColor3f65e9 svgShape" offset="0" stop-color="#3f65e9"/><stop class="stopColor4568e8 svgShape" offset=".1" stop-color="#4568e8"/><stop class="stopColor6474e5 svgShape" offset=".7" stop-color="#6474e5"/><stop class="stopColor6f79e4 svgShape" offset="1" stop-color="#6f79e4"/></linearGradient><path fill="url(#b)" d="M298.2 113.5l156.7-82c1.1-.7 2.6-.4 3.4.5l1.5 1.8.6 101c0 2.8-1.7 5.4-4.3 6.8l-157.7 82.1-2.6-1.2a3.1 3.1 0 0 1-1.9-2.8v-99.5c0-2.8 1.7-5.3 4.3-6.7z"/><path fill="#303768" d="M300.6 114.3L456 33.1c2-1 4.4.2 4.4 2.3v100c0 2.8-1.7 5.4-4.3 6.7l-155.4 81.3c-2 1-4.4-.3-4.4-2.3V121c0-2.8 1.6-5.4 4.3-6.8z" class="color303768 svgShape"/><linearGradient id="c" x1="-674" x2="-352.9" y1="134.9" y2="134.9" gradientTransform="matrix(-.5535 0 0 1 92.7 0)" gradientUnits="userSpaceOnUse"><stop class="stopColored956e svgShape" offset="0" stop-color="#1ea9e6"/><stop class="stopColorec8f77 svgShape" offset=".1" stop-color="#4300ff"/><stop class="stopColorea74a2 svgShape" offset=".7" stop-color="#0676ff"/><stop class="stopColore96ab2 svgShape" offset="1" stop-color="#8f3cff"/></linearGradient><path fill="url(#c)" d="M337 155.7h1.3c7.3-.8 12-7 14.5-12.1 1-2 1.8-4 2.6-5.9a33.6 33.6 0 0 1 8.8-14c6.8-5.5 16-.8 18.6.8l2 1.2c5.6 3.4 11.9 7.2 19 6.4 5.8-.7 10.1-4.3 14.3-7.9 3.2-2.7 6.6-5.6 10.6-6.8a22 22 0 0 1 16 1.9c2 1 4.1 2.7 6.4 4.5 4 3 8.5 6.6 13.7 8.3l1-2.5c-4.8-1.5-9-4.8-12.8-7.8-2.4-1.9-4.7-3.7-6.9-4.8a25 25 0 0 0-18.3-2c-4.6 1.4-8.2 4.4-11.7 7.4-4 3.3-7.8 6.6-12.7 7.1-6 .7-11.6-2.6-17-6-.7-.3-1.3-.8-2-1.2-8.3-4.9-16.5-5-22.1-.5a36 36 0 0 0-9.6 15c-.8 2-1.6 3.9-2.5 5.7-2.3 4.5-6.2 10-12.2 10.6-4.6.5-8.2-2.2-12-5a26.7 26.7 0 0 0-22.4-6.2c-2.4.4-4.7 1.6-6.8 2.6-2.8 1.4-5.5 2.8-8.4 2.4l-.4 2.6c3.8.5 7-1.2 10.2-2.7 2-1 4-2 6-2.4a23.6 23.6 0 0 1 20 5.7c3.6 2.6 7.6 5.6 12.7 5.6z"/><linearGradient id="d" x1="-318.4" x2="-21.5" y1="223.3" y2="223.3" gradientTransform="matrix(-.5535 0 0 1 92.7 0)" gradientUnits="userSpaceOnUse"><stop class="stopColor3f65e9 svgShape" offset="0" stop-color="#3f65e9"/><stop class="stopColor4568e8 svgShape" offset=".1" stop-color="#4568e8"/><stop class="stopColor6474e5 svgShape" offset=".7" stop-color="#6474e5"/><stop class="stopColor6f79e4 svgShape" offset="1" stop-color="#6f79e4"/></linearGradient><path fill="url(#d)" d="M108.8 209.3l156.3-80.8a2 2 0 0 1 2 .1l1.8 1.2-1.4 101c0 2.7-3.4 5-6 6.3l-153.6 81.3-.9-.4a4 4 0 0 1-2.5-3.5V216c0-2.7 1.7-5.3 4.3-6.7z"/><path fill="#303768" d="M110.7 209.8l154.8-80.3c2-1 4.4.2 4.4 2.3v99c0 2.8-1.6 5.3-4.3 6.7l-154.8 81c-2 1-4.3-.3-4.3-2.4v-99.6c0-2.8 1.6-5.3 4.2-6.7z" class="color303768 svgShape"/><linearGradient id="e" x1="-302.7" x2="-38.8" y1="209.2" y2="209.2" gradientTransform="matrix(-.5535 0 0 1 92.7 0)" gradientUnits="userSpaceOnUse"><stop class="stopColored956e svgShape" offset="0" stop-color="#1ea9e6"/><stop class="stopColorec8f78 svgShape" offset=".2" stop-color="#218ef9"/><stop class="stopColoreb7e92 svgShape" offset=".6" stop-color="#3c7bff"/><stop class="stopColore96ab2 svgShape" offset="1" stop-color="#8f3cff"/></linearGradient><path fill="url(#e)" d="M114.1 248.2l146-75 .1-2.9-146 75z"/><path fill="#666ea2" d="M229 173.7l28-14.3V155l-28 14.3z" class="color666EA2 svgShape"/><linearGradient id="f" x1="-303.2" x2="-39.3" y1="222" y2="222" gradientTransform="matrix(-.5535 0 0 1 92.7 0)" gradientUnits="userSpaceOnUse"><stop class="stopColored956e svgShape" offset="0" stop-color="#1ea9e6"/><stop class="stopColorec8f78 svgShape" offset=".2" stop-color="#218ef9"/><stop class="stopColoreb7e92 svgShape" offset=".6" stop-color="#3c7bff"/><stop class="stopColore96ab2 svgShape" offset="1" stop-color="#8f3cff"/></linearGradient><path fill="url(#f)" d="M114.4 261l146-75 .1-3-146 75z"/><linearGradient id="g" x1="-303.8" x2="-39.9" y1="234.8" y2="234.8" gradientTransform="matrix(-.5535 0 0 1 92.7 0)" gradientUnits="userSpaceOnUse"><stop class="stopColored956e svgShape" offset="0" stop-color="#1ea9e6"/><stop class="stopColorec8f78 svgShape" offset=".2" stop-color="#218ef9"/><stop class="stopColoreb7e92 svgShape" offset=".6" stop-color="#3c7bff"/><stop class="stopColore96ab2 svgShape" offset="1" stop-color="#8f3cff"/></linearGradient><path fill="url(#g)" d="M114.7 273.7l146-75 .1-2.9-146 75z"/><linearGradient id="h" x1="-304.3" x2="-40.4" y1="247.5" y2="247.5" gradientTransform="matrix(-.5535 0 0 1 92.7 0)" gradientUnits="userSpaceOnUse"><stop class="stopColored956e svgShape" offset="0" stop-color="#1ea9e6"/><stop class="stopColorec8f78 svgShape" offset=".2" stop-color="#218ef9"/><stop class="stopColoreb7e92 svgShape" offset=".6" stop-color="#3c7bff"/><stop class="stopColore96ab2 svgShape" offset="1" stop-color="#8f3cff"/></linearGradient><path fill="url(#h)" d="M115 286.5l146-75 .1-2.9-146 75z"/><linearGradient id="i" x1="-521.5" x2="-182.9" y1="316.3" y2="316.3" gradientTransform="matrix(-.5535 0 0 1 92.7 0)" gradientUnits="userSpaceOnUse"><stop class="stopColor3f65e9 svgShape" offset="0" stop-color="#3f65e9"/><stop class="stopColor4568e8 svgShape" offset=".1" stop-color="#4568e8"/><stop class="stopColor6474e5 svgShape" offset=".7" stop-color="#6474e5"/><stop class="stopColor6f79e4 svgShape" offset="1" stop-color="#6f79e4"/></linearGradient><path fill="url(#i)" d="M198.8 299.9l176.6-91.5c1.6-.9 3.6-.6 4.8.7l1.1 1.2-.8 111.4c0 3.1.2 5.8-2.8 7.4L200 424.7h-1.1c-2.7 0-4.9-2-4.9-4.4V307.5c0-3.2 1.9-6 4.9-7.6z"/><path fill="#303768" d="M201.5 301l175.8-91.2c2.2-1.2 5 .2 5 2.5v112.5c0 3.1-1.9 6-4.9 7.6l-175.7 91.9c-2.2 1.1-5-.3-5-2.6V308.5c0-3.1 1.8-6 4.8-7.6z" class="color303768 svgShape"/><path fill="#666ea2" d="M338.3 258.6l33-17.2V238l-33 17.2zM338.3 267.1l33-17.2v-3.3l-33 17.2zM353.2 268l18.1-9.5v-3.3l-18.1 9.4z" class="color666EA2 svgShape"/><linearGradient id="j" x1="-509.5" x2="-229.8" y1="241.9" y2="411" gradientTransform="matrix(-.5535 0 0 1 92.7 0)" gradientUnits="userSpaceOnUse"><stop class="stopColored956e svgShape" offset="0" stop-color="#1ea9e6"/><stop class="stopColorec8f78 svgShape" offset=".2" stop-color="#218ef9"/><stop class="stopColoreb7e92 svgShape" offset=".6" stop-color="#3c7bff"/><stop class="stopColore96ab2 svgShape" offset="1" stop-color="#8f3cff"/></linearGradient><path fill="url(#j)" d="M197.4 343.5c2-4 5.2-10.2 11-10.8 6.4-.6 12.5 6 15 10.6 3 5 9.4 13.8 17 11.8 7.7-2 8.4-12 8.7-17.8.6-11.5 1-32.5 17.8-34.5 16-2 22 11.7 28.5 22 4.7 7.6 14.5 17.2 25.3 13.2 7.7-2.7 11.9-10 15.5-16.3 7-11.9 14.6-25 31-14.9 1.4.9 9.3 6.5 15 12v6c0 3.1-1.8 6-4.8 7.6l-175.7 91.9c-2.2 1.1-5-.3-5-2.6V345l.7-1.5z"/><path fill="#231f20" d="M293 251v19.6c0 1.9-1.2 3.6-3 4.5l-26 13.5-3 10.2c-.5 1.5-2.3 2.2-3.9 1.5l-8.1-3.7-24 12.7c-2.1 1.2-4.9-.2-4.9-2.5v-18l72.8-37.7z" class="color231F20 svgShape" opacity=".3"/><path fill="#202546" d="M266.5 390.4l-.7.3V295l.7-.1v95.5z" class="color202546 svgShape"/><linearGradient id="k" x1="-371.8" x2="-239.1" y1="266.7" y2="266.7" gradientTransform="matrix(-.5535 0 0 1 92.7 0)" gradientUnits="userSpaceOnUse"><stop class="stopColor3f65e9 svgShape" offset="0" stop-color="#3f65e9"/><stop class="stopColor4568e8 svgShape" offset=".1" stop-color="#4568e8"/><stop class="stopColor6474e5 svgShape" offset=".7" stop-color="#6474e5"/><stop class="stopColor6f79e4 svgShape" offset="1" stop-color="#6f79e4"/></linearGradient><path fill="url(#k)" d="M227.9 265l66.3-34.3c.9-.4 2-.3 2.7.3l1.6 1.2-.6 31c0 1.9-3.2 3.8-5 4.7l-25.2 13.8L229 303l-2.6-1a2.2 2.2 0 0 1-1.4-2v-30.6c0-1.8 1.1-3.5 2.9-4.5z"/><path fill="#404a8b" d="M299.3 234.2V264c0 1.8-1 3.5-2.9 4.5l-26 13.5-3 10.1c-.5 1.5-2.3 2.3-3.9 1.6l-8.1-3.8-24 12.8c-2.2 1.1-4.9-.3-4.9-2.5v-30.3c0-1.8 1.1-3.5 2.9-4.4l65-33.8c2.2-1.2 5 .2 5 2.5z" class="color404A8B svgShape"/><path fill="#e96ab2" d="M245.2 280.8l-2.5-2.7-3.4 1.5-1.7-1.8 3.4-1.6-2.5-2.6 2.7-1.3 2.5 2.7 3.4-1.5 1.7 1.8-3.4 1.6 2.4 2.6-2.6 1.3zM254.6 269.7c0-.6-.2-1-.5-1.3-.3-.4-.7-.6-1.2-.7-.5-.1-1 0-1.5.2-.8.4-1.2 1.2-1.1 2.5h-3.5c0-1 .1-2 .5-2.7.4-.7 1.2-1.4 2.4-1.9s2.5-.7 3.9-.6c1.4.2 2.5.8 3.4 1.8.5.5.8 1.1 1 1.8 0 .6 0 1.6-.3 2.8l-.6 3 5.3-2.4 2 2-9.6 4.5-1.6-1.8 1-5c.3-1 .4-1.7.4-2.2zM265.6 258.8l1.8 2-5.3 2.5 1.6 1.8c.3-.3.7-.6 1.2-.8 1.4-.6 2.8-.8 4.3-.6 1.5.1 2.7.7 3.6 1.8 1 1 1.3 2 1 3.2-.4 1.1-1.3 2-2.8 2.7-1.8.8-3.8 1-6 .5v-2.4a12 12 0 0 0 2.3.1c.7 0 1.4-.1 1.9-.4a2 2 0 0 0 1-1c.2-.4 0-.8-.4-1.3s-1-.7-1.6-.8c-.7 0-1.3 0-2 .4s-1.3.9-1.9 1.7l-2.2-.5-4.7-5.1 8.2-3.8zM275.8 256.6c-.8.4-1.3 1-1.3 1.6-.1.6.2 1.4.7 2.2.5-.9 1.2-1.5 2.1-1.9a6.7 6.7 0 0 1 7.7 1.5c1 1 1.3 2 1 3.1s-1.2 2-2.6 2.6c-1 .4-1.9.7-2.9.7s-1.8-.1-2.7-.4a12 12 0 0 1-6.4-6c-.4-.8-.5-1.6-.3-2.2.2-1.3 1.1-2.3 2.6-3a10 10 0 0 1 5.3-.7l.1 2.3-.6-.1h-1.2c-.6 0-1 .2-1.5.3zm3 4c-.5.3-.9.6-1 1.1-.2.5 0 1 .3 1.4.4.4 1 .7 1.6.8a3 3 0 0 0 2-.2c.5-.3.9-.6 1-1 .1-.5 0-1-.4-1.4a3 3 0 0 0-3.4-.7z" class="colorE96AB2 svgShape"/><g class="color000 svgShape"><path fill="#f2b1b5" d="M405 263.6a14 14 0 0 0 11.8-6l8-11.8c1.6-2.4.7-5.5-2-7a6 6 0 0 0-7.6 1.8l-8 11.8c-.7 1.1-1.8 1.2-2.4 1.1-.6 0-1.7-.3-2.2-1.5l-9.6-25.6c-1-2.7-4.2-4.1-7.1-3.2-3 .9-4.5 3.8-3.6 6.4l9.7 25.6a13.4 13.4 0 0 0 13 8.4z" class="colorF2B1B5 svgShape"/><path fill="#303768" d="M351.5 403.3v5.3c0 2 1.7 3.8 4 4.2h1c2.9.5 5.8 0 8.4-1.4l30.4-16.8-.2-7.9-35.2 21-8.4-4.4z" class="color303768 svgShape"/><path fill="#3f65e9" d="M373.8 378.8l-3 10.3-16 9.3a5.9 5.9 0 0 0 .2 10.6c2 1.1 4.7 1.1 6.8 0l33.4-18.8v-6.7c0-2.6-2.4-4.7-5.3-4.7h-16.1z" class="color3F65E9 svgShape"/><path fill="#ef9ea3" d="M354.9 398.4l15.9-9.3 3-10.3h16c1.9 0 3.5.8 4.4 2-.8-.5-1.9-.8-3-.8H375l-3 10.3-15.9 9.3c-3.7 2-4.3 6.2-2 9a5.8 5.8 0 0 1 .7-10.2z" class="colorEF9EA3 svgShape" opacity=".1"/><path fill="#303768" d="M510.3 368.8l5.2 1.2c3.4-.2 6-2.7 6-5.7l1.1-5.8c0-.5-.1-1-.3-1.4l-12.6-22a3 3 0 0 0-2.5-1.5l-7-.3 16 25.8-1 3.3-5 6.4z" class="color303768 svgShape"/><path fill="#3f65e9" d="M489.8 351.9l11.2 3.4 5.2 6.5c-1 2.4 0 5.1 2.5 6.4l4.5 2.4 2.9-.6c1.4-1.8 1.7-7.1 1.7-7.1l1-4.2-14.8-25.2-6.4-.4c-3.5-.2-6.4 2.1-6.7 5.2l-1 13.6z" class="color3F65E9 svgShape"/><path fill="#303768" d="M383.6 385.1c5.5 0 10-4 10-9l.9-41.6c0-1 .5-1.8 1.4-2.4l39.8-16.4c4.7-2.7-4.2-12.3-7.2-16.5-3-4.3-9.2-5.6-13.9-3l-30.2 17a20.5 20.5 0 0 0-11 17.9v45c0 5 4.6 9 10.2 9z" class="color303768 svgShape"/><path fill="#ef9ea3" d="M384.4 313.3l30.2-17c2-1.2 4.4-1.5 6.6-1.3-1.4.2-2.7.6-4 1.3l-30.1 17a20.5 20.5 0 0 0-11 17.8v45c0 4.5 3.9 8.3 8.8 8.9l-1.3.1c-5.6 0-10.1-4-10.1-9v-45c0-7.3 4-14 11-17.8z" class="colorEF9EA3 svgShape" opacity=".1"/><path fill="#303768" d="M462.3 379.2c3.6 0 7.2-.9 10.5-2.6l28.6-25.8c4.8-2.5 6.5-8 3.7-12.4-2.8-4.3-9-5.8-13.8-3.3l-26.2 24-1 1.1.1-2.1-2.8-41.1c0-5-4.6-9.1-10.1-9.1-5.6 0-14.4 1.2-14.4 6.2l4.3 46c0 7 4 13 10.5 16.5a23 23 0 0 0 10.6 2.6zM454 194c0 3.5-3.1 6.4-7 6.4-4 0-7.1-2.9-7.1-6.4 0-3.5 3.1-6.4 7-6.4 4 0 7.2 2.9 7.2 6.4z" class="color303768 svgShape"/><ellipse cx="445.3" cy="202.2" fill="#303768" class="color303768 svgShape" rx="7.1" ry="6.4"/><path fill="#303768" d="M417 188.7l.6 16.2c0 5.2 2.5 9.1 7.6 11.7 11 5.5 24.8-1.4 24.8-12.4v-15.5c0-5.1-3.2-9.9-8.3-12.4-11-5.6-24.8 1.3-24.8 12.4zM412.9 235.6v64.2c0 3.6 2.1 7 5.6 8.8l36.5 19c3.8 1.9 8.5-.5 8.5-4.4v-64.3c0-3.6-2.2-7-5.7-8.8l-36.5-19c-3.7-1.9-8.4.6-8.4 4.5z" class="color303768 svgShape"/><path fill="#3f65e9" d="M410.5 230.2v51.6c0 7 4.2 13.5 11 17l23.9 12.5c8.9 4.6 20-1.2 20-10.4v-58.4c0-4-2.4-7.6-6.1-9.5l-27.1-14.1c-9.6-5-21.7 1.3-21.7 11.3z" class="color3F65E9 svgShape"/><path fill="#ef9ea3" d="M426.4 217.2c-7 .6-13.2 5.8-13.2 13v51.6c0 7 4.1 13.5 10.9 17l24 12.5c1.6.8 3.4 1.3 5.2 1.5-2.6.2-5.4-.2-8-1.5l-23.9-12.5a19.4 19.4 0 0 1-10.9-17v-51.6c0-8.1 7.8-13.7 16-13z" class="colorEF9EA3 svgShape" opacity=".1"/><path fill="#f2b1b5" d="M438 234.7c-3.2 0-5.9-2.4-6-5.3l-.1-17.2c0-3 2.6-5.4 5.9-5.4 3.3 0 6 2.3 6 5.3l.2 17.2c0 3-2.6 5.4-5.9 5.4z" class="colorF2B1B5 svgShape"/><path fill="#231f20" d="M443.8 222.4V212c0-3-2.7-5.3-6-5.3s-6 2.4-6 5.4l.2 11.7c2 .5 4-.8 6-.8l5.8-.7z" class="color231F20 svgShape" opacity=".3"/><path fill="#f2b1b5" d="M443.8 222.4h-13.3c-7.5 0-13.6-5.5-13.6-12.2v-20.3h14.9c6.6 0 12 4.9 12 10.8v21.7z" class="colorF2B1B5 svgShape"/><path fill="#f2b1b5" d="M447 198.6c0 1.6-1.4 2.8-3.2 2.8-1.7 0-3.1-1.2-3.1-2.8 0-1.6 1.4-2.8 3.1-2.8 1.8 0 3.2 1.2 3.2 2.8z" class="colorF2B1B5 svgShape"/><path fill="#303768" d="M441.3 202.2h-2.2c-.6 0-1.1-.5-1.1-1v-14.3c0-.6.5-1 1.1-1h2.2c.7 0 1.2.4 1.2 1V201c0 .6-.5 1-1.2 1zM425 187.6c0 2.5-2.2 4.6-5 4.6-2.9 0-5.1-2-5.1-4.6 0-2.5 2.2-4.6 5-4.6 2.9 0 5.2 2 5.2 4.6zM435.5 186.6c0 2.5-2.3 4.6-5.1 4.6s-5.1-2-5.1-4.6c0-2.6 2.3-4.6 5-4.6 3 0 5.2 2 5.2 4.6z" class="color303768 svgShape"/><ellipse cx="437.9" cy="188.4" fill="#303768" class="color303768 svgShape" rx="5.1" ry="4.6"/><path fill="#303768" d="M427 182c0 3.5-3.1 6.4-7 6.4-4 0-7.1-3-7.1-6.4 0-3.6 3.1-6.4 7-6.4 4 0 7.2 2.8 7.2 6.4z" class="color303768 svgShape"/><path fill="#303768" d="M437.5 179.4c0 3.5-3.2 6.4-7.1 6.4-4 0-7.1-2.9-7.1-6.4 0-3.5 3.2-6.4 7-6.4 4 0 7.2 2.9 7.2 6.4z" class="color303768 svgShape"/><ellipse cx="438.2" cy="179.4" fill="#303768" class="color303768 svgShape" rx="7.1" ry="6.4"/><ellipse cx="445.3" cy="185.8" fill="#303768" class="color303768 svgShape" rx="7.1" ry="6.4"/><path fill="#f2b1b5" d="M380.5 296.4h.8l37.3-4.6a37 37 0 0 0 31.8-26l5-19c.8-2.7-1-5.5-4-6.1-3.1-.7-6.1 1-6.8 3.7l-5 19.1a26 26 0 0 1-22.5 18.3l-37.3 4.6c-3.1.4-5.3 3-4.8 5.7.3 2.5 2.8 4.3 5.5 4.3z" class="colorF2B1B5 svgShape"/><path fill="#3f65e9" d="M443.7 274.6c3 0 5.7-1.9 6.5-4.6l6.3-23c1-3.2-1.3-6.5-4.9-7.3-3.6-.8-7.2 1.2-8.1 4.4l-6.4 23c-.9 3.2 1.3 6.5 5 7.3l1.6.2z" class="color3F65E9 svgShape"/><path fill="#f2b1b5" d="M367.2 292c0 3.8 3.4 7 7.7 7 4.3 0 7.8-3.2 7.8-7 0-3.9-3.5-7-7.8-7s-7.7 3.1-7.7 7z" class="colorF2B1B5 svgShape"/><ellipse cx="389.6" cy="226.9" fill="#f2b1b5" class="colorF2B1B5 svgShape" rx="7.8" ry="7"/></g><g class="color000 svgShape"><path fill="#404a8b" d="M79.4 482l-17.2 4.2-9.9 5.6a3.5 3.5 0 0 0-1.8 3V512l5.3 2.7c2 1 4.4 1 6.4 0L92 499.2a6.6 6.6 0 0 0 3.7-5.8c0-7.7-8.1-13.3-16.4-11.3z" class="color404A8B svgShape"/><path fill="#202546" d="M62.2 510.3L92 494.7a6.9 6.9 0 0 0 3.4-3.9c.2.9.3 1.7.3 2.6 0 2.4-1.4 4.6-3.7 5.8l-30 15.5a7 7 0 0 1-6.3 0l-5.3-2.7v-4.5l5.3 2.8c2 1 4.4 1 6.4 0zM52.3 491.8l9.9-5.6 6.5-1.5v10.6c0 3.5-4 6.4-8.7 6.4-4.8 0-8.7-2.9-8.7-6.4v-2.6c.3-.3.6-.7 1-.9z" class="color202546 svgShape"/><path fill="#404a8b" d="M54 460.4l-17.2 4.1-9.8 5.6a3.5 3.5 0 0 0-1.9 3v17.2l5.3 2.7c2 1 4.5 1 6.4 0l30-15.5a6.6 6.6 0 0 0 3.7-5.8c0-7.7-8.2-13.3-16.4-11.3z" class="color404A8B svgShape"/><path fill="#202546" d="M36.8 488.5l30-15.5a6.8 6.8 0 0 0 3.3-3.9c.2.8.4 1.7.4 2.6 0 2.4-1.5 4.6-3.8 5.8L36.8 493a7 7 0 0 1-6.4 0l-5.3-2.7v-4.5l5.3 2.7c2 1 4.5 1 6.4 0zM27 470l9.8-5.5 6.5-1.6v10.7c0 3.5-3.9 6.4-8.7 6.4-4.8 0-8.7-2.9-8.7-6.4V471l1.1-1z" class="color202546 svgShape"/><path fill="#f2b1b5" d="M59.8 499.5c3.5 0 6.4-2.6 6.4-5.8v-71.3c0-3.2-2.9-5.8-6.4-5.8s-6.4 2.6-6.4 5.8v71.3c0 3.2 2.8 5.8 6.4 5.8zM34.8 477.6c3.5 0 6.4-2.6 6.4-5.8v-64.6c0-3.2-2.9-5.8-6.4-5.8-3.6 0-6.5 2.6-6.5 5.8v64.6c0 3.2 3 5.8 6.5 5.8z" class="colorF2B1B5 svgShape"/><path fill="#ef9ea3" d="M67.7 295.4H69a41 41 0 0 0 31-14.8l3.6-4.5c2-2.6 1.4-6.2-1.4-8a6.9 6.9 0 0 0-9 1.2l-3.6 4.5c-5 6.1-12.6 9.8-21 10-8.4.2-16.3-3-21.7-8.8l-14.4-15.6a7 7 0 0 0-9-.7 5.4 5.4 0 0 0-.9 8.1L37 282.4c7.7 8.3 18.8 13 30.7 13z" class="colorEF9EA3 svgShape"/><path fill="#303768" d="M60.4 256.8l-14.3-8.2c-10.4-6-23.9 1.2-23.1 12.3l4.3 59.6.2 17.4 35.4 12 2-10 2-41.7 7.3-8.6-6-19.2c.3-5.5-2.7-10.6-7.8-13.6z" class="color303768 svgShape"/><path fill="#ef9ea3" d="M58 340l2-38.5c0-2.2.9-4.2 2.4-6l1.5-1.7c2.2-2.7 3-6.1 2-9.4l-4.4-14c.2-5.5-2.7-10.6-7.8-13.6l-14.4-8.2a16 16 0 0 0-4.7-1.8c3.7-.7 7.8-.3 11.5 1.8l14.3 8.2c5.1 3 8.1 8.1 7.8 13.6l6 19.2-7.3 8.6-2 41.8-2 9.9-6.4-2.2 1.6-7.7z" class="colorEF9EA3 svgShape" opacity=".1"/><path fill="#231f20" d="M59.8 416.6c3.5 0 6.4 2.6 6.4 5.8v13.5a34 34 0 0 1-12.8-1.5v-12c0-3.2 2.8-5.8 6.4-5.8zM28.3 417.6v-10.4c0-3.2 3-5.8 6.5-5.8s6.4 2.6 6.4 5.8v18.5c-4-3-8.3-5.8-12.9-8z" class="color231F20 svgShape" opacity=".3"/><path fill="#303768" d="M64.8 343.6c3.1 1.2 5.4 19.7 5.7 22.2 1.2 12 0 28.6.6 40.5.3 6 3.2 17.5.7 23-2.1 4.7-13.7 3-18.9 1.2-3.5-1.2-6.2-3.8-9-6.2a76 76 0 0 0-20.2-12.5c-3.1-1.3-5.1-3.3-7.8-5l-1.7-24.4a71.8 71.8 0 0 1 6-34.2c1.4-3.3 2.7-6.7 3.6-10.2l2.6-9.3 38.4 14.9z" class="color303768 svgShape"/><path fill="#ef9ea3" d="M63.7 428c2.4-5.5-.5-16.9-.7-22.9-.6-12 .5-28.6-.7-40.5-.2-2.5-2.5-21-5.6-22.2l-30.8-12 .5-1.7 38.4 14.9c3.1 1.2 5.4 19.7 5.7 22.2 1.2 12 0 28.6.6 40.5.3 6 3.2 17.5.7 23-1.9 4.2-11.3 3.3-17 1.8 4 .1 7.8-.6 8.9-3z" class="colorEF9EA3 svgShape" opacity=".1"/><path fill="#404a8b" d="M64.8 335v8.6c-10 1-34.2-7.1-38.4-15l.9-8.1c6.1 10.6 32.6 16.4 37.5 14.4z" class="color404A8B svgShape"/><path fill="#f2b1b5" d="M88.8 295.4c11.8 0 23-4.7 30.6-13l14.4-15.6a5.4 5.4 0 0 0-.8-8 7 7 0 0 0-9 .6l-14.5 15.7c-5.4 5.8-13.3 9-21.7 8.7-8.4-.2-16-3.9-21-10l-3.6-4.5a6.9 6.9 0 0 0-9-1.2c-2.8 1.8-3.4 5.5-1.4 8l3.7 4.5a41 41 0 0 0 32.3 14.8z" class="colorF2B1B5 svgShape"/><path fill="#2c8ef1" d="M44.9 266c3.5 0 6.4-2.6 6.4-5.8V241c0-3.2-2.9-5.8-6.4-5.8-3.6 0-6.4 2.6-6.4 5.8v19.3c0 3.2 2.8 5.8 6.4 5.8z" class="colorE449A1 svgShape"/><path fill="#f2b1b5" d="M51.2 254.4h-8.6v-36.2h29.7v17.2c0 10.5-9.4 19-21.1 19z" class="colorF2B1B5 svgShape"/><linearGradient id="l" x1="31.8" x2="148.2" y1="254.4" y2="254.4" gradientTransform="matrix(-.5535 0 0 1 92.7 0)" gradientUnits="userSpaceOnUse"><stop class="stopColored956e svgShape" offset="0" stop-color="#1ea9e6"/><stop class="stopColorec8f78 svgShape" offset=".2" stop-color="#218ef9"/><stop class="stopColoreb7e92 svgShape" offset=".6" stop-color="#3c7bff"/><stop class="stopColore96ab2 svgShape" offset="1" stop-color="#8f3cff"/></linearGradient><path fill="url(#l)" d="M11.2 281.7c.8-2 2.4-3.9 3.3-6 2.4-5.4-.7-11.2 1-16.7 1.5-5.5 5.4-10.2 7.7-15.5 2.5-5.9 4.6-12 7-18A19.1 19.1 0 0 1 44 213.3a81.4 81.4 0 0 1 26.9-.8c2.7 0 4.3 2.1 4 3.4-.6 3.8-8 6.4-9.5 9.6-2 4 .3 8.2-.6 12.2-1.2 5-4.4 9.5-5.3 14.6-1.1 5.7 3.4 10.5 2 16-.8 3.3-3 6.3-4 9.6-1 4.2.4 7.5 1.8 11.5 1 3 .5 7.1-3.7 7.6-5 .6-6.3-5.5-11.1-5.6-4.9-.1-8.2 6.3-13.4 4.2-2.2-.8-3.4-3-5.4-4.2-2.4-1.5-4.8-1.6-7.5-2.1-4.7-1-9.2-2.2-7.1-7.5z"/><path fill="#2858ff" d="M11.2 281.7c.8-2 2.4-3.9 3.3-6 2.4-5.4-.7-11.2 1-16.7 1.5-5.5 5.4-10.2 7.7-15.5 2.5-5.9 4.6-12 7-18A19.1 19.1 0 0 1 44 213.3a72 72 0 0 1 16.7-1.4c-4.5.1-9 .5-12.7 1.4a19.1 19.1 0 0 0-13.9 12.4c-2.3 6-4.4 12-7 18-2.3 5.2-6.1 9.9-7.7 15.4-1.6 5.5 1.4 11.3-1 16.7-.8 2.1-2.4 4-3.3 6-2 5.3 2.4 6.6 7.1 7.5 2.7.5 5.2.6 7.5 2 2 1.3 3.3 3.5 5.4 4.3h.1c-1.3.5-2.6.7-4.1 0-2.2-.8-3.4-3-5.4-4.2-2.4-1.5-4.8-1.6-7.5-2.1-4.7-1-9.2-2.2-7.1-7.5z" class="colorED89C2 svgShape"/><path fill="#f2b1b5" d="M122.5 260.3c0 3.7 3.4 6.8 7.6 6.8 4.2 0 7.6-3 7.6-6.8s-3.4-7-7.6-7c-4.2 0-7.6 3.2-7.6 7z" class="colorF2B1B5 svgShape"/><ellipse cx="99.3" cy="269.5" fill="#ef9ea3" class="colorEF9EA3 svgShape" rx="7.6" ry="6.9"/></g></svg></svg>