<?xml version="1.0" encoding="utf-8"?>
<!-- Generator: Adobe Illustrator 16.0.0, SVG Export Plug-In . SVG Version: 6.00 Build 0)  -->
<!DOCTYPE svg PUBLIC "-//W3C//DTD SVG 1.1 Basic//EN" "http://www.w3.org/Graphics/SVG/1.1/DTD/svg11-basic.dtd">
<svg version="1.1" baseProfile="basic" id="Layer_1"
	 xmlns="http://www.w3.org/2000/svg" xmlns:xlink="http://www.w3.org/1999/xlink" x="0px" y="0px" width="560px" height="520px"
	 viewBox="0 0 560 520" xml:space="preserve">
<g display="none" opacity="0.33">
	<polyline id="XMLID_6_" display="inline" opacity="0" fill="#FFFFFF" points="340.195,511.26 144.114,412.022 360.482,300.076 
		553.293,399.833 	"/>
	<polyline display="inline" opacity="0.0244" fill="#FAFAFA" points="335.611,508.938 144.114,412.022 360.482,300.076 
		548.767,397.49 	"/>
	<polyline display="inline" opacity="0.0488" fill="#F5F4F6" points="331.025,506.617 144.114,412.022 360.482,300.076 
		544.241,395.149 	"/>
	<polyline display="inline" opacity="0.0732" fill="#EFEFF1" points="326.442,504.295 144.114,412.022 360.482,300.076 
		539.714,392.809 	"/>
	<polyline display="inline" opacity="0.0976" fill="#EAE9ED" points="321.857,501.977 144.114,412.022 360.482,300.076 
		535.186,390.465 	"/>
	<polyline display="inline" opacity="0.122" fill="#E5E4E8" points="317.274,499.654 144.114,412.022 360.482,300.076 
		530.659,388.123 	"/>
	<polyline display="inline" opacity="0.1463" fill="#E0DEE4" points="312.689,497.334 144.114,412.022 360.482,300.076 
		526.134,385.779 	"/>
	<polyline display="inline" opacity="0.1707" fill="#DBD9DF" points="308.107,495.012 144.114,412.022 360.482,300.076 
		521.607,383.439 	"/>
	<polyline display="inline" opacity="0.1951" fill="#D6D3DB" points="303.524,492.69 144.114,412.022 360.482,300.076 
		517.079,381.096 	"/>
	<polyline display="inline" opacity="0.2195" fill="#D0CED6" points="298.939,490.368 144.114,412.022 360.482,300.076 
		512.552,378.756 	"/>
	<polyline display="inline" opacity="0.2439" fill="#CBC9D2" points="294.357,488.05 144.114,412.022 360.482,300.076 
		508.026,376.412 	"/>
	<polyline display="inline" opacity="0.2683" fill="#C6C3CD" points="289.774,485.728 144.114,412.022 360.482,300.076 
		503.5,374.07 	"/>
	<polyline display="inline" opacity="0.2927" fill="#C1BEC9" points="285.189,483.407 144.114,412.022 360.482,300.076 
		498.974,371.728 	"/>
	<polyline display="inline" opacity="0.3171" fill="#BCB8C4" points="280.608,481.085 144.114,412.022 360.482,300.076 
		494.445,369.387 	"/>
	<polyline display="inline" opacity="0.3415" fill="#B7B3C0" points="276.023,478.766 144.114,412.022 360.482,300.076 
		489.917,367.043 	"/>
	<polyline display="inline" opacity="0.3659" fill="#B1ADBB" points="271.44,476.445 144.114,412.022 360.482,300.076 
		485.392,364.702 	"/>
	<polyline display="inline" opacity="0.3902" fill="#ACA8B7" points="266.857,474.124 144.114,412.022 360.482,300.076 
		480.865,362.36 	"/>
	<polyline display="inline" opacity="0.4146" fill="#A7A3B2" points="262.273,471.802 144.114,412.022 360.482,300.076 
		476.338,360.017 	"/>
	<polyline display="inline" opacity="0.439" fill="#A29DAE" points="257.689,469.48 144.114,412.022 360.482,300.076 
		471.81,357.676 	"/>
	<polygon display="inline" opacity="0.4634" fill="#9D98A9" points="360.482,300.076 467.283,355.334 253.105,467.161 
		144.114,412.022 	"/>
	<polygon display="inline" opacity="0.4878" fill="#9892A5" points="360.482,300.076 462.758,352.993 248.523,464.838 
		144.114,412.022 	"/>
	<polygon display="inline" opacity="0.5122" fill="#928DA0" points="360.482,300.076 458.231,350.649 243.939,462.516 
		144.114,412.022 	"/>
	<polygon display="inline" opacity="0.5366" fill="#8D879C" points="360.482,300.076 453.706,348.309 239.355,460.197 
		144.114,412.022 	"/>
	<polygon display="inline" opacity="0.561" fill="#888297" points="360.482,300.076 449.179,345.965 234.773,457.877 
		144.114,412.022 	"/>
	<polygon display="inline" opacity="0.5854" fill="#837C93" points="360.482,300.076 444.65,343.624 230.189,455.555 
		144.114,412.022 	"/>
	<polygon display="inline" opacity="0.6098" fill="#7E778E" points="360.482,300.076 440.124,341.281 225.606,453.235 
		144.114,412.022 	"/>
	<polygon display="inline" opacity="0.6341" fill="#79728A" points="360.482,300.076 435.599,338.939 221.021,450.913 
		144.114,412.022 	"/>
	<polygon display="inline" opacity="0.6585" fill="#736C85" points="360.482,300.076 431.069,336.597 216.438,448.592 
		144.114,412.022 	"/>
	<polygon display="inline" opacity="0.6829" fill="#6E6781" points="360.482,300.076 426.543,334.255 211.853,446.271 
		144.114,412.022 	"/>
	<polygon display="inline" opacity="0.7073" fill="#69617C" points="360.482,300.076 422.017,331.914 207.27,443.95 
		144.114,412.022 	"/>
	<polygon display="inline" opacity="0.7317" fill="#645C78" points="360.482,300.076 417.488,329.572 202.688,441.63 
		144.114,412.022 	"/>
	<polygon display="inline" opacity="0.7561" fill="#5F5673" points="360.482,300.076 412.962,327.23 198.104,439.309 
		144.114,412.022 	"/>
	<polygon display="inline" opacity="0.7805" fill="#5A516F" points="360.482,300.076 408.436,324.887 193.521,436.986 
		144.114,412.022 	"/>
	<polygon display="inline" opacity="0.8049" fill="#544C6A" points="360.482,300.076 403.913,322.546 188.938,434.666 
		144.114,412.022 	"/>
	<polygon display="inline" opacity="0.8293" fill="#4F4666" points="360.482,300.076 399.385,320.203 184.354,432.345 
		144.114,412.022 	"/>
	<polygon display="inline" opacity="0.8537" fill="#4A4161" points="360.482,300.076 394.855,317.861 179.771,430.025 
		144.114,412.022 	"/>
	<polygon display="inline" opacity="0.878" fill="#453B5D" points="360.482,300.076 390.329,315.519 175.188,427.703 
		144.114,412.022 	"/>
	<polygon display="inline" opacity="0.9024" fill="#403658" points="360.482,300.076 385.801,313.177 170.604,425.383 
		144.114,412.022 	"/>
	<polygon display="inline" opacity="0.9268" fill="#3B3054" points="360.482,300.076 381.274,310.834 166.021,423.061 
		144.114,412.022 	"/>
	<polygon display="inline" opacity="0.9512" fill="#352B4F" points="360.482,300.076 376.748,308.493 161.438,420.741 
		144.114,412.022 	"/>
	<polygon display="inline" opacity="0.9756" fill="#30254B" points="360.482,300.076 372.223,306.149 156.852,418.418 
		144.114,412.022 	"/>
	<polygon id="XMLID_43_" display="inline" fill="#2B2046" points="360.482,300.076 367.695,303.809 152.269,416.099 
		144.114,412.022 	"/>
</g>
<g>
	
		<linearGradient id="XMLID_8_" gradientUnits="userSpaceOnUse" x1="-555.4268" y1="230.7891" x2="-116.7725" y2="230.7891" gradientTransform="matrix(-0.5535 0 0 1 92.6601 0)">
		<stop  offset="0" style="stop-color:#3F65E9"/>
		<stop  offset="0.1" style="stop-color:#4568E8"/>
		<stop  offset="0.6762" style="stop-color:#6474E5"/>
		<stop  offset="1" style="stop-color:#6F79E4"/>
	</linearGradient>
	<path id="XMLID_18_" fill="url(#XMLID_8_)" d="M400.113,18.531l-2.2-7.282l-0.705-3.766l-3.774-1.756
		c-1.881-0.876-4.129-0.829-5.961,0.127L168.962,119.616c-6.415,3.333-11.663,11.512-11.663,18.177v315.451
		c0,1.24,0.846,2.354,2.131,2.805l1.212,0.428l239.471-124.431V18.531z"/>
	<path id="XMLID_17_" fill="#404A8B" d="M400.113,13.946c0-6.665-5.247-9.391-11.658-6.059L172.304,120.2
		c-6.415,3.333-11.662,11.513-11.662,18.177v318.099l239.471-124.431V13.946z"/>
	<path id="XMLID_16_" fill="#303768" d="M172.304,120.2L388.455,7.887c6.411-3.332,11.658-0.605,11.658,6.059v29.359
		L160.642,167.736v-29.359C160.642,131.713,165.89,123.533,172.304,120.2z"/>
	<path id="XMLID_15_" fill="#E96AB2" d="M377.34,32.092c2.412-1.254,4.39-0.228,4.39,2.282s-1.978,5.587-4.39,6.842
		c-2.418,1.255-4.392,0.229-4.392-2.279C372.948,36.425,374.922,33.348,377.34,32.092z"/>
	<path id="XMLID_14_" fill="#E96AB2" d="M355.812,43.469c2.414-1.254,4.392-0.227,4.392,2.28c0,2.51-1.978,5.59-4.392,6.844
		c-2.412,1.254-4.39,0.229-4.39-2.281C351.423,47.803,353.4,44.724,355.812,43.469z"/>
	<path id="XMLID_13_" fill="#E96AB2" d="M334.288,54.847c2.415-1.255,4.389-0.229,4.389,2.281c0,2.508-1.974,5.587-4.389,6.842
		c-2.417,1.254-4.395,0.228-4.395-2.281C329.894,59.18,331.871,56.101,334.288,54.847z"/>
</g>
<g display="none">
	<path display="inline" opacity="0" fill="#FFFFFF" d="M363.039,150.54l-105.876,55.342c-1.869,0.976-4.209-0.236-4.209-2.179
		v-96.057c0-2.654,1.569-5.108,4.121-6.44l105.965-55.388V150.54z"/>
	<path display="inline" opacity="0.0244" fill="#FAFAFA" d="M363.039,150.368l-105.342,55.064c-1.858,0.97-4.187-0.235-4.187-2.169
		v-95.572c0-2.641,1.561-5.083,4.098-6.409l105.431-55.108V150.368z"/>
	<path display="inline" opacity="0.0488" fill="#F5F4F6" d="M363.039,150.197l-104.811,54.784c-1.848,0.966-4.163-0.234-4.163-2.157
		v-95.088c0-2.627,1.554-5.056,4.081-6.376l104.894-54.828V150.197z"/>
	<path display="inline" opacity="0.0732" fill="#EFEFF1" d="M363.039,150.027l-104.276,54.504c-1.839,0.96-4.145-0.233-4.145-2.147
		v-94.603c0-2.614,1.547-5.032,4.059-6.344l104.362-54.55V150.027z"/>
	<path display="inline" opacity="0.0976" fill="#EAE9ED" d="M363.039,149.854l-103.741,54.226c-1.828,0.956-4.124-0.231-4.124-2.136
		v-94.118c0-2.602,1.538-5.006,4.036-6.312l103.828-54.27V149.854z"/>
	<path display="inline" opacity="0.122" fill="#E5E4E8" d="M363.039,149.683L259.833,203.63c-1.822,0.951-4.102-0.23-4.102-2.125
		v-93.634c0-2.587,1.529-4.979,4.017-6.278l103.292-53.991V149.683z"/>
	<path display="inline" opacity="0.1463" fill="#E0DEE4" d="M363.039,149.511l-102.673,53.668c-1.811,0.947-4.079-0.229-4.079-2.114
		v-93.149c0-2.574,1.521-4.954,3.994-6.247l102.758-53.711V149.511z"/>
	<path display="inline" opacity="0.1707" fill="#DBD9DF" d="M363.039,149.34L260.9,202.729c-1.801,0.941-4.058-0.229-4.058-2.103
		v-92.665c0-2.561,1.513-4.929,3.974-6.214l102.223-53.432V149.34z"/>
	<path display="inline" opacity="0.1951" fill="#D6D3DB" d="M363.039,149.169l-101.605,53.108c-1.79,0.937-4.039-0.227-4.039-2.091
		v-92.18c0-2.548,1.505-4.903,3.955-6.183l101.688-53.152V149.169z"/>
	<path display="inline" opacity="0.2195" fill="#D0CED6" d="M363.039,148.998l-101.071,52.829c-1.784,0.933-4.014-0.225-4.014-2.081
		V108.05c0-2.533,1.498-4.875,3.933-6.147l101.152-52.874V148.998z"/>
	<path display="inline" opacity="0.2439" fill="#CBC9D2" d="M363.039,148.826l-100.537,52.551c-1.771,0.926-3.992-0.225-3.992-2.07
		v-91.211c0-2.521,1.489-4.851,3.911-6.117l100.618-52.594V148.826z"/>
	<path display="inline" opacity="0.2683" fill="#C6C3CD" d="M363.039,148.654l-100.003,52.272c-1.763,0.921-3.974-0.223-3.974-2.06
		V108.14c0-2.507,1.481-4.825,3.89-6.084l100.087-52.314V148.654z"/>
	<path display="inline" opacity="0.2927" fill="#C1BEC9" d="M363.039,148.483l-99.468,51.993c-1.756,0.916-3.954-0.223-3.954-2.048
		v-90.242c0-2.495,1.476-4.799,3.87-6.052l99.552-52.035V148.483z"/>
	<path display="inline" opacity="0.3171" fill="#BCB8C4" d="M363.039,148.312l-98.936,51.713c-1.743,0.912-3.929-0.22-3.929-2.037
		V108.23c0-2.48,1.464-4.773,3.848-6.019l99.017-51.756V148.312z"/>
	<path display="inline" opacity="0.3415" fill="#B7B3C0" d="M363.039,148.14l-98.4,51.434c-1.734,0.907-3.908-0.219-3.908-2.025
		v-89.273c0-2.467,1.459-4.748,3.826-5.987l98.483-51.477V148.14z"/>
	<path display="inline" opacity="0.3659" fill="#B1ADBB" d="M363.039,147.969l-97.868,51.155c-1.725,0.902-3.889-0.219-3.889-2.015
		v-88.788c0-2.455,1.452-4.723,3.809-5.954l97.948-51.198V147.969z"/>
	<path display="inline" opacity="0.3902" fill="#ACA8B7" d="M363.039,147.797l-97.333,50.876c-1.717,0.896-3.869-0.217-3.869-2.003
		v-88.305c0-2.44,1.444-4.695,3.791-5.921l97.411-50.918V147.797z"/>
	<path display="inline" opacity="0.4146" fill="#A7A3B2" d="M363.039,147.626l-96.798,50.596c-1.708,0.892-3.846-0.216-3.846-1.993
		v-87.819c0-2.427,1.433-4.671,3.766-5.89l96.878-50.637V147.626z"/>
	<path display="inline" opacity="0.439" fill="#A29DAE" d="M363.039,147.454l-96.266,50.318c-1.694,0.888-3.822-0.214-3.822-1.981
		v-87.335c0-2.413,1.424-4.645,3.746-5.856l96.342-50.36V147.454z"/>
	<path display="inline" opacity="0.4634" fill="#9D98A9" d="M363.039,147.283l-95.73,50.038c-1.687,0.882-3.804-0.213-3.804-1.971
		V108.5c0-2.4,1.418-4.619,3.725-5.824l95.81-50.079V147.283z"/>
	<path display="inline" opacity="0.4878" fill="#9892A5" d="M363.039,147.112l-95.197,49.759c-1.679,0.877-3.782-0.213-3.782-1.96
		v-86.367c0-2.387,1.412-4.592,3.703-5.792l95.275-49.799V147.112z"/>
	<path display="inline" opacity="0.5122" fill="#928DA0" d="M363.039,146.94l-94.663,49.48c-1.668,0.872-3.759-0.212-3.759-1.948
		V108.59c0-2.373,1.402-4.567,3.682-5.759l94.74-49.521V146.94z"/>
	<path display="inline" opacity="0.5366" fill="#8D879C" d="M363.039,146.768l-94.128,49.202c-1.661,0.868-3.74-0.21-3.74-1.938
		v-85.397c0-2.359,1.395-4.542,3.661-5.727l94.207-49.241V146.768z"/>
	<path display="inline" opacity="0.561" fill="#888297" d="M363.039,146.597l-93.594,48.922c-1.651,0.863-3.72-0.209-3.72-1.927
		v-84.913c0-2.346,1.389-4.515,3.644-5.694l93.67-48.961V146.597z"/>
	<path display="inline" opacity="0.5854" fill="#837C93" d="M363.039,146.426l-93.062,48.643c-1.639,0.858-3.695-0.208-3.695-1.916
		v-84.428c0-2.334,1.379-4.49,3.622-5.662l93.136-48.683V146.426z"/>
	<path display="inline" opacity="0.6098" fill="#7E778E" d="M363.039,146.254l-92.527,48.364c-1.632,0.853-3.675-0.207-3.675-1.905
		v-83.943c0-2.319,1.37-4.464,3.601-5.629l92.601-48.403V146.254z"/>
	<path display="inline" opacity="0.6341" fill="#79728A" d="M363.039,146.083l-91.99,48.084c-1.625,0.847-3.657-0.207-3.657-1.894
		v-83.459c0-2.305,1.364-4.438,3.581-5.597l92.066-48.123V146.083z"/>
	<path display="inline" opacity="0.6585" fill="#736C85" d="M363.039,145.911l-91.459,47.806c-1.611,0.843-3.633-0.204-3.633-1.882
		v-82.975c0-2.293,1.357-4.412,3.559-5.564l91.533-47.845V145.911z"/>
	<path display="inline" opacity="0.6829" fill="#6E6781" d="M363.039,145.74l-90.923,47.526c-1.604,0.837-3.613-0.204-3.613-1.872
		v-82.49c0-2.28,1.348-4.387,3.536-5.532l91-47.565V145.74z"/>
	<path display="inline" opacity="0.7073" fill="#69617C" d="M363.039,145.569l-90.389,47.248c-1.596,0.833-3.592-0.203-3.592-1.861
		v-82.007c0-2.265,1.341-4.36,3.517-5.498l90.464-47.286V145.569z"/>
	<path display="inline" opacity="0.7317" fill="#645C78" d="M363.039,145.397l-89.857,46.969c-1.583,0.827-3.569-0.201-3.569-1.851
		v-81.521c0-2.252,1.332-4.335,3.497-5.466l89.93-47.007V145.397z"/>
	<path display="inline" opacity="0.7561" fill="#5F5673" d="M363.039,145.226l-89.322,46.689c-1.572,0.823-3.549-0.2-3.549-1.84
		v-81.036c0-2.239,1.326-4.309,3.477-5.435l89.395-46.726V145.226z"/>
	<path display="inline" opacity="0.7805" fill="#5A516F" d="M363.039,145.054l-88.787,46.41c-1.566,0.818-3.528-0.198-3.528-1.828
		v-80.552c0-2.226,1.315-4.283,3.454-5.4l88.861-46.448V145.054z"/>
	<path display="inline" opacity="0.8049" fill="#544C6A" d="M363.039,144.883l-88.253,46.13c-1.558,0.813-3.505-0.197-3.505-1.816
		v-80.068c0-2.212,1.305-4.258,3.432-5.369l88.326-46.168V144.883z"/>
	<path display="inline" opacity="0.8293" fill="#4F4666" d="M363.039,144.711l-87.72,45.851c-1.546,0.81-3.485-0.196-3.485-1.805
		v-79.583c0-2.198,1.3-4.231,3.414-5.336l87.791-45.889V144.711z"/>
	<path display="inline" opacity="0.8537" fill="#4A4161" d="M363.039,144.54l-87.185,45.572c-1.538,0.804-3.465-0.193-3.465-1.793
		v-79.1c0-2.186,1.293-4.205,3.394-5.305l87.256-45.609V144.54z"/>
	<path display="inline" opacity="0.878" fill="#453B5D" d="M363.039,144.369l-86.65,45.292c-1.53,0.799-3.443-0.193-3.443-1.783
		v-78.614c0-2.172,1.283-4.18,3.371-5.271l86.723-45.33V144.369z"/>
	<path display="inline" opacity="0.9024" fill="#403658" d="M363.039,144.196L276.92,189.21c-1.518,0.793-3.417-0.192-3.417-1.772
		v-78.13c0-2.159,1.274-4.154,3.348-5.239l86.189-45.051V144.196z"/>
	<path display="inline" opacity="0.9268" fill="#3B3054" d="M363.039,144.026l-85.584,44.734c-1.507,0.79-3.4-0.191-3.4-1.762
		v-77.644c0-2.146,1.269-4.129,3.331-5.207l85.654-44.772V144.026z"/>
	<path display="inline" opacity="0.9512" fill="#352B4F" d="M363.039,143.854L277.99,188.31c-1.501,0.783-3.379-0.19-3.379-1.75
		v-77.161c0-2.132,1.262-4.103,3.311-5.174l85.118-44.492V143.854z"/>
	<path display="inline" opacity="0.9756" fill="#30254B" d="M363.039,143.683l-84.515,44.176c-1.491,0.78-3.359-0.188-3.359-1.74
		v-76.675c0-2.12,1.254-4.079,3.29-5.143l84.584-44.212V143.683z"/>
	<path display="inline" fill="#2B2046" d="M363.039,143.512l-83.98,43.896c-1.481,0.773-3.337-0.188-3.337-1.729v-76.192
		c0-2.104,1.245-4.051,3.268-5.108l84.05-43.934V143.512z"/>
</g>
<g>
	
		<linearGradient id="XMLID_12_" gradientUnits="userSpaceOnUse" x1="-664.248" y1="127.4238" x2="-363.6025" y2="127.4238" gradientTransform="matrix(-0.5535 0 0 1 92.6601 0)">
		<stop  offset="0" style="stop-color:#3F65E9"/>
		<stop  offset="0.1" style="stop-color:#4568E8"/>
		<stop  offset="0.6762" style="stop-color:#6474E5"/>
		<stop  offset="1" style="stop-color:#6F79E4"/>
	</linearGradient>
	<path id="XMLID_173_" fill="url(#XMLID_12_)" d="M298.223,113.486l156.64-82.038c1.144-0.6,2.604-0.344,3.415,0.601l1.486,1.734
		l0.587,101.07c0,2.767-1.634,5.322-4.289,6.711L298.37,223.722l-2.565-1.22c-1.15-0.548-1.874-1.626-1.874-2.801v-99.505
		C293.931,117.431,295.567,114.874,298.223,113.486z"/>
	<path id="XMLID_171_" fill="#303768" d="M300.578,114.315l155.395-81.224c1.94-1.017,4.378,0.246,4.378,2.27V135.43
		c0,2.765-1.634,5.322-4.289,6.709L300.67,223.363c-1.947,1.017-4.384-0.246-4.384-2.271V121.025
		C296.286,118.261,297.92,115.704,300.578,114.315z"/>
	<g id="XMLID_169_">
		
			<linearGradient id="XMLID_19_" gradientUnits="userSpaceOnUse" x1="-674.0127" y1="134.8696" x2="-352.8574" y2="134.8696" gradientTransform="matrix(-0.5535 0 0 1 92.6601 0)">
			<stop  offset="0" style="stop-color:#ED956E"/>
			<stop  offset="0.1183" style="stop-color:#EC8F77"/>
			<stop  offset="0.7016" style="stop-color:#EA74A2"/>
			<stop  offset="1" style="stop-color:#E96AB2"/>
		</linearGradient>
		<path id="XMLID_228_" fill="url(#XMLID_19_)" d="M336.916,155.718c0.46,0,0.927-0.023,1.405-0.074
			c7.327-0.762,11.919-6.984,14.482-12.069c0.958-1.902,1.798-3.899,2.613-5.831c2.229-5.303,4.339-10.314,8.823-14.009
			c6.734-5.554,15.913-0.828,18.563,0.751c0.671,0.399,1.345,0.81,2.021,1.223c5.562,3.387,11.86,7.226,18.913,6.391
			c5.867-0.696,10.18-4.342,14.351-7.869c3.263-2.758,6.635-5.611,10.642-6.875c4.695-1.483,10.523-0.775,15.994,1.936
			c1.886,0.935,4.091,2.66,6.42,4.488c3.943,3.091,8.414,6.595,13.64,8.283l0.972-2.428c-4.725-1.523-8.976-4.859-12.729-7.801
			c-2.45-1.919-4.766-3.734-6.92-4.8c-6.185-3.066-12.861-3.834-18.324-2.112c-4.577,1.443-8.176,4.487-11.656,7.43
			c-4.015,3.396-7.811,6.603-12.766,7.19c-5.96,0.705-11.537-2.687-16.926-5.969c-0.688-0.418-1.371-0.832-2.05-1.237
			c-8.246-4.917-16.498-5.104-22.082-0.503c-4.987,4.11-7.316,9.645-9.568,14.999c-0.798,1.893-1.621,3.85-2.541,5.679
			c-2.257,4.479-6.203,9.949-12.198,10.573c-4.611,0.475-8.186-2.18-11.939-4.997c-1.488-1.114-3.027-2.267-4.627-3.199
			c-5.127-2.976-11.609-4.064-17.792-2.978c-2.463,0.433-4.688,1.543-6.838,2.616c-2.836,1.417-5.507,2.757-8.411,2.386
			l-0.405,2.554c3.85,0.49,7.081-1.123,10.208-2.683c2.045-1.022,3.976-1.986,5.995-2.341c5.459-0.959,11.179-0.006,15.687,2.614
			c1.457,0.846,2.863,1.899,4.348,3.013C327.771,152.73,331.757,155.718,336.916,155.718z"/>
	</g>
	<g id="XMLID_207_" display="none">
		<path id="XMLID_216_" display="inline" fill="#E96AB2" d="M339.502,133.749c-0.131-0.154-0.202-0.333-0.218-0.537
			c-0.017-0.203,0.02-0.402,0.108-0.595c0.088-0.192,0.21-0.335,0.362-0.424c0.286-0.161,0.574-0.042,0.867,0.361l0.754-1.107
			c-0.243-0.323-0.501-0.527-0.764-0.61c-0.267-0.083-0.598-0.014-0.987,0.21c-0.388,0.223-0.714,0.585-0.981,1.088
			c-0.271,0.501-0.38,1.043-0.337,1.621c0.024,0.313,0.107,0.581,0.246,0.801c0.138,0.222,0.382,0.466,0.732,0.731l0.895,0.681
			l-1.771,1.017l0.091,1.223l3.17-1.817l-0.077-1.014l-1.452-1.079C339.844,134.084,339.631,133.9,339.502,133.749z"/>
		<path id="XMLID_213_" display="inline" fill="#E96AB2" d="M335.942,139.75c0.619-0.356,1.063-0.91,1.33-1.66
			c0.264-0.752,0.362-1.606,0.29-2.564c-0.073-0.958-0.286-1.636-0.639-2.032c-0.352-0.395-0.836-0.416-1.458-0.061
			c-0.62,0.355-1.064,0.91-1.329,1.66c-0.265,0.752-0.361,1.606-0.29,2.565c0.072,0.958,0.283,1.635,0.636,2.032
			C334.834,140.088,335.321,140.106,335.942,139.75z M336.258,134.74c0.167,0.292,0.274,0.744,0.322,1.355
			c0.043,0.611,0.011,1.145-0.104,1.597c-0.114,0.454-0.316,0.768-0.617,0.94c-0.303,0.172-0.538,0.112-0.705-0.18
			c-0.168-0.292-0.277-0.745-0.325-1.354c-0.046-0.612-0.01-1.146,0.104-1.6c0.111-0.453,0.318-0.766,0.618-0.938
			C335.853,134.388,336.088,134.447,336.258,134.74z"/>
		<path id="XMLID_211_" display="inline" fill="#E96AB2" d="M333.061,134.96l-1.818,1.043l0.459,6.107l0.965-0.553l-0.372-4.944
			l0.854-0.49L333.061,134.96z"/>
		<path id="XMLID_208_" display="inline" fill="#E96AB2" d="M329.28,142.352c-0.277,0.159-0.501,0.156-0.677-0.01
			c-0.168-0.166-0.286-0.459-0.355-0.876c0.292,0.095,0.598,0.048,0.918-0.133c0.416-0.241,0.754-0.629,1.006-1.166
			c0.25-0.537,0.354-1.113,0.309-1.731c-0.045-0.616-0.233-1.028-0.566-1.23c-0.329-0.202-0.723-0.172-1.18,0.093
			c-0.318,0.181-0.589,0.419-0.807,0.722c-0.223,0.3-0.388,0.636-0.5,1.01c-0.206,0.722-0.278,1.518-0.215,2.384
			c0.044,0.558,0.13,1.021,0.262,1.386c0.132,0.364,0.294,0.619,0.484,0.766c0.388,0.289,0.833,0.287,1.335,0
			c0.21-0.122,0.406-0.278,0.592-0.473c0.188-0.195,0.327-0.362,0.42-0.504c0.09-0.141,0.195-0.315,0.314-0.522l-0.571-0.674
			c-0.03,0.053-0.063,0.121-0.11,0.205c-0.045,0.083-0.135,0.212-0.27,0.387C329.535,142.157,329.404,142.279,329.28,142.352z
			 M328.977,140.229c-0.198,0.114-0.373,0.13-0.515,0.048c-0.145-0.082-0.229-0.249-0.246-0.505
			c-0.02-0.256,0.029-0.516,0.142-0.775c0.117-0.26,0.268-0.445,0.46-0.556c0.196-0.111,0.359-0.118,0.492-0.021
			c0.137,0.096,0.213,0.271,0.231,0.529c0.021,0.254-0.021,0.504-0.118,0.745C329.323,139.936,329.177,140.115,328.977,140.229z"/>
	</g>
	<g id="XMLID_195_" display="none">
		<path id="XMLID_205_" display="inline" fill="#E96AB2" d="M372.098,96.993c-0.126-0.151-0.201-0.331-0.215-0.535
			c-0.013-0.204,0.021-0.402,0.109-0.596c0.09-0.194,0.209-0.334,0.364-0.422c0.281-0.164,0.57-0.042,0.862,0.36l0.758-1.107
			c-0.243-0.323-0.496-0.526-0.766-0.609c-0.268-0.084-0.595-0.014-0.984,0.209c-0.389,0.223-0.715,0.584-0.981,1.087
			c-0.271,0.504-0.385,1.045-0.34,1.621c0.024,0.314,0.106,0.581,0.246,0.802c0.139,0.222,0.384,0.465,0.734,0.732l0.896,0.68
			l-1.771,1.017l0.09,1.224l3.171-1.818l-0.077-1.015l-1.46-1.079C372.442,97.332,372.23,97.147,372.098,96.993z"/>
		<path id="XMLID_202_" display="inline" fill="#E96AB2" d="M368.54,102.997c0.624-0.356,1.062-0.908,1.332-1.659
			c0.263-0.752,0.362-1.607,0.288-2.564c-0.071-0.957-0.285-1.636-0.637-2.032c-0.349-0.396-0.837-0.417-1.456-0.061
			c-0.622,0.357-1.066,0.91-1.333,1.66c-0.266,0.752-0.361,1.606-0.288,2.565c0.073,0.958,0.285,1.634,0.638,2.032
			C367.436,103.333,367.917,103.353,368.54,102.997z M368.854,97.986c0.173,0.292,0.281,0.745,0.326,1.356
			c0.047,0.611,0.012,1.144-0.103,1.598c-0.112,0.453-0.322,0.766-0.619,0.938c-0.3,0.172-0.537,0.113-0.704-0.18
			c-0.17-0.291-0.278-0.741-0.322-1.354c-0.048-0.611-0.014-1.143,0.101-1.598c0.11-0.453,0.321-0.767,0.617-0.939
			C368.45,97.635,368.687,97.695,368.854,97.986z"/>
		<path id="XMLID_200_" display="inline" fill="#E96AB2" d="M365.659,98.207l-1.815,1.043l0.46,6.106l0.963-0.553l-0.372-4.945
			l0.853-0.49L365.659,98.207z"/>
		<path id="XMLID_196_" display="inline" fill="#E96AB2" d="M362.349,100.462c-0.319-0.15-0.704-0.096-1.152,0.16
			c-0.445,0.255-0.799,0.627-1.074,1.117c-0.271,0.489-0.389,0.97-0.354,1.438c0.038,0.47,0.195,0.797,0.49,0.982
			c-0.343,0.604-0.49,1.225-0.441,1.859c0.038,0.537,0.228,0.896,0.576,1.081c0.345,0.185,0.77,0.131,1.277-0.16
			c0.514-0.293,0.913-0.714,1.2-1.262c0.293-0.55,0.417-1.092,0.377-1.627c-0.049-0.635-0.273-1.041-0.677-1.218
			c0.246-0.499,0.351-0.98,0.313-1.445C362.851,100.918,362.671,100.611,362.349,100.462z M362.063,105.315
			c-0.141,0.225-0.3,0.386-0.477,0.486c-0.173,0.102-0.344,0.125-0.503,0.075c-0.157-0.052-0.249-0.208-0.271-0.469
			c-0.021-0.262,0.042-0.504,0.172-0.73c0.138-0.221,0.297-0.386,0.481-0.492c0.183-0.105,0.354-0.131,0.512-0.074
			c0.154,0.056,0.243,0.216,0.263,0.477C362.259,104.85,362.202,105.094,362.063,105.315z M361.803,102.682
			c-0.116,0.211-0.252,0.361-0.415,0.456c-0.161,0.092-0.31,0.106-0.442,0.034c-0.132-0.068-0.207-0.206-0.223-0.413
			c-0.016-0.207,0.03-0.416,0.138-0.624c0.113-0.209,0.251-0.36,0.417-0.455c0.168-0.097,0.316-0.109,0.445-0.038
			c0.131,0.07,0.204,0.209,0.222,0.416C361.96,102.263,361.908,102.473,361.803,102.682z"/>
	</g>
	<g id="XMLID_174_" display="none">
		<path id="XMLID_193_" display="inline" fill="#E96AB2" d="M408.286,109.687c-0.133-0.152-0.206-0.329-0.22-0.535
			c-0.016-0.204,0.021-0.401,0.108-0.595c0.091-0.195,0.211-0.335,0.365-0.423c0.281-0.162,0.566-0.042,0.864,0.36l0.756-1.108
			c-0.245-0.322-0.498-0.525-0.765-0.608c-0.271-0.083-0.599-0.014-0.984,0.208c-0.389,0.222-0.714,0.585-0.984,1.089
			c-0.267,0.504-0.382,1.043-0.339,1.621c0.026,0.314,0.104,0.582,0.245,0.802c0.142,0.22,0.386,0.464,0.736,0.731l0.894,0.681
			l-1.772,1.017l0.092,1.223l3.17-1.817l-0.075-1.014l-1.458-1.079C408.626,110.025,408.416,109.841,408.286,109.687z"/>
		<path id="XMLID_190_" display="inline" fill="#E96AB2" d="M404.725,115.691c0.618-0.356,1.065-0.909,1.332-1.66
			c0.267-0.752,0.361-1.606,0.288-2.564c-0.071-0.958-0.282-1.636-0.635-2.032c-0.353-0.396-0.839-0.417-1.459-0.061
			c-0.624,0.357-1.061,0.91-1.33,1.66c-0.268,0.752-0.363,1.608-0.29,2.565c0.071,0.957,0.285,1.635,0.637,2.031
			C403.616,116.026,404.104,116.047,404.725,115.691z M405.038,110.679c0.17,0.292,0.278,0.745,0.322,1.356
			c0.047,0.612,0.014,1.143-0.1,1.597c-0.111,0.454-0.322,0.768-0.619,0.94c-0.3,0.172-0.537,0.113-0.704-0.18
			c-0.173-0.292-0.278-0.744-0.325-1.355c-0.044-0.612-0.011-1.144,0.104-1.598c0.111-0.453,0.32-0.768,0.622-0.939
			C404.634,110.329,404.865,110.389,405.038,110.679z"/>
		<path id="XMLID_187_" display="inline" fill="#E96AB2" d="M401.842,110.901l-1.817,1.043l0.458,6.106l0.968-0.553l-0.372-4.945
			l0.854-0.489L401.842,110.901z"/>
		<path id="XMLID_183_" display="inline" fill="#E96AB2" d="M399.302,114.403l-0.146-1.957l-3.244,1.861l0.077,1.03l2.196,4.032
			l1.096-0.626l-2.106-3.94l1.13-0.648l0.058,0.785L399.302,114.403z"/>
	</g>
	<g id="XMLID_149_" display="none">
		<path id="XMLID_159_" display="inline" fill="#E96AB2" d="M436.941,96.993c-0.132-0.151-0.202-0.333-0.215-0.536
			c-0.017-0.204,0.022-0.402,0.107-0.596c0.09-0.192,0.211-0.334,0.363-0.422c0.282-0.162,0.571-0.041,0.862,0.36l0.756-1.109
			c-0.241-0.322-0.499-0.523-0.766-0.608c-0.267-0.082-0.592-0.013-0.984,0.21c-0.386,0.221-0.713,0.584-0.979,1.088
			c-0.271,0.503-0.387,1.043-0.339,1.621c0.021,0.314,0.103,0.581,0.244,0.802c0.138,0.222,0.382,0.466,0.735,0.732l0.897,0.679
			l-1.778,1.018l0.095,1.223l3.167-1.817l-0.077-1.013l-1.452-1.08C437.286,97.331,437.075,97.146,436.941,96.993z"/>
		<path id="XMLID_155_" display="inline" fill="#E96AB2" d="M433.384,102.995c0.618-0.355,1.06-0.908,1.326-1.659
			c0.267-0.752,0.366-1.606,0.293-2.565c-0.073-0.958-0.286-1.635-0.637-2.031c-0.353-0.396-0.837-0.417-1.46-0.061
			c-0.618,0.357-1.062,0.91-1.328,1.662c-0.267,0.75-0.363,1.605-0.292,2.563c0.073,0.959,0.283,1.635,0.639,2.032
			C432.274,103.331,432.76,103.352,433.384,102.995z M433.694,97.986c0.171,0.291,0.277,0.742,0.324,1.354
			c0.048,0.613,0.014,1.145-0.103,1.599c-0.109,0.454-0.317,0.767-0.618,0.939c-0.302,0.172-0.533,0.112-0.706-0.181
			c-0.166-0.29-0.274-0.742-0.321-1.353c-0.048-0.611-0.012-1.146,0.104-1.6c0.11-0.452,0.316-0.767,0.618-0.938
			C433.293,97.634,433.527,97.695,433.694,97.986z"/>
		<path id="XMLID_153_" display="inline" fill="#E96AB2" d="M430.5,98.206l-1.818,1.042l0.46,6.108l0.962-0.554l-0.369-4.943
			l0.851-0.491L430.5,98.206z"/>
		<path id="XMLID_150_" display="inline" fill="#E96AB2" d="M425.915,101.912c0.278-0.159,0.502-0.157,0.675,0.011
			c0.168,0.166,0.289,0.457,0.356,0.874c-0.297-0.085-0.602-0.037-0.915,0.142c-0.418,0.242-0.758,0.628-1.006,1.162
			c-0.254,0.534-0.357,1.111-0.309,1.732c0.046,0.62,0.235,1.03,0.562,1.228c0.335,0.2,0.728,0.168,1.186-0.096
			c0.315-0.181,0.585-0.421,0.804-0.721c0.222-0.301,0.388-0.636,0.494-1.007c0.211-0.724,0.288-1.521,0.221-2.389
			c-0.045-0.558-0.13-1.02-0.263-1.383c-0.129-0.366-0.297-0.62-0.489-0.764c-0.379-0.292-0.822-0.293-1.329-0.004
			c-0.207,0.121-0.403,0.279-0.592,0.473c-0.179,0.192-0.322,0.362-0.419,0.509c-0.094,0.146-0.2,0.321-0.313,0.527l0.547,0.688
			c0.022-0.05,0.058-0.118,0.101-0.205c0.046-0.086,0.14-0.217,0.277-0.394C425.639,102.119,425.776,101.99,425.915,101.912z
			 M426.213,104.038c0.195-0.114,0.372-0.129,0.518-0.048c0.148,0.083,0.232,0.253,0.249,0.509c0.021,0.256-0.027,0.513-0.142,0.771
			c-0.114,0.258-0.27,0.441-0.46,0.552c-0.197,0.111-0.362,0.121-0.503,0.033c-0.139-0.09-0.219-0.265-0.236-0.524
			c-0.021-0.259,0.018-0.511,0.126-0.756C425.863,104.332,426.014,104.152,426.213,104.038z"/>
	</g>
</g>
<g display="none">
	<path display="inline" opacity="0" fill="#FFFFFF" d="M143.338,157.116l102.339-53.069c1.848-0.965,4.165,0.235,4.165,2.158v94.476
		c0,2.626-1.555,5.057-4.077,6.376l-102.428,53.537V157.116z"/>
	<path display="inline" opacity="0.0244" fill="#FAFAFA" d="M143.372,157.501l101.853-52.815c1.837-0.959,4.139,0.232,4.139,2.144
		v93.866c0,2.611-1.545,5.024-4.051,6.335l-101.94,53.283V157.501z"/>
	<path display="inline" opacity="0.0488" fill="#F5F4F6" d="M143.409,157.887l101.365-52.564c1.826-0.955,4.109,0.229,4.109,2.129
		v93.258c0,2.592-1.534,4.991-4.024,6.293l-101.45,53.029V157.887z"/>
	<path display="inline" opacity="0.0732" fill="#EFEFF1" d="M143.443,158.271l100.879-52.312c1.812-0.946,4.084,0.231,4.084,2.117
		v92.649c0,2.576-1.523,4.959-4,6.253l-100.964,52.775V158.271z"/>
	<path display="inline" opacity="0.0976" fill="#EAE9ED" d="M143.474,158.656l100.396-52.059c1.8-0.941,4.058,0.228,4.058,2.102
		v92.04c0,2.561-1.512,4.927-3.973,6.213l-100.481,52.518V158.656z"/>
	<path display="inline" opacity="0.122" fill="#E5E4E8" d="M143.511,159.042l99.906-51.808c1.789-0.934,4.032,0.227,4.032,2.089
		v91.431c0,2.542-1.505,4.894-3.948,6.17l-99.99,52.265V159.042z"/>
	<path display="inline" opacity="0.1463" fill="#E0DEE4" d="M143.546,159.426l99.419-51.555c1.779-0.928,4.004,0.225,4.004,2.075
		v90.823c0,2.526-1.495,4.86-3.919,6.13l-99.504,52.01V159.426z"/>
	<path display="inline" opacity="0.1707" fill="#DBD9DF" d="M143.579,159.811l98.937-51.302c1.764-0.923,3.976,0.222,3.976,2.059
		v90.214c0,2.509-1.485,4.829-3.896,6.089l-99.017,51.756V159.811z"/>
	<path display="inline" opacity="0.1951" fill="#D6D3DB" d="M143.614,160.194l98.448-51.049c1.754-0.917,3.951,0.221,3.951,2.046
		v89.604c0,2.493-1.475,4.797-3.868,6.048l-98.531,51.502V160.194z"/>
	<path display="inline" opacity="0.2195" fill="#D0CED6" d="M143.649,160.581l97.961-50.798c1.742-0.909,3.924,0.221,3.924,2.032
		v88.997c0,2.475-1.464,4.763-3.842,6.006l-98.043,51.246V160.581z"/>
	<path display="inline" opacity="0.2439" fill="#CBC9D2" d="M143.684,160.966l97.478-50.546c1.728-0.904,3.895,0.219,3.895,2.019
		v88.387c0,2.458-1.454,4.731-3.817,5.965l-97.555,50.992V160.966z"/>
	<path display="inline" opacity="0.2683" fill="#C6C3CD" d="M143.718,161.35l96.99-50.293c1.715-0.897,3.867,0.218,3.867,2.004
		v87.779c0,2.441-1.444,4.698-3.789,5.924l-97.068,50.737V161.35z"/>
	<path display="inline" opacity="0.2927" fill="#C1BEC9" d="M143.752,161.735l96.504-50.041c1.703-0.892,3.842,0.215,3.842,1.991
		v87.17c0,2.424-1.436,4.665-3.764,5.883l-96.582,50.483V161.735z"/>
	<path display="inline" opacity="0.3171" fill="#BCB8C4" d="M143.787,162.12l96.017-49.789c1.69-0.885,3.814,0.214,3.814,1.977
		v86.562c0,2.408-1.425,4.633-3.736,5.841l-96.095,50.231V162.12z"/>
	<path display="inline" opacity="0.3415" fill="#B7B3C0" d="M143.82,162.506l95.531-49.538c1.682-0.879,3.788,0.212,3.788,1.962
		v85.953c0,2.391-1.414,4.601-3.71,5.801l-95.609,49.974V162.506z"/>
	<path display="inline" opacity="0.3659" fill="#B1ADBB" d="M143.855,162.89l95.043-49.285c1.669-0.872,3.762,0.211,3.762,1.949
		v85.344c0,2.373-1.404,4.567-3.686,5.76l-95.12,49.719V162.89z"/>
	<path display="inline" opacity="0.3902" fill="#ACA8B7" d="M143.893,163.275l94.556-49.033c1.657-0.867,3.732,0.209,3.732,1.936
		v84.734c0,2.356-1.391,4.536-3.659,5.72l-94.63,49.465V163.275z"/>
	<path display="inline" opacity="0.4146" fill="#A7A3B2" d="M143.923,163.659l94.074-48.78c1.643-0.86,3.707,0.208,3.707,1.921
		v84.126c0,2.34-1.384,4.503-3.634,5.678l-94.146,49.211V163.659z"/>
	<path display="inline" opacity="0.439" fill="#A29DAE" d="M143.957,164.044l93.586-48.527c1.633-0.854,3.683,0.206,3.683,1.906
		v83.519c0,2.322-1.376,4.47-3.606,5.636l-93.664,48.957V164.044z"/>
	<path display="inline" opacity="0.4634" fill="#9D98A9" d="M143.995,164.43l93.098-48.276c1.621-0.848,3.655,0.204,3.655,1.893
		v82.908c0,2.306-1.366,4.438-3.58,5.596l-93.173,48.701V164.43z"/>
	<path display="inline" opacity="0.4878" fill="#9892A5" d="M144.026,164.814l92.614-48.023c1.608-0.842,3.628,0.204,3.628,1.879
		v82.3c0,2.29-1.355,4.404-3.553,5.555l-92.689,48.446V164.814z"/>
	<path display="inline" opacity="0.5122" fill="#928DA0" d="M144.063,165.199l92.123-47.772c1.601-0.834,3.602,0.204,3.602,1.867
		v81.691c0,2.271-1.344,4.372-3.526,5.513l-92.199,48.192V165.199z"/>
	<path display="inline" opacity="0.5366" fill="#8D879C" d="M144.097,165.584l91.64-47.519c1.586-0.83,3.573,0.2,3.573,1.851v81.082
		c0,2.256-1.333,4.34-3.5,5.473l-91.713,47.938V165.584z"/>
	<path display="inline" opacity="0.561" fill="#888297" d="M144.132,165.969l91.152-47.268c1.573-0.822,3.546,0.2,3.546,1.839
		v80.473c0,2.239-1.323,4.307-3.474,5.432l-91.225,47.684V165.969z"/>
	<path display="inline" opacity="0.5854" fill="#837C93" d="M144.166,166.354l90.666-47.016c1.562-0.816,3.52,0.198,3.52,1.825
		v79.864c0,2.221-1.314,4.275-3.447,5.39l-90.738,47.428V166.354z"/>
	<path display="inline" opacity="0.6098" fill="#7E778E" d="M144.201,166.739l90.181-46.762c1.55-0.812,3.491,0.195,3.491,1.81
		v79.255c0,2.205-1.304,4.242-3.42,5.349l-90.252,47.174V166.739z"/>
	<path display="inline" opacity="0.6341" fill="#79728A" d="M144.235,167.123l89.693-46.51c1.539-0.804,3.467,0.195,3.467,1.796
		v78.647c0,2.187-1.295,4.209-3.396,5.309l-89.765,46.92V167.123z"/>
	<path display="inline" opacity="0.6585" fill="#736C85" d="M144.269,167.508l89.208-46.258c1.527-0.797,3.441,0.193,3.441,1.782
		v78.039c0,2.17-1.283,4.177-3.371,5.267l-89.278,46.666V167.508z"/>
	<path display="inline" opacity="0.6829" fill="#6E6781" d="M144.303,167.894l88.723-46.006c1.513-0.792,3.413,0.191,3.413,1.769
		v77.428c0,2.154-1.274,4.145-3.344,5.227l-88.792,46.411V167.894z"/>
	<path display="inline" opacity="0.7073" fill="#69617C" d="M144.338,168.278l88.235-45.753c1.504-0.785,3.387,0.19,3.387,1.754
		V201.1c0,2.136-1.265,4.112-3.318,5.184l-88.304,46.156V168.278z"/>
	<path display="inline" opacity="0.7317" fill="#645C78" d="M144.372,168.663l87.747-45.501c1.494-0.779,3.358,0.188,3.358,1.741
		v76.212c0,2.119-1.251,4.078-3.287,5.143l-87.818,45.901V168.663z"/>
	<path display="inline" opacity="0.7561" fill="#5F5673" d="M144.407,169.048l87.262-45.25c1.479-0.773,3.333,0.188,3.333,1.727
		v75.603c0,2.103-1.245,4.046-3.264,5.103l-87.331,45.647V169.048z"/>
	<path display="inline" opacity="0.7805" fill="#5A516F" d="M144.442,169.433l86.774-44.997c1.468-0.766,3.306,0.186,3.306,1.713
		v74.994c0,2.086-1.235,4.014-3.237,5.061l-86.843,45.394V169.433z"/>
	<path display="inline" opacity="0.8049" fill="#544C6A" d="M144.478,169.818l86.287-44.745c1.457-0.761,3.277,0.184,3.277,1.699
		v74.386c0,2.069-1.222,3.981-3.211,5.02l-86.354,45.14V169.818z"/>
	<path display="inline" opacity="0.8293" fill="#4F4666" d="M144.509,170.202l85.804-44.492c1.443-0.755,3.251,0.183,3.251,1.685
		v73.778c0,2.051-1.213,3.949-3.187,4.979l-85.869,44.883V170.202z"/>
	<path display="inline" opacity="0.8537" fill="#4A4161" d="M144.546,170.588l85.314-44.24c1.432-0.749,3.226,0.181,3.226,1.671
		v73.167c0,2.035-1.203,3.917-3.159,4.938l-85.381,44.629V170.588z"/>
	<path display="inline" opacity="0.878" fill="#453B5D" d="M144.58,170.973l84.829-43.989c1.417-0.742,3.198,0.18,3.198,1.657
		v72.561c0,2.018-1.193,3.883-3.133,4.896l-84.894,44.375V170.973z"/>
	<path display="inline" opacity="0.9024" fill="#403658" d="M144.611,171.357l84.346-43.735c1.408-0.736,3.173,0.178,3.173,1.643
		v71.95c0,2.001-1.186,3.851-3.106,4.856l-84.413,44.121V171.357z"/>
	<path display="inline" opacity="0.9268" fill="#3B3054" d="M144.648,171.742l83.857-43.482c1.396-0.731,3.146,0.176,3.146,1.628
		v71.342c0,1.985-1.176,3.819-3.079,4.816l-83.923,43.866V171.742z"/>
	<path display="inline" opacity="0.9512" fill="#352B4F" d="M144.685,172.127l83.368-43.232c1.384-0.723,3.121,0.175,3.121,1.617
		v70.732c0,1.968-1.164,3.786-3.055,4.774l-83.434,43.61V172.127z"/>
	<path display="inline" opacity="0.9756" fill="#30254B" d="M144.719,172.512l82.883-42.979c1.372-0.717,3.09,0.172,3.09,1.601
		v70.124c0,1.951-1.154,3.754-3.026,4.734l-82.947,43.355V172.512z"/>
	<path display="inline" fill="#2B2046" d="M144.752,172.896l82.397-42.727c1.36-0.71,3.063,0.173,3.063,1.588v69.515
		c0,1.934-1.142,3.72-3,4.691l-82.461,43.102V172.896z"/>
</g>
<g>
	
		<linearGradient id="XMLID_20_" gradientUnits="userSpaceOnUse" x1="-318.3516" y1="223.3438" x2="-21.4717" y2="223.3438" gradientTransform="matrix(-0.5535 0 0 1 92.6601 0)">
		<stop  offset="0" style="stop-color:#3F65E9"/>
		<stop  offset="0.1" style="stop-color:#4568E8"/>
		<stop  offset="0.6762" style="stop-color:#6474E5"/>
		<stop  offset="1" style="stop-color:#6F79E4"/>
	</linearGradient>
	<path id="XMLID_121_" fill="url(#XMLID_20_)" d="M108.822,209.338l156.245-80.811c0.62-0.321,1.393-0.289,1.975,0.083l1.84,1.167
		l-1.408,101.012c0,2.754-3.422,4.922-6.068,6.305l-153.534,81.287l-0.853-0.369c-1.51-0.659-2.473-2.037-2.473-3.549v-98.441
		C104.546,213.268,106.176,210.722,108.822,209.338z"/>
	<path id="XMLID_120_" fill="#303768" d="M110.736,209.775l154.799-80.271c1.938-1.013,4.369,0.245,4.369,2.262v99.042
		c0,2.754-1.633,5.3-4.279,6.684l-154.8,80.914c-1.937,1.013-4.365-0.246-4.365-2.263V216.46
		C106.459,213.706,108.089,211.159,110.736,209.775z"/>
	<g id="XMLID_119_">
		
			<linearGradient id="SVGID_1_" gradientUnits="userSpaceOnUse" x1="-302.6777" y1="209.2295" x2="-38.8047" y2="209.2295" gradientTransform="matrix(-0.5535 0 0 1 92.6601 0)">
			<stop  offset="0" style="stop-color:#ED956E"/>
			<stop  offset="0.2309" style="stop-color:#EC8F78"/>
			<stop  offset="0.6192" style="stop-color:#EB7E92"/>
			<stop  offset="1" style="stop-color:#E96AB2"/>
		</linearGradient>
		<polygon fill="url(#SVGID_1_)" points="114.141,248.154 260.163,173.243 260.206,170.304 114.141,245.228 		"/>
	</g>
	<g id="XMLID_118_">
		<polygon fill="#666EA2" points="229.012,173.749 257.079,159.373 257.027,154.963 229.012,169.333 		"/>
	</g>
	<g id="XMLID_117_">
		
			<linearGradient id="SVGID_2_" gradientUnits="userSpaceOnUse" x1="-303.2227" y1="222.0005" x2="-39.3467" y2="222.0005" gradientTransform="matrix(-0.5535 0 0 1 92.6601 0)">
			<stop  offset="0" style="stop-color:#ED956E"/>
			<stop  offset="0.2309" style="stop-color:#EC8F78"/>
			<stop  offset="0.6192" style="stop-color:#EB7E92"/>
			<stop  offset="1" style="stop-color:#E96AB2"/>
		</linearGradient>
		<polygon fill="url(#SVGID_2_)" points="114.441,260.925 260.463,186.015 260.508,183.076 114.441,258 		"/>
	</g>
	<g id="XMLID_116_">
		
			<linearGradient id="SVGID_3_" gradientUnits="userSpaceOnUse" x1="-303.7666" y1="234.7739" x2="-39.8916" y2="234.7739" gradientTransform="matrix(-0.5535 0 0 1 92.6601 0)">
			<stop  offset="0" style="stop-color:#ED956E"/>
			<stop  offset="0.2309" style="stop-color:#EC8F78"/>
			<stop  offset="0.6192" style="stop-color:#EB7E92"/>
			<stop  offset="1" style="stop-color:#E96AB2"/>
		</linearGradient>
		<polygon fill="url(#SVGID_3_)" points="114.743,273.699 260.761,198.788 260.809,195.849 114.743,270.773 		"/>
	</g>
	<g id="XMLID_115_">
		
			<linearGradient id="SVGID_4_" gradientUnits="userSpaceOnUse" x1="-304.3066" y1="247.5469" x2="-40.4307" y2="247.5469" gradientTransform="matrix(-0.5535 0 0 1 92.6601 0)">
			<stop  offset="0" style="stop-color:#ED956E"/>
			<stop  offset="0.2309" style="stop-color:#EC8F78"/>
			<stop  offset="0.6192" style="stop-color:#EB7E92"/>
			<stop  offset="1" style="stop-color:#E96AB2"/>
		</linearGradient>
		<polygon fill="url(#SVGID_4_)" points="115.041,286.473 261.062,211.56 261.107,208.621 115.041,283.547 		"/>
	</g>
</g>
<g display="none">
	<path id="XMLID_10_" display="inline" opacity="0" fill="#FFFFFF" d="M163.321,268.606l167.662-86.943
		c2.1-1.097,4.729,0.266,4.729,2.45v107.274c0,2.983-1.763,5.742-4.63,7.241l-167.665,87.638c-2.097,1.095-4.729-0.268-4.729-2.451
		V275.847C158.69,272.861,160.454,270.104,163.321,268.606z"/>
	<path display="inline" opacity="0.0244" fill="#FAFAFA" d="M164.019,268.734l166.27-86.22c2.08-1.087,4.688,0.264,4.688,2.43
		v106.381c0,2.958-1.75,5.695-4.592,7.181l-166.27,86.909c-2.082,1.088-4.688-0.264-4.688-2.429V275.914
		C159.427,272.954,161.176,270.218,164.019,268.734z"/>
	<path display="inline" opacity="0.0488" fill="#F5F4F6" d="M164.715,268.861l164.877-85.496c2.064-1.078,4.65,0.262,4.65,2.41
		v105.49c0,2.933-1.734,5.646-4.556,7.118l-164.875,86.182c-2.064,1.079-4.648-0.262-4.648-2.409V275.982
		C160.163,273.048,161.899,270.335,164.715,268.861z"/>
	<path display="inline" opacity="0.0732" fill="#EFEFF1" d="M165.414,268.99l163.48-84.774c2.047-1.069,4.613,0.259,4.613,2.389
		v104.597c0,2.909-1.724,5.599-4.519,7.06l-163.481,85.452c-2.046,1.067-4.609-0.261-4.609-2.391V276.049
		C160.899,273.141,162.618,270.451,165.414,268.99z"/>
	<path display="inline" opacity="0.0976" fill="#EAE9ED" d="M166.111,269.116l162.087-84.05c2.029-1.06,4.57,0.257,4.57,2.369
		v103.706c0,2.883-1.703,5.549-4.478,7l-162.087,84.723c-2.028,1.06-4.572-0.258-4.572-2.369V276.116
		C161.632,273.23,163.342,270.564,166.111,269.116z"/>
	<path display="inline" opacity="0.122" fill="#E5E4E8" d="M166.809,269.245l160.69-83.328c2.013-1.051,4.532,0.255,4.532,2.349
		V291.08c0,2.857-1.689,5.503-4.438,6.938l-160.691,83.994c-2.012,1.051-4.531-0.255-4.531-2.35V276.184
		C162.37,273.324,164.061,270.682,166.809,269.245z"/>
	<path display="inline" opacity="0.1463" fill="#E0DEE4" d="M167.505,269.372l159.299-82.604c1.994-1.042,4.493,0.252,4.493,2.327
		v101.92c0,2.836-1.675,5.458-4.4,6.881l-159.298,83.266c-1.994,1.04-4.492-0.254-4.492-2.329V276.252
		C163.106,273.416,164.784,270.795,167.505,269.372z"/>
	<path display="inline" opacity="0.1707" fill="#DBD9DF" d="M168.202,269.501l157.905-81.883c1.975-1.032,4.452,0.25,4.452,2.308
		v101.029c0,2.81-1.66,5.408-4.358,6.817l-157.905,82.538c-1.978,1.032-4.454-0.251-4.454-2.307V276.32
		C163.842,273.51,165.504,270.91,168.202,269.501z"/>
	<path display="inline" opacity="0.1951" fill="#D6D3DB" d="M168.903,269.627l156.508-81.158c1.958-1.023,4.413,0.248,4.413,2.288
		v100.137c0,2.784-1.644,5.36-4.321,6.76L168.994,379.46c-1.962,1.023-4.415-0.248-4.415-2.288V276.387
		C164.579,273.601,166.225,271.027,168.903,269.627z"/>
	<path display="inline" opacity="0.2195" fill="#D0CED6" d="M169.598,269.757l155.117-80.437c1.94-1.015,4.375,0.246,4.375,2.266
		v99.247c0,2.758-1.633,5.311-4.285,6.697L169.69,378.609c-1.941,1.014-4.374-0.247-4.374-2.268v-99.888
		C165.316,273.693,166.946,271.141,169.598,269.757z"/>
	<path display="inline" opacity="0.2439" fill="#CBC9D2" d="M170.298,269.883l153.723-79.712c1.92-1.005,4.331,0.244,4.331,2.246
		v98.354c0,2.733-1.616,5.262-4.244,6.637l-153.72,80.35c-1.926,1.006-4.337-0.245-4.337-2.245v-98.991
		C166.05,273.786,167.668,271.258,170.298,269.883z"/>
	<path display="inline" opacity="0.2683" fill="#C6C3CD" d="M170.995,270.012l152.327-78.99c1.907-0.996,4.295,0.242,4.295,2.226
		v97.46c0,2.711-1.602,5.217-4.209,6.578l-152.325,79.622c-1.905,0.997-4.296-0.242-4.296-2.227V276.59
		C166.786,273.879,168.387,271.371,170.995,270.012z"/>
	<path display="inline" opacity="0.2927" fill="#C1BEC9" d="M171.69,270.139l150.934-78.266c1.89-0.987,4.254,0.239,4.254,2.206
		v96.568c0,2.685-1.587,5.17-4.167,6.519L171.78,376.057c-1.892,0.986-4.258-0.239-4.258-2.206v-97.193
		C167.522,273.97,169.11,271.486,171.69,270.139z"/>
	<path display="inline" opacity="0.3171" fill="#BCB8C4" d="M172.391,270.267l149.537-77.543c1.87-0.978,4.218,0.238,4.218,2.185
		v95.678c0,2.659-1.574,5.12-4.132,6.457l-149.538,78.163c-1.872,0.978-4.218-0.238-4.218-2.185v-96.297
		C168.258,274.062,169.833,271.604,172.391,270.267z"/>
	<path display="inline" opacity="0.3415" fill="#B7B3C0" d="M173.087,270.394l148.144-76.819c1.854-0.97,4.177,0.235,4.177,2.164
		v94.786c0,2.635-1.561,5.072-4.095,6.396l-148.141,77.435c-1.854,0.969-4.177-0.236-4.177-2.166v-95.397
		C168.995,274.155,170.554,271.717,173.087,270.394z"/>
	<path display="inline" opacity="0.3659" fill="#B1ADBB" d="M173.784,270.522l146.752-76.097c1.835-0.96,4.138,0.232,4.138,2.144
		v93.892c0,2.61-1.545,5.025-4.054,6.337l-146.75,76.707c-1.836,0.958-4.14-0.232-4.14-2.145v-94.5
		C169.73,274.247,171.276,271.834,173.784,270.522z"/>
	<path display="inline" opacity="0.3902" fill="#ACA8B7" d="M174.481,270.649l145.355-75.375c1.819-0.95,4.101,0.232,4.101,2.125
		v92.999c0,2.586-1.53,4.978-4.016,6.278l-145.355,75.976c-1.819,0.95-4.099-0.229-4.099-2.122v-93.604
		C170.467,274.339,171.996,271.947,174.481,270.649z"/>
	<path display="inline" opacity="0.4146" fill="#A7A3B2" d="M175.179,270.778l143.961-74.652c1.804-0.941,4.059,0.229,4.059,2.104
		v92.108c0,2.562-1.513,4.93-3.975,6.218l-143.963,75.247c-1.799,0.942-4.061-0.228-4.061-2.104v-92.704
		C171.201,274.432,172.719,272.063,175.179,270.778z"/>
	<path display="inline" opacity="0.439" fill="#A29DAE" d="M175.876,270.904l142.566-73.928c1.786-0.932,4.021,0.226,4.021,2.084
		v91.217c0,2.535-1.501,4.88-3.937,6.156l-142.568,74.52c-1.785,0.93-4.021-0.227-4.021-2.085v-91.807
		C171.938,274.525,173.438,272.18,175.876,270.904z"/>
	<path display="inline" opacity="0.4634" fill="#9D98A9" d="M176.574,271.034l141.172-73.207c1.768-0.922,3.983,0.225,3.983,2.063
		v90.323c0,2.512-1.485,4.836-3.901,6.096l-141.171,73.793c-1.767,0.921-3.98-0.225-3.98-2.063v-90.912
		C172.676,274.615,174.161,272.293,176.574,271.034z"/>
	<path display="inline" opacity="0.4878" fill="#9892A5" d="M177.27,271.159l139.78-72.48c1.749-0.915,3.94,0.221,3.94,2.042v89.432
		c0,2.487-1.468,4.788-3.859,6.036l-139.778,73.063c-1.75,0.914-3.944-0.222-3.944-2.044v-90.01
		C173.409,274.708,174.884,272.41,177.27,271.159z"/>
	<path display="inline" opacity="0.5122" fill="#928DA0" d="M177.97,271.289l138.383-71.76c1.732-0.904,3.902,0.22,3.902,2.023
		v88.539c0,2.463-1.457,4.739-3.821,5.977l-138.384,72.334c-1.733,0.902-3.904-0.22-3.904-2.023v-89.114
		C174.147,274.802,175.603,272.524,177.97,271.289z"/>
	<path display="inline" opacity="0.5366" fill="#8D879C" d="M178.667,271.415l136.988-71.034c1.717-0.898,3.864,0.216,3.864,2
		v87.648c0,2.436-1.439,4.69-3.783,5.915l-136.988,71.605c-1.716,0.895-3.863-0.219-3.863-2.002V277.33
		C174.884,274.895,176.325,272.64,178.667,271.415z"/>
	<path display="inline" opacity="0.561" fill="#888297" d="M179.366,271.545l135.592-70.314c1.698-0.887,3.825,0.215,3.825,1.981
		v86.756c0,2.412-1.426,4.644-3.745,5.855l-135.596,70.876c-1.696,0.887-3.821-0.216-3.821-1.982v-87.319
		C175.621,274.984,177.045,272.756,179.366,271.545z"/>
	<path display="inline" opacity="0.5854" fill="#837C93" d="M180.062,271.671l134.2-69.589c1.68-0.878,3.787,0.213,3.787,1.96
		v85.864c0,2.388-1.412,4.595-3.708,5.794L180.14,365.849c-1.679,0.878-3.785-0.213-3.785-1.961v-86.422
		C176.355,275.079,177.769,272.87,180.062,271.671z"/>
	<path display="inline" opacity="0.6098" fill="#7E778E" d="M180.758,271.801l132.809-68.869c1.66-0.869,3.744,0.21,3.744,1.941
		v84.971c0,2.362-1.397,4.548-3.668,5.736l-132.808,69.418c-1.66,0.867-3.744-0.212-3.744-1.941v-85.523
		C177.092,275.171,178.487,272.986,180.758,271.801z"/>
	<path display="inline" opacity="0.6341" fill="#79728A" d="M181.459,271.926l131.41-68.142c1.644-0.86,3.706,0.208,3.706,1.919
		v84.081c0,2.337-1.382,4.5-3.628,5.674l-131.415,68.689c-1.644,0.859-3.706-0.208-3.706-1.92v-84.626
		C177.827,275.264,179.211,273.101,181.459,271.926z"/>
	<path display="inline" opacity="0.6585" fill="#736C85" d="M182.154,272.055l130.019-67.42c1.628-0.851,3.666,0.206,3.666,1.898
		v83.187c0,2.314-1.369,4.454-3.591,5.615l-130.019,67.961c-1.625,0.849-3.667-0.206-3.667-1.9v-83.728
		C178.563,275.355,179.932,273.216,182.154,272.055z"/>
	<path display="inline" opacity="0.6829" fill="#6E6781" d="M182.854,272.182l128.621-66.696c1.61-0.843,3.628,0.204,3.628,1.879
		v82.295c0,2.29-1.353,4.405-3.551,5.554l-128.625,67.233c-1.61,0.839-3.627-0.205-3.627-1.883v-82.827
		C179.3,275.448,180.654,273.333,182.854,272.182z"/>
	<path display="inline" opacity="0.7073" fill="#69617C" d="M183.549,272.311l127.23-65.975c1.595-0.833,3.589,0.2,3.589,1.858
		v81.403c0,2.263-1.339,4.356-3.517,5.495l-127.23,66.502c-1.589,0.831-3.586-0.203-3.586-1.86v-81.931
		C180.036,275.54,181.375,273.446,183.549,272.311z"/>
	<path display="inline" opacity="0.7317" fill="#645C78" d="M184.246,272.438l125.837-65.252c1.574-0.822,3.548,0.2,3.548,1.84
		v80.511c0,2.237-1.325,4.309-3.476,5.434l-125.833,65.771c-1.578,0.826-3.55-0.198-3.55-1.835v-81.035
		C180.772,275.633,182.095,273.562,184.246,272.438z"/>
	<path display="inline" opacity="0.7561" fill="#5F5673" d="M184.946,272.566l124.441-64.53c1.559-0.814,3.509,0.197,3.509,1.818
		v79.618c0,2.217-1.31,4.263-3.437,5.375l-124.44,65.046c-1.558,0.812-3.512-0.198-3.512-1.819v-80.136
		C181.507,275.725,182.817,273.677,184.946,272.566z"/>
	<path display="inline" opacity="0.7805" fill="#5A516F" d="M185.643,272.693l123.046-63.806c1.54-0.805,3.469,0.195,3.469,1.798
		v78.727c0,2.188-1.294,4.213-3.398,5.313l-123.044,64.316c-1.54,0.805-3.472-0.196-3.472-1.798v-79.239
		C182.243,275.816,183.538,273.792,185.643,272.693z"/>
	<path display="inline" opacity="0.8049" fill="#544C6A" d="M186.342,272.821l121.651-63.083c1.521-0.795,3.43,0.192,3.43,1.778
		v77.834c0,2.163-1.278,4.167-3.358,5.253l-121.653,63.588c-1.523,0.797-3.432-0.193-3.432-1.776v-78.341
		C182.979,275.909,184.261,273.909,186.342,272.821z"/>
	<path display="inline" opacity="0.8293" fill="#4F4666" d="M187.039,272.947l120.258-62.358c1.503-0.788,3.391,0.19,3.391,1.756
		v76.943c0,2.141-1.267,4.118-3.321,5.193l-120.259,62.858c-1.506,0.785-3.391-0.19-3.391-1.758v-77.441
		C183.716,276.001,184.981,274.022,187.039,272.947z"/>
	<path display="inline" opacity="0.8537" fill="#4A4161" d="M187.735,273.077l118.865-61.637c1.485-0.778,3.351,0.188,3.351,1.736
		v76.049c0,2.115-1.248,4.072-3.284,5.135l-118.863,62.129c-1.489,0.777-3.35-0.188-3.35-1.735v-76.545
		C184.454,276.094,185.703,274.139,187.735,273.077z"/>
	<path display="inline" opacity="0.878" fill="#453B5D" d="M188.433,273.203l117.472-60.912c1.466-0.769,3.312,0.185,3.312,1.716
		v75.158c0,2.091-1.236,4.023-3.245,5.072L188.502,355.64c-1.472,0.769-3.315-0.188-3.315-1.716v-75.647
		C185.187,276.186,186.423,274.253,188.433,273.203z"/>
	<path display="inline" opacity="0.9024" fill="#403658" d="M189.13,273.333l116.078-60.191c1.45-0.76,3.27,0.184,3.27,1.695v74.267
		c0,2.067-1.222,3.975-3.206,5.012L189.199,354.79c-1.455,0.756-3.275-0.187-3.275-1.698v-74.748
		C185.924,276.28,187.147,274.368,189.13,273.333z"/>
	<path display="inline" opacity="0.9268" fill="#3B3054" d="M189.829,273.459l114.681-59.466c1.434-0.75,3.232,0.181,3.232,1.675
		v73.375c0,2.041-1.206,3.926-3.168,4.951l-114.68,59.944c-1.435,0.749-3.236-0.185-3.236-1.677v-73.851
		C186.658,276.37,187.868,274.485,189.829,273.459z"/>
	<path display="inline" opacity="0.9512" fill="#352B4F" d="M190.525,273.588l113.286-58.745c1.418-0.741,3.196,0.18,3.196,1.655
		v72.482c0,2.016-1.193,3.879-3.13,4.892l-113.287,59.216c-1.419,0.74-3.193-0.183-3.193-1.655v-72.954
		C187.397,276.463,188.588,274.599,190.525,273.588z"/>
	<path display="inline" opacity="0.9756" fill="#30254B" d="M191.221,273.714l111.894-58.02c1.399-0.733,3.158,0.177,3.158,1.634
		v71.59c0,1.99-1.178,3.833-3.093,4.832l-111.893,58.487c-1.4,0.73-3.154-0.181-3.154-1.636v-72.056
		C188.133,276.556,189.31,274.715,191.221,273.714z"/>
	<path id="XMLID_9_" display="inline" fill="#2B2046" d="M191.921,273.843l110.497-57.298c1.382-0.723,3.118,0.175,3.118,1.615
		v70.696c0,1.966-1.164,3.785-3.052,4.771l-110.501,57.759c-1.381,0.723-3.115-0.175-3.115-1.614v-71.158
		C188.868,276.649,190.03,274.831,191.921,273.843z"/>
</g>
<g id="XMLID_158_">
	
		<linearGradient id="XMLID_21_" gradientUnits="userSpaceOnUse" x1="-521.4883" y1="316.2803" x2="-182.9277" y2="316.2803" gradientTransform="matrix(-0.5535 0 0 1 92.6601 0)">
		<stop  offset="0" style="stop-color:#3F65E9"/>
		<stop  offset="0.1" style="stop-color:#4568E8"/>
		<stop  offset="0.6762" style="stop-color:#6474E5"/>
		<stop  offset="1" style="stop-color:#6F79E4"/>
	</linearGradient>
	<path id="XMLID_147_" fill="url(#XMLID_21_)" d="M198.771,299.869l176.6-91.51c1.616-0.837,3.668-0.51,4.867,0.777l1.089,1.17
		l-0.789,111.381c0,3.129,0.188,5.831-2.813,7.401l-177.865,95.574h-1.061c-2.696,0-4.88-1.967-4.88-4.394V307.461
		C193.919,304.332,195.767,301.44,198.771,299.869z"/>
	<path id="XMLID_5_" fill="#303768" d="M201.545,300.91l175.774-91.146c2.198-1.15,4.955,0.278,4.955,2.568v112.462
		c0,3.125-1.851,6.018-4.856,7.588L201.65,424.257c-2.2,1.151-4.959-0.277-4.959-2.565V308.499
		C196.69,305.373,198.542,302.479,201.545,300.91z"/>
	<g id="XMLID_4_">
		<polygon id="XMLID_188_" fill="#666EA2" points="338.264,258.583 371.338,241.37 371.261,238.041 338.264,255.187 		"/>
	</g>
	<g id="XMLID_3_">
		<polygon id="XMLID_186_" fill="#666EA2" points="338.264,267.115 371.338,249.942 371.261,246.615 338.264,263.758 		"/>
	</g>
	<g id="XMLID_2_">
		<polygon id="XMLID_184_" fill="#666EA2" points="353.165,267.913 371.338,258.516 371.261,255.187 353.165,264.588 		"/>
	</g>
	
		<linearGradient id="XMLID_22_" gradientUnits="userSpaceOnUse" x1="-509.4814" y1="241.9316" x2="-229.8375" y2="411.0187" gradientTransform="matrix(-0.5535 0 0 1 92.6601 0)">
		<stop  offset="0" style="stop-color:#ED956E"/>
		<stop  offset="0.2309" style="stop-color:#EC8F78"/>
		<stop  offset="0.6192" style="stop-color:#EB7E92"/>
		<stop  offset="1" style="stop-color:#E96AB2"/>
	</linearGradient>
	<path id="XMLID_181_" fill="url(#XMLID_22_)" d="M197.353,343.547c2.054-4.088,5.29-10.216,11.038-10.815
		c6.427-0.671,12.502,5.938,15.067,10.523c2.865,5.122,9.307,13.853,17.002,11.866c7.641-1.972,8.356-12.089,8.65-17.841
		c0.583-11.441,0.98-32.437,17.782-34.474c16.018-1.94,22.088,11.664,28.511,22.035c4.66,7.525,14.464,17.11,25.31,13.191
		c7.646-2.762,11.852-10.119,15.447-16.292c6.949-11.934,14.615-25.098,31.041-14.917c1.354,0.84,9.301,6.448,15.075,12.021v5.948
		c0,3.125-1.851,6.018-4.856,7.588L201.65,424.257c-2.2,1.151-4.959-0.277-4.959-2.565v-76.678
		C196.913,344.524,197.117,344.02,197.353,343.547z"/>
	<path opacity="0.3" fill="#231F20" d="M292.934,251.075v19.561c0,1.849-1.096,3.556-2.869,4.48l-25.984,13.515L261,298.788
		c-0.454,1.499-2.324,2.243-3.86,1.536l-8.157-3.746l-23.957,12.764c-2.162,1.154-4.898-0.249-4.898-2.513v-18.026L292.934,251.075z
		"/>
	<path id="XMLID_179_" fill="#202546" d="M266.467,390.377l-0.683,0.355l0.004-95.771c0.223-0.04,0.45-0.078,0.681-0.11
		L266.467,390.377z"/>
	
		<linearGradient id="XMLID_23_" gradientUnits="userSpaceOnUse" x1="-371.8115" y1="266.7266" x2="-239.1133" y2="266.7266" gradientTransform="matrix(-0.5535 0 0 1 92.6601 0)">
		<stop  offset="0" style="stop-color:#3F65E9"/>
		<stop  offset="0.1" style="stop-color:#4568E8"/>
		<stop  offset="0.6762" style="stop-color:#6474E5"/>
		<stop  offset="1" style="stop-color:#6F79E4"/>
	</linearGradient>
	<path id="XMLID_175_" fill="url(#XMLID_23_)" d="M227.896,264.928l66.313-34.216c0.858-0.443,1.931-0.344,2.675,0.246l1.591,1.262
		l-0.537,31.035c0,1.848-3.228,3.735-5.004,4.659l-25.273,13.81l-38.618,21.293l-2.608-1.045c-0.86-0.359-1.414-1.136-1.414-1.986
		v-30.573C225.02,267.562,226.118,265.853,227.896,264.928z"/>
	<path id="XMLID_1_" fill="#404A8B" d="M299.322,234.188v29.786c0,1.847-1.1,3.555-2.876,4.479l-25.983,13.516l-3.078,10.155
		c-0.454,1.498-2.324,2.242-3.86,1.538l-8.163-3.745l-23.953,12.763c-2.163,1.152-4.898-0.25-4.898-2.517v-30.217
		c0-1.848,1.097-3.558,2.873-4.481l65.064-33.807C296.614,230.531,299.322,231.938,299.322,234.188z"/>
	<g id="XMLID_161_">
		<path id="XMLID_170_" fill="#E96AB2" d="M245.162,280.772l-2.474-2.692l-3.392,1.561l-1.688-1.839l3.39-1.559l-2.471-2.688
			l2.674-1.231l2.471,2.689l3.392-1.558l1.69,1.838l-3.389,1.56l2.473,2.688L245.162,280.772z"/>
		<path id="XMLID_167_" fill="#E96AB2" d="M254.606,269.681c-0.001-0.531-0.16-0.973-0.479-1.322
			c-0.321-0.348-0.739-0.57-1.251-0.666c-0.513-0.096-1-0.042-1.464,0.173c-0.852,0.39-1.23,1.23-1.13,2.52l-3.44,0.006
			c-0.064-1.046,0.105-1.94,0.502-2.677c0.399-0.734,1.184-1.371,2.353-1.91c1.168-0.534,2.459-0.723,3.872-0.558
			c1.412,0.166,2.571,0.743,3.477,1.729c0.495,0.537,0.792,1.139,0.888,1.793c0.098,0.659,0.022,1.588-0.227,2.794l-0.646,3.083
			l5.35-2.459l1.925,2.091l-9.555,4.392l-1.594-1.732l1.088-4.966C254.497,270.974,254.609,270.211,254.606,269.681z"/>
		<path id="XMLID_165_" fill="#E96AB2" d="M265.585,258.84l1.856,2.015l-5.35,2.458l1.607,1.751
			c0.316-0.271,0.735-0.527,1.249-0.764c1.308-0.603,2.712-0.812,4.211-0.641c1.501,0.177,2.726,0.778,3.675,1.812
			c0.949,1.029,1.246,2.104,0.888,3.224c-0.358,1.122-1.251,2.012-2.689,2.673c-1.833,0.841-3.844,1.021-6.036,0.542l0.027-2.437
			c0.194,0.037,0.453,0.074,0.769,0.112c0.31,0.044,0.823,0.053,1.538,0.03c0.712-0.025,1.327-0.155,1.845-0.393
			c0.515-0.239,0.863-0.568,1.044-0.991c0.182-0.424,0.057-0.868-0.373-1.337c-0.432-0.47-0.978-0.73-1.642-0.789
			c-0.668-0.053-1.345,0.077-2.029,0.393s-1.304,0.868-1.863,1.664l-2.221-0.465l-4.685-5.1L265.585,258.84z"/>
		<path id="XMLID_162_" fill="#E96AB2" d="M275.81,256.648c-0.843,0.386-1.291,0.903-1.349,1.542
			c-0.061,0.646,0.201,1.371,0.782,2.165c0.457-0.806,1.157-1.425,2.099-1.86c1.266-0.582,2.615-0.748,4.051-0.5
			c1.427,0.252,2.634,0.904,3.61,1.966c0.973,1.062,1.298,2.122,0.976,3.177s-1.179,1.9-2.563,2.537
			c-0.956,0.438-1.914,0.678-2.882,0.717c-0.963,0.039-1.874-0.105-2.73-0.43c-1.68-0.634-3.203-1.691-4.568-3.175
			c-0.878-0.957-1.5-1.866-1.86-2.73c-0.363-0.856-0.472-1.621-0.322-2.286c0.264-1.311,1.159-2.318,2.679-3.016
			c0.634-0.292,1.303-0.497,2.012-0.618c0.709-0.119,1.286-0.175,1.734-0.169c0.449,0.006,0.965,0.037,1.55,0.092l0.077,2.307
			c-0.136-0.023-0.32-0.052-0.561-0.084c-0.238-0.03-0.653-0.024-1.236,0.017C276.72,256.345,276.219,256.462,275.81,256.648z
			 M278.872,260.599c-0.596,0.272-0.976,0.64-1.132,1.105c-0.156,0.463-0.031,0.913,0.372,1.348
			c0.404,0.438,0.943,0.727,1.619,0.863c0.677,0.135,1.306,0.069,1.889-0.2c0.579-0.266,0.936-0.628,1.067-1.082
			c0.132-0.46-0.007-0.909-0.414-1.354c-0.41-0.442-0.927-0.736-1.555-0.88C280.091,260.255,279.476,260.322,278.872,260.599z"/>
	</g>
</g>
<g display="none" opacity="0.33">
	<polygon id="XMLID_51_" display="inline" opacity="0" fill="#FFFFFF" points="358.054,356.765 387.803,372.155 354.923,389.348 
		324.674,374.038 	"/>
	<polygon display="inline" opacity="0.0244" fill="#FAFAFA" points="358.054,356.765 387.104,371.793 354.216,388.989 
		324.674,374.038 	"/>
	<polygon display="inline" opacity="0.0488" fill="#F5F4F6" points="358.054,356.765 386.403,371.431 353.512,388.632 
		324.674,374.038 	"/>
	<polygon display="inline" opacity="0.0732" fill="#EFEFF1" points="358.054,356.765 385.702,371.067 352.802,388.273 
		324.674,374.038 	"/>
	<polygon display="inline" opacity="0.0976" fill="#EAE9ED" points="358.054,356.765 384.999,370.705 352.098,387.914 
		324.674,374.038 	"/>
	<polygon display="inline" opacity="0.122" fill="#E5E4E8" points="358.054,356.765 384.3,370.343 351.39,387.558 324.674,374.038 	
		"/>
	<polygon display="inline" opacity="0.1463" fill="#E0DEE4" points="358.054,356.765 383.596,369.979 350.682,387.199 
		324.674,374.038 	"/>
	<polygon display="inline" opacity="0.1707" fill="#DBD9DF" points="358.054,356.765 382.896,369.616 349.974,386.841 
		324.674,374.038 	"/>
	<polygon display="inline" opacity="0.1951" fill="#D6D3DB" points="358.054,356.765 382.195,369.254 349.268,386.483 
		324.674,374.038 	"/>
	<polygon display="inline" opacity="0.2195" fill="#D0CED6" points="358.054,356.765 381.494,368.891 348.558,386.125 
		324.674,374.038 	"/>
	<polygon display="inline" opacity="0.2439" fill="#CBC9D2" points="358.054,356.765 380.792,368.529 347.854,385.766 
		324.674,374.038 	"/>
	<polygon display="inline" opacity="0.2683" fill="#C6C3CD" points="358.054,356.765 380.095,368.167 347.144,385.409 
		324.674,374.038 	"/>
	<polygon display="inline" opacity="0.2927" fill="#C1BEC9" points="358.054,356.765 379.394,367.803 346.439,385.05 
		324.674,374.038 	"/>
	<polygon display="inline" opacity="0.3171" fill="#BCB8C4" points="358.054,356.765 378.69,367.439 345.732,384.693 
		324.674,374.038 	"/>
	<polygon display="inline" opacity="0.3415" fill="#B7B3C0" points="358.054,356.765 377.989,367.077 345.024,384.334 
		324.674,374.038 	"/>
	<polygon display="inline" opacity="0.3659" fill="#B1ADBB" points="358.054,356.765 377.29,366.713 344.316,383.976 
		324.674,374.038 	"/>
	<polygon display="inline" opacity="0.3902" fill="#ACA8B7" points="358.054,356.765 376.586,366.354 343.611,383.618 
		324.674,374.038 	"/>
	<polygon display="inline" opacity="0.4146" fill="#A7A3B2" points="358.054,356.765 375.886,365.99 342.901,383.26 
		324.674,374.038 	"/>
	<polygon display="inline" opacity="0.439" fill="#A29DAE" points="358.054,356.765 375.186,365.626 342.195,382.901 
		324.674,374.038 	"/>
	<polygon display="inline" opacity="0.4634" fill="#9D98A9" points="358.054,356.765 374.483,365.264 341.485,382.544 
		324.674,374.038 	"/>
	<polygon display="inline" opacity="0.4878" fill="#9892A5" points="358.054,356.765 373.786,364.901 340.782,382.186 
		324.674,374.038 	"/>
	<polygon display="inline" opacity="0.5122" fill="#928DA0" points="358.054,356.765 373.082,364.537 340.074,381.827 
		324.674,374.038 	"/>
	<polygon display="inline" opacity="0.5366" fill="#8D879C" points="358.054,356.765 372.383,364.177 339.367,381.47 
		324.674,374.038 	"/>
	<polygon display="inline" opacity="0.561" fill="#888297" points="358.054,356.765 371.68,363.813 338.66,381.111 324.674,374.038 
			"/>
	<polygon display="inline" opacity="0.5854" fill="#837C93" points="358.054,356.765 370.979,363.45 337.953,380.752 
		324.674,374.038 	"/>
	<polygon display="inline" opacity="0.6098" fill="#7E778E" points="358.054,356.765 370.278,363.088 337.244,380.396 
		324.674,374.038 	"/>
	<polygon display="inline" opacity="0.6341" fill="#79728A" points="358.054,356.765 369.575,362.725 336.537,380.037 
		324.674,374.038 	"/>
	<polygon display="inline" opacity="0.6585" fill="#736C85" points="358.054,356.765 368.875,362.363 335.83,379.679 
		324.674,374.038 	"/>
	<polygon display="inline" opacity="0.6829" fill="#6E6781" points="358.054,356.765 368.175,362 335.124,379.32 324.674,374.038 	
		"/>
	<polygon display="inline" opacity="0.7073" fill="#69617C" points="358.054,356.765 367.472,361.637 334.415,378.962 
		324.674,374.038 	"/>
	<polygon display="inline" opacity="0.7317" fill="#645C78" points="358.054,356.765 366.773,361.274 333.709,378.605 
		324.674,374.038 	"/>
	<polygon display="inline" opacity="0.7561" fill="#5F5673" points="358.054,356.765 366.071,360.911 333.002,378.247 
		324.674,374.038 	"/>
	<polygon display="inline" opacity="0.7805" fill="#5A516F" points="358.054,356.765 365.37,360.548 332.295,377.887 
		324.674,374.038 	"/>
	<polygon display="inline" opacity="0.8049" fill="#544C6A" points="358.054,356.765 364.67,360.187 331.586,377.531 
		324.674,374.038 	"/>
	<polygon display="inline" opacity="0.8293" fill="#4F4666" points="358.054,356.765 363.968,359.824 330.882,377.172 
		324.674,374.038 	"/>
	<polygon display="inline" opacity="0.8537" fill="#4A4161" points="358.054,356.765 363.267,359.46 330.175,376.813 
		324.674,374.038 	"/>
	<polygon display="inline" opacity="0.878" fill="#453B5D" points="358.054,356.765 362.564,359.097 329.468,376.456 
		324.674,374.038 	"/>
	<polygon display="inline" opacity="0.9024" fill="#403658" points="358.054,356.765 361.864,358.734 328.759,376.098 
		324.674,374.038 	"/>
	<polygon display="inline" opacity="0.9268" fill="#3B3054" points="358.054,356.765 361.164,358.372 328.052,375.737 
		324.674,374.038 	"/>
	<polygon display="inline" opacity="0.9512" fill="#352B4F" points="358.054,356.765 360.464,358.011 327.347,375.382 
		324.674,374.038 	"/>
	<polygon display="inline" opacity="0.9756" fill="#30254B" points="358.054,356.765 359.763,357.647 326.637,375.023 
		324.674,374.038 	"/>
	<polygon id="XMLID_50_" display="inline" fill="#2B2046" points="358.054,356.765 359.062,357.283 325.933,374.666 
		324.674,374.038 	"/>
</g>
<g display="none" opacity="0.33">
	<polygon id="XMLID_105_" display="inline" opacity="0" fill="#FFFFFF" points="460.469,316.903 502.804,338.808 456.013,363.271 
		412.959,341.481 	"/>
	<polygon display="inline" opacity="0.0244" fill="#FAFAFA" points="460.469,316.903 501.806,338.289 455.005,362.763 
		412.959,341.481 	"/>
	<polygon display="inline" opacity="0.0488" fill="#F5F4F6" points="460.469,316.903 500.807,337.774 453.997,362.253 
		412.959,341.481 	"/>
	<polygon display="inline" opacity="0.0732" fill="#EFEFF1" points="460.469,316.903 499.81,337.258 452.991,361.743 
		412.959,341.481 	"/>
	<polygon display="inline" opacity="0.0976" fill="#EAE9ED" points="460.469,316.903 498.812,336.742 451.987,361.233 
		412.959,341.481 	"/>
	<polygon display="inline" opacity="0.122" fill="#E5E4E8" points="460.469,316.903 497.815,336.226 450.98,360.724 
		412.959,341.481 	"/>
	<polygon display="inline" opacity="0.1463" fill="#E0DEE4" points="460.469,316.903 496.817,335.708 449.974,360.215 
		412.959,341.481 	"/>
	<polygon display="inline" opacity="0.1707" fill="#DBD9DF" points="460.469,316.903 495.819,335.193 448.966,359.706 
		412.959,341.481 	"/>
	<polygon display="inline" opacity="0.1951" fill="#D6D3DB" points="460.469,316.903 494.82,334.676 447.961,359.195 
		412.959,341.481 	"/>
	<polygon display="inline" opacity="0.2195" fill="#D0CED6" points="460.469,316.903 493.825,334.16 446.954,358.687 
		412.959,341.481 	"/>
	<polygon display="inline" opacity="0.2439" fill="#CBC9D2" points="460.469,316.903 492.824,333.644 445.949,358.175 
		412.959,341.481 	"/>
	<polygon display="inline" opacity="0.2683" fill="#C6C3CD" points="460.469,316.903 491.829,333.129 444.941,357.666 
		412.959,341.481 	"/>
	<polygon display="inline" opacity="0.2927" fill="#C1BEC9" points="460.469,316.903 490.831,332.611 443.937,357.158 
		412.959,341.481 	"/>
	<polygon display="inline" opacity="0.3171" fill="#BCB8C4" points="460.469,316.903 489.832,332.096 442.929,356.646 
		412.959,341.481 	"/>
	<polygon display="inline" opacity="0.3415" fill="#B7B3C0" points="460.469,316.903 488.835,331.578 441.924,356.138 
		412.959,341.481 	"/>
	<polygon display="inline" opacity="0.3659" fill="#B1ADBB" points="460.469,316.903 487.838,331.064 440.914,355.627 
		412.959,341.481 	"/>
	<polygon display="inline" opacity="0.3902" fill="#ACA8B7" points="460.469,316.903 486.838,330.547 439.909,355.119 
		412.959,341.481 	"/>
	<polygon display="inline" opacity="0.4146" fill="#A7A3B2" points="460.469,316.903 485.843,330.031 438.902,354.607 
		412.959,341.481 	"/>
	<polygon display="inline" opacity="0.439" fill="#A29DAE" points="460.469,316.903 484.845,329.514 437.896,354.099 
		412.959,341.481 	"/>
	<polygon display="inline" opacity="0.4634" fill="#9D98A9" points="460.469,316.903 483.846,328.999 436.889,353.591 
		412.959,341.481 	"/>
	<polygon display="inline" opacity="0.4878" fill="#9892A5" points="460.469,316.903 482.849,328.482 435.883,353.079 
		412.959,341.481 	"/>
	<polygon display="inline" opacity="0.5122" fill="#928DA0" points="460.469,316.903 481.854,327.967 434.879,352.57 
		412.959,341.481 	"/>
	<polygon display="inline" opacity="0.5366" fill="#8D879C" points="460.469,316.903 480.854,327.449 433.872,352.061 
		412.959,341.481 	"/>
	<polygon display="inline" opacity="0.561" fill="#888297" points="460.469,316.903 479.855,326.935 432.864,351.552 
		412.959,341.481 	"/>
	<polygon display="inline" opacity="0.5854" fill="#837C93" points="460.469,316.903 478.857,326.417 431.857,351.04 
		412.959,341.481 	"/>
	<polygon display="inline" opacity="0.6098" fill="#7E778E" points="460.469,316.903 477.859,325.899 430.851,350.531 
		412.959,341.481 	"/>
	<polygon display="inline" opacity="0.6341" fill="#79728A" points="460.469,316.903 476.864,325.385 429.847,350.023 
		412.959,341.481 	"/>
	<polygon display="inline" opacity="0.6585" fill="#736C85" points="460.469,316.903 475.865,324.868 428.841,349.512 
		412.959,341.481 	"/>
	<polygon display="inline" opacity="0.6829" fill="#6E6781" points="460.469,316.903 474.867,324.353 427.833,349.003 
		412.959,341.481 	"/>
	<polygon display="inline" opacity="0.7073" fill="#69617C" points="460.469,316.903 473.87,323.835 426.828,348.491 
		412.959,341.481 	"/>
	<polygon display="inline" opacity="0.7317" fill="#645C78" points="460.469,316.903 472.871,323.319 425.82,347.983 
		412.959,341.481 	"/>
	<polygon display="inline" opacity="0.7561" fill="#5F5673" points="460.469,316.903 471.874,322.804 424.816,347.475 
		412.959,341.481 	"/>
	<polygon display="inline" opacity="0.7805" fill="#5A516F" points="460.469,316.903 470.877,322.289 423.806,346.964 
		412.959,341.481 	"/>
	<polygon display="inline" opacity="0.8049" fill="#544C6A" points="460.469,316.903 469.877,321.771 422.802,346.455 
		412.959,341.481 	"/>
	<polygon display="inline" opacity="0.8293" fill="#4F4666" points="460.469,316.903 468.882,321.256 421.795,345.944 
		412.959,341.481 	"/>
	<polygon display="inline" opacity="0.8537" fill="#4A4161" points="460.469,316.903 467.883,320.739 420.788,345.436 
		412.959,341.481 	"/>
	<polygon display="inline" opacity="0.878" fill="#453B5D" points="460.469,316.903 466.885,320.224 419.78,344.927 
		412.959,341.481 	"/>
	<polygon display="inline" opacity="0.9024" fill="#403658" points="460.469,316.903 465.889,319.706 418.773,344.416 
		412.959,341.481 	"/>
	<polygon display="inline" opacity="0.9268" fill="#3B3054" points="460.469,316.903 464.889,319.191 417.767,343.907 
		412.959,341.481 	"/>
	<polygon display="inline" opacity="0.9512" fill="#352B4F" points="460.469,316.903 463.894,318.675 416.764,343.396 
		412.959,341.481 	"/>
	<polygon display="inline" opacity="0.9756" fill="#30254B" points="460.469,316.903 462.895,318.159 415.756,342.887 
		412.959,341.481 	"/>
	<polygon id="XMLID_104_" display="inline" fill="#2B2046" points="460.469,316.903 461.896,317.642 414.748,342.377 
		412.959,341.481 	"/>
</g>
<g>
	<g id="XMLID_98_">
		<path fill="#F2B1B5" d="M405.086,263.628c4.786,0,9.178-2.208,11.705-5.971l7.978-11.877c1.602-2.388,0.751-5.488-1.901-6.93
			c-2.646-1.438-6.096-0.677-7.696,1.71l-7.979,11.877c-0.724,1.076-1.821,1.146-2.429,1.083c-0.599-0.059-1.67-0.334-2.12-1.525
			l-9.673-25.64c-0.998-2.64-4.175-4.055-7.111-3.155c-2.934,0.895-4.505,3.761-3.511,6.399l9.677,25.637
			c1.735,4.606,6.152,7.791,11.528,8.316C404.067,263.603,404.578,263.628,405.086,263.628z"/>
	</g>
	<path id="XMLID_97_" fill="#303768" d="M351.536,403.257l-0.014,5.323c-0.008,2.082,1.68,3.855,3.966,4.173l0.987,0.138
		c2.903,0.404,5.869-0.134,8.378-1.512l30.446-16.772l-0.188-7.881l-35.239,20.98L351.536,403.257z"/>
	<path id="XMLID_96_" fill="#3F65E9" d="M373.762,378.813l-3.004,10.303l-15.89,9.262c-4.519,2.414-4.467,8.312,0.093,10.663l0,0
		c2.118,1.092,4.718,1.087,6.835-0.012l33.397-18.873l-0.048-6.616c-0.02-2.615-2.382-4.727-5.286-4.727H373.762z"/>
	<path opacity="0.15" fill="#EF9EA3" d="M354.868,398.378l15.89-9.262l3.004-10.303h16.098c1.802,0,3.394,0.816,4.35,2.058
		c-0.859-0.54-1.897-0.863-3.021-0.863h-16.1l-3.003,10.303l-15.889,9.262c-3.662,1.958-4.271,6.179-1.958,8.971
		C350.464,405.957,350.622,400.646,354.868,398.378z"/>
	<path id="XMLID_95_" fill="#303768" d="M510.271,368.805l5.271,1.204l0,0c3.358-0.188,5.971-2.689,5.971-5.715l1.121-5.819
		c0-0.485-0.129-0.962-0.373-1.393l-12.592-22.009c-0.477-0.839-1.418-1.381-2.462-1.431l-7.06-0.331l16.062,25.796l-1.015,3.342
		L510.271,368.805z"/>
	<path id="XMLID_94_" fill="#3F65E9" d="M489.811,351.889l11.195,3.458l5.244,6.429l0,0c-1.084,2.403-0.031,5.157,2.462,6.455
		l4.528,2.358l2.854-0.58c1.367-1.82,1.685-7.109,1.685-7.109l0.986-4.24l-14.807-25.168l-6.403-0.39
		c-3.417-0.206-6.376,2.106-6.626,5.177L489.811,351.889z"/>
	<g id="XMLID_93_">
		<path fill="#303768" d="M383.567,385.124c5.575,0,10.096-4.066,10.096-9.083l0.794-41.507c0-0.979,0.554-1.869,1.474-2.388
			l39.757-16.486c4.728-2.662-4.208-12.23-7.162-16.484c-2.959-4.253-9.186-5.54-13.909-2.884l-30.189,16.998
			c-6.854,3.858-10.949,10.508-10.949,17.789v44.962C373.478,381.058,377.995,385.124,383.567,385.124z"/>
	</g>
	<path opacity="0.15" fill="#EF9EA3" d="M384.427,313.29l30.189-16.998c2.032-1.143,4.336-1.517,6.546-1.275
		c-1.346,0.175-2.669,0.588-3.895,1.275l-30.184,16.998c-6.856,3.858-10.953,10.508-10.953,17.789v44.962
		c0,4.607,3.826,8.373,8.766,8.963c-0.439,0.053-0.873,0.12-1.329,0.12c-5.572,0-10.09-4.066-10.09-9.083v-44.962
		C373.478,323.798,377.573,317.148,384.427,313.29z"/>
	<g id="XMLID_92_">
		<path fill="#303768" d="M462.286,379.201c3.628,0,7.254-0.859,10.563-2.578l28.523-25.784c4.824-2.509,6.479-8.064,3.689-12.409
			c-2.785-4.343-8.959-5.831-13.786-3.324l-26.159,24.02c-0.156,0.082-0.983,1.098-0.983,1.098s0.094-1.978,0.094-2.135
			l-2.877-41.112c0-5.017-4.521-9.083-10.092-9.083c-5.575,0-14.339,1.159-14.339,6.177l4.246,46.096
			c0,6.874,3.949,13.025,10.562,16.463C455.032,378.344,458.658,379.201,462.286,379.201z"/>
	</g>
	<path id="XMLID_91_" fill="#303768" d="M454.074,193.996c0,3.535-3.185,6.401-7.116,6.401c-3.925,0-7.108-2.866-7.108-6.401
		c0-3.534,3.184-6.4,7.108-6.4C450.89,187.596,454.074,190.461,454.074,193.996z"/>
	<ellipse id="XMLID_90_" fill="#303768" cx="445.266" cy="202.153" rx="7.112" ry="6.4"/>
	<path id="XMLID_89_" fill="#303768" d="M416.942,188.673l0.644,16.266c0,5.121,2.506,9.066,7.622,11.627l0,0
		c11.016,5.518,24.786-1.38,24.786-12.415v-15.478c0-5.123-3.146-9.855-8.261-12.416l0,0
		C430.715,170.738,416.942,177.636,416.942,188.673z"/>
	<path id="XMLID_88_" fill="#303768" d="M412.859,235.564v64.214c0,3.633,2.152,6.992,5.651,8.811L455,327.549
		c3.758,1.95,8.452-0.487,8.452-4.39v-64.214c0-3.633-2.158-6.993-5.656-8.811l-36.488-18.961
		C417.552,229.222,412.859,231.662,412.859,235.564z"/>
	<path id="XMLID_87_" fill="#3F65E9" d="M410.525,230.167v51.649c0,7.014,4.156,13.49,10.9,16.995l23.969,12.454
		c8.882,4.615,19.983-1.153,19.983-10.384v-58.373c0-3.941-2.337-7.582-6.124-9.552l-27.051-14.054
		C422.569,213.896,410.525,220.154,410.525,230.167z"/>
	<path opacity="0.15" fill="#EF9EA3" d="M426.42,217.216c-7.05,0.556-13.24,5.776-13.24,12.951v51.649
		c0,7.014,4.155,13.49,10.899,16.995l23.97,12.454c1.686,0.875,3.448,1.375,5.202,1.55c-2.593,0.218-5.312-0.229-7.856-1.55
		l-23.969-12.454c-6.744-3.505-10.9-9.981-10.9-16.995v-51.649C410.525,222.101,418.342,216.481,426.42,217.216z"/>
	<g id="XMLID_85_">
		<path id="XMLID_86_" fill="#F2B1B5" d="M438.053,234.707c-3.27,0-5.939-2.37-5.975-5.319l-0.204-17.192
			c-0.036-2.969,2.61-5.403,5.912-5.434c3.319-0.004,6.001,2.348,6.038,5.319l0.204,17.192c0.035,2.97-2.611,5.402-5.912,5.434
			C438.098,234.707,438.072,234.707,438.053,234.707z"/>
	</g>
	<path id="XMLID_84_" opacity="0.3" fill="#231F20" d="M443.829,222.355v-9.541l-0.005-0.733c-0.037-2.971-2.719-5.323-6.038-5.319
		c-3.302,0.031-5.948,2.465-5.912,5.434l0.141,11.668c1.91,0.51,3.93-0.742,6.024-0.742L443.829,222.355z"/>
	<path id="XMLID_83_" fill="#F2B1B5" d="M443.829,222.355h-13.367c-7.466,0-13.52-5.447-13.52-12.166v-20.296h14.831
		c6.658,0,12.056,4.858,12.056,10.852V222.355z"/>
	<path id="XMLID_82_" fill="#F2B1B5" d="M446.958,198.603c0,1.557-1.398,2.818-3.129,2.818c-1.724,0-3.128-1.261-3.128-2.818
		c0-1.554,1.404-2.816,3.128-2.816C445.56,195.787,446.958,197.049,446.958,198.603z"/>
	<path id="XMLID_81_" fill="#303768" d="M441.326,202.153h-2.223c-0.637,0-1.152-0.466-1.152-1.04v-14.237
		c0-0.574,0.516-1.039,1.152-1.039h2.223c0.634,0,1.151,0.465,1.151,1.039v14.239C442.478,201.688,441.96,202.153,441.326,202.153z"
		/>
	<path id="XMLID_80_" fill="#303768" d="M425.085,187.596c0,2.541-2.29,4.602-5.119,4.602c-2.823,0-5.112-2.061-5.112-4.602
		c0-2.542,2.289-4.604,5.112-4.604C422.795,182.991,425.085,185.054,425.085,187.596z"/>
	<path id="XMLID_79_" fill="#303768" d="M435.502,186.564c0,2.542-2.291,4.603-5.116,4.603c-2.821,0-5.115-2.061-5.115-4.603
		c0-2.543,2.294-4.604,5.115-4.604C433.211,181.959,435.502,184.021,435.502,186.564z"/>
	<ellipse id="XMLID_78_" fill="#303768" cx="437.854" cy="188.36" rx="5.115" ry="4.604"/>
	<path id="XMLID_77_" fill="#303768" d="M427.079,181.959c0,3.535-3.185,6.4-7.113,6.4c-3.928,0-7.106-2.865-7.106-6.4
		c0-3.535,3.179-6.401,7.106-6.401C423.895,175.558,427.079,178.425,427.079,181.959z"/>
	<path id="XMLID_76_" fill="#303768" d="M437.501,179.389c0,3.535-3.185,6.401-7.115,6.401c-3.926,0-7.109-2.866-7.109-6.401
		c0-3.536,3.184-6.4,7.109-6.4C434.316,172.989,437.501,175.854,437.501,179.389z"/>
	<ellipse id="XMLID_75_" fill="#303768" cx="438.155" cy="179.389" rx="7.111" ry="6.401"/>
	<ellipse id="XMLID_74_" fill="#303768" cx="445.266" cy="185.79" rx="7.112" ry="6.401"/>
	<g id="XMLID_73_">
		<path fill="#F2B1B5" d="M380.512,296.449c0.25,0,0.503-0.014,0.759-0.046l37.308-4.556c15.454-1.885,28.257-12.329,31.857-25.987
			l5.035-19.089c0.713-2.713-1.147-5.432-4.163-6.076c-3.019-0.646-6.034,1.034-6.752,3.745l-5.031,19.091
			c-2.537,9.624-11.561,16.988-22.453,18.315l-37.308,4.557c-3.067,0.373-5.221,2.916-4.801,5.678
			C375.343,294.61,377.751,296.449,380.512,296.449z"/>
	</g>
	<g id="XMLID_72_">
		<path fill="#3F65E9" d="M443.654,274.562c3.015,0,5.759-1.838,6.524-4.59l6.363-22.898c0.902-3.243-1.292-6.531-4.899-7.344
			c-3.611-0.821-7.254,1.164-8.156,4.406l-6.365,22.899c-0.901,3.242,1.29,6.53,4.896,7.342
			C442.566,274.501,443.117,274.562,443.654,274.562z"/>
	</g>
	<path fill="#F2B1B5" d="M367.157,291.954c0,3.853,3.472,6.977,7.753,6.977c4.283,0,7.756-3.124,7.756-6.977
		c0-3.855-3.473-6.981-7.756-6.981C370.629,284.973,367.157,288.099,367.157,291.954z"/>
	<ellipse fill="#F2B1B5" cx="389.565" cy="226.886" rx="7.754" ry="6.979"/>
</g>
<g display="none" opacity="0.33">
	<polygon id="XMLID_109_" display="inline" opacity="0" fill="#FFFFFF" points="62.405,429.061 92.153,444.453 59.275,461.645 
		29.023,446.335 	"/>
	<polygon display="inline" opacity="0.0244" fill="#FAFAFA" points="62.405,429.061 91.453,444.09 58.568,461.286 29.023,446.335 	
		"/>
	<polygon display="inline" opacity="0.0488" fill="#F5F4F6" points="62.405,429.061 90.753,443.727 57.862,460.93 29.023,446.335 	
		"/>
	<polygon display="inline" opacity="0.0732" fill="#EFEFF1" points="62.405,429.061 90.052,443.364 57.154,460.57 29.023,446.335 	
		"/>
	<polygon display="inline" opacity="0.0976" fill="#EAE9ED" points="62.405,429.061 89.351,443.002 56.446,460.212 29.023,446.335 	
		"/>
	<polygon display="inline" opacity="0.122" fill="#E5E4E8" points="62.405,429.061 88.65,442.64 55.739,459.854 29.023,446.335 	"/>
	<polygon display="inline" opacity="0.1463" fill="#E0DEE4" points="62.405,429.061 87.947,442.277 55.034,459.496 29.023,446.335 	
		"/>
	<polygon display="inline" opacity="0.1707" fill="#DBD9DF" points="62.405,429.061 87.247,441.913 54.325,459.138 29.023,446.335 	
		"/>
	<polygon display="inline" opacity="0.1951" fill="#D6D3DB" points="62.405,429.061 86.546,441.551 53.619,458.78 29.023,446.335 	
		"/>
	<polygon display="inline" opacity="0.2195" fill="#D0CED6" points="62.405,429.061 85.846,441.188 52.909,458.422 29.023,446.335 	
		"/>
	<polygon display="inline" opacity="0.2439" fill="#CBC9D2" points="62.405,429.061 85.144,440.826 52.203,458.064 29.023,446.335 	
		"/>
	<polygon display="inline" opacity="0.2683" fill="#C6C3CD" points="62.405,429.061 84.442,440.464 51.496,457.706 29.023,446.335 	
		"/>
	<polygon display="inline" opacity="0.2927" fill="#C1BEC9" points="62.405,429.061 83.743,440.102 50.791,457.348 29.023,446.335 	
		"/>
	<polygon display="inline" opacity="0.3171" fill="#BCB8C4" points="62.405,429.061 83.041,439.736 50.081,456.99 29.023,446.335 	
		"/>
	<polygon display="inline" opacity="0.3415" fill="#B7B3C0" points="62.405,429.061 82.342,439.374 49.375,456.632 29.023,446.335 	
		"/>
	<polygon display="inline" opacity="0.3659" fill="#B1ADBB" points="62.405,429.061 81.64,439.013 48.667,456.272 29.023,446.335 	
		"/>
	<polygon display="inline" opacity="0.3902" fill="#ACA8B7" points="62.405,429.061 80.938,438.65 47.962,455.916 29.023,446.335 	
		"/>
	<polygon display="inline" opacity="0.4146" fill="#A7A3B2" points="62.405,429.061 80.237,438.288 47.253,455.558 29.023,446.335 	
		"/>
	<polygon display="inline" opacity="0.439" fill="#A29DAE" points="62.405,429.061 79.536,437.923 46.545,455.197 29.023,446.335 	
		"/>
	<polygon display="inline" opacity="0.4634" fill="#9D98A9" points="62.405,429.061 78.833,437.561 45.838,454.842 29.023,446.335 	
		"/>
	<polygon display="inline" opacity="0.4878" fill="#9892A5" points="62.405,429.061 78.132,437.198 45.133,454.482 29.023,446.335 	
		"/>
	<polygon display="inline" opacity="0.5122" fill="#928DA0" points="62.405,429.061 77.433,436.837 44.425,454.124 29.023,446.335 	
		"/>
	<polygon display="inline" opacity="0.5366" fill="#8D879C" points="62.405,429.061 76.732,436.475 43.718,453.767 29.023,446.335 	
		"/>
	<polygon display="inline" opacity="0.561" fill="#888297" points="62.405,429.061 76.031,436.11 43.009,453.408 29.023,446.335 	
		"/>
	<polygon display="inline" opacity="0.5854" fill="#837C93" points="62.405,429.061 75.331,435.747 42.302,453.051 29.023,446.335 	
		"/>
	<polygon display="inline" opacity="0.6098" fill="#7E778E" points="62.405,429.061 74.628,435.385 41.596,452.692 29.023,446.335 	
		"/>
	<polygon display="inline" opacity="0.6341" fill="#79728A" points="62.405,429.061 73.927,435.021 40.89,452.334 29.023,446.335 	
		"/>
	<polygon display="inline" opacity="0.6585" fill="#736C85" points="62.405,429.061 73.225,434.66 40.18,451.977 29.023,446.335 	
		"/>
	<polygon display="inline" opacity="0.6829" fill="#6E6781" points="62.405,429.061 72.524,434.297 39.475,451.618 29.023,446.335 	
		"/>
	<polygon display="inline" opacity="0.7073" fill="#69617C" points="62.405,429.061 71.821,433.935 38.765,451.259 29.023,446.335 	
		"/>
	<polygon display="inline" opacity="0.7317" fill="#645C78" points="62.405,429.061 71.122,433.571 38.061,450.902 29.023,446.335 	
		"/>
	<polygon display="inline" opacity="0.7561" fill="#5F5673" points="62.405,429.061 70.422,433.207 37.352,450.544 29.023,446.335 	
		"/>
	<polygon display="inline" opacity="0.7805" fill="#5A516F" points="62.405,429.061 69.721,432.845 36.646,450.186 29.023,446.335 	
		"/>
	<polygon display="inline" opacity="0.8049" fill="#544C6A" points="62.405,429.061 69.021,432.483 35.938,449.828 29.023,446.335 	
		"/>
	<polygon display="inline" opacity="0.8293" fill="#4F4666" points="62.405,429.061 68.319,432.121 35.233,449.469 29.023,446.335 	
		"/>
	<polygon display="inline" opacity="0.8537" fill="#4A4161" points="62.405,429.061 67.617,431.759 34.524,449.109 29.023,446.335 	
		"/>
	<polygon display="inline" opacity="0.878" fill="#453B5D" points="62.405,429.061 66.916,431.394 33.818,448.754 29.023,446.335 	
		"/>
	<polygon display="inline" opacity="0.9024" fill="#403658" points="62.405,429.061 66.213,431.031 33.109,448.396 29.023,446.335 	
		"/>
	<polygon display="inline" opacity="0.9268" fill="#3B3054" points="62.405,429.061 65.513,430.669 32.402,448.035 29.023,446.335 	
		"/>
	<polygon display="inline" opacity="0.9512" fill="#352B4F" points="62.405,429.061 64.811,430.308 31.694,447.679 29.023,446.335 	
		"/>
	<polygon display="inline" opacity="0.9756" fill="#30254B" points="62.405,429.061 64.113,429.944 30.988,447.32 29.023,446.335 	
		"/>
	<polygon id="XMLID_108_" display="inline" fill="#2B2046" points="62.405,429.061 63.411,429.582 30.281,446.963 29.023,446.335 	
		"/>
</g>
<g display="none" opacity="0.33">
	<polygon id="XMLID_113_" display="inline" opacity="0" fill="#FFFFFF" points="87.32,448.914 156.489,488.213 123.608,505.406 
		53.936,466.186 	"/>
	<polygon display="inline" opacity="0.0244" fill="#FAFAFA" points="87.32,448.914 154.827,487.269 121.94,504.467 53.936,466.186 	
		"/>
	<polygon display="inline" opacity="0.0488" fill="#F5F4F6" points="87.32,448.914 153.163,486.322 120.271,503.525 53.936,466.186 
			"/>
	<polygon display="inline" opacity="0.0732" fill="#EFEFF1" points="87.32,448.914 151.5,485.378 118.604,502.583 53.936,466.186 	
		"/>
	<polygon display="inline" opacity="0.0976" fill="#EAE9ED" points="87.32,448.914 149.838,484.431 116.933,501.643 53.936,466.186 
			"/>
	<polygon display="inline" opacity="0.122" fill="#E5E4E8" points="87.32,448.914 148.176,483.484 115.265,500.699 53.936,466.186 	
		"/>
	<polygon display="inline" opacity="0.1463" fill="#E0DEE4" points="87.32,448.914 146.513,482.54 113.598,499.759 53.936,466.186 	
		"/>
	<polygon display="inline" opacity="0.1707" fill="#DBD9DF" points="87.32,448.914 144.851,481.594 111.927,498.817 53.936,466.186 
			"/>
	<polygon display="inline" opacity="0.1951" fill="#D6D3DB" points="87.32,448.914 143.188,480.649 110.26,497.876 53.936,466.186 	
		"/>
	<polygon display="inline" opacity="0.2195" fill="#D0CED6" points="87.32,448.914 141.524,479.702 108.59,496.935 53.936,466.186 	
		"/>
	<polygon display="inline" opacity="0.2439" fill="#CBC9D2" points="87.32,448.914 139.864,478.755 106.921,495.993 53.936,466.186 
			"/>
	<polygon display="inline" opacity="0.2683" fill="#C6C3CD" points="87.32,448.914 138.2,477.809 105.253,495.051 53.936,466.186 	
		"/>
	<polygon display="inline" opacity="0.2927" fill="#C1BEC9" points="87.32,448.914 136.538,476.864 103.584,494.111 53.936,466.186 
			"/>
	<polygon display="inline" opacity="0.3171" fill="#BCB8C4" points="87.32,448.914 134.875,475.918 101.917,493.171 53.936,466.186 
			"/>
	<polygon display="inline" opacity="0.3415" fill="#B7B3C0" points="87.32,448.914 133.211,474.971 100.247,492.229 53.936,466.186 
			"/>
	<polygon display="inline" opacity="0.3659" fill="#B1ADBB" points="87.32,448.914 131.551,474.026 98.579,491.288 53.936,466.186 	
		"/>
	<polygon display="inline" opacity="0.3902" fill="#ACA8B7" points="87.32,448.914 129.887,473.08 96.911,490.346 53.936,466.186 	
		"/>
	<polygon display="inline" opacity="0.4146" fill="#A7A3B2" points="87.32,448.914 128.225,472.136 95.241,489.404 53.936,466.186 	
		"/>
	<polygon display="inline" opacity="0.439" fill="#A29DAE" points="87.32,448.914 126.562,471.189 93.574,488.463 53.936,466.186 	
		"/>
	<polygon display="inline" opacity="0.4634" fill="#9D98A9" points="87.32,448.914 124.901,470.242 91.903,487.522 53.936,466.186 	
		"/>
	<polygon display="inline" opacity="0.4878" fill="#9892A5" points="87.32,448.914 123.236,469.298 90.235,486.58 53.936,466.186 	
		"/>
	<polygon display="inline" opacity="0.5122" fill="#928DA0" points="87.32,448.914 121.575,468.352 88.568,485.641 53.936,466.186 	
		"/>
	<polygon display="inline" opacity="0.5366" fill="#8D879C" points="87.32,448.914 119.913,467.404 86.898,484.699 53.936,466.186 	
		"/>
	<polygon display="inline" opacity="0.561" fill="#888297" points="87.32,448.914 118.249,466.458 85.231,483.758 53.936,466.186 	
		"/>
	<polygon display="inline" opacity="0.5854" fill="#837C93" points="87.32,448.914 116.588,465.514 83.56,482.816 53.936,466.186 	
		"/>
	<polygon display="inline" opacity="0.6098" fill="#7E778E" points="87.32,448.914 114.925,464.566 81.892,481.875 53.936,466.186 	
		"/>
	<polygon display="inline" opacity="0.6341" fill="#79728A" points="87.32,448.914 113.262,463.621 80.225,480.933 53.936,466.186 	
		"/>
	<polygon display="inline" opacity="0.6585" fill="#736C85" points="87.32,448.914 111.598,462.676 78.553,479.991 53.936,466.186 	
		"/>
	<polygon display="inline" opacity="0.6829" fill="#6E6781" points="87.32,448.914 109.936,461.729 76.886,479.051 53.936,466.186 	
		"/>
	<polygon display="inline" opacity="0.7073" fill="#69617C" points="87.32,448.914 108.274,460.784 75.219,478.108 53.936,466.186 	
		"/>
	<polygon display="inline" opacity="0.7317" fill="#645C78" points="87.32,448.914 106.612,459.838 73.55,477.167 53.936,466.186 	
		"/>
	<polygon display="inline" opacity="0.7561" fill="#5F5673" points="87.32,448.914 104.949,458.892 71.881,476.226 53.936,466.186 	
		"/>
	<polygon display="inline" opacity="0.7805" fill="#5A516F" points="87.32,448.914 103.287,457.947 70.212,475.287 53.936,466.186 	
		"/>
	<polygon display="inline" opacity="0.8049" fill="#544C6A" points="87.32,448.914 101.624,456.999 68.543,474.344 53.936,466.186 	
		"/>
	<polygon display="inline" opacity="0.8293" fill="#4F4666" points="87.32,448.914 99.964,456.054 66.876,473.403 53.936,466.186 	
		"/>
	<polygon display="inline" opacity="0.8537" fill="#4A4161" points="87.32,448.914 98.3,455.106 65.206,472.461 53.936,466.186 	"/>
	<polygon display="inline" opacity="0.878" fill="#453B5D" points="87.32,448.914 96.637,454.162 63.539,471.521 53.936,466.186 	
		"/>
	<polygon display="inline" opacity="0.9024" fill="#403658" points="87.32,448.914 94.972,453.216 61.868,470.579 53.936,466.186 	
		"/>
	<polygon display="inline" opacity="0.9268" fill="#3B3054" points="87.32,448.914 93.312,452.271 60.2,469.637 53.936,466.186 	"/>
	<polygon display="inline" opacity="0.9512" fill="#352B4F" points="87.32,448.914 91.65,451.325 58.533,468.695 53.936,466.186 	
		"/>
	<polygon display="inline" opacity="0.9756" fill="#30254B" points="87.32,448.914 89.987,450.378 56.863,467.755 53.936,466.186 	
		"/>
	<polygon id="XMLID_112_" display="inline" fill="#2B2046" points="87.32,448.914 88.324,449.433 55.194,466.812 53.936,466.186 	
		"/>
</g>
<g>
	<path id="XMLID_359_" fill="#404A8B" d="M79.423,482.075l-17.263,4.163l-9.815,5.568c-1.15,0.652-1.849,1.791-1.849,3.018v17.171
		l5.271,2.735c1.987,1.033,4.439,1.033,6.426,0l29.895-15.531c2.305-1.199,3.725-3.409,3.725-5.806l0,0
		C95.812,485.688,87.692,480.083,79.423,482.075z"/>
	<path id="XMLID_358_" fill="#202546" d="M62.193,510.259l29.895-15.534c1.67-0.867,2.869-2.271,3.404-3.889
		c0.202,0.818,0.321,1.673,0.321,2.558c0,2.396-1.42,4.606-3.725,5.806L62.193,514.73c-1.987,1.033-4.439,1.033-6.426,0
		l-5.271-2.735v-4.473l5.271,2.736C57.754,511.291,60.206,511.291,62.193,510.259z"/>
	<path id="XMLID_357_" fill="#202546" d="M52.344,491.807l9.815-5.568l6.517-1.571v10.647c0,3.527-3.888,6.388-8.688,6.388
		c-4.799,0-8.689-2.86-8.689-6.388v-2.598C51.587,492.366,51.922,492.047,52.344,491.807z"/>
	<path id="XMLID_356_" fill="#404A8B" d="M54.076,460.35l-17.264,4.163l-9.815,5.567c-1.152,0.653-1.85,1.793-1.85,3.016v17.173
		l5.268,2.738c1.989,1.033,4.438,1.033,6.431,0l29.891-15.535c2.303-1.197,3.726-3.41,3.726-5.805l0,0
		C70.462,463.964,62.343,458.358,54.076,460.35z"/>
	<path id="XMLID_355_" fill="#202546" d="M36.846,488.534l29.891-15.535c1.674-0.868,2.868-2.271,3.404-3.891
		c0.204,0.821,0.322,1.676,0.322,2.559c0,2.395-1.423,4.607-3.726,5.805l-29.891,15.535c-1.988,1.033-4.441,1.033-6.431,0
		l-5.268-2.738v-4.475l5.268,2.74C32.404,489.568,34.857,489.568,36.846,488.534z"/>
	<path id="XMLID_354_" fill="#202546" d="M26.997,470.08l9.815-5.567l6.515-1.574v10.647c0,3.529-3.891,6.393-8.688,6.393
		c-4.799,0-8.689-2.863-8.689-6.393v-2.596C26.239,470.642,26.574,470.321,26.997,470.08z"/>
	<g id="XMLID_352_">
		<path id="XMLID_353_" fill="#F2B1B5" d="M59.786,499.484c3.545,0,6.422-2.587,6.422-5.778v-71.343
			c0-3.191-2.876-5.778-6.422-5.778s-6.421,2.587-6.421,5.778v71.343C53.365,496.897,56.241,499.484,59.786,499.484z"/>
	</g>
	<g id="XMLID_350_">
		<path id="XMLID_351_" fill="#F2B1B5" d="M34.771,477.584c3.544,0,6.419-2.587,6.419-5.776v-64.616
			c0-3.187-2.875-5.776-6.419-5.776c-3.547,0-6.423,2.59-6.423,5.776v64.616C28.349,474.997,31.224,477.584,34.771,477.584z"/>
	</g>
	<g id="XMLID_348_">
		<path id="XMLID_349_" fill="#EF9EA3" d="M67.676,295.379c0.447,0,0.894-0.008,1.342-0.021c12.387-0.367,23.672-5.75,30.958-14.77
			l3.604-4.459c2.086-2.58,1.451-6.194-1.415-8.071c-2.871-1.877-6.887-1.307-8.969,1.275l-3.605,4.459
			c-4.943,6.117-12.593,9.766-20.996,10.016c-8.401,0.242-16.3-2.945-21.679-8.758L32.48,259.449
			c-2.266-2.455-6.316-2.786-9.04-0.744c-2.726,2.043-3.097,5.685-0.825,8.137l14.434,15.604
			C44.691,290.705,55.792,295.379,67.676,295.379z"/>
	</g>
	<path id="XMLID_347_" fill="#303768" d="M60.442,256.842l-14.347-8.238c-10.379-5.959-23.879,1.22-23.09,12.277l4.273,59.579
		l0.271,17.398l35.312,12.039l1.966-9.927l2.052-41.795l7.363-8.604l-5.996-19.217C68.513,264.92,65.537,259.769,60.442,256.842z"/>
	<path opacity="0.05" fill="#EF9EA3" d="M58.06,339.971l1.89-38.479c0.105-2.157,0.949-4.235,2.414-5.949l1.494-1.741
		c2.278-2.659,3.024-6.133,2.017-9.365l-4.394-14.081c0.266-5.436-2.707-10.587-7.804-13.513l-14.35-8.238
		c-1.513-0.867-3.092-1.428-4.686-1.766c3.695-0.784,7.768-0.351,11.455,1.766l14.347,8.238c5.095,2.926,8.071,8.078,7.804,13.513
		l5.996,19.217l-7.363,8.604l-2.052,41.795l-1.966,9.927l-6.339-2.16L58.06,339.971z"/>
	<g>
		<path opacity="0.3" fill="#231F20" d="M59.786,416.585c3.545,0,6.422,2.587,6.422,5.778v13.52
			c-4.176,0.488-9.563-0.461-12.843-1.533v-11.986C53.365,419.172,56.241,416.585,59.786,416.585z"/>
		<path opacity="0.3" fill="#231F20" d="M28.349,417.607v-10.416c0-3.187,2.875-5.776,6.423-5.776c3.544,0,6.419,2.59,6.419,5.776
			v18.55C37.234,422.641,32.938,419.901,28.349,417.607z"/>
	</g>
	<path id="XMLID_346_" fill="#303768" d="M64.827,343.582c3.071,1.194,5.379,19.688,5.635,22.206
		c1.204,11.924,0.066,28.599,0.621,40.561c0.278,5.969,3.169,17.416,0.73,22.886c-2.123,4.775-13.746,3.128-18.913,1.31
		c-3.532-1.24-6.183-3.865-8.915-6.229c-5.923-5.13-12.793-9.374-20.238-12.51c-3.171-1.337-5.16-3.304-7.869-5.075
		c-0.441-8.117-1.142-16.243-1.726-24.355c-0.833-11.654,1.214-23.31,5.976-34.131c1.474-3.352,2.738-6.776,3.697-10.278l2.543-9.31
		C26.37,328.656,64.784,343.566,64.827,343.582z"/>
	<path opacity="0.05" fill="#EF9EA3" d="M63.7,428.016c2.432-5.469-0.459-16.916-0.731-22.885
		c-0.557-11.963,0.577-28.637-0.625-40.562c-0.256-2.515-2.566-21.011-5.636-22.205c-0.029-0.01-19.611-7.612-30.816-11.959
		l0.479-1.749c0,0,38.415,14.91,38.458,14.926c3.071,1.194,5.379,19.688,5.635,22.206c1.204,11.924,0.066,28.599,0.621,40.561
		c0.278,5.969,3.169,17.416,0.73,22.886c-1.893,4.256-11.317,3.406-17.007,1.89C58.85,431.25,62.582,430.521,63.7,428.016z"/>
	<path id="XMLID_345_" fill="#404A8B" d="M64.827,334.914v8.668c-9.993,0.938-34.272-7.107-38.458-14.926l0.909-8.196
		C33.434,331.118,59.918,336.898,64.827,334.914z"/>
	<g id="XMLID_333_">
		<path id="XMLID_334_" fill="#F2B1B5" d="M88.757,295.379c11.881,0,22.986-4.672,30.628-12.933l14.435-15.604
			c2.267-2.452,1.899-6.096-0.828-8.137c-2.722-2.042-6.77-1.711-9.042,0.744l-14.435,15.602
			c-5.375,5.812-13.278,8.981-21.679,8.758c-8.401-0.25-16.052-3.898-20.997-10.016l-3.604-4.459
			c-2.084-2.58-6.098-3.152-8.965-1.275c-2.871,1.877-3.503,5.491-1.42,8.071l3.604,4.459c7.29,9.02,18.57,14.402,30.958,14.77
			C87.863,295.371,88.31,295.379,88.757,295.379z"/>
	</g>
	<g id="XMLID_331_">
		<path id="XMLID_332_" fill="#E449A1" d="M44.889,266.028c3.543,0,6.422-2.588,6.422-5.779v-19.386c0-3.19-2.878-5.778-6.422-5.778
			c-3.546,0-6.422,2.588-6.422,5.778v19.386C38.467,263.44,41.343,266.028,44.889,266.028z"/>
	</g>
	<g id="XMLID_329_">
		<path id="XMLID_330_" fill="#F2B1B5" d="M51.199,254.37h-8.62v-36.158h29.742v17.146C72.321,245.856,62.865,254.37,51.199,254.37z
			"/>
	</g>
	
		<linearGradient id="XMLID_24_" gradientUnits="userSpaceOnUse" x1="31.7798" y1="254.3604" x2="148.1816" y2="254.3604" gradientTransform="matrix(-0.5535 0 0 1 92.6601 0)">
		<stop  offset="0" style="stop-color:#ED956E"/>
		<stop  offset="0.2309" style="stop-color:#EC8F78"/>
		<stop  offset="0.6192" style="stop-color:#EB7E92"/>
		<stop  offset="1" style="stop-color:#E96AB2"/>
	</linearGradient>
	<path id="XMLID_327_" fill="url(#XMLID_24_)" d="M11.168,281.738c0.852-2.118,2.468-3.931,3.365-6.033
		c2.319-5.44-0.711-11.247,0.89-16.721c1.61-5.499,5.465-10.195,7.743-15.456c2.55-5.893,4.638-12,6.972-17.969
		c2.389-6.109,6.81-10.744,13.913-12.397c6.836-1.592,16.707-1.667,23.625-0.958c0.917,0.095,2.384,0.207,3.311,0.19
		c2.714-0.046,4.302,2.126,4.058,3.45c-0.686,3.731-7.988,6.346-9.561,9.6c-1.917,3.97,0.276,8.118-0.618,12.146
		c-1.129,5.057-4.333,9.558-5.298,14.642c-1.091,5.711,3.396,10.494,2.073,15.898c-0.833,3.396-3.037,6.34-3.954,9.693
		c-1.156,4.211,0.363,7.478,1.741,11.482c1.055,3.058,0.473,7.109-3.712,7.6c-4.976,0.581-6.359-5.459-11.152-5.583
		c-4.84-0.128-8.192,6.323-13.409,4.225c-2.151-0.862-3.38-3.082-5.388-4.291c-2.353-1.418-4.793-1.535-7.499-2.058
		C13.551,288.291,9.066,286.97,11.168,281.738z"/>
	<g>
		<path fill="#ED89C2" d="M11.168,281.738c0.852-2.118,2.468-3.931,3.365-6.033c2.319-5.44-0.711-11.247,0.89-16.721
			c1.61-5.499,5.465-10.195,7.743-15.456c2.55-5.893,4.638-12,6.972-17.969c2.389-6.109,6.81-10.744,13.913-12.397
			c4.77-1.111,11.006-1.473,16.7-1.354c-4.473,0.096-8.988,0.503-12.64,1.354c-7.105,1.653-11.521,6.288-13.913,12.397
			c-2.337,5.968-4.423,12.076-6.971,17.969c-2.278,5.261-6.133,9.958-7.742,15.456c-1.604,5.474,1.427,11.28-0.893,16.721
			c-0.898,2.103-2.51,3.915-3.366,6.033c-2.103,5.231,2.385,6.553,7.102,7.461c2.706,0.521,5.146,0.64,7.5,2.058
			c2.006,1.209,3.234,3.429,5.385,4.291c0.029,0.013,0.056,0.017,0.084,0.028c-1.278,0.461-2.632,0.582-4.143-0.028
			c-2.151-0.862-3.38-3.082-5.388-4.291c-2.353-1.418-4.793-1.537-7.499-2.058C13.551,288.291,9.066,286.97,11.168,281.738z"/>
	</g>
	<path id="XMLID_326_" fill="#F2B1B5" d="M122.468,260.25c0,3.789,3.416,6.862,7.625,6.862c4.216,0,7.625-3.073,7.625-6.862
		c0-3.789-3.41-6.862-7.625-6.862C125.884,253.388,122.468,256.46,122.468,260.25z"/>
	<ellipse id="XMLID_11_" fill="#EF9EA3" cx="99.258" cy="269.509" rx="7.623" ry="6.863"/>
</g>
<g>
</g>
<g>
</g>
<g>
</g>
<g>
</g>
<g>
</g>
<g>
</g>
<g>
</g>
<g>
</g>
<g>
</g>
<g>
</g>
<g>
</g>
<g>
</g>
<g>
</g>
<g>
</g>
<g>
</g>
</svg>
