<svg xmlns="http://www.w3.org/2000/svg" xmlns:svgjs="http://svgjs.com/svgjs" xmlns:xlink="http://www.w3.org/1999/xlink" width="288" height="288"><svg xmlns="http://www.w3.org/2000/svg" width="288" height="288" baseProfile="basic" viewBox="0 0 560 520"><linearGradient id="a" x1="-759.1" x2="-458.4" y1="362" y2="362" gradientTransform="matrix(-.5808 0 0 1 -13 -271)" gradientUnits="userSpaceOnUse"><stop class="stopColor3f65e9 svgShape" offset="0" stop-color="#3f65e9"/><stop class="stopColor4568e8 svgShape" offset=".1" stop-color="#4568e8"/><stop class="stopColor6474e5 svgShape" offset=".7" stop-color="#6474e5"/><stop class="stopColor6f79e4 svgShape" offset="1" stop-color="#6f79e4"/></linearGradient><path fill="url(#a)" d="M427.8 3.1v67.3c0 2.8-1.9 6.3-4.3 7.7L257.8 179.6 255 178c-1-.7-1.8-1.9-1.8-3.2v-65c0-2.8 2-6.3 4.4-7.7l164.6-99c1.7-1 3.9-1 5.6 0z"/><path fill="#404a8b" d="M426 3.8c2.4-1.4 4.4-.3 4.4 2.6v65.3c0 2.8-2 6.3-4.4 7.7l-165.9 99.7c-2.4 1.4-4.4.2-4.4-2.6V111c0-2.8 2-6.3 4.4-7.7l166-99.6z" class="color404A8B svgShape"/><linearGradient id="b" x1="-747.1" x2="-666.1" y1="351.4" y2="307.8" gradientTransform="matrix(-.5808 0 0 1 -13 -271)" gradientUnits="userSpaceOnUse"><stop class="stopColored956e svgShape" offset="0" stop-color="#586df1"/><stop class="stopColore27791 svgShape" offset=".5" stop-color="#2478fb"/><stop class="stopColordd5d7b svgShape" offset="1" stop-color="#138ff3"/></linearGradient><path fill="url(#b)" d="M425.6 11.7v60l-55.7 34.4-.2-58.5z"/><path fill="#fff" d="M364.9 83.2V92l-7.2 4.2v-8.5zM364.9 99.6v8.7l-7.2 4.3V104z" class="colorFFF svgShape"/><linearGradient id="c" x1="-1157.7" x2="-857.7" y1="631.4" y2="631.4" gradientTransform="matrix(-.5808 0 0 1 -430.3 -271)" gradientUnits="userSpaceOnUse"><stop class="stopColor3f65e9 svgShape" offset="0" stop-color="#3f65e9"/><stop class="stopColor4568e8 svgShape" offset=".1" stop-color="#4568e8"/><stop class="stopColor6474e5 svgShape" offset=".7" stop-color="#6474e5"/><stop class="stopColor6f79e4 svgShape" offset="1" stop-color="#6f79e4"/></linearGradient><path fill="url(#c)" d="M72.4 342.6l164-96.8a4 4 0 0 1 3.8-.1l1.9.9-1.6 6.2-.2 118.5c0 3.3-2 6-4.9 7.8L77.6 470l-4.7 5.4-1.2-.3a5.6 5.6 0 0 1-3.9-5.4V350.7c0-3.4 1.8-6.4 4.6-8.1z"/><path fill="#404a8b" d="M75.2 343.9l164.3-97a3 3 0 0 1 4.7 2.7v119.7c0 3.3-1.8 6.4-4.6 8.1L75.3 475.2c-2 1.3-4.7-.3-4.7-2.7V352c0-3.4 1.8-6.4 4.6-8.1z" class="color404A8B svgShape"/><path fill="#666ea2" d="M194.8 303.3l31-18.4-.2-3.5-30.8 18.2zM194.8 312.3l31-18.2-.2-3.6-30.8 18.3z" class="color666EA2 svgShape"/><path fill="#fff" d="M75.2 343.9l164.3-97a3 3 0 0 1 4.7 2.7v6.1L70.6 358.1V352c0-3.4 1.8-6.4 4.6-8.1z" class="colorFFF svgShape"/><linearGradient id="d" x1="683.5" x2="914" y1="777.3" y2="562.3" gradientTransform="matrix(.5808 0 0 1 -304 -271)" gradientUnits="userSpaceOnUse"><stop class="stopColored956e svgShape" offset="0" stop-color="#586df1"/><stop class="stopColore37892 svgShape" offset=".4" stop-color="#9d3af3"/><stop class="stopColorde6381 svgShape" offset=".8" stop-color="#2d7ad8"/><stop class="stopColordd5d7b svgShape" offset="1" stop-color="#138ff3"/></linearGradient><path fill="url(#d)" d="M244.2 369.3v-57c-3.7 6.7-8.5 11.6-16.4 12.8-7.7 1.2-16 0-22 5.8-9.5 9.2-11.3 23.1-17.2 34.6-3.7 7-10 14.3-18.2 15.3-8.3 1-16-4.4-24.3-4.6-8.2-.1-16 3.6-21.2 10-7.7 9.4-6.6 20.4-10.5 31.3-6 16.9-22.7 9-35.6 11.7-3 .7-5.8 2-8.2 4.6v38.7c0 2.4 2.6 4 4.7 2.7l164.3-97.8a9.4 9.4 0 0 0 4.6-8z"/><linearGradient id="e" x1="-432.4" x2="-111.4" y1="494.7" y2="494.7" gradientTransform="matrix(-.5808 0 0 1 -13 -271)" gradientUnits="userSpaceOnUse"><stop class="stopColor3f65e9 svgShape" offset="0" stop-color="#3f65e9"/><stop class="stopColor4568e8 svgShape" offset=".1" stop-color="#4568e8"/><stop class="stopColor6474e5 svgShape" offset=".7" stop-color="#6474e5"/><stop class="stopColor6f79e4 svgShape" offset="1" stop-color="#6f79e4"/></linearGradient><path fill="url(#e)" d="M238 133l.1.2v67.2c0 2.8-2 6.3-4.3 7.7l-177.5 107-2.8-1.6c-1.1-.7-1.8-1.9-1.8-3.2v-65c0-2.8 2-6.3 4.4-7.7L232.5 133c1.7-1 3.8-1 5.5 0z"/><path fill="#404a8b" d="M236.3 133.8c2.4-1.5 4.4-.3 4.4 2.5v65.4c0 2.8-2 6.3-4.4 7.7L58.6 314.6c-2.4 1.4-4.4.2-4.4-2.6v-65.3c0-2.9 2-6.4 4.4-7.8l177.7-105.1z" class="color404A8B svgShape"/><path fill="#fff" d="M193.6 176.9l-129.1 78v5.3l129.1-77.8zM193.6 193.3l-129.1 78v5.3l129.1-77.8zM193.6 209.7L133.3 246v5.3l60.3-36.2z" class="colorFFF svgShape"/><linearGradient id="f" x1="-411.4" x2="-366.6" y1="459.5" y2="459.5" gradientTransform="matrix(-.5808 0 0 1 -13 -271)" gradientUnits="userSpaceOnUse"><stop class="stopColored956e svgShape" offset="0" stop-color="#586df1"/><stop class="stopColorec8b75 svgShape" offset=".2" stop-color="#226fff"/><stop class="stopColore37a93 svgShape" offset=".6" stop-color="#593fff"/><stop class="stopColordd5d7b svgShape" offset="1" stop-color="#138ff3"/></linearGradient><path fill="url(#f)" d="M207 185.6c-1.3-1-2-3-2-5.5a20 20 0 0 1 8.7-15.5c4.8-2.9 8.7-.5 8.7 5.2a20 20 0 0 1-4.5 11.7c4.8 2.3 8 7.2 8 13v3.5l-26 15.7v-7.3a34 34 0 0 1 7.1-20.8z"/><linearGradient id="g" x1="-785.4" x2="-464.4" y1="504.3" y2="504.3" gradientTransform="matrix(-.5808 0 0 1 -13 -271)" gradientUnits="userSpaceOnUse"><stop class="stopColor3f65e9 svgShape" offset="0" stop-color="#3f65e9"/><stop class="stopColor4568e8 svgShape" offset=".1" stop-color="#4568e8"/><stop class="stopColor6474e5 svgShape" offset=".7" stop-color="#6474e5"/><stop class="stopColor6f79e4 svgShape" offset="1" stop-color="#6f79e4"/></linearGradient><path fill="url(#g)" d="M443 114.3l.2.1v124c0 2.8-2 6.3-4.4 7.7l-177.4 107-2.9-1.7c-1-.6-1.7-1.8-1.7-3V226.5c0-2.8 2-6.3 4.3-7.7l176.4-104.7c1.8-1 3.9-1 5.6.1z"/><path fill="#404a8b" d="M441.4 115c2.4-1.4 4.3-.3 4.3 2.6v122c0 2.9-2 6.4-4.3 7.8L263.6 352.6c-2.4 1.4-4.3.2-4.3-2.6V227.9c0-2.8 2-6.3 4.3-7.7L441.4 115z" class="color404A8B svgShape"/><linearGradient id="h" x1="-754.8" x2="-729.2" y1="463.3" y2="441.2" gradientTransform="matrix(-.5808 0 0 1 -13 -271)" gradientUnits="userSpaceOnUse"><stop class="stopColored956e svgShape" offset="0" stop-color="#586df1"/><stop class="stopColorec8b75 svgShape" offset=".2" stop-color="#226fff"/><stop class="stopColore37a93 svgShape" offset=".6" stop-color="#593fff"/><stop class="stopColordd5d7b svgShape" offset="1" stop-color="#138ff3"/></linearGradient><path fill="url(#h)" d="M416.2 192.4h11c0-5-.7-9.3-2.1-13-1.5-4-3.7-7.3-6.5-9.3-2.9-2-6.2-3-9.7-2.6l1 13.7c1.2 0 2.3.2 3.1.8 1 .6 1.6 1.7 2.2 3.1.7 2 1 4.5 1 7.3z"/><path fill="#3f65e9" d="M388.2 211.1a60.6 60.6 0 0 1 9.5-20.7c2.2-2.8 4.4-5 6.6-6.7 2-1.4 3.9-2.3 5.6-2.5l-1-13.7c-3.3.4-6.7 1.8-10 4.3a43.2 43.2 0 0 0-9.2 9.2 76.6 76.6 0 0 0-12 26.1l10.5 4z" class="color3F65E9 svgShape"/><path fill="#fff" d="M392.6 246.7l1.5-.1c3.3-.4 6.7-1.8 10.1-4.3 3.2-2.3 6.3-5.4 9.2-9.2a68 68 0 0 0 12-26.1c1.2-5 1.8-10 1.8-14.6h-11a59.9 59.9 0 0 1-10.9 31.2 31.6 31.6 0 0 1-6.5 6.8c-2 1.5-4 2.3-5.6 2.5-1.3.1-2.3-.1-3.2-.7a6.6 6.6 0 0 1-2.1-3.2c-.7-1.9-1-4.4-1-7.3 0-3.3.4-6.8 1.3-10.5l-10.5-4c-1.2 5-1.8 9.9-1.8 14.5 0 5 .7 9.3 2 13.1 1.5 4 3.8 7.2 6.6 9.3 2.4 1.7 5.1 2.6 8 2.6zM371.1 188.8L334 211.4v10.5l37.2-22zM371.1 211.1l-102.8 62v5.3l102.8-61.7zM371.1 226.3l-102.8 62v5.3l102.8-61.8zM371.1 241.4l-102.8 62v5.3L371.1 247zM371.1 256.6l-51.4 31v5.3l51.4-30.8z" class="colorFFF svgShape"/><g class="color000 svgShape"><linearGradient id="i" x1="-602.6" x2="-507.8" y1="480.6" y2="480.6" gradientTransform="matrix(-.5808 0 0 1 -13 -271)" gradientUnits="userSpaceOnUse"><stop class="stopColor3f65e9 svgShape" offset="0" stop-color="#3f65e9"/><stop class="stopColor4568e8 svgShape" offset=".1" stop-color="#4568e8"/><stop class="stopColor6474e5 svgShape" offset=".7" stop-color="#6474e5"/><stop class="stopColor6f79e4 svgShape" offset="1" stop-color="#6f79e4"/></linearGradient><path fill="url(#i)" d="M336 162.7l1 .4-.7 60.5c0 1.4-1 3-2 3.7L284 256.7l-.5-.3c-1-.4-1.6-1.4-1.6-2.5V196c0-1.4 1-3 2-3.7l50-29.5c.6-.4 1.3-.4 2-.1z"/><path fill="#fff" d="M335.4 163.2c1.2-.7 2.2-.1 2.2 1.3v59.7c0 1.4-1 3-2.2 3.7l-50 28.5c-1.2.7-2.2 0-2.2-1.3v-58.5c0-1.3 1-3 2.1-3.7l50.1-29.7z" class="colorFFF svgShape"/><linearGradient id="j" x1="-581.8" x2="-532.4" y1="480.5" y2="480.5" gradientTransform="matrix(-.5808 0 0 1 -13 -271)" gradientUnits="userSpaceOnUse"><stop class="stopColored956e svgShape" offset="0" stop-color="#586df1"/><stop class="stopColorec8b75 svgShape" offset=".2" stop-color="#226fff"/><stop class="stopColore37a93 svgShape" offset=".6" stop-color="#593fff"/><stop class="stopColordd5d7b svgShape" offset="1" stop-color="#138ff3"/></linearGradient><path fill="url(#j)" d="M324 206.7c.3 0 .6-.3.7-.7a46.8 46.8 0 0 0 0-9.8 28.8 28.8 0 0 0-2.2-7.5c-.5-1-1-2-1.7-2.7a9 9 0 0 0-2.2-1.9 7.1 7.1 0 0 0-5.4-.8c-1 .2-2 .6-3 1.2s-1.9 1.4-2.8 2.3a24.6 24.6 0 0 0-5 6.7c-.2.4-.1.8.2 1 .3.2.8 0 1-.3a34.6 34.6 0 0 1 4.7-6.4c.9-.9 1.7-1.5 2.6-2 .9-.6 1.8-1 2.6-1.1a5.7 5.7 0 0 1 4.4.6c.6.4 1.3 1 1.8 1.6.6.7 1.2 1.5 1.6 2.4a26.4 26.4 0 0 1 2.3 11.7l-.3 4.9a.7.7 0 0 0 .7.8zm-27.8 11.1a49.3 49.3 0 0 1 4-20l1.4-2.7c.1-.4.5-.5.9-.4.3.2.4.6.3 1a44.4 44.4 0 0 0-4.1 12 52.2 52.2 0 0 0-1.1 10.1c0 .4-.3.7-.7.7a.7.7 0 0 1-.7-.7zm9 18c-1-.1-1.8-.4-2.6-.9-.8-.4-1.5-1-2.2-1.8l-1.8-2.7a28.9 28.9 0 0 1-2.1-7.7c0-.4.2-.8.6-.8.4 0 .7.2.8.6a27.5 27.5 0 0 0 2 7.2c.4 1 1 1.8 1.5 2.4.6.7 1.2 1.2 1.9 1.6a5.5 5.5 0 0 0 4.4.5c.8-.2 1.7-.6 2.5-1.1a16 16 0 0 0 2.7-2.2 24.5 24.5 0 0 0 4.7-6.6 43.7 43.7 0 0 0 5-13.5c0-.4.4-.6.7-.5.4 0 .6.4.6.8a55.3 55.3 0 0 1-5 14 35.7 35.7 0 0 1-5 6.8c-1 1-2 1.7-3 2.3-1 .7-2 1.1-2.9 1.4a7.7 7.7 0 0 1-2.8.2zm13.8-43.2c-.3-.8-.8-1.5-1.2-2a.7.7 0 0 1 0-1c.3-.3.8-.2 1 0l1.4 2.3c.2.4 0 .8-.3 1h-.3a.7.7 0 0 1-.6-.3zm-20 23.8a42.9 42.9 0 0 1 3.2-16.8 38.5 38.5 0 0 1 3.6-6.7c.7-1 1.4-1.9 2.1-2.6a13 13 0 0 1 2.3-1.9c.8-.5 1.6-.8 2.4-1 .8-.2 1.6-.3 2.3-.1.8 0 1.5.3 2.1.8.4.2.5.6.3 1-.2.3-.7.4-1 .2a4.4 4.4 0 0 0-3.4-.6 7 7 0 0 0-2 1c-.7.3-1.4.9-2 1.6a28.2 28.2 0 0 0-5.4 8.8 44.5 44.5 0 0 0-3.2 16.3c0 .4-.3.7-.6.7a.7.7 0 0 1-.7-.7zm7.3 15.2c-.8 0-1.5-.3-2.2-.7l-1.8-1.6c-.5-.7-1-1.4-1.4-2.3l-1-3c-.1-.3 0-.7.4-.8.4-.1.8.1.9.5.2 1 .6 1.9 1 2.7.3.8.7 1.4 1.2 2l1.4 1.3a4 4 0 0 0 3.4.4c.7-.2 1.3-.5 2-1a20.5 20.5 0 0 0 4-4.2c.3-.3.7-.4 1-.2.3.2.4.7.2 1-.7 1-1.4 1.9-2.1 2.6l-2.3 2c-.8.5-1.6 1-2.4 1.1a5.9 5.9 0 0 1-2.3.2zm10-8.8a.7.7 0 0 1-.2-1 38.6 38.6 0 0 0 3.9-11.3 47.2 47.2 0 0 0 .6-12c-.1-1.2-.3-2.3-.6-3.3-.1-.4.1-.7.5-.8.3-.1.7 0 .8.4a23.9 23.9 0 0 1 .9 7.5 40.9 40.9 0 0 1-2 12.7 44.4 44.4 0 0 1-3 7.5.7.7 0 0 1-.8.3zm2-11.5a.7.7 0 0 1-.6-.8l.5-3.4c0-.4.3-.7.7-.7.4 0 .6.4.6.8l-.5 3.6a.7.7 0 0 1-.8.5zm0-7.7a29.3 29.3 0 0 0-.6-5.8c-.2-.9-.5-1.6-.8-2.2-.2-.7-.6-1.2-.9-1.7l-1-1a3 3 0 0 0-1.3-.5 3 3 0 0 0-1.3 0 5 5 0 0 0-1.4.7l-1.6 1.4-1.5 2-1.4 2.5c-.2.3-.6.5-1 .3a.7.7 0 0 1-.2-1 24.2 24.2 0 0 1 3-4.7c.7-.7 1.3-1.2 2-1.6a4.3 4.3 0 0 1 5.4-.3c.5.3 1 .8 1.4 1.3.4.6.8 1.2 1 2 .4.7.7 1.5.9 2.4a21.7 21.7 0 0 1 .7 6.2.7.7 0 0 1-1.4 0zm-14.9 2a.7.7 0 0 1-.5-1 40 40 0 0 1 1.1-3.2c.1-.4.5-.6.9-.4.3 0 .5.5.4.9l-1 3.1a.7.7 0 0 1-.9.5zm3.8 22.6c-.6 0-1.2-.3-1.7-.7-.5-.3-1-.7-1.4-1.3a15 15 0 0 1-2-4.4 22.6 22.6 0 0 1-.6-6.4 39 39 0 0 1 .7-7.2c0-.4.4-.7.8-.6.3 0 .6.4.5.8a39.3 39.3 0 0 0 0 13l.7 2.3c.3.6.6 1.2 1 1.6.3.5.7.8 1 1 .4.3.8.5 1.2.5l1.3-.1c.5-.1 1-.4 1.5-.8l1.6-1.4a16.9 16.9 0 0 0 2.9-4.6 32 32 0 0 0 2.2-6c.1-.4.5-.6.9-.5.3 0 .5.4.4.8a39.4 39.4 0 0 1-3.8 9c-.5.8-1 1.6-1.6 2.2L311 227c-.7.4-1.3.8-2 1a4.4 4.4 0 0 1-1.8.1zm1-4a.7.7 0 0 1-.5-.9c0-.3.4-.6.8-.5l.7-.1 1-.6 1-1 1-1.6a19.1 19.1 0 0 0 1.7-4.1 35 35 0 0 0 1.5-12.6c0-.4.3-.7.7-.8.3 0 .7.3.7.6a26 26 0 0 1 0 5.3 33.2 33.2 0 0 1-4.5 14 8 8 0 0 1-1.3 1.3c-.4.4-.9.6-1.3.8a2.9 2.9 0 0 1-1.4.1zm-2.5-17.4a.7.7 0 0 1-.5-.8 30.6 30.6 0 0 1 2.6-7l1.1-1.6c.4-.5.8-1 1.3-1.2.4-.4.9-.6 1.3-.8a2.9 2.9 0 0 1 2.6.5l1 1.1.8 1.5c.1.4 0 .8-.4 1-.3 0-.7 0-.9-.4l-.6-1.3-.7-.7-.7-.4-.7.1c-.3 0-.6.2-1 .5l-1 1-1 1.5a19.2 19.2 0 0 0-1.7 4l-.7 2.5c0 .3-.3.5-.6.5h-.2zm-1 12.3a19.8 19.8 0 0 1-.5-4.9 33.2 33.2 0 0 1 .5-5.6c0-.3.4-.6.8-.5.4 0 .6.4.5.8a36.8 36.8 0 0 0-.3 7.8c0 .7.2 1.4.3 2a.7.7 0 0 1-.6 1 .7.7 0 0 1-.7-.6zm1.3 3.4c-.3-.4-.5-1-.7-1.5-.2-.4 0-.8.3-1 .4 0 .8.1 1 .5l.5 1.2c.3.3.2.8-.1 1l-.4.1a.7.7 0 0 1-.6-.3zm3.2-2.4c-.1-.3 0-.7.4-.9.2 0 .3-.2.5-.3l.6-.8a9.7 9.7 0 0 0 1.2-2.5c.1-.4.5-.6.9-.4.3.1.5.5.4.9a18 18 0 0 1-1.3 2.8l-.9 1a3 3 0 0 1-.9.6h-.2a.7.7 0 0 1-.7-.4zm4.2-7a.7.7 0 0 1-.6-1 32.2 32.2 0 0 0 .6-5.6c0-.4.3-.7.7-.7.4 0 .7.3.7.7a27.4 27.4 0 0 1-.6 6 .7.7 0 0 1-.8.5zm-.2-10a10 10 0 0 0-.7-2 2 2 0 0 0-.4-.5.7.7 0 0 0-.3-.2h-.3l-.5.3-.6.8-.6 1c-.1.4-.6.5-.9.3a.7.7 0 0 1-.3-.9l.7-1.2c.3-.4.5-.8.8-1 .3-.3.6-.5 1-.6h1c.3 0 .6.2.9.4l.7.9.4 1.1.4 1.4c0 .4-.2.8-.5.8h-.2a.7.7 0 0 1-.6-.5zm-3.3 13.3v-11.8c0-.4.3-.7.7-.7s.7.3.7.7v11.8c0 .4-.3.7-.7.7s-.7-.3-.7-.7zm-2.4 3l-.5-1.2a11.4 11.4 0 0 1-.6-3.1 23 23 0 0 1 .3-6.1 29 29 0 0 1 .7-3.9c.1-.3.5-.6.9-.4.3 0 .5.4.4.8a27.4 27.4 0 0 0-.4 12.2l.4 1c.2.2 0 .7-.3.9h-.3a.7.7 0 0 1-.6-.3z"/></g><g class="color000 svgShape"><linearGradient id="k" x1="-474" x2="-389.2" y1="481.8" y2="481.8" gradientTransform="matrix(-.5808 0 0 1 -13 -271)" gradientUnits="userSpaceOnUse"><stop class="stopColor3f65e9 svgShape" offset="0" stop-color="#3f65e9"/><stop class="stopColor4568e8 svgShape" offset=".1" stop-color="#4568e8"/><stop class="stopColor6474e5 svgShape" offset=".7" stop-color="#6474e5"/><stop class="stopColor6f79e4 svgShape" offset="1" stop-color="#6f79e4"/></linearGradient><path fill="url(#k)" d="M261.4 168.8l1 .4-.7 54.2c0 1.2-.8 2.7-1.9 3.3L215 253l-.5-.2c-.9-.4-1.4-1.3-1.4-2.3v-51.8c0-1.2.8-2.8 1.8-3.4l44.7-26.4a2 2 0 0 1 1.8 0z"/><path fill="#fff" d="M261 169.3c1-.6 1.8 0 1.8 1.1V224c0 1.3-.8 2.8-1.9 3.4l-44.8 25.5c-1 .6-2 0-2-1.2v-52.3c0-1.3.9-2.8 2-3.4l44.8-26.6z" class="colorFFF svgShape"/><path fill="#404a8b" d="M224.9 207.5c-.7.4-1.3 1.4-1.3 2.2v19.1c0 .8.6 1.1 1.3.8l25.6-15c.7-.4 1.2-1.4 1.2-2.2v-19.1c0-.8-.5-1.2-1.2-.8l-25.6 15z" class="color404A8B svgShape"/><linearGradient id="l" x1="-455.8" x2="-407.5" y1="473.6" y2="473.6" gradientTransform="matrix(-.5808 0 0 1 -13 -271)" gradientUnits="userSpaceOnUse"><stop class="stopColored956e svgShape" offset="0" stop-color="#586df1"/><stop class="stopColorec8b75 svgShape" offset=".2" stop-color="#226fff"/><stop class="stopColore37a93 svgShape" offset=".6" stop-color="#593fff"/><stop class="stopColordd5d7b svgShape" offset="1" stop-color="#138ff3"/></linearGradient><path fill="url(#l)" d="M224.9 207.5l25.6-15c.7-.4 1.2 0 1.2.7L241 211.4c-.6 1-1.7 1.5-2.9 1.3l-14.3-3.5c.2-.7.6-1.4 1.2-1.7z"/></g><g class="color000 svgShape"><linearGradient id="m" x1="293.7" x2="517.3" y1="344.3" y2="344.3" gradientTransform="matrix(-.5808 0 0 1 432.5 -271)" gradientUnits="userSpaceOnUse"><stop class="stopColor3f65e9 svgShape" offset="0" stop-color="#3f65e9"/><stop class="stopColor4568e8 svgShape" offset=".1" stop-color="#4568e8"/><stop class="stopColor6474e5 svgShape" offset=".7" stop-color="#6474e5"/><stop class="stopColor6f79e4 svgShape" offset="1" stop-color="#6f79e4"/></linearGradient><path fill="url(#m)" d="M137.1 69.2L253.7.6a5 5 0 0 1 5.4.2l2.8 2-1.7 66.7c0 3.8-1.5 5.4-4.6 7.3l-44.7 25.7-29.1 18.6-41.6 25.6-4.5-.3a4 4 0 0 1-3.7-4V78.1c0-3.7 2-7.2 5.1-9z"/><path fill="#404a8b" d="M264.3 7.5v60.2c0 3.7-2 7.2-5 9L213 104.2l-10.3 22.1c-.8 3-4.1 4.6-6.8 3.2l-9.7-9.3-42.5 25.8a5.8 5.8 0 0 1-8.7-5V79.7c0-3.8 2-7.2 5.1-9L255.7 2.3c3.8-2.3 8.6.6 8.6 5.1z" class="color404A8B svgShape"/><path fill="#fff" d="M147.7 85.2l100.8-59.9v-7.8L147.7 77.2zM147.7 105.4l100.8-59.6V38L147.7 97.6zM199.7 96.5l48.8-28.9v-7.8l-48.8 28.9z" class="colorFFF svgShape"/></g><g class="color000 svgShape"><linearGradient id="n" x1="-615.6" x2="-530.7" y1="342.2" y2="342.2" gradientTransform="matrix(-.5808 0 0 1 -13 -271)" gradientUnits="userSpaceOnUse"><stop class="stopColor3f65e9 svgShape" offset="0" stop-color="#3f65e9"/><stop class="stopColor4568e8 svgShape" offset=".1" stop-color="#4568e8"/><stop class="stopColor6474e5 svgShape" offset=".7" stop-color="#6474e5"/><stop class="stopColor6f79e4 svgShape" offset="1" stop-color="#6f79e4"/></linearGradient><path fill="url(#n)" d="M343.6 29.2l1 .4-.7 54.1c0 1.2-.8 2.7-1.9 3.3l-44.8 26.3-.5-.2a2.5 2.5 0 0 1-1.5-2.3V59c0-1.2.9-2.7 2-3.3l44.6-26.4a2 2 0 0 1 1.8-.1z"/><path fill="#fff" d="M343.1 29.7c1-.7 2-.2 2 1v53.6c0 1.2-1 2.7-2 3.3l-44.8 25.5c-1.1.6-2 0-2-1.2V59.6c0-1.2.9-2.8 2-3.4L343 29.7z" class="colorFFF svgShape"/><linearGradient id="o" x1="-595" x2="-554" y1="342.2" y2="342.2" gradientTransform="matrix(-.5808 0 0 1 -13 -271)" gradientUnits="userSpaceOnUse"><stop class="stopColored956e svgShape" offset="0" stop-color="#586df1"/><stop class="stopColorec8b75 svgShape" offset=".2" stop-color="#226fff"/><stop class="stopColore37a93 svgShape" offset=".6" stop-color="#593fff"/><stop class="stopColordd5d7b svgShape" offset="1" stop-color="#138ff3"/></linearGradient><path fill="url(#o)" d="M312.8 71.3l-2-1c-.3-.2-.3-.9 0-1.6l2.2-4.3c.3-.7 1-1.1 1.3-1l1.5.9c.2 0 .6 0 .9-.5l.5-.6c.3-.3.5-.8.5-1.2l-.1-2.5c0-.6.4-1.4.9-1.7l3.2-2.2c.5-.4 1-.1 1 .5v2.4c.1.4.3.6.6.6l.6-.1c.3 0 .6-.3.9-.8l1.3-2.7c.3-.7 1-1 1.3-.8l2.4 1.2c.4.2.4 1 0 1.6l-1.2 2.7c-.3.4-.3.9-.1 1.2l.2.5c.2.3.4.4.8.2l2-1.4c.5-.3.9 0 1 .6v4c.1.6-.3 1.3-.8 1.7l-2 1.3c-.3.2-.6.7-.7 1.1l-.2 1c-.1.3 0 .7.2.8l1.5.8c.4.2.4 1 0 1.6l-2.1 4.4c-.4.7-1 1-1.4.9l-1.4-.8c-.3-.1-.6 0-1 .4 0 .2-.3.4-.5.6a2 2 0 0 0-.4 1.3v2.4c0 .6-.3 1.4-.8 1.8l-3.3 2.2c-.5.3-.9 0-1-.6v-2.4c0-.4-.2-.6-.5-.6l-.7.1c-.3 0-.6.4-.8.8l-1.4 2.7c-.3.7-.9 1-1.3.9l-2.4-1.3c-.3-.2-.4-1 0-1.6l1.3-2.7c.2-.4.3-.9.1-1.2l-.2-.5c-.2-.3-.5-.3-.8-.1l-2 1.3c-.5.4-1 .1-1-.5l-.1-4c0-.6.3-1.4.9-1.7l2-1.4c.3-.2.5-.6.6-1l.5-1.7zm11.8.5c1.5-4 .4-7.4-2.3-7-2 .2-4.4 2.7-5.5 5.7-1.5 4-.4 7.4 2.2 7 2-.2 4.5-2.7 5.6-5.7z"/></g><path fill="#231f20" d="M325.4 221l.5-.4h1.3l.5.4 14.7 13.6.2.2 27.4 26.8 1.8 1.6.7.5 1.3.9.8.4 1.8 1 1.3.4a26.2 26.2 0 0 0 2.3.7l.2.1a21 21 0 0 0 8 .3l.6-.3 1.4-.5 15.9-3.8.5-2.5a27.6 27.6 0 0 1 14-18l9-5v-1.2a20 20 0 0 1-18.7-18.5 14.9 14.9 0 0 1-3.5.1c-3.4-.3-5.2-2-5.2-5.2 0-1 .1-2 .5-3 1-3 3.4-6 6.1-7.7l1.8-1a14.7 14.7 0 0 1-4.1-5.3l-.2-.2-.7-2.2-2-7.6H431.3l.5.2 1.3.2.7.2c.4 0 .7.2 1.1.3l.7.3a16.4 16.4 0 0 1 4.3 2.4l.5.3 1 1 .3.3 1.3 1.3c1.1 1.4 2 3 2.7 4.7v33.3l-.2.2h.2v9.4c0 2.8-2 6.3-4.3 7.7l-59.2 35c-8.2-.7-16-4.1-22.1-10.1l-27.4-26.8-1-1.1a7.1 7.1 0 0 1-5.5-7c0-3.6 2.6-6.6 6-7l-7-6.6a2 2 0 0 1-.1-2.7l.3-.2zm104.1 14.8a22.2 22.2 0 0 1 0 .1z" class="color231F20 svgShape" opacity=".3"/><g class="color000 svgShape"><path fill="#303768" d="M425 207.1c0-3.7-3-5-6.7-2.8l-9.5 5.6c-3.6 2.2-6.6 7-6.6 10.7s2.4 5.3 6.8 5.2l9.3-8c3.7-2.2 6.7-7 6.7-10.7z" class="color303768 svgShape"/><path fill="#eca3b4" d="M408.8 210l9.5-5.7a6.1 6.1 0 0 1 3.9-1c-.9.1-1.8.4-2.8 1L410 210c-3.7 2.2-6.7 7-6.7 10.7 0 3.4 2 5 5.7 5.2-4.4.1-6.8-1.5-6.8-5.2s3-8.5 6.6-10.7z" class="colorECA3B4 svgShape" opacity=".2"/><path fill="#303768" d="M408.8 223.5l-5.1-1.8 4.3-5.8h4.8z" class="color303768 svgShape"/><path fill="#efb4c3" d="M452.1 330a6 6 0 0 0 4.3-1.7l11.5-11.4a43 43 0 0 0-2.7-63.4l-12.8-10.6a6 6 0 0 0-8.7 1 6.4 6.4 0 0 0 1 8.8l12.7 10.6a30 30 0 0 1 2 44.5l-11.6 11.4a6.4 6.4 0 0 0-.1 9 6 6 0 0 0 4.4 1.9z" class="colorEFB4C3 svgShape"/><path fill="#fff" d="M462.3 266.2c2 0 4-1 5.3-2.6a7 7 0 0 0-1-9.8l-11-9.8c-3-2.4-7.3-1.9-9.6 1a7.1 7.1 0 0 0 1 9.9l11 9.7c1.3 1 2.8 1.6 4.3 1.6z" class="colorFFF svgShape"/><path fill="#404a8b" d="M412.9 497l14.9-5.4 2.7 18.3c0 1-.5 1.8-1.3 2.2l-4.4 2.5a23.7 23.7 0 0 1-23.8-.2l-18.2-10.8c-.7-.4-1-1-1-1.9v-4.3s1-.4 1.8-1l7.4-3a9 9 0 0 1 9.1 0l4.3 2.5 2.8-2.3 5.7 3.5z" class="color404A8B svgShape"/><path fill="#fff" d="M412.9 499.2l17.6-6.5v13c0 1-.5 1.8-1.3 2.2l-4.4 2.5a23.6 23.6 0 0 1-23.8-.2l-17.6-10.4a3.6 3.6 0 0 1 0-6.1l7.6-4.5a9 9 0 0 1 9.1 0l2.4 1.4 3.7.9 6.7 7.7z" class="colorFFF svgShape"/><path fill="#303768" d="M427 497.9c4.7-2.9 4.7-7.5 0-10.3a18.8 18.8 0 0 0-17.4 0c-4.7 2.8-4.7 7.4 0 10.3a18.8 18.8 0 0 0 17.3 0z" class="color303768 svgShape"/><path fill="#404a8b" d="M445.8 473l15-5.5 2.6 18.3c0 1-.4 1.8-1.2 2.2l-4.4 2.5a23.7 23.7 0 0 1-23.8-.2l-18.3-10.8c-.6-.3-1-1-1-1.8v-4.4l1.8-.9 7.5-3a9 9 0 0 1 9 0l4.3 2.4 2.8-2.3 5.7 3.5z" class="color404A8B svgShape"/><path fill="#fff" d="M445.8 475.1l17.6-6.4v13c0 .9-.4 1.7-1.2 2.2l-4.4 2.5a23.7 23.7 0 0 1-23.8-.3l-17.6-10.4a3.6 3.6 0 0 1 0-6l7.6-4.6a9 9 0 0 1 9 0l2.4 1.4 3.8.9 6.6 7.7z" class="colorFFF svgShape"/><path fill="#303768" d="M459.9 473.8c4.7-2.8 4.7-7.4 0-10.3a18.8 18.8 0 0 0-17.3 0c-4.8 2.9-4.8 7.5 0 10.3a18.8 18.8 0 0 0 17.3 0z" class="color303768 svgShape"/><path fill="#404a8b" d="M452.3 473.6c6 0 9.6-5 9.6-11l-3.4-56.7 4.6-76a11 11 0 0 0-10.8-11.1c-6 0-17.6 5-17.6 11l6.8 132.7a11 11 0 0 0 10.8 11z" class="color404A8B svgShape"/><path fill="#231f20" d="M437.8 389.4l-2.4-46.7-.6-13.8c1.2-5.7 11.8-10.1 17.5-10.1 6 0 10.8 5 10.8 11l-2.7 44.2a27 27 0 0 1-9.7 9.9l-13 5.5z" class="color231F20 svgShape" opacity=".2"/><path fill="#404a8b" d="M418.7 497.3c6 0 10.8-5 10.8-11l-1.4-61.5 8.1-71.3c0-6-11.6-11-17.5-11-6 0-10.8 5-10.8 11v132.7a11 11 0 0 0 10.8 11z" class="color404A8B svgShape"/><path fill="#eca3b4" d="M418.7 342.5l1.9.1a11 11 0 0 0-8.9 11v132.6a11 11 0 0 0 8.9 10.9l-2 .2c-5.9 0-10.7-5-10.7-11V353.4a11 11 0 0 1 10.8-11z" class="colorECA3B4 svgShape" opacity=".2"/><path fill="#404a8b" d="M459.7 317.3l4.6 35.2c0 4.4-2.3 8.5-6 10.7L430 379.4c-7.5 4.5-17-1-17-10V298c0-4.4-9-1.3-5.2-3.6l39.5-23.3c7.5-4.5 12.3 37.3 12.3 46.2z" class="color404A8B svgShape"/><path fill="#fff" d="M463.4 260.9l-2.1 34c.7 7.3-.8 14.5-.1 21.7.4 4.2 4 20.3 3.1 24.4-1.2 6.2-38.4 29.5-57.5 20l1-31-1.9-25.9c-1.2-17.8-4.5-41.5 12.5-52.4l2.2-1.3 18.2-10.2c4.3-2.5 9.6-2.5 13.8 0a22.3 22.3 0 0 1 10.8 20.7z" class="colorFFF svgShape"/><path fill="#eca3b4" d="M418.4 251.7l2.2-1.3 18.2-10.2c2.5-1.4 5.3-2 8-1.8-2 .2-4 .8-5.7 1.8l-18.2 10.2-2.2 1.3c-17 10.9-13.7 34.6-12.5 52.4l2 26-1.2 31c2.9 1.3 6.1 2 9.6 2.1-4.3.2-8.4-.5-11.8-2.2l1-31-1.9-25.9c-1.2-17.8-4.5-41.5 12.5-52.4z" class="colorECA3B4 svgShape" opacity=".2"/><path fill="#efb4c3" d="M435.7 257.1c3.4 0 6.1-2.8 6.1-6.3V226c0-3.5-2.7-6.3-6.1-6.3a6.2 6.2 0 0 0-6.2 6.3v24.8c0 3.5 2.8 6.3 6.2 6.3z" class="colorEFB4C3 svgShape"/><ellipse cx="333.2" cy="245.4" fill="#efb4c3" class="colorEFB4C3 svgShape" rx="7" ry="7.2"/><path fill="#efb4c3" d="M433.6 244.2h7.6v-42H411v18.7a23 23 0 0 0 22.7 23.3z" class="colorEFB4C3 svgShape"/><path fill="#eca3b4" d="M413.1 202.1V224a20 20 0 0 0 19.7 20.2h-2.2a20 20 0 0 1-19.8-20.2v-21.9h2.3z" class="colorECA3B4 svgShape"/><path fill="#303768" d="M419 193.6h10.3a18 18 0 0 1 17.8 18.2v22.8c0 2.8-2.1 5-4.8 5h-9.8c-7.4 0-13.5-6.2-13.5-13.9v-13.9c-6.3 0-11.8-4.4-13.5-10.7l-1.9-7.5H419z" class="color303768 svgShape"/><path fill="#eca3b4" d="M419 193.6h10.3c5.5 0 10.4 2.5 13.7 6.5-3.1-2.6-7.1-4.2-11.5-4.2H406l1.9 7.5c.5 2 1.5 3.9 2.7 5.4a14.4 14.4 0 0 1-5-7.7l-1.9-7.5H419z" class="colorECA3B4 svgShape" opacity=".2"/><ellipse cx="418" cy="223.2" fill="#efb4c3" class="colorEFB4C3 svgShape" rx="4.5" ry="4.6"/><path fill="#efb4c3" d="M385 290.5c2.7 0 5.5-.3 8.3-1l24.8-6c3.9-.9 6.3-4.9 5.4-8.8-1-4-4.8-6.4-8.7-5.5l-24.8 6a21.3 21.3 0 0 1-20-5.6l-27.4-26.8a7 7 0 0 0-10.2.3c-2.7 3-2.6 7.6.3 10.4l27.4 26.8a35.6 35.6 0 0 0 24.9 10.2z" class="colorEFB4C3 svgShape"/><path fill="#eca3b4" d="M424.9 274.2c1.6 4.3-.4 9-4.5 10.8l-15.2 8.9c-.3-6-.5-14.8.4-20.7l8.8-3.6a8 8 0 0 1 10.5 4.6z" class="colorECA3B4 svgShape" opacity=".4"/><path fill="#fff" d="M392 291a8 8 0 0 0 2-.2l27.9-6.8c4.3-1 7-5.5 6-9.9a8 8 0 0 0-9.7-6.2l-28 6.8c-4.3 1-7 5.5-6 10a8.1 8.1 0 0 0 7.9 6.3z" class="colorFFF svgShape"/><path fill="#eca3b4" d="M418.2 269l-28 6.8c-3.5.9-6 4-6.1 7.6-.3-4 2.2-7.8 6.1-8.7l28-6.8c4.3-1 4.3.1 0 1.2z" class="colorECA3B4 svgShape" opacity=".2"/><path fill="#efb4c3" d="M325.2 231.8l14.7 13.6c.8.8 2 .7 2.6 0 .7-.9.7-2 0-2.8L327.6 229c-.7-.7-1.9-.7-2.6.1a2 2 0 0 0 .1 2.7z" class="colorEFB4C3 svgShape"/><path fill="#eca3b4" d="M367.7 269.6l-27.4-26.8-.1-.2-14.7-13.6h-.1c.7-.6 1.7-.6 2.3 0l14.7 13.6.2.2 27.4 26.8c3.8 3.7 8.7 5.8 13.8 6.1-6 .3-11.7-1.8-16-6.1z" class="colorECA3B4 svgShape"/><path fill="#404a8b" d="M447.1 214.5h-34.3l-.2 7.5h34.5z" class="color404A8B svgShape"/><path fill="#404a8b" d="M414.7 211.5l-3.8-1.2c-3.7 2.2-4.4 7.3-4.4 11s1.4 5.4 5.2 4.2l3-.5c5.5-1.5 5.5-10.8 0-13.5z" class="color404A8B svgShape"/></g></svg></svg>