<?xml version="1.0" encoding="utf-8"?>
<!-- Generator: Adobe Illustrator 16.0.0, SVG Export Plug-In . SVG Version: 6.00 Build 0)  -->
<!DOCTYPE svg PUBLIC "-//W3C//DTD SVG 1.1 Basic//EN" "http://www.w3.org/Graphics/SVG/1.1/DTD/svg11-basic.dtd">
<svg version="1.1" baseProfile="basic" id="Layer_1"
	 xmlns="http://www.w3.org/2000/svg" xmlns:xlink="http://www.w3.org/1999/xlink" x="0px" y="0px" width="560px" height="520px"
	 viewBox="0 0 560 520" xml:space="preserve">
<g id="XMLID_891_">
	
		<linearGradient id="XMLID_6_" gradientUnits="userSpaceOnUse" x1="-759.0576" y1="361.9619" x2="-458.3555" y2="361.9619" gradientTransform="matrix(-0.5808 0 0 1 -12.9798 -271)">
		<stop  offset="0" style="stop-color:#3F65E9"/>
		<stop  offset="0.1" style="stop-color:#4568E8"/>
		<stop  offset="0.6762" style="stop-color:#6474E5"/>
		<stop  offset="1" style="stop-color:#6F79E4"/>
	</linearGradient>
	<path id="XMLID_898_" fill="url(#XMLID_6_)" d="M427.76,3.114l0.121,0.078V70.41c0,2.837-1.961,6.32-4.354,7.737l-165.69,101.488
		L255,177.954c-1.093-0.646-1.767-1.841-1.767-3.135v-64.968c0-2.836,1.961-6.318,4.36-7.737l164.63-99.081
		C423.943,2.012,426.068,2.044,427.76,3.114z"/>
	<path id="XMLID_897_" fill="#404A8B" d="M426.039,3.778c2.396-1.418,4.357-0.258,4.357,2.579V71.7c0,2.838-1.963,6.317-4.357,7.736
		l-165.935,99.626c-2.394,1.418-4.357,0.257-4.357-2.578v-65.343c0-2.838,1.963-6.318,4.357-7.736L426.039,3.778z"/>
	
		<linearGradient id="XMLID_7_" gradientUnits="userSpaceOnUse" x1="-747.1021" y1="351.4434" x2="-666.0842" y2="307.7641" gradientTransform="matrix(-0.5808 0 0 1 -12.9798 -271)">
		<stop  offset="0" style="stop-color:#ED956E"/>
		<stop  offset="0.5037" style="stop-color:#E27791"/>
		<stop  offset="1" style="stop-color:#DD5D7B"/>
	</linearGradient>
	<polygon id="XMLID_896_" fill="url(#XMLID_7_)" points="425.589,11.686 425.589,71.719 369.858,106.104 369.737,47.604 	"/>
	<polygon id="XMLID_893_" fill="#FFFFFF" points="364.876,83.236 364.876,91.96 357.68,96.216 357.664,87.716 	"/>
	<polygon id="XMLID_892_" fill="#FFFFFF" points="364.876,99.613 364.876,108.339 357.68,112.594 357.664,104.093 	"/>
</g>
<g id="XMLID_880_">
	
		<linearGradient id="XMLID_8_" gradientUnits="userSpaceOnUse" x1="-1157.6953" y1="631.4023" x2="-857.6826" y2="631.4023" gradientTransform="matrix(-0.5808 0 0 1 -430.2992 -271)">
		<stop  offset="0" style="stop-color:#3F65E9"/>
		<stop  offset="0.1" style="stop-color:#4568E8"/>
		<stop  offset="0.6762" style="stop-color:#6474E5"/>
		<stop  offset="1" style="stop-color:#6F79E4"/>
	</linearGradient>
	<path id="XMLID_890_" fill="url(#XMLID_8_)" d="M72.381,342.578l163.994-96.756c1.179-0.695,2.615-0.751,3.842-0.148l1.873,0.92
		l-1.571,6.19l-0.217,118.496c0,3.331-2.086,6.099-4.896,7.771L77.62,470.165l-4.695,5.383l-1.186-0.363
		c-2.313-0.715-3.896-2.897-3.896-5.378V350.659C67.843,347.327,69.571,344.25,72.381,342.578z"/>
	<path id="XMLID_889_" fill="#404A8B" d="M75.177,343.891l164.338-97.05c2.058-1.225,4.636,0.297,4.636,2.734V369.32
		c0,3.328-1.731,6.408-4.539,8.082L75.274,475.227c-2.057,1.228-4.634-0.297-4.634-2.733V351.973
		C70.64,348.641,72.367,345.562,75.177,343.891z"/>
	<g id="XMLID_887_">
		<polygon id="XMLID_888_" fill="#666EA2" points="194.797,303.264 225.72,284.932 225.646,281.389 194.797,299.643 		"/>
	</g>
	<g id="XMLID_885_">
		<polygon id="XMLID_886_" fill="#666EA2" points="194.797,312.348 225.72,294.061 225.646,290.518 194.797,308.771 		"/>
	</g>
	<path id="XMLID_882_" fill="#FFFFFF" d="M75.177,343.891l164.338-97.05c2.058-1.225,4.636,0.297,4.636,2.734v6.131L70.64,358.089
		v-6.116C70.64,348.641,72.367,345.562,75.177,343.891z"/>
	
		<linearGradient id="XMLID_9_" gradientUnits="userSpaceOnUse" x1="683.459" y1="777.3115" x2="914.0056" y2="562.2985" gradientTransform="matrix(0.5808 0 0 1 -303.9372 -271)">
		<stop  offset="0" style="stop-color:#ED956E"/>
		<stop  offset="0.4103" style="stop-color:#E37892"/>
		<stop  offset="0.7835" style="stop-color:#DE6381"/>
		<stop  offset="1" style="stop-color:#DD5D7B"/>
	</linearGradient>
	<path id="XMLID_881_" fill="url(#XMLID_9_)" d="M244.152,369.32v-56.975c-3.623,6.629-8.433,11.545-16.332,12.766
		c-7.732,1.193-15.958-0.031-21.988,5.779c-9.55,9.207-11.375,23.146-17.254,34.564c-3.657,7.104-9.996,14.33-18.167,15.345
		c-8.3,1.029-16.033-4.38-24.269-4.562c-8.251-0.182-15.987,3.544-21.284,10.013c-7.687,9.385-6.566,20.331-10.416,31.215
		c-5.989,16.922-22.75,8.942-35.616,11.778c-3.002,0.664-5.784,2.031-8.187,4.572v38.673c0,2.438,2.577,3.961,4.634,2.733
		L239.612,377.4C242.42,375.729,244.152,372.648,244.152,369.32z"/>
</g>
<g id="XMLID_873_">
	
		<linearGradient id="XMLID_10_" gradientUnits="userSpaceOnUse" x1="-432.3779" y1="494.7051" x2="-111.375" y2="494.7051" gradientTransform="matrix(-0.5808 0 0 1 -12.9798 -271)">
		<stop  offset="0" style="stop-color:#3F65E9"/>
		<stop  offset="0.1" style="stop-color:#4568E8"/>
		<stop  offset="0.6762" style="stop-color:#6474E5"/>
		<stop  offset="1" style="stop-color:#6F79E4"/>
	</linearGradient>
	<path id="XMLID_879_" fill="url(#XMLID_10_)" d="M238.022,133.087l0.123,0.077v67.219c0,2.837-1.961,6.318-4.358,7.737
		L56.308,315.148l-2.837-1.681c-1.091-0.646-1.764-1.843-1.764-3.137v-64.967c0-2.836,1.959-6.317,4.358-7.736l176.42-104.624
		C234.207,131.987,236.331,132.018,238.022,133.087z"/>
	<path id="XMLID_878_" fill="#404A8B" d="M236.302,133.751c2.396-1.419,4.359-0.257,4.359,2.579l-0.003,65.344
		c0,2.836-1.96,6.318-4.357,7.737L58.578,314.577c-2.396,1.418-4.355,0.255-4.355-2.576v-65.346c0-2.836,1.96-6.317,4.355-7.736
		L236.302,133.751z"/>
	<polygon id="XMLID_877_" fill="#FFFFFF" points="193.61,176.862 64.486,254.928 64.486,260.208 193.61,182.378 	"/>
	<polygon id="XMLID_876_" fill="#FFFFFF" points="193.61,193.272 64.486,271.338 64.486,276.619 193.61,198.79 	"/>
	<polygon id="XMLID_875_" fill="#FFFFFF" points="193.61,209.685 133.255,246.077 133.255,251.358 193.61,215.201 	"/>
	
		<linearGradient id="XMLID_11_" gradientUnits="userSpaceOnUse" x1="-411.4336" y1="459.5059" x2="-366.5771" y2="459.5059" gradientTransform="matrix(-0.5808 0 0 1 -12.9798 -271)">
		<stop  offset="0" style="stop-color:#ED956E"/>
		<stop  offset="0.2122" style="stop-color:#EC8B75"/>
		<stop  offset="0.5704" style="stop-color:#E37A93"/>
		<stop  offset="1" style="stop-color:#DD5D7B"/>
	</linearGradient>
	<path id="XMLID_874_" fill="url(#XMLID_11_)" d="M207.023,185.555c-1.284-1.044-2.063-2.911-2.057-5.449
		c0.013-5.705,3.953-12.696,8.752-15.536c4.8-2.842,8.726-0.504,8.726,5.192c0,3.88-1.829,8.357-4.515,11.721
		c4.764,2.297,8.052,7.25,8.052,12.981v3.572l-26.053,15.617v-7.246C199.928,198.761,202.476,191.429,207.023,185.555z"/>
</g>
<g>
	
		<linearGradient id="XMLID_12_" gradientUnits="userSpaceOnUse" x1="-785.4395" y1="504.3164" x2="-464.4365" y2="504.3164" gradientTransform="matrix(-0.5808 0 0 1 -12.9798 -271)">
		<stop  offset="0" style="stop-color:#3F65E9"/>
		<stop  offset="0.1" style="stop-color:#4568E8"/>
		<stop  offset="0.6762" style="stop-color:#6474E5"/>
		<stop  offset="1" style="stop-color:#6F79E4"/>
	</linearGradient>
	<path id="XMLID_872_" fill="url(#XMLID_12_)" d="M443.081,114.332l0.122,0.076V238.36c0,2.837-1.961,6.318-4.358,7.737
		L261.371,353.124l-2.84-1.679c-1.093-0.646-1.766-1.844-1.766-3.137V226.608c0-2.836,1.96-6.317,4.357-7.735L437.544,114.25
		C439.266,113.231,441.395,113.263,443.081,114.332z"/>
	<path id="XMLID_871_" fill="#404A8B" d="M441.364,114.997c2.396-1.42,4.356-0.259,4.356,2.577V239.65
		c0,2.837-1.966,6.317-4.356,7.736L263.638,352.555c-2.397,1.416-4.355,0.258-4.355-2.58V227.9c0-2.837,1.958-6.318,4.355-7.737
		L441.364,114.997z"/>
	<g id="XMLID_864_">
		
			<linearGradient id="XMLID_13_" gradientUnits="userSpaceOnUse" x1="-754.7842" y1="463.2539" x2="-729.1541" y2="441.212" gradientTransform="matrix(-0.5808 0 0 1 -12.9798 -271)">
			<stop  offset="0" style="stop-color:#ED956E"/>
			<stop  offset="0.2122" style="stop-color:#EC8B75"/>
			<stop  offset="0.5704" style="stop-color:#E37A93"/>
			<stop  offset="1" style="stop-color:#DD5D7B"/>
		</linearGradient>
		<path id="XMLID_869_" fill="url(#XMLID_13_)" d="M416.242,192.438h10.962c0-4.948-0.706-9.362-2.104-13.125
			c-1.477-3.99-3.74-7.179-6.546-9.221c-2.808-2.044-6.133-2.932-9.628-2.553l0.934,13.706c1.258-0.135,2.33,0.115,3.188,0.744
			c0.871,0.631,1.581,1.686,2.114,3.132C415.869,187.021,416.242,189.552,416.242,192.438z"/>
		<g id="XMLID_867_">
			<path id="XMLID_868_" fill="#3F65E9" d="M388.203,211.149c0.906-3.731,2.2-7.439,3.854-11.028
				c1.651-3.591,3.562-6.85,5.679-9.687c2.118-2.84,4.331-5.104,6.568-6.726c1.981-1.435,3.901-2.286,5.556-2.463l-0.936-13.706
				c-3.291,0.353-6.688,1.784-10.101,4.257c-3.175,2.297-6.235,5.408-9.093,9.239c-2.688,3.604-5.101,7.709-7.167,12.208
				c-2.069,4.493-3.699,9.17-4.85,13.901L388.203,211.149z"/>
		</g>
		<g id="XMLID_865_">
			<path id="XMLID_866_" fill="#FFFFFF" d="M392.561,246.685c0.521,0,1.043-0.029,1.573-0.086c3.294-0.356,6.697-1.793,10.114-4.269
				c3.184-2.305,6.248-5.418,9.11-9.252c2.689-3.607,5.104-7.716,7.173-12.212c2.069-4.5,3.696-9.176,4.842-13.903
				c1.212-5.024,1.831-9.912,1.831-14.524h-10.962c0,3.259-0.457,6.801-1.361,10.532c-0.896,3.72-2.189,7.429-3.844,11.018
				c-1.649,3.587-3.562,6.847-5.68,9.688c-2.125,2.845-4.343,5.112-6.592,6.742c-1.986,1.44-3.917,2.297-5.575,2.477
				c-1.263,0.137-2.332-0.114-3.192-0.741c-0.863-0.628-1.568-1.681-2.104-3.123c-0.702-1.904-1.071-4.437-1.065-7.327
				c0.008-3.269,0.47-6.821,1.374-10.554l-10.487-4.008c-1.216,5.022-1.84,9.909-1.848,14.528
				c-0.011,4.954,0.688,9.375,2.079,13.141c1.477,4.001,3.739,7.194,6.548,9.239C386.876,245.785,389.641,246.685,392.561,246.685z"
				/>
		</g>
	</g>
	<polygon id="XMLID_863_" fill="#FFFFFF" points="371.145,188.836 333.855,211.369 333.855,221.933 371.145,199.868 	"/>
	<polygon id="XMLID_862_" fill="#FFFFFF" points="371.145,211.149 268.311,273.157 268.311,278.439 371.145,216.665 	"/>
	<polygon id="XMLID_861_" fill="#FFFFFF" points="371.145,226.298 268.311,288.309 268.311,293.589 371.145,231.814 	"/>
	<polygon id="XMLID_860_" fill="#FFFFFF" points="371.145,241.447 268.311,303.457 268.311,308.738 371.145,246.965 	"/>
	<polygon id="XMLID_859_" fill="#FFFFFF" points="371.145,256.597 319.726,287.602 319.726,292.883 371.145,262.115 	"/>
</g>
<g>
	<g display="none">
		<path id="XMLID_858_" display="inline" fill="#FFFFFF" fill-opacity="0" d="M339.999,133.025c1.812-1.072,3.297-0.194,3.297,1.951
			v92.93c0,2.145-1.499,4.75-3.327,5.79l-77.929,44.293c-1.831,1.04-3.326,0.138-3.326-2.009v-90.956
			c0-2.145,1.482-4.776,3.293-5.85L339.999,133.025z"/>
		<path display="inline" opacity="0.0244" fill="#FDFDFD" d="M339.489,133.974c1.789-1.058,3.254-0.192,3.254,1.924v91.715
			c0,2.117-1.479,4.688-3.283,5.715l-76.909,43.714c-1.806,1.024-3.284,0.132-3.284-1.983v-89.764c0-2.116,1.463-4.714,3.25-5.774
			L339.489,133.974z"/>
		<path display="inline" opacity="0.0488" fill="#F9F9F9" d="M338.979,134.923c1.768-1.045,3.213-0.19,3.213,1.899v90.497
			c0,2.089-1.458,4.627-3.241,5.639l-75.885,43.133c-1.784,1.015-3.242,0.134-3.242-1.954v-88.574c0-2.088,1.443-4.652,3.207-5.696
			L338.979,134.923z"/>
		<path display="inline" opacity="0.0732" fill="#F7F7F7" d="M338.468,135.87c1.744-1.03,3.169-0.187,3.169,1.874v89.282
			c0,2.061-1.439,4.564-3.196,5.562l-74.871,42.557c-1.759,0.998-3.194,0.129-3.194-1.933V185.83c0-2.062,1.424-4.59,3.164-5.62
			L338.468,135.87z"/>
		<path display="inline" opacity="0.0976" fill="#F4F4F4" d="M337.958,136.818c1.716-1.016,3.125-0.184,3.125,1.849v88.066
			c0,2.031-1.42,4.501-3.153,5.487l-73.85,41.974c-1.735,0.986-3.151,0.132-3.151-1.901V186.1c0-2.033,1.403-4.528,3.12-5.544
			L337.958,136.818z"/>
		<path display="inline" opacity="0.122" fill="#F1F1F1" d="M337.447,137.768c1.693-1.001,3.08-0.182,3.08,1.822v86.849
			c0,2.004-1.398,4.439-3.111,5.412l-72.826,41.396c-1.71,0.971-3.109,0.128-3.109-1.877v-85.003c0-2.004,1.384-4.464,3.077-5.466
			L337.447,137.768z"/>
		<path display="inline" opacity="0.1463" fill="#EEEEEE" d="M336.938,138.717c1.674-0.988,3.037-0.18,3.037,1.795v85.635
			c0,1.974-1.379,4.376-3.063,5.336l-71.809,40.813c-1.687,0.958-3.066,0.125-3.066-1.851v-83.812c0-1.975,1.367-4.401,3.036-5.389
			L336.938,138.717z"/>
		<path display="inline" opacity="0.1707" fill="#ECEBEC" d="M336.427,139.666c1.647-0.975,2.994-0.178,2.994,1.77v84.416
			c0,1.949-1.362,4.316-3.021,5.261L265.61,271.35c-1.662,0.942-3.022,0.123-3.022-1.824v-82.625c0-1.947,1.346-4.339,2.992-5.314
			L336.427,139.666z"/>
		<path display="inline" opacity="0.1951" fill="#E8E8E8" d="M335.917,140.613c1.622-0.959,2.95-0.175,2.95,1.747v83.2
			c0,1.919-1.341,4.252-2.979,5.183l-69.766,39.655c-1.64,0.932-2.981,0.121-2.981-1.799v-81.431c0-1.921,1.329-4.276,2.95-5.237
			L335.917,140.613z"/>
		<path display="inline" opacity="0.2195" fill="#E6E6E6" d="M335.406,141.562c1.6-0.947,2.907-0.172,2.907,1.721v81.982
			c0,1.894-1.321,4.193-2.938,5.11l-68.748,39.074c-1.611,0.919-2.934,0.121-2.934-1.771v-80.24c0-1.893,1.308-4.214,2.906-5.161
			L335.406,141.562z"/>
		<path display="inline" opacity="0.2439" fill="#E3E2E3" d="M334.895,142.511c1.576-0.932,2.866-0.169,2.866,1.694v80.768
			c0,1.864-1.301,4.13-2.894,5.033l-67.727,38.496c-1.59,0.903-2.893,0.12-2.893-1.746v-79.049c0-1.865,1.289-4.151,2.866-5.085
			L334.895,142.511z"/>
		<path display="inline" opacity="0.2683" fill="#E0E0E0" d="M334.387,143.459c1.55-0.918,2.82-0.167,2.82,1.669v79.551
			c0,1.835-1.282,4.066-2.848,4.958l-66.708,37.917c-1.569,0.889-2.851,0.111-2.851-1.725v-77.858c0-1.835,1.271-4.09,2.822-5.007
			L334.387,143.459z"/>
		<path display="inline" opacity="0.2927" fill="#DDDDDD" d="M333.873,144.408c1.528-0.904,2.779-0.165,2.779,1.643v78.335
			c0,1.808-1.265,4.004-2.806,4.882l-65.688,37.335c-1.543,0.877-2.806,0.113-2.806-1.694v-76.667c0-1.808,1.251-4.026,2.779-4.93
			L333.873,144.408z"/>
		<path display="inline" opacity="0.3171" fill="#DBDADB" d="M333.362,145.355c1.508-0.888,2.735-0.161,2.735,1.619v77.118
			c0,1.78-1.242,3.942-2.762,4.805l-64.667,36.755c-1.519,0.863-2.764,0.115-2.764-1.666v-75.479c0-1.779,1.232-3.964,2.736-4.854
			L333.362,145.355z"/>
		<path display="inline" opacity="0.3415" fill="#D7D7D7" d="M332.855,146.304c1.478-0.876,2.688-0.159,2.688,1.593v75.902
			c0,1.753-1.222,3.88-2.718,4.73l-63.649,36.176c-1.493,0.85-2.718,0.111-2.718-1.641v-74.29c0-1.752,1.212-3.902,2.691-4.778
			L332.855,146.304z"/>
		<path display="inline" opacity="0.3659" fill="#D5D4D5" d="M332.346,147.253c1.454-0.861,2.646-0.156,2.646,1.567v74.685
			c0,1.724-1.205,3.819-2.675,4.655l-62.628,35.596c-1.471,0.838-2.675,0.109-2.675-1.613v-73.097c0-1.724,1.19-3.839,2.648-4.701
			L332.346,147.253z"/>
		<path display="inline" opacity="0.3902" fill="#D2D1D2" d="M331.835,148.202c1.433-0.849,2.604-0.155,2.604,1.541v73.47
			c0,1.696-1.186,3.756-2.633,4.577l-61.604,35.019c-1.449,0.822-2.632,0.106-2.632-1.588v-71.909c0-1.694,1.175-3.775,2.606-4.624
			L331.835,148.202z"/>
		<path display="inline" opacity="0.4146" fill="#D0CFD0" d="M331.324,149.15c1.408-0.833,2.561-0.151,2.561,1.516v72.252
			c0,1.668-1.162,3.694-2.587,4.503l-60.587,34.437c-1.421,0.811-2.588,0.106-2.588-1.562v-70.715c0-1.667,1.153-3.713,2.563-4.547
			L331.324,149.15z"/>
		<path display="inline" opacity="0.439" fill="#CCCBCC" d="M330.812,150.098c1.385-0.818,2.52-0.148,2.52,1.492v71.035
			c0,1.64-1.146,3.632-2.543,4.427l-59.568,33.858c-1.399,0.794-2.544,0.104-2.544-1.535v-69.527c0-1.638,1.133-3.651,2.518-4.471
			L330.812,150.098z"/>
		<path display="inline" opacity="0.4634" fill="#CAC9CA" d="M330.304,151.047c1.36-0.806,2.475-0.146,2.475,1.465v69.821
			c0,1.611-1.124,3.568-2.498,4.351l-58.549,33.277c-1.374,0.781-2.5,0.104-2.5-1.507v-68.337c0-1.611,1.116-3.589,2.478-4.395
			L330.304,151.047z"/>
		<path display="inline" opacity="0.4878" fill="#C7C6C7" d="M329.792,151.996c1.338-0.791,2.432-0.145,2.432,1.44v68.602
			c0,1.584-1.104,3.508-2.457,4.275l-57.525,32.7c-1.351,0.767-2.457,0.098-2.457-1.484v-67.145c0-1.583,1.096-3.527,2.435-4.318
			L329.792,151.996z"/>
		<path display="inline" opacity="0.5122" fill="#C3C2C3" d="M329.282,152.945c1.312-0.779,2.39-0.143,2.39,1.413v67.389
			c0,1.555-1.086,3.444-2.415,4.198l-56.506,32.118c-1.327,0.755-2.415,0.099-2.415-1.455v-65.955c0-1.555,1.077-3.464,2.39-4.241
			L329.282,152.945z"/>
		<path display="inline" opacity="0.5366" fill="#C1C0C1" d="M328.772,153.894c1.29-0.765,2.344-0.139,2.344,1.387v66.172
			c0,1.526-1.063,3.383-2.366,4.123l-55.489,31.54c-1.303,0.74-2.372,0.096-2.372-1.432v-64.763c0-1.528,1.059-3.402,2.348-4.167
			L328.772,153.894z"/>
		<path display="inline" opacity="0.561" fill="#BFBDBF" d="M328.262,154.841c1.27-0.749,2.304-0.136,2.304,1.364v64.955
			c0,1.5-1.047,3.321-2.325,4.047l-54.468,30.959c-1.279,0.726-2.326,0.096-2.326-1.403v-63.574c0-1.5,1.036-3.337,2.304-4.088
			L328.262,154.841z"/>
		<path display="inline" opacity="0.5854" fill="#BBBABB" d="M327.752,155.79c1.24-0.735,2.259-0.133,2.259,1.338v63.738
			c0,1.471-1.026,3.258-2.282,3.973l-53.447,30.378c-1.256,0.714-2.283,0.093-2.283-1.377v-62.383c0-1.471,1.017-3.275,2.262-4.011
			L327.752,155.79z"/>
		<path display="inline" opacity="0.6098" fill="#B9B8B9" d="M327.241,156.738c1.22-0.722,2.216-0.131,2.216,1.312v62.521
			c0,1.443-1.008,3.195-2.238,3.896l-52.431,29.799c-1.231,0.7-2.238,0.093-2.238-1.351v-61.193c0-1.443,1-3.213,2.219-3.937
			L327.241,156.738z"/>
		<path display="inline" opacity="0.6341" fill="#B6B4B6" d="M326.729,157.688c1.197-0.708,2.176-0.129,2.176,1.285v61.307
			c0,1.414-0.989,3.134-2.196,3.82L275.3,253.318c-1.207,0.687-2.195,0.09-2.195-1.324v-60.002c0-1.415,0.98-3.151,2.175-3.858
			L326.729,157.688z"/>
		<path display="inline" opacity="0.6585" fill="#B2B1B2" d="M326.219,158.635c1.172-0.693,2.132-0.125,2.132,1.261v60.089
			c0,1.387-0.968,3.071-2.15,3.745l-50.387,28.64c-1.184,0.672-2.153,0.088-2.153-1.299V192.26c0-1.387,0.96-3.09,2.134-3.782
			L326.219,158.635z"/>
		<path display="inline" opacity="0.6829" fill="#B0AFB0" d="M325.708,159.583c1.148-0.679,2.088-0.123,2.088,1.235v58.874
			c0,1.358-0.949,3.01-2.104,3.669l-49.369,28.061c-1.16,0.658-2.107,0.085-2.107-1.273v-57.62c0-1.36,0.94-3.027,2.087-3.707
			L325.708,159.583z"/>
		<path display="inline" opacity="0.7073" fill="#AEACAE" d="M325.198,160.532c1.126-0.665,2.045-0.121,2.045,1.211v57.656
			c0,1.33-0.928,2.948-2.065,3.592l-48.349,27.482c-1.136,0.646-2.062,0.084-2.062-1.246v-56.432c0-1.331,0.918-2.963,2.042-3.628
			L325.198,160.532z"/>
		<path display="inline" opacity="0.7317" fill="#AAA9AA" d="M324.688,161.481c1.103-0.651,2.004-0.119,2.004,1.184v56.441
			c0,1.302-0.909,2.884-2.021,3.517l-47.331,26.901c-1.108,0.631-2.019,0.082-2.019-1.22v-55.241c0-1.303,0.9-2.9,2.003-3.552
			L324.688,161.481z"/>
		<path display="inline" opacity="0.7561" fill="#A8A6A8" d="M324.178,162.43c1.076-0.638,1.958-0.116,1.958,1.159v55.224
			c0,1.274-0.89,2.823-1.979,3.44l-46.308,26.322c-1.088,0.618-1.975,0.081-1.975-1.194v-54.05c0-1.274,0.88-2.838,1.957-3.477
			L324.178,162.43z"/>
		<path display="inline" opacity="0.7805" fill="#A5A3A5" d="M323.668,163.377c1.055-0.622,1.915-0.113,1.915,1.134v54.008
			c0,1.246-0.873,2.761-1.933,3.366l-45.292,25.742c-1.062,0.603-1.933,0.079-1.933-1.168V193.6c0-1.247,0.861-2.776,1.915-3.399
			L323.668,163.377z"/>
		<path display="inline" opacity="0.8049" fill="#A2A1A2" d="M323.157,164.327c1.024-0.609,1.871-0.111,1.871,1.107v52.792
			c0,1.218-0.853,2.7-1.892,3.291l-44.269,25.161c-1.04,0.592-1.888,0.077-1.888-1.141v-51.669c0-1.218,0.839-2.713,1.868-3.323
			L323.157,164.327z"/>
		<path display="inline" opacity="0.8293" fill="#9F9D9F" d="M322.646,165.275c1.006-0.595,1.827-0.108,1.827,1.082v51.576
			c0,1.19-0.83,2.636-1.846,3.213l-43.25,24.583c-1.016,0.577-1.847,0.076-1.847-1.115v-50.479c0-1.19,0.82-2.651,1.829-3.246
			L322.646,165.275z"/>
		<path display="inline" opacity="0.8537" fill="#9D9B9D" d="M322.135,166.224c0.983-0.582,1.785-0.105,1.785,1.058v50.358
			c0,1.162-0.81,2.574-1.801,3.138L279.89,244.78c-0.99,0.562-1.804,0.072-1.804-1.09v-49.288c0-1.162,0.806-2.588,1.784-3.169
			L322.135,166.224z"/>
		<path display="inline" opacity="0.878" fill="#999899" d="M321.625,167.172c0.959-0.567,1.744-0.103,1.744,1.031v49.142
			c0,1.135-0.793,2.513-1.762,3.062l-41.208,23.423c-0.969,0.549-1.759,0.072-1.759-1.063V194.67c0-1.134,0.783-2.526,1.741-3.092
			L321.625,167.172z"/>
		<path display="inline" opacity="0.9024" fill="#979597" d="M321.115,168.121c0.935-0.554,1.699-0.1,1.699,1.006v47.926
			c0,1.106-0.771,2.45-1.721,2.986l-40.186,22.843c-0.944,0.537-1.716,0.07-1.716-1.035v-46.908c0-1.106,0.765-2.463,1.701-3.017
			L321.115,168.121z"/>
		<path display="inline" opacity="0.9268" fill="#949294" d="M320.604,169.069c0.911-0.539,1.656-0.098,1.656,0.979v46.71
			c0,1.078-0.752,2.388-1.671,2.912l-39.169,22.262c-0.92,0.522-1.674,0.068-1.674-1.009v-45.716c0-1.078,0.747-2.401,1.658-2.94
			L320.604,169.069z"/>
		<path display="inline" opacity="0.9512" fill="#918F91" d="M320.095,170.018c0.89-0.524,1.611-0.095,1.611,0.955v45.492
			c0,1.051-0.729,2.326-1.628,2.835l-38.146,21.684c-0.896,0.508-1.631,0.067-1.631-0.983v-44.526c0-1.051,0.727-2.338,1.612-2.864
			L320.095,170.018z"/>
		<path display="inline" opacity="0.9756" fill="#8E8C8E" d="M319.585,170.967c0.863-0.512,1.567-0.093,1.567,0.929v44.276
			c0,1.022-0.713,2.263-1.585,2.76l-37.13,21.102c-0.869,0.496-1.584,0.065-1.584-0.957v-43.334c0-1.023,0.707-2.277,1.567-2.788
			L319.585,170.967z"/>
		<path id="XMLID_857_" display="inline" fill="#231F20" d="M319.072,171.916c0.843-0.498,1.525-0.092,1.525,0.902v43.061
			c0,0.994-0.692,2.202-1.543,2.684l-36.105,20.523c-0.85,0.483-1.54,0.063-1.54-0.931V196.01c0-0.993,0.687-2.212,1.524-2.71
			L319.072,171.916z"/>
	</g>
	
		<linearGradient id="XMLID_14_" gradientUnits="userSpaceOnUse" x1="-602.6191" y1="480.5645" x2="-507.833" y2="480.5645" gradientTransform="matrix(-0.5808 0 0 1 -12.9798 -271)">
		<stop  offset="0" style="stop-color:#3F65E9"/>
		<stop  offset="0.1" style="stop-color:#4568E8"/>
		<stop  offset="0.6762" style="stop-color:#6474E5"/>
		<stop  offset="1" style="stop-color:#6F79E4"/>
	</linearGradient>
	<path id="XMLID_856_" fill="url(#XMLID_14_)" d="M335.953,162.657l1.068,0.458l-0.675,60.464c0,1.378-0.964,3.053-2.14,3.722
		l-50.062,29.35l-0.5-0.213c-1.014-0.435-1.675-1.448-1.675-2.575v-57.85c0-1.378,0.956-3.072,2.116-3.76l49.891-29.47
		C334.584,162.429,335.312,162.381,335.953,162.657z"/>
	<path id="XMLID_855_" fill="#FFFFFF" d="M335.45,163.209c1.167-0.689,2.122-0.125,2.122,1.255v59.741
		c0,1.379-0.966,3.054-2.143,3.724l-50.099,28.473c-1.175,0.669-2.14,0.088-2.14-1.29V196.64c0-1.378,0.953-3.07,2.117-3.76
		L335.45,163.209z"/>
	
		<linearGradient id="XMLID_15_" gradientUnits="userSpaceOnUse" x1="-581.8271" y1="480.4814" x2="-532.3701" y2="480.4814" gradientTransform="matrix(-0.5808 0 0 1 -12.9798 -271)">
		<stop  offset="0" style="stop-color:#ED956E"/>
		<stop  offset="0.2122" style="stop-color:#EC8B75"/>
		<stop  offset="0.5704" style="stop-color:#E37A93"/>
		<stop  offset="1" style="stop-color:#DD5D7B"/>
	</linearGradient>
	<path id="XMLID_814_" fill="url(#XMLID_15_)" d="M323.984,206.663c0.344,0,0.64-0.264,0.678-0.623
		c0.188-1.718,0.283-3.421,0.283-5.064c0-1.648-0.096-3.239-0.283-4.734c-0.188-1.464-0.464-2.849-0.821-4.117
		c-0.354-1.255-0.801-2.414-1.312-3.439c-0.519-1.028-1.112-1.936-1.771-2.699c-0.668-0.774-1.405-1.404-2.193-1.872
		c-0.811-0.479-1.674-0.791-2.564-0.926c-0.906-0.139-1.855-0.096-2.814,0.126c-0.967,0.224-1.957,0.632-2.938,1.214
		c-0.969,0.575-1.938,1.323-2.874,2.225c-0.901,0.87-1.789,1.893-2.641,3.042c-0.34,0.463-0.676,0.943-1.002,1.442
		c-0.473,0.724-0.936,1.492-1.373,2.283c-0.184,0.336-0.068,0.763,0.261,0.955c0.33,0.188,0.743,0.072,0.932-0.264
		c0.421-0.761,0.862-1.5,1.317-2.195c0.312-0.476,0.631-0.935,0.953-1.375c0.805-1.086,1.643-2.051,2.485-2.867
		c0.862-0.828,1.743-1.512,2.624-2.032c0.865-0.511,1.727-0.869,2.56-1.062c0.792-0.183,1.571-0.218,2.312-0.106
		c0.725,0.109,1.424,0.362,2.081,0.751c0.661,0.393,1.286,0.925,1.856,1.586c0.585,0.678,1.115,1.489,1.576,2.413
		c0.479,0.949,0.887,2.021,1.221,3.191c0.339,1.199,0.602,2.513,0.775,3.907c0.185,1.434,0.273,2.964,0.273,4.553
		c0,1.59-0.091,3.243-0.273,4.91c-0.043,0.384,0.229,0.73,0.604,0.773C323.934,206.661,323.96,206.663,323.984,206.663z
		 M296.221,217.814c0-1.687,0.098-3.428,0.284-5.18c0.183-1.709,0.455-3.443,0.812-5.15c0.35-1.68,0.779-3.359,1.283-4.988
		c0.494-1.611,1.066-3.191,1.694-4.698c0.399-0.949,0.821-1.873,1.257-2.747c0.172-0.345,0.585-0.479,0.922-0.304
		c0.334,0.177,0.465,0.599,0.297,0.942c-0.422,0.844-0.834,1.74-1.221,2.662c-0.611,1.463-1.168,3-1.646,4.565
		c-0.489,1.588-0.906,3.222-1.25,4.86c-0.346,1.661-0.611,3.348-0.791,5.011c-0.182,1.7-0.271,3.392-0.271,5.026
		c0,0.387-0.306,0.701-0.686,0.701C296.527,218.515,296.221,218.201,296.221,217.814z M305.188,235.803
		c-0.896-0.112-1.766-0.406-2.574-0.875c-0.788-0.454-1.53-1.081-2.2-1.858c-0.66-0.764-1.259-1.678-1.772-2.718
		c-0.513-1.038-0.955-2.211-1.312-3.491c-0.359-1.29-0.637-2.703-0.821-4.2c-0.046-0.383,0.222-0.734,0.595-0.781
		c0.377-0.037,0.717,0.223,0.764,0.606c0.176,1.425,0.438,2.769,0.779,3.991c0.33,1.192,0.74,2.282,1.219,3.24
		c0.461,0.934,0.992,1.751,1.574,2.425c0.57,0.659,1.191,1.188,1.852,1.566c0.652,0.378,1.352,0.615,2.068,0.705
		c0.736,0.095,1.517,0.031,2.31-0.183c0.833-0.225,1.691-0.618,2.559-1.171c0.888-0.566,1.771-1.29,2.638-2.151
		c0.848-0.85,1.686-1.845,2.488-2.956c0.789-1.094,1.559-2.313,2.275-3.624c0.712-1.299,1.385-2.698,1.994-4.157
		c0.609-1.464,1.168-2.994,1.649-4.551c0.487-1.575,0.907-3.193,1.247-4.809c0.08-0.376,0.441-0.619,0.812-0.536
		c0.369,0.082,0.604,0.455,0.522,0.832c-0.351,1.657-0.777,3.32-1.28,4.938c-0.495,1.6-1.07,3.175-1.697,4.679
		c-0.633,1.504-1.322,2.95-2.062,4.292c-0.742,1.36-1.542,2.63-2.365,3.771c-0.85,1.172-1.733,2.222-2.639,3.123
		c-0.932,0.932-1.896,1.719-2.863,2.337c-0.98,0.628-1.969,1.078-2.935,1.338c-0.671,0.179-1.335,0.269-1.979,0.269
		C305.748,235.854,305.465,235.838,305.188,235.803z M319.023,192.562c-0.366-0.768-0.787-1.441-1.246-2.001
		c-0.244-0.295-0.206-0.736,0.082-0.986c0.288-0.249,0.719-0.208,0.961,0.084c0.529,0.647,1.016,1.416,1.428,2.288
		c0.167,0.348,0.025,0.766-0.312,0.936c-0.097,0.049-0.195,0.071-0.3,0.071C319.385,192.954,319.143,192.81,319.023,192.562z
		 M298.979,216.427c0-1.419,0.076-2.883,0.227-4.356c0.146-1.428,0.361-2.884,0.646-4.327c0.28-1.418,0.629-2.829,1.024-4.193
		c0.399-1.356,0.854-2.686,1.358-3.953c0.509-1.27,1.062-2.48,1.649-3.595c0.599-1.138,1.237-2.193,1.904-3.14
		c0.68-0.97,1.396-1.833,2.119-2.568c0.76-0.766,1.539-1.4,2.318-1.885c0.801-0.497,1.604-0.847,2.395-1.038
		c0.785-0.191,1.562-0.226,2.309-0.108c0.738,0.118,1.445,0.385,2.107,0.796c0.32,0.202,0.424,0.632,0.228,0.962
		c-0.192,0.332-0.614,0.437-0.937,0.234c-0.508-0.314-1.052-0.52-1.607-0.609c-0.568-0.091-1.172-0.062-1.785,0.085
		c-0.646,0.159-1.318,0.452-1.994,0.874c-0.691,0.429-1.393,0.997-2.069,1.685c-0.676,0.679-1.338,1.483-1.976,2.389
		c-0.631,0.898-1.235,1.9-1.811,2.985c-0.563,1.074-1.099,2.238-1.588,3.462c-0.484,1.224-0.927,2.511-1.312,3.824
		c-0.392,1.324-0.725,2.692-0.994,4.069c-0.277,1.4-0.49,2.812-0.633,4.197c-0.146,1.422-0.221,2.838-0.221,4.209
		c0,0.387-0.304,0.7-0.678,0.7C299.281,217.126,298.979,216.813,298.979,216.427z M306.255,231.632
		c-0.737-0.096-1.45-0.351-2.114-0.754c-0.646-0.389-1.248-0.924-1.797-1.588c-0.529-0.649-1.012-1.424-1.426-2.303
		c-0.414-0.875-0.768-1.865-1.055-2.946c-0.1-0.373,0.115-0.757,0.477-0.859c0.364-0.101,0.742,0.12,0.84,0.491
		c0.266,0.999,0.592,1.907,0.967,2.704c0.367,0.775,0.785,1.452,1.244,2.012c0.443,0.542,0.934,0.976,1.443,1.285
		c0.504,0.307,1.04,0.498,1.594,0.57c0.572,0.074,1.169,0.024,1.78-0.148c0.647-0.184,1.323-0.508,2.003-0.964
		c0.697-0.466,1.396-1.069,2.08-1.786c0.674-0.709,1.34-1.539,1.978-2.463c0.22-0.318,0.646-0.39,0.952-0.169
		c0.309,0.223,0.381,0.659,0.164,0.976c-0.68,0.986-1.393,1.872-2.116,2.634c-0.752,0.791-1.528,1.458-2.311,1.98
		c-0.798,0.536-1.604,0.92-2.386,1.141c-0.546,0.156-1.09,0.233-1.623,0.233C306.716,231.676,306.484,231.662,306.255,231.632z
		 M316.357,222.797c-0.332-0.182-0.456-0.605-0.279-0.946c0.564-1.086,1.103-2.255,1.591-3.479c0.487-1.225,0.931-2.507,1.312-3.811
		c0.393-1.32,0.728-2.675,1-4.027c0.271-1.377,0.482-2.766,0.626-4.127c0.146-1.394,0.218-2.777,0.218-4.109
		c0-1.329-0.072-2.61-0.213-3.81c-0.146-1.162-0.354-2.261-0.622-3.265c-0.103-0.373,0.111-0.759,0.476-0.862
		c0.359-0.1,0.739,0.115,0.841,0.489c0.29,1.069,0.513,2.235,0.657,3.467c0.153,1.256,0.229,2.594,0.229,3.98
		c0,1.381-0.076,2.814-0.228,4.259c-0.146,1.406-0.368,2.838-0.648,4.258c-0.278,1.395-0.626,2.791-1.025,4.151
		c-0.397,1.347-0.854,2.671-1.36,3.935c-0.504,1.268-1.06,2.483-1.646,3.61c-0.122,0.235-0.356,0.37-0.603,0.37
		C316.571,222.881,316.462,222.854,316.357,222.797z M318.213,211.308c-0.37-0.072-0.613-0.438-0.541-0.818
		c0.209-1.144,0.375-2.3,0.484-3.433c0.035-0.383,0.355-0.665,0.746-0.627c0.375,0.039,0.646,0.381,0.611,0.765
		c-0.113,1.175-0.281,2.372-0.503,3.557c-0.062,0.336-0.349,0.569-0.669,0.569C318.301,211.319,318.258,211.315,318.213,211.308z
		 M318.324,203.637c0-1.104-0.059-2.17-0.168-3.167c-0.107-0.967-0.27-1.879-0.477-2.713c-0.203-0.808-0.449-1.55-0.739-2.204
		c-0.28-0.633-0.599-1.188-0.944-1.645c-0.338-0.442-0.704-0.795-1.085-1.055c-0.374-0.25-0.768-0.412-1.169-0.481
		c-0.414-0.074-0.854-0.049-1.298,0.069c-0.48,0.126-0.981,0.362-1.486,0.703c-0.521,0.353-1.049,0.817-1.569,1.382
		c-0.512,0.56-1.02,1.225-1.509,1.976c-0.479,0.739-0.946,1.572-1.386,2.477c-0.167,0.346-0.579,0.485-0.916,0.312
		c-0.339-0.173-0.477-0.593-0.307-0.938c0.465-0.956,0.961-1.839,1.475-2.627c0.528-0.816,1.084-1.541,1.648-2.158
		c0.592-0.646,1.199-1.181,1.814-1.593c0.631-0.426,1.27-0.726,1.896-0.89c0.632-0.167,1.26-0.196,1.857-0.093
		c0.592,0.101,1.162,0.334,1.691,0.692c0.512,0.344,0.984,0.804,1.414,1.364c0.414,0.545,0.789,1.194,1.111,1.927
		c0.322,0.728,0.598,1.547,0.819,2.435c0.223,0.895,0.396,1.871,0.507,2.901c0.117,1.049,0.18,2.17,0.18,3.325
		c0,0.388-0.307,0.7-0.684,0.7C318.629,204.337,318.324,204.024,318.324,203.637z M303.421,205.522
		c-0.362-0.104-0.575-0.489-0.476-0.863c0.309-1.133,0.662-2.244,1.051-3.299c0.134-0.36,0.525-0.545,0.881-0.407
		c0.354,0.137,0.531,0.54,0.396,0.902c-0.375,1.017-0.715,2.086-1.014,3.18c-0.084,0.31-0.355,0.513-0.652,0.513
		C303.546,205.548,303.48,205.54,303.421,205.522z M307.221,228.203c-0.6-0.085-1.172-0.305-1.707-0.655
		c-0.512-0.334-0.984-0.791-1.416-1.357c-0.416-0.546-0.791-1.202-1.115-1.943c-0.322-0.741-0.6-1.571-0.815-2.47
		c-0.226-0.91-0.396-1.904-0.512-2.957c-0.116-1.073-0.177-2.22-0.177-3.407c0-1.184,0.061-2.405,0.177-3.636
		c0.11-1.199,0.28-2.414,0.501-3.615c0.068-0.38,0.428-0.63,0.798-0.558c0.37,0.071,0.612,0.437,0.545,0.816
		c-0.212,1.161-0.376,2.336-0.481,3.493c-0.115,1.185-0.17,2.363-0.17,3.5c0,1.136,0.055,2.229,0.17,3.252
		c0.104,0.99,0.266,1.921,0.474,2.771c0.202,0.821,0.45,1.575,0.741,2.239c0.277,0.641,0.598,1.198,0.942,1.656
		c0.339,0.44,0.7,0.789,1.078,1.039c0.368,0.241,0.757,0.39,1.155,0.447c0.414,0.057,0.846,0.017,1.289-0.118
		c0.482-0.146,0.984-0.407,1.495-0.776c0.525-0.382,1.058-0.877,1.578-1.469c0.517-0.586,1.024-1.272,1.516-2.038
		c0.479-0.758,0.948-1.604,1.387-2.515c0.438-0.904,0.853-1.878,1.226-2.892c0.375-1.016,0.715-2.083,1.01-3.168
		c0.102-0.374,0.48-0.589,0.844-0.486c0.361,0.104,0.572,0.49,0.472,0.863c-0.308,1.125-0.658,2.231-1.05,3.288
		c-0.389,1.055-0.814,2.071-1.271,3.015c-0.468,0.962-0.959,1.857-1.473,2.661c-0.523,0.826-1.08,1.571-1.643,2.211
		c-0.587,0.666-1.195,1.23-1.805,1.673c-0.634,0.457-1.269,0.786-1.893,0.975c-0.438,0.135-0.877,0.203-1.307,0.203
		C307.596,228.242,307.406,228.229,307.221,228.203z M308.282,224.139c-0.374-0.06-0.626-0.418-0.571-0.8
		c0.062-0.382,0.4-0.641,0.783-0.583c0.228,0.04,0.476,0.012,0.73-0.08c0.299-0.102,0.61-0.289,0.933-0.552
		c0.343-0.283,0.687-0.65,1.026-1.089c0.345-0.443,0.682-0.959,1.003-1.539c0.325-0.579,0.639-1.221,0.929-1.907
		c0.291-0.689,0.563-1.428,0.814-2.2c0.25-0.774,0.479-1.586,0.682-2.414c0.198-0.846,0.373-1.704,0.51-2.555
		c0.141-0.867,0.251-1.747,0.325-2.616c0.076-0.889,0.112-1.765,0.112-2.606c0-0.838-0.036-1.65-0.109-2.413
		c-0.037-0.385,0.232-0.728,0.608-0.766c0.374-0.03,0.71,0.244,0.747,0.627c0.08,0.81,0.119,1.667,0.119,2.552
		c0,0.882-0.039,1.799-0.119,2.727c-0.072,0.906-0.188,1.822-0.336,2.725c-0.145,0.885-0.322,1.779-0.533,2.658
		c-0.207,0.865-0.445,1.713-0.707,2.521c-0.263,0.811-0.553,1.59-0.86,2.318c-0.312,0.733-0.646,1.421-0.993,2.045
		c-0.36,0.639-0.735,1.215-1.122,1.712c-0.397,0.52-0.819,0.96-1.241,1.31c-0.441,0.367-0.896,0.633-1.346,0.788
		c-0.325,0.114-0.646,0.169-0.965,0.169C308.558,224.172,308.42,224.162,308.282,224.139z M305.732,206.804
		c-0.365-0.091-0.588-0.47-0.5-0.847c0.205-0.869,0.441-1.722,0.707-2.53c0.262-0.812,0.553-1.591,0.861-2.311
		c0.31-0.728,0.645-1.408,0.994-2.023c0.359-0.628,0.736-1.191,1.122-1.673c0.409-0.505,0.832-0.927,1.259-1.251
		c0.445-0.342,0.898-0.583,1.354-0.719c0.463-0.14,0.929-0.164,1.379-0.078c0.438,0.086,0.854,0.28,1.24,0.575
		c0.359,0.275,0.692,0.642,0.99,1.09c0.285,0.425,0.541,0.931,0.766,1.502c0.144,0.359-0.031,0.767-0.381,0.91
		c-0.351,0.143-0.748-0.033-0.888-0.392c-0.187-0.475-0.394-0.889-0.622-1.229c-0.214-0.32-0.442-0.575-0.684-0.76
		c-0.219-0.167-0.446-0.274-0.68-0.32c-0.238-0.046-0.486-0.03-0.744,0.047c-0.291,0.087-0.604,0.254-0.919,0.497
		c-0.338,0.259-0.683,0.602-1.02,1.021c-0.341,0.423-0.676,0.924-0.997,1.489c-0.321,0.566-0.636,1.197-0.928,1.876
		c-0.289,0.682-0.562,1.417-0.812,2.189c-0.253,0.775-0.479,1.589-0.68,2.424c-0.078,0.319-0.355,0.533-0.664,0.533
		C305.842,206.824,305.789,206.817,305.732,206.804z M304.705,219.085c-0.152-0.696-0.264-1.459-0.344-2.272
		c-0.08-0.825-0.119-1.705-0.119-2.612c0-0.905,0.039-1.843,0.119-2.788c0.076-0.923,0.188-1.854,0.338-2.771
		c0.06-0.382,0.402-0.642,0.785-0.577c0.371,0.062,0.623,0.423,0.561,0.804c-0.141,0.881-0.248,1.776-0.324,2.662
		c-0.076,0.906-0.111,1.804-0.111,2.669c0,0.863,0.035,1.696,0.111,2.476c0.072,0.756,0.18,1.465,0.319,2.107
		c0.081,0.377-0.151,0.751-0.521,0.834c-0.049,0.012-0.101,0.017-0.146,0.017C305.057,219.635,304.773,219.412,304.705,219.085z
		 M306.025,222.506c-0.285-0.425-0.545-0.936-0.77-1.515c-0.137-0.359,0.035-0.767,0.389-0.908c0.35-0.14,0.746,0.036,0.885,0.396
		c0.187,0.479,0.394,0.896,0.621,1.236c0.213,0.317,0.133,0.754-0.178,0.973c-0.117,0.083-0.252,0.122-0.387,0.122
		C306.369,222.809,306.156,222.704,306.025,222.506z M309.242,220.125c-0.145-0.358,0.029-0.766,0.378-0.911
		c0.148-0.061,0.321-0.183,0.494-0.352c0.196-0.199,0.409-0.458,0.609-0.77c0.208-0.319,0.413-0.694,0.614-1.115
		c0.199-0.428,0.396-0.896,0.57-1.396c0.13-0.362,0.523-0.549,0.881-0.416c0.353,0.134,0.531,0.536,0.403,0.898
		c-0.196,0.548-0.407,1.058-0.624,1.525c-0.23,0.479-0.471,0.911-0.709,1.283c-0.263,0.396-0.532,0.733-0.809,1.002
		c-0.302,0.295-0.609,0.511-0.924,0.64c-0.084,0.034-0.17,0.051-0.256,0.051C309.604,220.564,309.349,220.397,309.242,220.125z
		 M313.369,213.019c-0.369-0.08-0.607-0.45-0.529-0.828c0.123-0.612,0.229-1.242,0.318-1.878c0.087-0.638,0.152-1.283,0.202-1.926
		c0.044-0.643,0.067-1.286,0.067-1.917c0-0.388,0.307-0.701,0.684-0.701c0.378,0,0.686,0.312,0.686,0.701
		c0,0.666-0.023,1.341-0.073,2.018c-0.051,0.676-0.12,1.353-0.215,2.019c-0.092,0.667-0.201,1.328-0.332,1.97
		c-0.067,0.33-0.351,0.557-0.668,0.557C313.463,213.032,313.414,213.028,313.369,213.019z M313.162,203.183
		c-0.083-0.449-0.186-0.857-0.301-1.217c-0.112-0.343-0.238-0.639-0.376-0.883c-0.122-0.217-0.251-0.389-0.386-0.507
		c-0.102-0.092-0.201-0.151-0.299-0.173c-0.088-0.019-0.184-0.012-0.285,0.025c-0.148,0.052-0.309,0.157-0.479,0.312
		c-0.196,0.179-0.4,0.419-0.603,0.715c-0.21,0.305-0.41,0.668-0.607,1.076c-0.165,0.348-0.579,0.492-0.915,0.319
		c-0.339-0.17-0.479-0.591-0.311-0.937c0.227-0.473,0.469-0.896,0.713-1.258c0.264-0.387,0.535-0.71,0.814-0.964
		c0.306-0.276,0.621-0.474,0.938-0.587c0.35-0.124,0.698-0.146,1.035-0.066c0.318,0.074,0.625,0.238,0.899,0.489
		c0.245,0.221,0.466,0.509,0.661,0.856c0.182,0.325,0.348,0.708,0.488,1.137c0.139,0.418,0.256,0.888,0.35,1.401
		c0.07,0.38-0.174,0.747-0.543,0.819c-0.045,0.007-0.086,0.011-0.127,0.011C313.512,203.751,313.223,203.517,313.162,203.183z
		 M309.901,216.427V204.56c0-0.388,0.306-0.7,0.683-0.7s0.684,0.312,0.684,0.7v11.867c0,0.387-0.307,0.7-0.684,0.7
		S309.901,216.813,309.901,216.427z M307.504,219.305c-0.187-0.323-0.352-0.709-0.492-1.145c-0.139-0.423-0.252-0.903-0.35-1.42
		c-0.094-0.514-0.166-1.079-0.217-1.689c-0.051-0.601-0.072-1.248-0.072-1.935c0-0.685,0.023-1.375,0.072-2.065
		c0.049-0.689,0.12-1.376,0.212-2.051c0.091-0.677,0.202-1.344,0.335-1.989c0.129-0.646,0.277-1.276,0.439-1.876
		c0.104-0.372,0.479-0.588,0.846-0.484c0.36,0.104,0.572,0.491,0.473,0.863c-0.154,0.569-0.299,1.165-0.422,1.78
		c-0.126,0.617-0.23,1.253-0.317,1.898c-0.09,0.646-0.153,1.302-0.202,1.959c-0.046,0.657-0.067,1.314-0.067,1.966
		c0,0.646,0.021,1.254,0.067,1.819c0.045,0.56,0.11,1.077,0.197,1.547c0.082,0.457,0.186,0.873,0.304,1.237
		c0.11,0.345,0.236,0.642,0.374,0.886c0.188,0.335,0.076,0.761-0.248,0.956c-0.108,0.065-0.228,0.094-0.344,0.094
		C307.855,219.655,307.627,219.531,307.504,219.305z"/>
</g>
<g id="XMLID_713_">
	<g id="XMLID_719_" display="none">
		<path id="XMLID_761_" display="inline" fill="#FFFFFF" fill-opacity="0" d="M267.432,145.062c1.603-0.949,2.916-0.173,2.916,1.724
			v82.173c0,1.896-1.325,4.201-2.942,5.12l-68.909,39.167c-1.619,0.919-2.942,0.12-2.942-1.778v-80.424
			c0-1.896,1.312-4.224,2.914-5.172L267.432,145.062z"/>
		<path id="XMLID_760_" display="inline" opacity="0.0244" fill="#FDFDFD" d="M266.983,145.9c1.579-0.936,2.875-0.171,2.875,1.702
			V228.7c0,1.871-1.309,4.145-2.906,5.054l-68.005,38.651c-1.598,0.909-2.903,0.12-2.903-1.751V191.28
			c0-1.872,1.292-4.168,2.875-5.104L266.983,145.9z"/>
		<path id="XMLID_759_" display="inline" opacity="0.0488" fill="#F9F9F9" d="M266.529,146.739c1.56-0.924,2.837-0.167,2.837,1.679
			v80.021c0,1.848-1.291,4.092-2.865,4.987l-67.104,38.141c-1.577,0.896-2.866,0.117-2.866-1.729v-78.322
			c0-1.847,1.277-4.114,2.835-5.036L266.529,146.739z"/>
		<path id="XMLID_758_" display="inline" opacity="0.0732" fill="#F7F7F7" d="M266.078,147.578c1.539-0.912,2.8-0.166,2.8,1.657
			v78.945c0,1.823-1.272,4.037-2.827,4.921l-66.203,37.629c-1.554,0.883-2.826,0.111-2.826-1.709v-77.269
			c0-1.822,1.26-4.058,2.798-4.969L266.078,147.578z"/>
		<path id="XMLID_757_" display="inline" opacity="0.0976" fill="#F4F4F4" d="M265.626,148.415c1.52-0.897,2.764-0.162,2.764,1.636
			v77.871c0,1.797-1.255,3.981-2.789,4.853l-65.3,37.116c-1.534,0.871-2.79,0.113-2.79-1.683v-76.216
			c0-1.797,1.243-4.003,2.761-4.901L265.626,148.415z"/>
		<path id="XMLID_756_" display="inline" opacity="0.122" fill="#F1F1F1" d="M265.177,149.255c1.494-0.886,2.723-0.161,2.723,1.611
			v76.797c0,1.771-1.238,3.925-2.752,4.784L200.75,269.05c-1.512,0.859-2.75,0.112-2.75-1.659v-75.163
			c0-1.772,1.226-3.947,2.725-4.833L265.177,149.255z"/>
		<path id="XMLID_755_" display="inline" opacity="0.1463" fill="#EEEEEE" d="M264.725,150.093c1.476-0.874,2.684-0.159,2.684,1.589
			v75.72c0,1.748-1.219,3.871-2.71,4.719l-63.495,36.09c-1.491,0.846-2.713,0.109-2.713-1.638v-74.109
			c0-1.748,1.209-3.893,2.684-4.767L264.725,150.093z"/>
		<path id="XMLID_754_" display="inline" opacity="0.1707" fill="#ECEBEC" d="M264.272,150.933c1.457-0.862,2.647-0.158,2.647,1.566
			v74.644c0,1.723-1.202,3.816-2.672,4.652l-62.596,35.575c-1.47,0.837-2.67,0.11-2.67-1.61v-73.059
			c0-1.722,1.191-3.837,2.646-4.698L264.272,150.933z"/>
		<path id="XMLID_753_" display="inline" opacity="0.1951" fill="#E8E8E8" d="M263.822,151.771c1.433-0.849,2.608-0.154,2.608,1.543
			v73.57c0,1.697-1.186,3.76-2.636,4.583l-61.691,35.065c-1.45,0.821-2.632,0.108-2.632-1.591v-72.004
			c0-1.698,1.171-3.782,2.606-4.63L263.822,151.771z"/>
		<path id="XMLID_752_" display="inline" opacity="0.2195" fill="#E6E6E6" d="M263.372,152.61c1.413-0.837,2.569-0.153,2.569,1.52
			v72.493c0,1.674-1.168,3.707-2.596,4.518l-60.791,34.554c-1.429,0.809-2.595,0.104-2.595-1.567v-70.952
			c0-1.675,1.157-3.727,2.572-4.562L263.372,152.61z"/>
		<path id="XMLID_751_" display="inline" opacity="0.2439" fill="#E3E2E3" d="M262.918,153.448c1.396-0.824,2.531-0.149,2.531,1.499
			v71.418c0,1.649-1.148,3.651-2.556,4.451l-59.888,34.038c-1.407,0.802-2.558,0.106-2.558-1.543v-69.896
			c0-1.649,1.141-3.672,2.532-4.496L262.918,153.448z"/>
		<path id="XMLID_750_" display="inline" opacity="0.2683" fill="#E0E0E0" d="M262.467,154.287c1.373-0.812,2.497-0.147,2.497,1.476
			v70.343c0,1.623-1.136,3.596-2.521,4.383l-58.986,33.528c-1.387,0.783-2.518,0.104-2.518-1.521v-68.847
			c0-1.625,1.122-3.616,2.493-4.428L262.467,154.287z"/>
		<path id="XMLID_749_" display="inline" opacity="0.2927" fill="#DDDDDD" d="M262.018,155.126c1.351-0.799,2.455-0.146,2.455,1.454
			v69.267c0,1.599-1.116,3.54-2.48,4.315l-58.084,33.015c-1.365,0.772-2.478,0.104-2.478-1.497v-67.794
			c0-1.598,1.102-3.561,2.455-4.361L262.018,155.126z"/>
		<path id="XMLID_748_" display="inline" opacity="0.3171" fill="#DBDADB" d="M261.565,155.964c1.331-0.786,2.417-0.143,2.417,1.432
			v68.191c0,1.573-1.098,3.486-2.44,4.249l-57.182,32.501c-1.343,0.767-2.444,0.103-2.444-1.473v-66.741
			c0-1.573,1.089-3.506,2.418-4.293L261.565,155.964z"/>
		<path id="XMLID_747_" display="inline" opacity="0.3415" fill="#D7D7D7" d="M261.111,156.803c1.312-0.774,2.382-0.14,2.382,1.409
			v67.115c0,1.55-1.084,3.432-2.403,4.182l-56.281,31.989c-1.322,0.754-2.401,0.1-2.401-1.449V194.36
			c0-1.549,1.07-3.451,2.378-4.225L261.111,156.803z"/>
		<path id="XMLID_746_" display="inline" opacity="0.3659" fill="#D5D4D5" d="M260.664,157.642c1.288-0.762,2.341-0.139,2.341,1.386
			v66.041c0,1.524-1.064,3.376-2.364,4.115l-55.379,31.477c-1.3,0.739-2.366,0.097-2.366-1.43v-64.634
			c0-1.524,1.054-3.395,2.342-4.157L260.664,157.642z"/>
		<path id="XMLID_745_" display="inline" opacity="0.3902" fill="#D2D1D2" d="M260.212,158.481c1.267-0.749,2.304-0.137,2.304,1.362
			v64.965c0,1.499-1.045,3.321-2.327,4.049l-54.479,30.962c-1.275,0.729-2.323,0.096-2.323-1.403v-63.584
			c0-1.499,1.037-3.34,2.301-4.089L260.212,158.481z"/>
		<path id="XMLID_744_" display="inline" opacity="0.4146" fill="#D0CFD0" d="M259.759,159.319c1.248-0.736,2.266-0.133,2.266,1.341
			v63.889c0,1.475-1.028,3.267-2.287,3.981l-53.575,30.452c-1.257,0.715-2.287,0.093-2.287-1.383V195.07
			c0-1.475,1.02-3.284,2.264-4.021L259.759,159.319z"/>
		<path id="XMLID_743_" display="inline" opacity="0.439" fill="#CCCBCC" d="M259.308,160.157c1.228-0.723,2.228-0.131,2.228,1.319
			v62.814c0,1.45-1.011,3.211-2.249,3.913l-52.674,29.94c-1.233,0.703-2.248,0.091-2.248-1.358v-61.478
			c0-1.45,1.003-3.229,2.227-3.954L259.308,160.157z"/>
		<path id="XMLID_742_" display="inline" opacity="0.4634" fill="#CAC9CA" d="M258.858,160.998c1.204-0.714,2.188-0.131,2.188,1.294
			v61.738c0,1.425-0.995,3.156-2.21,3.849l-51.771,29.424c-1.217,0.692-2.21,0.091-2.21-1.333v-60.426
			c0-1.425,0.986-3.173,2.191-3.886L258.858,160.998z"/>
		<path id="XMLID_741_" display="inline" opacity="0.4878" fill="#C7C6C7" d="M258.406,161.835c1.182-0.701,2.151-0.127,2.151,1.272
			v60.663c0,1.4-0.978,3.102-2.17,3.78l-50.871,28.914c-1.196,0.679-2.173,0.088-2.173-1.311V195.78c0-1.4,0.97-3.119,2.151-3.818
			L258.406,161.835z"/>
		<path id="XMLID_740_" display="inline" opacity="0.5122" fill="#C3C2C3" d="M257.954,162.674c1.164-0.687,2.113-0.125,2.113,1.25
			v59.588c0,1.375-0.96,3.045-2.133,3.713l-49.968,28.402c-1.173,0.665-2.133,0.086-2.133-1.289v-58.32
			c0-1.376,0.953-3.063,2.114-3.751L257.954,162.674z"/>
		<path id="XMLID_739_" display="inline" opacity="0.5366" fill="#C1C0C1" d="M257.505,163.512c1.14-0.674,2.071-0.122,2.071,1.229
			v58.512c0,1.349-0.941,2.991-2.092,3.645l-49.067,27.889c-1.153,0.655-2.094,0.086-2.094-1.265v-57.268
			c0-1.349,0.933-3.007,2.074-3.683L257.505,163.512z"/>
		<path id="XMLID_738_" display="inline" opacity="0.561" fill="#BFBDBF" d="M257.053,164.353c1.118-0.664,2.036-0.122,2.036,1.205
			v57.436c0,1.327-0.928,2.937-2.056,3.579l-48.167,27.376c-1.13,0.643-2.053,0.084-2.053-1.242v-56.215
			c0-1.325,0.914-2.952,2.033-3.616L257.053,164.353z"/>
		<path id="XMLID_737_" display="inline" opacity="0.5854" fill="#BBBABB" d="M256.599,165.191c1.1-0.651,2-0.119,2,1.183v56.361
			c0,1.301-0.909,2.881-2.019,3.512l-47.261,26.862c-1.109,0.631-2.019,0.083-2.019-1.219v-55.16c0-1.3,0.901-2.897,1.998-3.548
			L256.599,165.191z"/>
		<path id="XMLID_736_" display="inline" opacity="0.6098" fill="#B9B8B9" d="M256.148,166.03c1.079-0.639,1.96-0.117,1.96,1.159
			v55.285c0,1.276-0.888,2.826-1.979,3.446l-46.361,26.35c-1.086,0.618-1.979,0.08-1.979-1.195v-54.109
			c0-1.276,0.882-2.843,1.961-3.48L256.148,166.03z"/>
		<path id="XMLID_735_" display="inline" opacity="0.6341" fill="#B6B4B6" d="M255.699,166.868c1.057-0.625,1.922-0.113,1.922,1.138
			v54.209c0,1.252-0.873,2.772-1.942,3.379l-45.456,25.837c-1.07,0.607-1.941,0.08-1.941-1.171v-53.057
			c0-1.251,0.863-2.788,1.921-3.412L255.699,166.868z"/>
		<path id="XMLID_734_" display="inline" opacity="0.6585" fill="#B2B1B2" d="M255.246,167.707c1.036-0.614,1.885-0.111,1.885,1.115
			v53.133c0,1.225-0.856,2.716-1.903,3.311l-44.556,25.325c-1.044,0.594-1.901,0.078-1.901-1.149v-52.003
			c0-1.226,0.846-2.73,1.882-3.345L255.246,167.707z"/>
		<path id="XMLID_733_" display="inline" opacity="0.6829" fill="#B0AFB0" d="M254.793,168.546c1.017-0.602,1.847-0.109,1.847,1.092
			v52.058c0,1.201-0.837,2.662-1.864,3.244l-43.654,24.814c-1.026,0.581-1.863,0.075-1.863-1.126v-50.951
			c0-1.202,0.829-2.676,1.846-3.278L254.793,168.546z"/>
		<path id="XMLID_732_" display="inline" opacity="0.7073" fill="#AEACAE" d="M254.346,169.384c0.993-0.588,1.806-0.107,1.806,1.07
			v50.983c0,1.176-0.821,2.606-1.824,3.177l-42.752,24.298c-1.005,0.57-1.826,0.076-1.826-1.103v-49.897
			c0-1.177,0.812-2.62,1.809-3.208L254.346,169.384z"/>
		<path id="XMLID_731_" display="inline" opacity="0.7317" fill="#AAA9AA" d="M253.892,170.224c0.974-0.577,1.771-0.106,1.771,1.046
			v49.907c0,1.152-0.806,2.552-1.788,3.11l-41.852,23.787c-0.982,0.558-1.786,0.074-1.786-1.078v-48.847
			c0-1.152,0.796-2.564,1.771-3.142L253.892,170.224z"/>
		<path id="XMLID_730_" display="inline" opacity="0.7561" fill="#A8A6A8" d="M253.442,171.062c0.952-0.563,1.731-0.102,1.731,1.024
			v48.832c0,1.127-0.787,2.496-1.75,3.043l-40.946,23.274c-0.964,0.547-1.752,0.072-1.752-1.055v-47.794
			c0-1.127,0.781-2.51,1.733-3.073L253.442,171.062z"/>
		<path id="XMLID_729_" display="inline" opacity="0.7805" fill="#A5A3A5" d="M252.989,171.901c0.932-0.552,1.694-0.1,1.694,1.002
			v47.755c0,1.103-0.769,2.442-1.709,2.976l-40.048,22.762c-0.941,0.536-1.708,0.07-1.708-1.032v-46.741
			c0-1.102,0.759-2.455,1.692-3.005L252.989,171.901z"/>
		<path id="XMLID_728_" display="inline" opacity="0.8049" fill="#A2A1A2" d="M252.541,172.739c0.908-0.54,1.653-0.098,1.653,0.979
			v46.679c0,1.077-0.752,2.387-1.673,2.909l-39.142,22.249c-0.92,0.524-1.672,0.069-1.672-1.008V198.86
			c0-1.078,0.745-2.4,1.656-2.939L252.541,172.739z"/>
		<path id="XMLID_727_" display="inline" opacity="0.8293" fill="#9F9D9F" d="M252.086,173.577c0.891-0.526,1.619-0.095,1.619,0.958
			v45.604c0,1.053-0.736,2.331-1.633,2.843l-38.243,21.736c-0.896,0.51-1.632,0.066-1.632-0.986v-44.635
			c0-1.051,0.729-2.344,1.615-2.87L252.086,173.577z"/>
		<path id="XMLID_726_" display="inline" opacity="0.8537" fill="#9D9B9D" d="M251.636,174.417c0.867-0.514,1.58-0.094,1.58,0.935
			v44.529c0,1.026-0.721,2.276-1.595,2.775L214.28,243.88c-0.877,0.498-1.595,0.064-1.595-0.963v-43.583
			c0-1.027,0.71-2.288,1.58-2.802L251.636,174.417z"/>
		<path id="XMLID_725_" display="inline" opacity="0.878" fill="#999899" d="M251.185,175.255c0.847-0.502,1.54-0.091,1.54,0.913
			v43.452c0,1.004-0.699,2.222-1.555,2.709l-36.438,20.71c-0.855,0.487-1.557,0.063-1.557-0.938V199.57
			c0-1.001,0.694-2.233,1.542-2.733L251.185,175.255z"/>
		<path id="XMLID_724_" display="inline" opacity="0.9024" fill="#979597" d="M250.733,176.095c0.825-0.489,1.505-0.09,1.505,0.889
			v42.378c0,0.979-0.683,2.167-1.52,2.642l-35.536,20.198c-0.833,0.475-1.518,0.062-1.518-0.916v-41.478
			c0-0.977,0.676-2.178,1.502-2.667L250.733,176.095z"/>
		<path id="XMLID_723_" display="inline" opacity="0.9268" fill="#949294" d="M250.281,176.933c0.804-0.476,1.465-0.086,1.465,0.867
			v41.303c0,0.953-0.665,2.112-1.479,2.573l-34.636,19.686c-0.812,0.463-1.476,0.062-1.476-0.892v-40.425
			c0-0.953,0.657-2.123,1.461-2.598L250.281,176.933z"/>
		<path id="XMLID_722_" display="inline" opacity="0.9512" fill="#918F91" d="M249.83,177.772c0.785-0.465,1.427-0.084,1.427,0.843
			v40.228c0,0.929-0.648,2.056-1.438,2.507l-33.736,19.172c-0.789,0.45-1.439,0.06-1.439-0.869v-39.372
			c0-0.928,0.643-2.068,1.428-2.531L249.83,177.772z"/>
		<path id="XMLID_721_" display="inline" opacity="0.9756" fill="#8E8C8E" d="M249.378,178.61c0.763-0.452,1.389-0.082,1.389,0.821
			v39.151c0,0.905-0.63,2.001-1.403,2.441l-32.83,18.66c-0.772,0.437-1.402,0.057-1.402-0.847v-38.319
			c0-0.903,0.625-2.012,1.388-2.464L249.378,178.61z"/>
		<path id="XMLID_720_" display="inline" fill="#231F20" d="M248.929,179.449c0.741-0.438,1.351-0.081,1.351,0.798v38.077
			c0,0.878-0.614,1.947-1.364,2.373l-31.927,18.146c-0.753,0.426-1.364,0.055-1.364-0.823v-37.266c0-0.878,0.606-1.958,1.348-2.396
			L248.929,179.449z"/>
	</g>
	
		<linearGradient id="XMLID_16_" gradientUnits="userSpaceOnUse" x1="-474.0303" y1="481.834" x2="-389.1709" y2="481.834" gradientTransform="matrix(-0.5808 0 0 1 -12.9798 -271)">
		<stop  offset="0" style="stop-color:#3F65E9"/>
		<stop  offset="0.1" style="stop-color:#4568E8"/>
		<stop  offset="0.6762" style="stop-color:#6474E5"/>
		<stop  offset="1" style="stop-color:#6F79E4"/>
	</linearGradient>
	<path id="XMLID_718_" fill="url(#XMLID_16_)" d="M261.387,168.832l0.95,0.41l-0.602,54.139c0,1.234-0.86,2.734-1.914,3.333
		l-44.826,26.28l-0.449-0.192c-0.908-0.389-1.495-1.297-1.495-2.304V198.7c0-1.235,0.852-2.75,1.894-3.367l44.669-26.386
		C260.157,168.627,260.81,168.586,261.387,168.832z"/>
	<path id="XMLID_717_" fill="#FFFFFF" d="M260.932,169.327c1.045-0.617,1.898-0.113,1.898,1.123v53.492
		c0,1.235-0.861,2.733-1.915,3.333l-44.856,25.496c-1.053,0.599-1.914,0.079-1.914-1.156V199.26c0-1.234,0.853-2.75,1.894-3.368
		L260.932,169.327z"/>
	<g id="XMLID_714_">
		<path id="XMLID_716_" fill="#404A8B" d="M224.859,207.524c-0.671,0.393-1.217,1.36-1.217,2.151v19.153
			c0,0.791,0.546,1.118,1.22,0.726l25.666-14.989c0.672-0.392,1.218-1.36,1.218-2.149l-0.015-19.162
			c0-0.791-0.549-1.118-1.219-0.726L224.859,207.524z"/>
		
			<linearGradient id="XMLID_17_" gradientUnits="userSpaceOnUse" x1="-455.7578" y1="473.5547" x2="-407.5107" y2="473.5547" gradientTransform="matrix(-0.5808 0 0 1 -12.9798 -271)">
			<stop  offset="0" style="stop-color:#ED956E"/>
			<stop  offset="0.2122" style="stop-color:#EC8B75"/>
			<stop  offset="0.5704" style="stop-color:#E37A93"/>
			<stop  offset="1" style="stop-color:#DD5D7B"/>
		</linearGradient>
		<path id="XMLID_715_" fill="url(#XMLID_17_)" d="M224.859,207.524l25.653-14.996c0.649-0.379,1.176-0.083,1.212,0.65
			l-10.792,18.249c-0.6,1.017-1.773,1.521-2.903,1.248l-14.327-3.462C223.86,208.54,224.317,207.843,224.859,207.524z"/>
	</g>
</g>
<g>
	<g>
		
			<linearGradient id="SVGID_1_" gradientUnits="userSpaceOnUse" x1="293.6777" y1="344.3281" x2="517.2881" y2="344.3281" gradientTransform="matrix(-0.5808 0 0 1 432.4616 -271)">
			<stop  offset="0" style="stop-color:#3F65E9"/>
			<stop  offset="0.1" style="stop-color:#4568E8"/>
			<stop  offset="0.6762" style="stop-color:#6474E5"/>
			<stop  offset="1" style="stop-color:#6F79E4"/>
		</linearGradient>
		<path fill="url(#SVGID_1_)" d="M137.122,69.15L253.699,0.647c1.687-0.99,3.774-0.92,5.393,0.182l2.802,1.908l-1.725,66.78
			c0,3.733-1.425,5.427-4.578,7.296l-44.72,25.698l-29.094,18.637l-41.547,25.558l-4.486-0.295c-2.093-0.139-3.723-1.919-3.723-4.07
			V78.207C132.02,74.472,133.965,71.018,137.122,69.15z"/>
		<path id="XMLID_712_" fill="#404A8B" d="M264.323,7.513V67.7c0,3.733-1.944,7.186-5.098,9.055l-46.103,27.311l-10.311,22.18
			c-0.805,3.027-4.121,4.532-6.851,3.105l-9.629-9.223l-42.501,25.788c-3.841,2.332-8.698-0.506-8.698-5.082V79.772
			c0-3.737,1.943-7.19,5.101-9.058L255.681,2.399C259.523,0.127,264.323,2.968,264.323,7.513z"/>
	</g>
	<g id="XMLID_711_">
		<polygon fill="#FFFFFF" points="147.675,85.221 248.535,25.346 248.458,17.527 147.675,77.164 		"/>
	</g>
	<g id="XMLID_710_">
		<polygon fill="#FFFFFF" points="147.675,105.366 248.535,45.821 248.458,38.001 147.675,97.639 		"/>
	</g>
	<g id="XMLID_709_">
		<polygon fill="#FFFFFF" points="199.73,96.508 248.535,67.649 248.458,59.831 199.725,88.67 		"/>
	</g>
</g>
<g id="XMLID_610_">
	<g id="XMLID_616_" display="none">
		<path id="XMLID_658_" display="inline" fill="#FFFFFF" fill-opacity="0" d="M349.628,5.388c1.604-0.949,2.915-0.172,2.915,1.724
			v82.174c0,1.897-1.326,4.202-2.944,5.121l-68.907,39.166c-1.615,0.92-2.939,0.121-2.939-1.776V51.37
			c0-1.896,1.31-4.225,2.913-5.171L349.628,5.388z"/>
		<path id="XMLID_657_" display="inline" opacity="0.0244" fill="#FDFDFD" d="M349.177,6.227c1.581-0.936,2.876-0.171,2.876,1.701
			v81.099c0,1.873-1.308,4.146-2.901,5.054l-68.009,38.653c-1.598,0.907-2.901,0.118-2.901-1.753V51.607
			c0-1.871,1.293-4.167,2.876-5.104L349.177,6.227z"/>
		<path id="XMLID_656_" display="inline" opacity="0.0488" fill="#F9F9F9" d="M348.727,7.066c1.561-0.924,2.84-0.169,2.84,1.679
			v80.021c0,1.847-1.292,4.091-2.867,4.987l-67.104,38.14c-1.577,0.896-2.867,0.118-2.867-1.73v-78.32
			c0-1.848,1.278-4.114,2.839-5.037L348.727,7.066z"/>
		<path id="XMLID_655_" display="inline" opacity="0.0732" fill="#F7F7F7" d="M348.273,7.904c1.539-0.912,2.801-0.165,2.801,1.657
			v78.947c0,1.821-1.271,4.035-2.828,4.918l-66.2,37.628c-1.555,0.884-2.827,0.116-2.827-1.707V52.081
			c0-1.821,1.258-4.058,2.8-4.969L348.273,7.904z"/>
		<path id="XMLID_654_" display="inline" opacity="0.0976" fill="#F4F4F4" d="M347.821,8.742c1.52-0.898,2.764-0.163,2.764,1.635
			v77.871c0,1.797-1.255,3.981-2.787,4.852l-65.302,37.117c-1.534,0.871-2.788,0.114-2.788-1.683V52.318
			c0-1.798,1.241-4.004,2.761-4.902L347.821,8.742z"/>
		<path id="XMLID_653_" display="inline" opacity="0.122" fill="#F1F1F1" d="M347.372,9.583c1.496-0.887,2.724-0.162,2.724,1.611
			V87.99c0,1.772-1.234,3.925-2.752,4.786l-64.396,36.602c-1.513,0.859-2.749,0.114-2.749-1.659V52.555
			c0-1.772,1.226-3.948,2.724-4.834L347.372,9.583z"/>
		<path id="XMLID_652_" display="inline" opacity="0.1463" fill="#EEEEEE" d="M346.92,10.42c1.478-0.874,2.687-0.159,2.687,1.589
			v75.72c0,1.747-1.22,3.871-2.712,4.719l-63.496,36.09c-1.488,0.847-2.711,0.111-2.711-1.636v-74.11
			c0-1.748,1.209-3.893,2.686-4.765L346.92,10.42z"/>
		<path id="XMLID_651_" display="inline" opacity="0.1707" fill="#ECEBEC" d="M346.469,11.26c1.456-0.861,2.646-0.158,2.646,1.565
			l0.002,74.645c0,1.724-1.203,3.816-2.673,4.652l-62.597,35.577c-1.468,0.835-2.673,0.109-2.673-1.613V53.029
			c0-1.724,1.191-3.837,2.647-4.699L346.469,11.26z"/>
		<path id="XMLID_650_" display="inline" opacity="0.1951" fill="#E8E8E8" d="M346.02,12.098c1.438-0.848,2.608-0.153,2.608,1.543
			v73.57c0,1.697-1.188,3.762-2.635,4.584l-61.692,35.065c-1.449,0.824-2.635,0.109-2.635-1.59V53.266
			c0-1.698,1.174-3.782,2.609-4.631L346.02,12.098z"/>
		<path id="XMLID_649_" display="inline" opacity="0.2195" fill="#E6E6E6" d="M345.567,12.937c1.414-0.835,2.567-0.151,2.567,1.521
			v72.495c0,1.673-1.168,3.705-2.595,4.517l-60.79,34.552c-1.43,0.812-2.598,0.107-2.598-1.567V53.502
			c0-1.674,1.156-3.727,2.57-4.563L345.567,12.937z"/>
		<path id="XMLID_648_" display="inline" opacity="0.2439" fill="#E3E2E3" d="M345.114,13.776c1.395-0.824,2.532-0.15,2.532,1.498
			v71.419c0,1.648-1.151,3.65-2.56,4.451L285.2,125.183c-1.407,0.799-2.558,0.104-2.558-1.543V53.739
			c0-1.647,1.142-3.672,2.53-4.496L345.114,13.776z"/>
		<path id="XMLID_647_" display="inline" opacity="0.2683" fill="#E0E0E0" d="M344.664,14.614c1.373-0.812,2.496-0.147,2.496,1.475
			v70.344c0,1.623-1.137,3.596-2.521,4.384l-58.984,33.526c-1.387,0.787-2.521,0.102-2.521-1.521V53.976
			c0-1.624,1.121-3.616,2.496-4.427L344.664,14.614z"/>
		<path id="XMLID_646_" display="inline" opacity="0.2927" fill="#DDDDDD" d="M344.213,15.453c1.354-0.798,2.454-0.145,2.454,1.454
			v69.268c0,1.599-1.115,3.54-2.479,4.316l-58.085,33.014c-1.362,0.775-2.479,0.102-2.479-1.496V54.213
			c0-1.599,1.104-3.561,2.457-4.36L344.213,15.453z"/>
		<path id="XMLID_645_" display="inline" opacity="0.3171" fill="#DBDADB" d="M343.762,16.292c1.33-0.786,2.417-0.144,2.417,1.431
			v68.191c0,1.575-1.099,3.487-2.438,4.25l-57.186,32.501c-1.343,0.763-2.443,0.099-2.443-1.474V54.45
			c0-1.573,1.092-3.504,2.421-4.292L343.762,16.292z"/>
		<path id="XMLID_644_" display="inline" opacity="0.3415" fill="#D7D7D7" d="M343.308,17.131c1.312-0.775,2.384-0.141,2.384,1.408
			v67.116c0,1.548-1.079,3.43-2.405,4.181l-56.28,31.989c-1.318,0.752-2.4,0.1-2.4-1.45V54.687c0-1.549,1.07-3.45,2.379-4.225
			L343.308,17.131z"/>
		<path id="XMLID_643_" display="inline" opacity="0.3659" fill="#D5D4D5" d="M342.859,17.969c1.288-0.762,2.343-0.139,2.343,1.386
			v66.04c0,1.524-1.065,3.376-2.366,4.117l-55.379,31.475c-1.301,0.739-2.365,0.098-2.365-1.426V54.923
			c0-1.524,1.055-3.394,2.342-4.156L342.859,17.969z"/>
		<path id="XMLID_642_" display="inline" opacity="0.3902" fill="#D2D1D2" d="M342.407,18.808c1.269-0.749,2.303-0.136,2.303,1.362
			v64.964c0,1.5-1.046,3.322-2.327,4.05l-54.477,30.963c-1.277,0.726-2.322,0.095-2.322-1.404V55.16
			c0-1.499,1.034-3.339,2.303-4.089L342.407,18.808z"/>
		<path id="XMLID_641_" display="inline" opacity="0.4146" fill="#D0CFD0" d="M341.955,19.646c1.246-0.736,2.266-0.133,2.266,1.341
			v63.89c0,1.474-1.026,3.266-2.287,3.981l-53.572,30.451c-1.26,0.714-2.291,0.095-2.291-1.381v-62.53
			c0-1.474,1.022-3.284,2.267-4.022L341.955,19.646z"/>
		<path id="XMLID_640_" display="inline" opacity="0.439" fill="#CCCBCC" d="M341.503,20.486c1.229-0.725,2.229-0.132,2.229,1.317
			v62.814c0,1.45-1.013,3.211-2.247,3.914l-52.673,29.938c-1.237,0.704-2.252,0.092-2.252-1.358V55.634
			c0-1.45,1.004-3.229,2.229-3.953L341.503,20.486z"/>
		<path id="XMLID_639_" display="inline" opacity="0.4634" fill="#CAC9CA" d="M341.053,21.324c1.205-0.714,2.189-0.131,2.189,1.295
			v61.739c0,1.424-0.994,3.154-2.211,3.846l-51.771,29.427c-1.217,0.691-2.208,0.089-2.208-1.334V55.871
			c0-1.425,0.983-3.173,2.188-3.886L341.053,21.324z"/>
		<path id="XMLID_638_" display="inline" opacity="0.4878" fill="#C7C6C7" d="M340.602,22.163c1.186-0.699,2.151-0.126,2.151,1.272
			v60.663c0,1.4-0.979,3.102-2.171,3.781l-50.871,28.913c-1.193,0.68-2.172,0.089-2.172-1.311V56.108c0-1.4,0.971-3.119,2.148-3.818
			L340.602,22.163z"/>
		<path id="XMLID_637_" display="inline" opacity="0.5122" fill="#C3C2C3" d="M340.15,23.001c1.161-0.687,2.111-0.125,2.111,1.25
			v59.588c0,1.376-0.959,3.046-2.135,3.713l-49.967,28.4c-1.176,0.668-2.135,0.089-2.135-1.286v-58.32
			c0-1.376,0.953-3.063,2.111-3.752L340.15,23.001z"/>
		<path id="XMLID_636_" display="inline" opacity="0.5366" fill="#C1C0C1" d="M339.7,23.841c1.141-0.676,2.073-0.123,2.073,1.228
			V83.58c0,1.35-0.943,2.991-2.096,3.646l-49.066,27.888c-1.151,0.655-2.094,0.086-2.094-1.265V56.582
			c0-1.35,0.936-3.008,2.075-3.684L339.7,23.841z"/>
		<path id="XMLID_635_" display="inline" opacity="0.561" fill="#BFBDBF" d="M339.247,24.68c1.121-0.664,2.037-0.121,2.037,1.206
			V83.32c0,1.327-0.927,2.937-2.058,3.58l-48.16,27.376c-1.133,0.643-2.06,0.084-2.06-1.242V56.819c0-1.325,0.918-2.952,2.036-3.616
			L339.247,24.68z"/>
		<path id="XMLID_634_" display="inline" opacity="0.5854" fill="#BBBABB" d="M338.797,25.518c1.101-0.65,1.999-0.119,1.999,1.184
			v56.36c0,1.301-0.908,2.881-2.019,3.512l-47.262,26.862c-1.109,0.632-2.021,0.084-2.021-1.216V57.056
			c0-1.301,0.899-2.897,1.997-3.548L338.797,25.518z"/>
		<path id="XMLID_633_" display="inline" opacity="0.6098" fill="#B9B8B9" d="M338.346,26.357c1.077-0.64,1.959-0.117,1.959,1.16
			v55.286c0,1.275-0.89,2.826-1.979,3.445l-46.358,26.35c-1.09,0.619-1.981,0.081-1.981-1.194v-54.11
			c0-1.276,0.883-2.842,1.961-3.48L338.346,26.357z"/>
		<path id="XMLID_632_" display="inline" opacity="0.6341" fill="#B6B4B6" d="M337.895,27.194c1.058-0.625,1.925-0.112,1.925,1.139
			v54.209c0,1.25-0.873,2.771-1.942,3.377l-45.459,25.837c-1.062,0.607-1.939,0.08-1.939-1.17V57.529
			c0-1.25,0.863-2.786,1.924-3.412L337.895,27.194z"/>
		<path id="XMLID_631_" display="inline" opacity="0.6585" fill="#B2B1B2" d="M337.443,28.034c1.033-0.614,1.883-0.112,1.883,1.115
			v53.133c0,1.227-0.854,2.716-1.902,3.311l-44.555,25.325c-1.047,0.595-1.902,0.078-1.902-1.147V57.766
			c0-1.226,0.846-2.731,1.883-3.344L337.443,28.034z"/>
		<path id="XMLID_630_" display="inline" opacity="0.6829" fill="#B0AFB0" d="M336.989,28.873c1.017-0.601,1.848-0.11,1.848,1.091
			v52.059c0,1.201-0.839,2.661-1.867,3.243L293.32,110.08c-1.025,0.581-1.866,0.076-1.866-1.126V58.003
			c0-1.201,0.831-2.676,1.847-3.277L336.989,28.873z"/>
		<path id="XMLID_629_" display="inline" opacity="0.7073" fill="#AEACAE" d="M336.54,29.711c0.993-0.587,1.806-0.106,1.806,1.07
			v50.983c0,1.178-0.817,2.606-1.82,3.178L293.77,109.24c-1.004,0.57-1.824,0.074-1.824-1.102V58.239
			c0-1.175,0.812-2.619,1.809-3.208L336.54,29.711z"/>
		<path id="XMLID_628_" display="inline" opacity="0.7317" fill="#AAA9AA" d="M336.089,30.55c0.974-0.576,1.771-0.105,1.771,1.046
			v49.907c0,1.153-0.807,2.553-1.79,3.111l-41.851,23.787c-0.981,0.559-1.784,0.074-1.784-1.078V58.477
			c0-1.151,0.793-2.565,1.771-3.14L336.089,30.55z"/>
		<path id="XMLID_627_" display="inline" opacity="0.7561" fill="#A8A6A8" d="M335.638,31.389c0.951-0.563,1.73-0.101,1.73,1.023
			v48.833c0,1.126-0.788,2.496-1.746,3.042l-40.95,23.275c-0.963,0.546-1.746,0.071-1.746-1.056V58.713
			c0-1.127,0.775-2.51,1.729-3.074L335.638,31.389z"/>
		<path id="XMLID_626_" display="inline" opacity="0.7805" fill="#A5A3A5" d="M335.185,32.229c0.934-0.552,1.693-0.1,1.693,1v47.757
			c0,1.102-0.77,2.44-1.709,2.975l-40.044,22.762c-0.943,0.535-1.712,0.07-1.712-1.032V58.95c0-1.102,0.761-2.454,1.694-3.005
			L335.185,32.229z"/>
		<path id="XMLID_625_" display="inline" opacity="0.8049" fill="#A2A1A2" d="M334.737,33.066c0.905-0.538,1.649-0.098,1.649,0.98
			v46.68c0,1.078-0.751,2.386-1.672,2.909l-39.146,22.25c-0.916,0.523-1.67,0.069-1.67-1.009V59.187
			c0-1.077,0.746-2.398,1.654-2.937L334.737,33.066z"/>
		<path id="XMLID_624_" display="inline" opacity="0.8293" fill="#9F9D9F" d="M334.283,33.905c0.89-0.526,1.617-0.096,1.617,0.957
			v45.604c0,1.053-0.735,2.331-1.635,2.843l-38.238,21.736c-0.901,0.51-1.635,0.066-1.635-0.986V59.424
			c0-1.053,0.727-2.344,1.613-2.869L334.283,33.905z"/>
		<path id="XMLID_623_" display="inline" opacity="0.8537" fill="#9D9B9D" d="M333.832,34.744c0.866-0.514,1.578-0.093,1.578,0.935
			v44.529c0,1.027-0.719,2.276-1.594,2.775l-37.34,21.223c-0.879,0.499-1.598,0.065-1.598-0.961V59.661
			c0-1.026,0.709-2.29,1.581-2.802L333.832,34.744z"/>
		<path id="XMLID_622_" display="inline" opacity="0.878" fill="#999899" d="M333.381,35.583c0.847-0.501,1.54-0.092,1.54,0.912
			v43.454c0,1.002-0.7,2.221-1.555,2.708l-36.44,20.71c-0.854,0.487-1.557,0.064-1.557-0.938v-42.53
			c0-1.003,0.695-2.234,1.542-2.735L333.381,35.583z"/>
		<path id="XMLID_621_" display="inline" opacity="0.9024" fill="#979597" d="M332.93,36.422c0.826-0.49,1.502-0.088,1.502,0.888
			v42.378c0,0.979-0.683,2.167-1.517,2.641l-35.537,20.2c-0.835,0.474-1.517,0.062-1.517-0.917V60.135
			c0-0.978,0.675-2.179,1.502-2.667L332.93,36.422z"/>
		<path id="XMLID_620_" display="inline" opacity="0.9268" fill="#949294" d="M332.478,37.259c0.808-0.476,1.467-0.086,1.467,0.867
			V79.43c0,0.953-0.665,2.111-1.479,2.573L297.83,101.69c-0.814,0.461-1.48,0.061-1.48-0.894V60.372
			c0-0.953,0.658-2.122,1.465-2.599L332.478,37.259z"/>
		<path id="XMLID_619_" display="inline" opacity="0.9512" fill="#918F91" d="M332.027,38.099c0.78-0.464,1.426-0.084,1.426,0.844
			v40.229c0,0.928-0.647,2.056-1.441,2.507l-33.732,19.172c-0.787,0.451-1.438,0.059-1.438-0.87V60.609
			c0-0.93,0.645-2.069,1.426-2.532L332.027,38.099z"/>
		<path id="XMLID_618_" display="inline" opacity="0.9756" fill="#8E8C8E" d="M331.576,38.937c0.762-0.451,1.387-0.082,1.387,0.821
			v39.153c0,0.904-0.63,2.001-1.402,2.44l-32.828,18.661c-0.772,0.438-1.401,0.058-1.401-0.847V60.846
			c0-0.903,0.624-2.013,1.389-2.463L331.576,38.937z"/>
		<path id="XMLID_617_" display="inline" fill="#231F20" d="M331.124,39.777c0.74-0.44,1.353-0.081,1.353,0.798v38.076
			c0,0.878-0.616,1.947-1.363,2.373l-31.93,18.147c-0.752,0.427-1.365,0.057-1.365-0.822V61.082c0-0.878,0.607-1.958,1.352-2.396
			L331.124,39.777z"/>
	</g>
	
		<linearGradient id="XMLID_18_" gradientUnits="userSpaceOnUse" x1="-615.5557" y1="342.1602" x2="-530.6934" y2="342.1602" gradientTransform="matrix(-0.5808 0 0 1 -12.9798 -271)">
		<stop  offset="0" style="stop-color:#3F65E9"/>
		<stop  offset="0.1" style="stop-color:#4568E8"/>
		<stop  offset="0.6762" style="stop-color:#6474E5"/>
		<stop  offset="1" style="stop-color:#6F79E4"/>
	</linearGradient>
	<path id="XMLID_615_" fill="url(#XMLID_18_)" d="M343.58,29.159l0.955,0.411l-0.604,54.137c0,1.236-0.857,2.735-1.914,3.334
		l-44.825,26.279l-0.45-0.192c-0.904-0.388-1.494-1.297-1.494-2.303V59.026c0-1.235,0.854-2.75,1.896-3.368l44.67-26.385
		C342.351,28.955,343.004,28.913,343.58,29.159z"/>
	<path id="XMLID_614_" fill="#FFFFFF" d="M343.132,29.655c1.04-0.618,1.896-0.113,1.896,1.122v53.492
		c0,1.235-0.863,2.735-1.917,3.333l-44.854,25.497c-1.053,0.599-1.917,0.078-1.917-1.158V59.587c0-1.234,0.854-2.75,1.898-3.367
		L343.132,29.655z"/>
	
		<linearGradient id="XMLID_19_" gradientUnits="userSpaceOnUse" x1="-594.9839" y1="342.1611" x2="-553.9937" y2="342.1611" gradientTransform="matrix(-0.5808 0 0 1 -12.9798 -271)">
		<stop  offset="0" style="stop-color:#ED956E"/>
		<stop  offset="0.2122" style="stop-color:#EC8B75"/>
		<stop  offset="0.5704" style="stop-color:#E37A93"/>
		<stop  offset="1" style="stop-color:#DD5D7B"/>
	</linearGradient>
	<path id="XMLID_611_" fill="url(#XMLID_19_)" d="M312.77,71.313l-1.883-0.991c-0.382-0.2-0.41-0.921-0.067-1.611l2.173-4.34
		c0.346-0.689,0.936-1.086,1.315-0.885l1.474,0.775c0.241,0.129,0.596-0.045,0.889-0.414c0.175-0.221,0.354-0.438,0.536-0.647
		c0.302-0.348,0.501-0.838,0.485-1.241l-0.104-2.434c-0.024-0.628,0.368-1.419,0.885-1.765l3.231-2.177
		c0.514-0.347,0.949-0.116,0.975,0.513l0.104,2.452c0.015,0.385,0.22,0.602,0.521,0.548c0.207-0.038,0.427-0.07,0.616-0.095
		c0.296-0.04,0.628-0.345,0.838-0.77l1.348-2.692c0.343-0.689,0.933-1.084,1.312-0.886l2.402,1.261
		c0.382,0.201,0.41,0.922,0.067,1.612l-1.335,2.665c-0.218,0.44-0.251,0.9-0.097,1.176c0.092,0.174,0.181,0.356,0.263,0.546
		c0.133,0.301,0.425,0.373,0.752,0.152l1.987-1.332c0.512-0.344,0.947-0.111,0.974,0.519l0.155,3.968
		c0.023,0.63-0.369,1.419-0.885,1.764l-2.001,1.34c-0.313,0.213-0.586,0.636-0.692,1.073c-0.065,0.305-0.148,0.631-0.221,0.912
		c-0.114,0.441-0.034,0.81,0.199,0.933l1.487,0.788c0.378,0.202,0.408,0.924,0.064,1.613l-2.177,4.34
		c-0.348,0.688-0.937,1.084-1.313,0.88l-1.473-0.779c-0.244-0.129-0.595,0.044-0.887,0.413c-0.181,0.221-0.355,0.437-0.538,0.646
		c-0.306,0.347-0.501,0.838-0.485,1.241l0.096,2.434c0.026,0.63-0.367,1.42-0.884,1.765l-3.23,2.171
		c-0.517,0.344-0.949,0.113-0.978-0.517l-0.097-2.454c-0.016-0.387-0.221-0.603-0.521-0.55c-0.21,0.037-0.428,0.069-0.612,0.093
		c-0.297,0.039-0.632,0.344-0.846,0.769l-1.348,2.69c-0.344,0.689-0.932,1.084-1.312,0.883l-2.398-1.268
		c-0.382-0.202-0.408-0.922-0.064-1.612l1.333-2.664c0.224-0.44,0.251-0.902,0.104-1.178c-0.092-0.167-0.176-0.34-0.256-0.521
		c-0.129-0.3-0.424-0.371-0.749-0.15l-1.987,1.334c-0.513,0.346-0.951,0.114-0.976-0.514l-0.159-3.966
		c-0.027-0.628,0.366-1.419,0.881-1.763l2-1.344c0.315-0.213,0.588-0.636,0.689-1.074C312.524,72.219,312.752,71.364,312.77,71.313z
		 M324.586,71.814c1.521-4.049,0.402-7.372-2.265-7.034c-2.024,0.259-4.409,2.718-5.54,5.734c-1.521,4.049-0.4,7.372,2.268,7.032
		C321.071,77.289,323.457,74.83,324.586,71.814z"/>
</g>
<g id="XMLID_427_">
	<g id="XMLID_431_" display="none">
		<path id="XMLID_554_" display="inline" fill="#FFFFFF" fill-opacity="0" d="M515.225,34.884c1.603-0.949,2.912-0.171,2.912,1.725
			v82.174c0,1.896-1.322,4.2-2.939,5.121l-68.908,39.166c-1.619,0.918-2.943,0.12-2.943-1.776V80.866
			c0-1.896,1.313-4.223,2.916-5.172L515.225,34.884z"/>
		<path id="XMLID_553_" display="inline" opacity="0.0244" fill="#FDFDFD" d="M514.771,35.724c1.58-0.936,2.877-0.17,2.877,1.701
			v81.098c0,1.872-1.308,4.146-2.904,5.054l-68.007,38.653c-1.598,0.908-2.903,0.121-2.903-1.753V81.103
			c0-1.871,1.297-4.168,2.874-5.104L514.771,35.724z"/>
		<path id="XMLID_552_" display="inline" opacity="0.0488" fill="#F9F9F9" d="M514.318,36.562c1.562-0.924,2.842-0.168,2.842,1.679
			v80.023c0,1.847-1.292,4.09-2.869,4.986l-67.104,38.14c-1.571,0.897-2.863,0.119-2.863-1.729v-78.32
			c0-1.848,1.278-4.113,2.84-5.038L514.318,36.562z"/>
		<path id="XMLID_551_" display="inline" opacity="0.0732" fill="#F7F7F7" d="M513.87,37.4c1.538-0.911,2.799-0.165,2.799,1.657
			v78.948c0,1.822-1.271,4.036-2.827,4.919l-66.202,37.627c-1.557,0.884-2.823,0.116-2.823-1.706V81.577
			c0-1.822,1.257-4.058,2.798-4.969L513.87,37.4z"/>
		<path id="XMLID_550_" display="inline" opacity="0.0976" fill="#F4F4F4" d="M513.417,38.239c1.521-0.898,2.761-0.164,2.761,1.634
			v77.871c0,1.798-1.254,3.981-2.787,4.854l-65.302,37.114c-1.534,0.872-2.787,0.114-2.787-1.683V81.814
			c0-1.797,1.244-4.002,2.761-4.902L513.417,38.239z"/>
		<path id="XMLID_549_" display="inline" opacity="0.122" fill="#F1F1F1" d="M512.967,39.078c1.497-0.886,2.721-0.16,2.721,1.611
			v76.796c0,1.772-1.236,3.925-2.747,4.785l-64.396,36.603c-1.515,0.86-2.751,0.113-2.751-1.659V82.051
			c0-1.772,1.227-3.949,2.723-4.834L512.967,39.078z"/>
		<path id="XMLID_504_" display="inline" opacity="0.1463" fill="#EEEEEE" d="M512.514,39.918c1.479-0.875,2.688-0.16,2.688,1.587
			v75.721c0,1.748-1.224,3.871-2.711,4.718l-63.496,36.091c-1.492,0.848-2.71,0.11-2.71-1.638v-74.11
			c0-1.747,1.207-3.891,2.684-4.766L512.514,39.918z"/>
		<path id="XMLID_503_" display="inline" opacity="0.1707" fill="#ECEBEC" d="M512.064,40.755c1.455-0.861,2.646-0.156,2.646,1.565
			v74.646c0,1.723-1.207,3.816-2.673,4.651l-62.596,35.578c-1.472,0.835-2.676,0.109-2.676-1.612V82.524
			c0-1.722,1.19-3.837,2.646-4.699L512.064,40.755z"/>
		<path id="XMLID_502_" display="inline" opacity="0.1951" fill="#E8E8E8" d="M511.611,41.595c1.436-0.849,2.607-0.154,2.607,1.543
			v73.569c0,1.698-1.184,3.762-2.636,4.585l-61.691,35.063c-1.445,0.825-2.635,0.109-2.635-1.589V82.762
			c0-1.698,1.174-3.781,2.608-4.631L511.611,41.595z"/>
		<path id="XMLID_501_" display="inline" opacity="0.2195" fill="#E6E6E6" d="M511.161,42.433c1.413-0.836,2.571-0.151,2.571,1.522
			v72.494c0,1.672-1.168,3.706-2.6,4.517l-60.79,34.552c-1.426,0.811-2.594,0.107-2.594-1.567V82.999
			c0-1.673,1.153-3.726,2.568-4.563L511.161,42.433z"/>
		<path id="XMLID_500_" display="inline" opacity="0.2439" fill="#E3E2E3" d="M510.71,43.272c1.393-0.825,2.531-0.151,2.531,1.498
			v71.418c0,1.648-1.151,3.65-2.559,4.45l-59.891,34.039c-1.403,0.799-2.554,0.105-2.554-1.543v-69.9
			c0-1.647,1.137-3.67,2.531-4.496L510.71,43.272z"/>
		<path id="XMLID_499_" display="inline" opacity="0.2683" fill="#E0E0E0" d="M510.259,44.111c1.371-0.812,2.493-0.147,2.493,1.476
			v70.342c0,1.625-1.134,3.596-2.518,4.384l-58.986,33.526c-1.384,0.787-2.52,0.104-2.52-1.52V83.472
			c0-1.622,1.119-3.615,2.491-4.426L510.259,44.111z"/>
		<path id="XMLID_498_" display="inline" opacity="0.2927" fill="#DDDDDD" d="M509.806,44.949c1.353-0.799,2.456-0.145,2.456,1.454
			v69.267c0,1.599-1.114,3.542-2.478,4.316L451.699,153c-1.364,0.775-2.481,0.101-2.481-1.496V83.71c0-1.6,1.104-3.562,2.455-4.362
			L509.806,44.949z"/>
		<path id="XMLID_497_" display="inline" opacity="0.3171" fill="#DBDADB" d="M509.355,45.788c1.327-0.787,2.419-0.143,2.419,1.431
			v68.192c0,1.573-1.101,3.486-2.444,4.25l-57.182,32.5c-1.345,0.765-2.44,0.101-2.44-1.473V83.945c0-1.573,1.086-3.504,2.419-4.292
			L509.355,45.788z"/>
		<path id="XMLID_496_" display="inline" opacity="0.3415" fill="#D7D7D7" d="M508.906,46.627c1.306-0.774,2.378-0.14,2.378,1.408
			v67.116c0,1.55-1.08,3.432-2.401,4.183l-56.284,31.99c-1.318,0.751-2.398,0.098-2.398-1.452V84.183
			c0-1.548,1.066-3.449,2.378-4.223L508.906,46.627z"/>
		<path id="XMLID_495_" display="inline" opacity="0.3659" fill="#D5D4D5" d="M508.452,47.466c1.287-0.763,2.343-0.139,2.343,1.385
			v66.04c0,1.524-1.066,3.376-2.365,4.116l-55.38,31.476c-1.3,0.74-2.363,0.096-2.363-1.428V84.421c0-1.525,1.055-3.396,2.342-4.158
			L508.452,47.466z"/>
		<path id="XMLID_494_" display="inline" opacity="0.3902" fill="#D2D1D2" d="M508.001,48.304c1.266-0.75,2.304-0.137,2.304,1.363
			v64.966c0,1.499-1.047,3.321-2.327,4.048l-54.474,30.963c-1.282,0.728-2.331,0.095-2.331-1.404V84.656
			c0-1.499,1.039-3.338,2.309-4.087L508.001,48.304z"/>
		<path id="XMLID_493_" display="inline" opacity="0.4146" fill="#D0CFD0" d="M507.55,49.142c1.245-0.736,2.269-0.134,2.269,1.341
			v63.891c0,1.474-1.03,3.265-2.288,3.979l-53.575,30.451c-1.258,0.716-2.288,0.094-2.288-1.379V84.893
			c0-1.473,1.019-3.284,2.266-4.02L507.55,49.142z"/>
		<path id="XMLID_492_" display="inline" opacity="0.439" fill="#CCCBCC" d="M507.099,49.981c1.227-0.724,2.229-0.131,2.229,1.318
			v62.813c0,1.45-1.013,3.211-2.251,3.915l-52.672,29.939c-1.237,0.703-2.249,0.092-2.249-1.358V85.131
			c0-1.45,1.002-3.228,2.226-3.954L507.099,49.981z"/>
		<path id="XMLID_491_" display="inline" opacity="0.4634" fill="#CAC9CA" d="M506.647,50.82c1.201-0.712,2.188-0.129,2.188,1.296
			v61.738c0,1.425-0.993,3.156-2.21,3.847l-51.77,29.426c-1.218,0.691-2.213,0.091-2.213-1.334V85.368
			c0-1.425,0.986-3.174,2.188-3.886L506.647,50.82z"/>
		<path id="XMLID_490_" display="inline" opacity="0.4878" fill="#C7C6C7" d="M506.194,51.66c1.183-0.701,2.149-0.128,2.149,1.272
			v60.664c0,1.399-0.976,3.1-2.172,3.779l-50.869,28.914c-1.191,0.679-2.169,0.089-2.169-1.311V85.604
			c0-1.399,0.967-3.119,2.15-3.818L506.194,51.66z"/>
		<path id="XMLID_489_" display="inline" opacity="0.5122" fill="#C3C2C3" d="M505.746,52.498c1.162-0.687,2.112-0.125,2.112,1.251
			v59.586c0,1.376-0.958,3.046-2.137,3.713l-49.967,28.401c-1.175,0.666-2.132,0.087-2.132-1.289V85.842
			c0-1.376,0.948-3.063,2.111-3.75L505.746,52.498z"/>
		<path id="XMLID_488_" display="inline" opacity="0.5366" fill="#C1C0C1" d="M505.292,53.337c1.142-0.675,2.076-0.123,2.076,1.228
			v58.511c0,1.352-0.943,2.992-2.095,3.647l-49.068,27.887c-1.148,0.655-2.094,0.086-2.094-1.265V86.079
			c0-1.351,0.937-3.008,2.074-3.683L505.292,53.337z"/>
		<path id="XMLID_487_" display="inline" opacity="0.561" fill="#BFBDBF" d="M504.841,54.176c1.121-0.663,2.036-0.121,2.036,1.205
			v57.437c0,1.324-0.923,2.936-2.054,3.578l-48.163,27.376c-1.132,0.642-2.061,0.083-2.061-1.242V86.315
			c0-1.325,0.917-2.952,2.036-3.614L504.841,54.176z"/>
		<path id="XMLID_486_" display="inline" opacity="0.5854" fill="#BBBABB" d="M504.392,55.015c1.1-0.651,1.999-0.119,1.999,1.183
			v56.359c0,1.301-0.906,2.882-2.02,3.513l-47.261,26.863c-1.111,0.631-2.02,0.083-2.02-1.218V86.553
			c0-1.303,0.898-2.896,1.998-3.549L504.392,55.015z"/>
		<path id="XMLID_450_" display="inline" opacity="0.6098" fill="#B9B8B9" d="M503.939,55.853c1.074-0.638,1.962-0.116,1.962,1.16
			v55.285c0,1.276-0.896,2.827-1.983,3.445l-46.358,26.35c-1.09,0.619-1.978,0.081-1.978-1.194V86.79c0-1.276,0.88-2.843,1.958-3.48
			L503.939,55.853z"/>
		<path id="XMLID_449_" display="inline" opacity="0.6341" fill="#B6B4B6" d="M503.486,56.69c1.062-0.624,1.925-0.112,1.925,1.138
			v54.21c0,1.25-0.874,2.77-1.942,3.377l-45.456,25.838c-1.068,0.607-1.938,0.08-1.938-1.171V87.027c0-1.252,0.86-2.788,1.919-3.413
			L503.486,56.69z"/>
		<path id="XMLID_448_" display="inline" opacity="0.6585" fill="#B2B1B2" d="M503.037,57.531c1.034-0.614,1.883-0.113,1.883,1.114
			v53.134c0,1.226-0.854,2.717-1.9,3.312l-44.558,25.324c-1.046,0.595-1.903,0.078-1.903-1.148V87.264
			c0-1.229,0.85-2.733,1.889-3.346L503.037,57.531z"/>
		<path id="XMLID_447_" display="inline" opacity="0.6829" fill="#B0AFB0" d="M502.586,58.369c1.017-0.601,1.847-0.11,1.847,1.091
			v52.059c0,1.202-0.842,2.661-1.863,3.244l-43.653,24.812c-1.026,0.583-1.864,0.077-1.864-1.125V87.5
			c0-1.202,0.83-2.676,1.847-3.277L502.586,58.369z"/>
		<path id="XMLID_446_" display="inline" opacity="0.7073" fill="#AEACAE" d="M502.133,59.208c0.997-0.589,1.811-0.107,1.811,1.07
			v50.981c0,1.178-0.818,2.608-1.825,3.178l-42.752,24.299c-1.004,0.572-1.824,0.076-1.824-1.102V87.737
			c0-1.178,0.812-2.622,1.805-3.209L502.133,59.208z"/>
		<path id="XMLID_445_" display="inline" opacity="0.7317" fill="#AAA9AA" d="M501.682,60.046c0.978-0.575,1.772-0.104,1.772,1.048
			v49.908c0,1.152-0.805,2.551-1.787,3.109l-41.853,23.788c-0.982,0.558-1.785,0.073-1.785-1.08V87.974
			c0-1.152,0.795-2.565,1.768-3.142L501.682,60.046z"/>
		<path id="XMLID_444_" display="inline" opacity="0.7561" fill="#A8A6A8" d="M501.231,60.886c0.951-0.562,1.729-0.103,1.729,1.024
			v48.833c0,1.125-0.785,2.495-1.748,3.042l-40.949,23.274c-0.961,0.546-1.749,0.071-1.749-1.056V88.211
			c0-1.127,0.781-2.511,1.733-3.074L501.231,60.886z"/>
		<path id="XMLID_443_" display="inline" opacity="0.7805" fill="#A5A3A5" d="M500.779,61.724c0.933-0.551,1.693-0.101,1.693,1.002
			v47.755c0,1.103-0.771,2.442-1.712,2.977l-40.045,22.761c-0.938,0.534-1.709,0.07-1.709-1.033V88.448
			c0-1.102,0.762-2.456,1.69-3.007L500.779,61.724z"/>
		<path id="XMLID_440_" display="inline" opacity="0.8049" fill="#A2A1A2" d="M500.327,62.563c0.912-0.539,1.656-0.1,1.656,0.979
			v46.681c0,1.078-0.752,2.386-1.671,2.909l-39.146,22.249c-0.919,0.522-1.675,0.067-1.675-1.008V88.684
			c0-1.078,0.749-2.399,1.657-2.938L500.327,62.563z"/>
		<path id="XMLID_439_" display="inline" opacity="0.8293" fill="#9F9D9F" d="M499.879,63.401c0.889-0.524,1.615-0.094,1.615,0.958
			v45.605c0,1.051-0.734,2.331-1.634,2.842l-38.24,21.736c-0.9,0.51-1.634,0.068-1.634-0.985V88.921
			c0-1.053,0.729-2.346,1.616-2.871L499.879,63.401z"/>
		<path id="XMLID_438_" display="inline" opacity="0.8537" fill="#9D9B9D" d="M499.427,64.24c0.868-0.514,1.579-0.093,1.579,0.934
			v44.529c0,1.028-0.718,2.276-1.593,2.775l-37.342,21.223c-0.88,0.499-1.598,0.066-1.598-0.961V89.158
			c0-1.027,0.715-2.29,1.58-2.803L499.427,64.24z"/>
		<path id="XMLID_437_" display="inline" opacity="0.878" fill="#999899" d="M498.976,65.08c0.848-0.501,1.541-0.091,1.541,0.91
			v43.456c0,1.002-0.701,2.221-1.557,2.708l-36.438,20.711c-0.856,0.485-1.557,0.062-1.557-0.939v-42.53
			c0-1.003,0.693-2.233,1.54-2.735L498.976,65.08z"/>
		<path id="XMLID_436_" display="inline" opacity="0.9024" fill="#979597" d="M498.522,65.917c0.824-0.488,1.504-0.088,1.504,0.888
			v42.38c0,0.978-0.687,2.166-1.519,2.641l-35.536,20.198c-0.836,0.475-1.521,0.062-1.521-0.916V89.632
			c0-0.979,0.679-2.179,1.503-2.668L498.522,65.917z"/>
		<path id="XMLID_435_" display="inline" opacity="0.9268" fill="#949294" d="M498.072,66.757c0.806-0.478,1.462-0.087,1.462,0.865
			v41.303c0,0.955-0.664,2.113-1.479,2.575l-34.637,19.685c-0.812,0.464-1.478,0.061-1.478-0.892V89.868
			c0-0.953,0.66-2.123,1.467-2.6L498.072,66.757z"/>
		<path id="XMLID_434_" display="inline" opacity="0.9512" fill="#918F91" d="M497.622,67.594c0.784-0.463,1.425-0.084,1.425,0.845
			v40.227c0,0.929-0.646,2.057-1.438,2.506l-33.734,19.173c-0.79,0.45-1.438,0.059-1.438-0.869V90.105
			c0-0.928,0.641-2.068,1.424-2.533L497.622,67.594z"/>
		<path id="XMLID_433_" display="inline" opacity="0.9756" fill="#8E8C8E" d="M497.168,68.435c0.766-0.452,1.391-0.083,1.391,0.821
			v39.152c0,0.903-0.631,2.001-1.4,2.439l-32.83,18.661c-0.771,0.439-1.401,0.058-1.401-0.845v-38.32
			c0-0.903,0.62-2.014,1.388-2.465L497.168,68.435z"/>
		<path id="XMLID_432_" display="inline" fill="#231F20" d="M496.718,69.272c0.744-0.44,1.354-0.08,1.354,0.8v38.074
			c0,0.88-0.615,1.947-1.364,2.375l-31.93,18.148c-0.75,0.425-1.363,0.054-1.363-0.824V90.579c0-0.88,0.605-1.957,1.352-2.397
			L496.718,69.272z"/>
	</g>
</g>
<path opacity="0.3" fill="#231F20" d="M325.375,220.928L325.375,220.928L325.375,220.928c0.176-0.138,0.363-0.243,0.567-0.308
	c0.003,0,0.005-0.001,0.008-0.001c0.191-0.06,0.387-0.097,0.586-0.092c0.072,0,0.138,0.022,0.21,0.03
	c0.136,0.02,0.272,0.03,0.405,0.082c0.21,0.079,0.414,0.193,0.591,0.36l14.675,13.606c0.069,0.063,0.1,0.148,0.157,0.218
	c0,0.003,0.004,0.004,0.006,0.005l27.393,26.777c0.593,0.574,1.22,1.099,1.855,1.598c0.207,0.16,0.416,0.312,0.626,0.467
	c0.454,0.328,0.922,0.633,1.394,0.924c0.248,0.148,0.486,0.312,0.733,0.448c0.608,0.341,1.229,0.646,1.863,0.924
	c0.412,0.181,0.829,0.33,1.248,0.481c0.264,0.096,0.521,0.188,0.786,0.275c0.492,0.154,0.985,0.305,1.484,0.424
	c0.077,0.019,0.153,0.03,0.229,0.05c1.179,0.271,2.38,0.448,3.596,0.519h-0.004c1.466,0.084,2.942,0.01,4.422-0.219
	c0.018-0.01,0.038-0.021,0.058-0.031c0.165-0.091,0.316-0.199,0.493-0.277c0.467-0.217,0.957-0.396,1.479-0.521l15.847-3.813
	c0.176-0.826,0.348-1.652,0.568-2.458c1.846-6.707,5.377-12.599,11.772-16.684c0.726-0.46,1.461-0.902,2.212-1.323l8.892-4.973
	v-1.247c-9.856-0.532-17.784-8.457-18.597-18.476c-0.751,0.181-1.396,0.227-1.943,0.135l-0.027,0.025
	c-0.546,0.006-1.062-0.014-1.544-0.059c-3.389-0.318-5.25-1.934-5.25-5.182l0,0c0-0.927,0.185-1.923,0.526-2.93
	c1.012-3.02,3.388-6.131,6.134-7.757l1.773-1.049c-1.214-0.953-2.28-2.102-3.143-3.417c-0.002-0.005-0.004-0.008-0.007-0.013
	c-0.374-0.573-0.693-1.189-0.988-1.821c-0.038-0.083-0.095-0.157-0.13-0.242c-0.302-0.687-0.547-1.41-0.745-2.154
	c-0.013-0.04-0.029-0.074-0.04-0.114l-1.938-7.549h15.399l0,0h10.279c0.655,0,1.3,0.042,1.938,0.112
	c0.204,0.023,0.402,0.065,0.604,0.096c0.431,0.062,0.855,0.129,1.278,0.222c0.226,0.052,0.447,0.119,0.677,0.18
	c0.383,0.101,0.763,0.21,1.137,0.337c0.228,0.077,0.445,0.163,0.668,0.248c0.365,0.142,0.729,0.293,1.079,0.459
	c0.21,0.096,0.413,0.198,0.617,0.303c0.355,0.185,0.704,0.38,1.047,0.588c0.184,0.111,0.364,0.221,0.546,0.339
	c0.356,0.233,0.699,0.481,1.038,0.739c0.146,0.114,0.302,0.226,0.447,0.345c0.369,0.299,0.724,0.619,1.063,0.946
	c0.104,0.096,0.204,0.185,0.306,0.284c0.436,0.436,0.851,0.888,1.238,1.364l0.004,0.002v0.001c1.145,1.402,2.042,3.004,2.743,4.716
	v33.229c-0.086,0.086-0.151,0.186-0.242,0.266c0.082-0.002,0.16,0.012,0.242,0.012v9.298c0,2.837-1.966,6.317-4.356,7.736
	l-59.125,34.987c-8.197-0.642-16.037-4.118-22.178-10.115L332.67,245.48c-0.35-0.341-0.652-0.71-0.919-1.1
	c-3.153-0.697-5.521-3.564-5.521-7.003c0-3.604,2.604-6.559,5.979-7.066l-6.976-6.47c-0.767-0.711-0.824-1.922-0.136-2.707
	C325.181,221.046,325.284,220.999,325.375,220.928z M429.526,235.829c-2.264-0.419-4.403-1.173-6.377-2.221
	c1.941,1.125,4.092,1.912,6.377,2.307V235.829z"/>
<g id="XMLID_113_">
	<path id="XMLID_251_" fill="#303768" d="M424.962,207.116c0-3.71-2.997-4.972-6.659-2.804l-9.478,5.607
		c-3.662,2.168-6.66,6.977-6.66,10.687s2.434,5.292,6.794,5.242l9.344-8.045C421.965,215.634,424.962,210.827,424.962,207.116z"/>
	<path opacity="0.2" fill="#ECA3B4" d="M408.825,209.919l9.478-5.607c1.447-0.856,2.781-1.16,3.875-1.005
		c-0.84,0.108-1.768,0.423-2.747,1.005l-9.476,5.607c-3.665,2.168-6.662,6.977-6.662,10.687c0,3.387,2.045,4.982,5.711,5.199
		l-0.045,0.042c-4.36,0.05-6.794-1.531-6.794-5.242C402.165,216.896,405.163,212.087,408.825,209.919z"/>
	<polygon id="XMLID_250_" fill="#303768" points="408.8,223.504 403.656,221.652 407.963,215.94 412.771,215.94 	"/>
	<g id="XMLID_248_">
		<path id="XMLID_249_" fill="#EFB4C3" d="M452.105,330.073c1.541,0,3.084-0.591,4.275-1.774l11.537-11.417
			c8.52-8.434,13.104-20.221,12.576-32.347c-0.526-12.125-6.115-23.45-15.333-31.072l-12.794-10.583
			c-2.646-2.193-6.528-1.763-8.665,0.949c-2.136,2.714-1.724,6.691,0.928,8.881l12.795,10.583
			c6.467,5.35,10.386,13.295,10.758,21.805c0.37,8.51-2.847,16.782-8.823,22.699l-11.534,11.415
			c-2.449,2.423-2.52,6.422-0.151,8.933C448.879,329.426,450.492,330.073,452.105,330.073z"/>
	</g>
	<g id="XMLID_244_">
		<g id="XMLID_246_">
			<path id="XMLID_247_" fill="#FFFFFF" d="M462.295,266.182c1.985,0,3.955-0.888,5.297-2.596c2.363-2.999,1.902-7.39-1.021-9.808
				l-11.037-9.732c-2.927-2.42-7.212-1.951-9.571,1.047c-2.359,2.999-1.898,7.389,1.024,9.808l11.038,9.734
				C459.283,265.676,460.794,266.182,462.295,266.182z"/>
		</g>
	</g>
	<g id="XMLID_242_">
		<path id="XMLID_243_" fill="#404A8B" d="M412.868,497.091l14.916-5.491l2.704,18.319c0,0.915-0.489,1.762-1.272,2.207
			l-4.384,2.492c-7.422,4.218-16.46,4.14-23.812-0.209l-18.247-10.794c-0.652-0.388-1.055-1.102-1.055-1.87v-4.361
			c0,0,1.021-0.396,1.864-0.896l7.441-3.088c2.812-1.663,6.278-1.663,9.095,0l4.261,2.521l2.777-2.317L412.868,497.091z"/>
	</g>
	<g id="XMLID_240_">
		<path id="XMLID_241_" fill="#FFFFFF" d="M412.868,499.218l17.62-6.482v12.997c0,0.919-0.489,1.766-1.272,2.208l-4.379,2.488
			c-7.427,4.222-16.467,4.145-23.814-0.21L383.44,499.82c-2.296-1.36-2.296-4.761,0-6.116l7.586-4.488
			c2.812-1.664,6.278-1.664,9.095,0l2.352,1.396l3.775,0.857L412.868,499.218z"/>
	</g>
	<g id="XMLID_235_">
		<path id="XMLID_236_" fill="#303768" d="M426.921,497.851c4.756-2.812,4.756-7.416,0-10.232c-4.758-2.812-12.542-2.812-17.299,0
			c-4.757,2.816-4.757,7.421,0,10.232C414.379,500.669,422.163,500.669,426.921,497.851z"/>
	</g>
	<g id="XMLID_233_">
		<path id="XMLID_234_" fill="#404A8B" d="M445.819,473.014l14.919-5.489l2.695,18.315c0,0.92-0.481,1.765-1.265,2.209l-4.384,2.492
			c-7.425,4.218-16.465,4.14-23.817-0.209l-18.245-10.792c-0.65-0.388-1.056-1.099-1.056-1.874v-4.359c0,0,1.022-0.396,1.865-0.896
			l7.439-3.088c2.814-1.661,6.28-1.661,9.095,0l4.263,2.521l2.779-2.315L445.819,473.014z"/>
	</g>
	<g id="XMLID_231_">
		<path id="XMLID_232_" fill="#FFFFFF" d="M445.819,475.141l17.614-6.482v12.999c0,0.917-0.481,1.764-1.265,2.206l-4.384,2.488
			c-7.425,4.222-16.465,4.143-23.817-0.21l-17.577-10.401c-2.295-1.359-2.295-4.756,0-6.113l7.583-4.49
			c2.814-1.664,6.28-1.664,9.095,0l2.353,1.395l3.776,0.86L445.819,475.141z"/>
	</g>
	<g id="XMLID_227_">
		<path id="XMLID_228_" fill="#303768" d="M459.869,473.776c4.758-2.818,4.758-7.421,0-10.239c-4.759-2.813-12.539-2.813-17.3,0
			c-4.752,2.818-4.755,7.421,0,10.239C447.33,476.589,455.11,476.589,459.869,473.776z"/>
	</g>
	<g id="XMLID_224_">
		<g id="XMLID_225_">
			<path id="XMLID_226_" fill="#404A8B" d="M452.27,473.588c5.956,0,9.654-4.944,9.654-11.05l-3.383-56.618l4.51-76.082
				c0-6.104-4.825-11.049-10.781-11.049c-5.952,0-17.55,4.943-17.55,11.049l6.769,132.7
				C441.486,468.644,446.315,473.588,452.27,473.588z"/>
		</g>
	</g>
	<path id="XMLID_223_" opacity="0.2" fill="#231F20" d="M437.758,389.409l-2.384-46.716l-0.541-13.84
		c1.146-5.643,11.804-10.064,17.437-10.064c5.956,0,10.781,4.943,10.781,11.049l-2.622,44.191c-2.325,4.033-5.647,7.468-9.757,9.871
		L437.758,389.409z"/>
	<g id="XMLID_220_">
		<g id="XMLID_221_">
			<path id="XMLID_222_" fill="#404A8B" d="M418.675,497.266c5.957,0,10.784-4.944,10.784-11.049l-1.379-61.438l8.146-71.26
				c0-6.104-11.597-11.055-17.554-11.055c-5.954,0-10.782,4.949-10.782,11.055v132.697
				C407.893,492.319,412.721,497.266,418.675,497.266z"/>
		</g>
	</g>
	<g id="XMLID_218_" opacity="0.2">
		<path id="XMLID_219_" fill="#ECA3B4" d="M418.675,342.465c0.659,0,1.302,0.071,1.926,0.184c-5.031,0.935-8.854,5.438-8.854,10.871
			v132.697c0,5.43,3.821,9.935,8.854,10.865c-0.624,0.115-1.267,0.184-1.926,0.184c-5.954,0-10.782-4.944-10.782-11.049V353.52
			C407.893,347.414,412.721,342.465,418.675,342.465z"/>
	</g>
	<g id="XMLID_216_">
		<path id="XMLID_217_" fill="#404A8B" d="M459.667,317.309l4.621,35.153c0,4.444-2.312,8.549-6.066,10.771l-28.126,16.188
			c-7.524,4.455-16.936-1.11-16.936-10.021v-71.354c0-4.439-9.027-1.383-5.273-3.604l39.468-23.354
			C454.88,266.637,459.667,308.4,459.667,317.309z"/>
	</g>
	<g id="XMLID_214_">
		<path id="XMLID_215_" fill="#FFFFFF" d="M463.427,260.859l-2.134,34.043c0.713,7.25-0.83,14.5-0.116,21.746
			c0.411,4.188,3.967,20.274,3.144,24.346c-1.251,6.165-38.463,29.467-57.54,20.023c-0.006-0.006,1.112-30.944,1.112-30.944
			l-1.969-25.954c-1.222-17.78-4.561-41.521,12.501-52.413c0.726-0.46,1.461-0.901,2.212-1.324l18.159-10.16
			c4.285-2.537,9.563-2.537,13.854,0l0,0C459.778,244.44,463.955,252.438,463.427,260.859z"/>
	</g>
	<path opacity="0.2" fill="#ECA3B4" d="M418.425,251.706c0.726-0.46,1.461-0.901,2.212-1.324l18.159-10.16
		c2.479-1.468,5.294-2.06,8.056-1.827c-2.01,0.167-3.991,0.758-5.801,1.827l-18.157,10.16c-0.754,0.422-1.487,0.863-2.212,1.324
		c-17.062,10.892-13.721,34.633-12.5,52.413l1.97,25.954c0,0-1.123,30.938-1.115,30.944c2.85,1.409,6.106,2.073,9.587,2.19
		c-4.326,0.146-8.384-0.479-11.843-2.19c-0.006-0.007,1.112-30.944,1.112-30.944l-1.969-25.954
		C404.702,286.339,401.363,262.598,418.425,251.706z"/>
	<g id="XMLID_211_">
		<g id="XMLID_212_">
			<path id="XMLID_213_" fill="#EFB4C3" d="M435.685,257.11c3.402,0,6.164-2.828,6.164-6.315v-24.829
				c0-3.487-2.762-6.315-6.164-6.315c-3.399,0-6.156,2.828-6.156,6.315v24.829C429.526,254.282,432.283,257.11,435.685,257.11z"/>
		</g>
	</g>
	<g id="XMLID_209_">
		<ellipse id="XMLID_210_" fill="#EFB4C3" cx="333.227" cy="245.373" rx="6.997" ry="7.171"/>
	</g>
	<g id="XMLID_126_">
		<path id="XMLID_208_" fill="#EFB4C3" d="M433.582,244.216h7.651v-42.067H410.85v18.769
			C410.851,233.786,421.027,244.216,433.582,244.216z"/>
	</g>
	<path fill="#ECA3B4" d="M413.105,202.149v21.854c0,11.165,8.829,20.214,19.723,20.214h-2.257c-10.895,0-19.723-9.049-19.723-20.214
		v-21.854H413.105z"/>
	<g id="XMLID_124_">
		<path id="XMLID_125_" fill="#303768" d="M419.012,193.56h10.279c9.852,0,17.835,8.185,17.835,18.28l0,0v22.796
			c0,2.737-2.163,4.956-4.834,4.956h-9.748c-7.473,0-13.532-6.212-13.532-13.873v-13.88l0,0
			c-6.337-0.054-11.854-4.451-13.464-10.731l-1.938-7.549L419.012,193.56L419.012,193.56z"/>
	</g>
	<g opacity="0.2">
		<path fill="#ECA3B4" d="M419.012,193.56h10.279c5.501,0,10.416,2.555,13.688,6.566c-3.098-2.652-7.082-4.253-11.433-4.253h-10.281
			h-15.396l1.935,7.549c0.522,2.039,1.491,3.849,2.732,5.406c-2.387-1.893-4.179-4.566-4.988-7.719l-1.938-7.549H419.012z"/>
	</g>
	<g id="XMLID_122_">
		<ellipse id="XMLID_123_" fill="#EFB4C3" cx="417.987" cy="223.183" rx="4.46" ry="4.573"/>
	</g>
	<g id="XMLID_120_">
		<path id="XMLID_121_" fill="#EFB4C3" d="M384.967,290.502c2.766,0,5.552-0.326,8.312-0.988l24.854-5.986
			c3.861-0.928,6.255-4.893,5.351-8.85c-0.908-3.955-4.771-6.4-8.637-5.48l-24.852,5.984c-7.187,1.736-14.673-0.354-20.021-5.58
			l-27.393-26.775c-2.868-2.805-7.411-2.698-10.151,0.247c-2.735,2.94-2.63,7.599,0.241,10.405l27.396,26.776
			C366.88,286.915,375.792,290.502,384.967,290.502z"/>
	</g>
	<path id="XMLID_119_" opacity="0.4" fill="#ECA3B4" d="M424.866,274.223c1.668,4.24-0.331,9.062-4.468,10.771l-15.221,8.882
		c-0.316-6.062-0.472-14.801,0.46-20.627l8.721-3.604C418.487,267.934,423.198,269.982,424.866,274.223z"/>
	<g id="XMLID_117_">
		<path id="XMLID_118_" fill="#FFFFFF" d="M392.072,290.997c0.61,0,1.234-0.071,1.854-0.22l27.949-6.731
			c4.34-1.046,7.032-5.5,6.015-9.948c-1.021-4.451-5.372-7.213-9.711-6.166l-27.942,6.73c-4.346,1.044-7.036,5.501-6.016,9.947
			C385.094,288.424,388.409,290.997,392.072,290.997z"/>
	</g>
	<path opacity="0.2" fill="#ECA3B4" d="M418.18,269.089l-27.942,6.729c-3.55,0.854-5.957,3.99-6.18,7.535
		c-0.305-4.002,2.244-7.746,6.18-8.69l27.942-6.731C422.519,266.885,422.519,268.04,418.18,269.089z"/>
	<path id="XMLID_116_" fill="#EFB4C3" d="M325.235,231.838l14.675,13.606c0.764,0.711,1.945,0.65,2.639-0.134l0,0
		c0.693-0.785,0.633-1.998-0.132-2.708l-14.675-13.607c-0.766-0.71-1.946-0.649-2.643,0.136l0,0
		C324.411,229.916,324.471,231.127,325.235,231.838z"/>
	<g>
		<path fill="#ECA3B4" d="M367.717,269.602l-27.395-26.775c0-0.001-0.003-0.002-0.004-0.005c-0.06-0.07-0.09-0.155-0.159-0.218
			l-14.669-13.606c-0.038-0.031-0.081-0.041-0.115-0.069c0.699-0.55,1.691-0.561,2.367,0.069l14.675,13.606
			c0.069,0.063,0.1,0.147,0.157,0.218c0,0.003,0.004,0.004,0.006,0.005l27.393,26.775c3.812,3.726,8.715,5.82,13.817,6.109
			C377.892,276.005,372.088,273.87,367.717,269.602z"/>
	</g>
	<polygon id="XMLID_115_" fill="#404A8B" points="447.126,214.536 412.771,214.536 412.601,221.964 447.126,221.964 	"/>
	<path id="XMLID_114_" fill="#404A8B" d="M414.717,211.508l-3.866-1.188c-3.662,2.167-4.366,7.275-4.366,10.986
		c0,3.709,1.463,5.437,5.199,4.189c0.728-0.243,3.033-0.497,3.033-0.497C420.185,223.527,420.179,214.204,414.717,211.508z"/>
</g>
</svg>
