<?xml version="1.0" encoding="utf-8"?>
<!-- Generator: Adobe Illustrator 16.0.0, SVG Export Plug-In . SVG Version: 6.00 Build 0)  -->
<!DOCTYPE svg PUBLIC "-//W3C//DTD SVG 1.1//EN" "http://www.w3.org/Graphics/SVG/1.1/DTD/svg11.dtd">
<svg version="1.1" id="Layer_1" xmlns="http://www.w3.org/2000/svg" xmlns:xlink="http://www.w3.org/1999/xlink" x="0px" y="0px"
	 width="560px" height="520px" viewBox="0 0 560 520" enable-background="new 0 0 560 520" xml:space="preserve">
<g>
	
		<linearGradient id="XMLID_2_" gradientUnits="userSpaceOnUse" x1="246.748" y1="173.7617" x2="357.7031" y2="173.7617" gradientTransform="matrix(1 0 0 -1 0 521)">
		<stop  offset="0" style="stop-color:#3F65E9"/>
		<stop  offset="0.1" style="stop-color:#4568E8"/>
		<stop  offset="0.6762" style="stop-color:#6474E5"/>
		<stop  offset="1" style="stop-color:#6F79E4"/>
	</linearGradient>
	<path id="XMLID_171_" fill="url(#XMLID_2_)" d="M355.381,335.01l-105.427-60.869c-1.425-0.822-3.206,0.207-3.206,1.853v79.456
		c0,1.654,0.886,3.191,2.321,4.02l105.429,60.867c1.426,0.823,3.205-0.205,3.205-1.847v-79.456
		C357.703,337.375,356.818,335.841,355.381,335.01z"/>
	<path id="XMLID_170_" fill="#303768" d="M354.018,335.918l-105.426-60.869c-1.425-0.82-3.206,0.206-3.206,1.852v79.455
		c0,1.656,0.886,3.193,2.322,4.021l105.429,60.865c1.423,0.824,3.202-0.203,3.202-1.848v-79.455
		C356.339,338.282,355.457,336.748,354.018,335.918z"/>
	<polygon id="XMLID_169_" fill="#202546" points="350.095,340.938 250.885,283.329 250.885,356.008 350.095,413.616 	"/>
	
		<linearGradient id="XMLID_3_" gradientUnits="userSpaceOnUse" x1="173.5542" y1="106.0684" x2="354.666" y2="106.0684" gradientTransform="matrix(1 0 0 -1 0 521)">
		<stop  offset="0" style="stop-color:#3F65E9"/>
		<stop  offset="0.1" style="stop-color:#4568E8"/>
		<stop  offset="0.6762" style="stop-color:#6474E5"/>
		<stop  offset="1" style="stop-color:#6F79E4"/>
	</linearGradient>
	<path id="XMLID_168_" fill="url(#XMLID_3_)" d="M241.112,364.204l-67.515,35.611c0,0-0.371,5.271,1.068,6.104l103.44,59.722
		c2.642,1.524,5.892,1.533,8.54,0.02l66.438-37.979c2.746-1.699,1.085-6.113,1.085-6.113L249.65,364.223
		C247.011,362.695,243.759,362.691,241.112,364.204z"/>
	<path id="XMLID_167_" fill="#404A8B" d="M241.112,360.117l-66.437,37.976c-1.445,0.828-1.449,2.907-0.009,3.74l103.44,59.723
		c2.642,1.523,5.892,1.53,8.541,0.02l66.438-37.979c1.443-0.823,1.446-2.907,0.006-3.739l-103.438-59.718
		C247.011,358.607,243.759,358.604,241.112,360.117z"/>
	<path id="XMLID_165_" fill="#666EA2" d="M235.221,409.295l-17.511,10.007c-0.381,0.218-0.383,0.768-0.002,0.985l27.264,15.741
		c0.697,0.399,1.554,0.404,2.25,0.005l17.512-10.009c0.38-0.219,0.382-0.767,0.001-0.988l-27.263-15.737
		C236.776,408.894,235.919,408.894,235.221,409.295z"/>
	<path id="XMLID_164_" fill="#303768" d="M248.438,365.919l5.723,3.304c0.227,0.135,0.227,0.463,0,0.592l-2.846,1.635
		c-0.227,0.134-0.506,0.134-0.736,0l-5.723-3.305c-0.227-0.133-0.227-0.463,0-0.592l2.846-1.634
		C247.928,365.785,248.208,365.785,248.438,365.919z"/>
	<path id="XMLID_163_" fill="#303768" d="M256.822,370.914l5.727,3.303c0.227,0.135,0.227,0.465,0,0.594l-2.846,1.638
		c-0.227,0.129-0.508,0.129-0.736-0.005l-5.724-3.303c-0.229-0.13-0.227-0.459,0-0.593l2.843-1.634
		C256.316,370.785,256.596,370.785,256.822,370.914z"/>
	<path id="XMLID_162_" fill="#303768" d="M265.242,375.646l5.724,3.303c0.229,0.134,0.229,0.459,0,0.593l-2.843,1.634
		c-0.229,0.135-0.511,0.129-0.737,0l-5.725-3.304c-0.227-0.133-0.227-0.463,0.001-0.593l2.843-1.633
		C264.734,375.514,265.016,375.514,265.242,375.646z"/>
	<path id="XMLID_161_" fill="#303768" d="M273.914,380.529l5.723,3.304c0.227,0.134,0.227,0.464,0,0.593l-2.843,1.635
		c-0.23,0.133-0.509,0.133-0.737,0l-5.725-3.305c-0.227-0.134-0.227-0.462,0-0.592l2.846-1.635
		C273.404,380.396,273.684,380.4,273.914,380.529z"/>
	<path id="XMLID_151_" fill="#303768" d="M282.244,385.173l5.725,3.306c0.227,0.133,0.227,0.463-0.002,0.592l-2.842,1.634
		c-0.229,0.133-0.512,0.133-0.736,0l-5.725-3.304c-0.229-0.135-0.229-0.463,0-0.592l2.843-1.636
		C281.736,385.04,282.016,385.04,282.244,385.173z"/>
	<path id="XMLID_150_" fill="#303768" d="M290.344,390.169l5.723,3.308c0.23,0.129,0.228,0.459,0,0.588l-2.842,1.639
		c-0.229,0.13-0.51,0.13-0.736-0.005l-5.725-3.304c-0.229-0.129-0.229-0.459,0-0.592l2.844-1.634
		C289.834,390.04,290.115,390.04,290.344,390.169z"/>
	<path id="XMLID_149_" fill="#303768" d="M298.823,394.843l5.726,3.31c0.227,0.129,0.227,0.458-0.004,0.592l-2.841,1.633
		c-0.229,0.13-0.511,0.13-0.737,0l-5.724-3.307c-0.229-0.129-0.229-0.459,0-0.593l2.843-1.635
		C298.314,394.714,298.596,394.714,298.823,394.843z"/>
	<path id="XMLID_148_" fill="#303768" d="M307.176,399.819l5.726,3.305c0.229,0.133,0.227,0.458,0,0.593l-2.845,1.633
		c-0.229,0.129-0.51,0.129-0.734,0l-5.727-3.304c-0.229-0.133-0.229-0.462,0.002-0.592l2.844-1.635
		C306.667,399.688,306.948,399.688,307.176,399.819z"/>
	<path id="XMLID_147_" fill="#303768" d="M315.391,404.669l5.728,3.304c0.227,0.128,0.227,0.458-0.004,0.593l-2.843,1.634
		c-0.229,0.128-0.51,0.128-0.735,0l-5.725-3.31c-0.229-0.128-0.229-0.458,0-0.592l2.844-1.634
		C314.883,404.535,315.164,404.535,315.391,404.669z"/>
	<path id="XMLID_146_" fill="#303768" d="M324.051,409.654l5.726,3.304c0.227,0.134,0.227,0.464,0,0.593l-2.846,1.639
		c-0.228,0.129-0.508,0.129-0.736-0.006l-5.725-3.304c-0.227-0.128-0.227-0.458,0-0.591l2.848-1.635
		C323.542,409.526,323.823,409.526,324.051,409.654z"/>
	<path id="XMLID_145_" fill="#303768" d="M332.462,414.374l5.724,3.304c0.228,0.133,0.228,0.463,0,0.593l-2.846,1.639
		c-0.227,0.129-0.508,0.129-0.733-0.005l-5.727-3.305c-0.226-0.134-0.226-0.459,0-0.592l2.845-1.634
		C331.953,414.246,332.232,414.246,332.462,414.374z"/>
	<g id="XMLID_133_">
		<path id="XMLID_144_" fill="#303768" d="M236.793,372.146l3.878-2.271c0.504-0.298,1.126-0.298,1.632-0.009l3.786,2.189
			c0.531,0.305,0.541,1.064,0.02,1.385l-3.766,2.312c-0.508,0.312-1.144,0.319-1.658,0.026l-3.887-2.24
			C236.261,373.232,236.259,372.458,236.793,372.146z"/>
		<path id="XMLID_143_" fill="#303768" d="M245.477,377.143l3.878-2.271c0.503-0.293,1.126-0.298,1.631-0.004l3.787,2.186
			c0.529,0.309,0.541,1.064,0.02,1.387l-3.77,2.313c-0.504,0.312-1.141,0.32-1.655,0.022l-3.887-2.239
			C244.945,378.229,244.944,377.454,245.477,377.143z"/>
		<path id="XMLID_142_" fill="#303768" d="M253.907,381.87l3.878-2.271c0.501-0.293,1.126-0.293,1.631-0.004l3.788,2.186
			c0.528,0.309,0.541,1.068,0.02,1.39l-3.766,2.312c-0.508,0.312-1.144,0.32-1.66,0.021l-3.886-2.234
			C253.375,382.956,253.372,382.188,253.907,381.87z"/>
		<path id="XMLID_141_" fill="#303768" d="M262.875,386.759l3.878-2.271c0.503-0.295,1.126-0.299,1.632-0.006l3.786,2.188
			c0.529,0.303,0.541,1.062,0.02,1.385l-3.769,2.314c-0.505,0.307-1.141,0.314-1.658,0.021l-3.884-2.238
			C262.343,387.846,262.342,387.068,262.875,386.759z"/>
		<path id="XMLID_140_" fill="#303768" d="M270.775,391.402l3.878-2.271c0.505-0.298,1.126-0.298,1.632-0.009l3.789,2.19
			c0.527,0.303,0.537,1.063,0.017,1.385l-3.767,2.311c-0.508,0.312-1.144,0.32-1.658,0.026l-3.884-2.239
			C270.243,392.488,270.242,391.713,270.775,391.402z"/>
		<path id="XMLID_139_" fill="#303768" d="M278.804,396.37l3.877-2.271c0.504-0.295,1.127-0.299,1.631-0.006l3.787,2.188
			c0.529,0.307,0.541,1.067,0.021,1.385l-3.769,2.314c-0.507,0.312-1.143,0.318-1.658,0.021l-3.884-2.234
			C278.273,397.456,278.271,396.683,278.804,396.37z"/>
		<path id="XMLID_138_" fill="#303768" d="M287.381,401.071l3.881-2.271c0.502-0.294,1.123-0.294,1.629-0.005l3.789,2.187
			c0.529,0.307,0.539,1.067,0.019,1.39l-3.767,2.311c-0.509,0.312-1.144,0.319-1.658,0.022l-3.885-2.236
			C286.852,402.158,286.848,401.383,287.381,401.071z"/>
		<path id="XMLID_137_" fill="#303768" d="M295.777,405.83l3.877-2.271c0.504-0.295,1.128-0.295,1.633-0.005l3.787,2.187
			c0.529,0.307,0.539,1.067,0.02,1.39l-3.77,2.312c-0.504,0.312-1.141,0.319-1.658,0.021l-3.883-2.234
			C295.246,406.917,295.243,406.143,295.777,405.83z"/>
		<path id="XMLID_136_" fill="#303768" d="M304.031,410.892l3.878-2.27c0.503-0.293,1.126-0.293,1.632-0.005l3.788,2.186
			c0.528,0.31,0.54,1.068,0.019,1.392l-3.767,2.31c-0.508,0.312-1.145,0.321-1.657,0.022l-3.889-2.236
			C303.499,411.979,303.498,411.21,304.031,410.892z"/>
		<path id="XMLID_135_" fill="#303768" d="M313.025,416.19l3.877-2.271c0.502-0.295,1.127-0.3,1.632-0.005l3.785,2.186
			c0.53,0.308,0.541,1.064,0.021,1.385l-3.767,2.315c-0.508,0.312-1.145,0.319-1.659,0.022l-3.886-2.24
			C312.493,417.277,312.49,416.502,313.025,416.19z"/>
		<path id="XMLID_134_" fill="#303768" d="M321.156,420.602l3.878-2.27c0.503-0.295,1.126-0.299,1.631-0.005l3.788,2.186
			c0.528,0.308,0.54,1.064,0.019,1.386l-3.767,2.314c-0.508,0.312-1.145,0.32-1.657,0.022l-3.888-2.239
			C320.624,421.688,320.622,420.914,321.156,420.602z"/>
	</g>
	<g id="XMLID_120_">
		<path id="XMLID_132_" fill="#303768" d="M228.152,376.844l3.88-2.271c0.503-0.294,1.125-0.3,1.629-0.005l3.789,2.187
			c0.529,0.308,0.538,1.068,0.018,1.386l-3.767,2.313c-0.507,0.312-1.142,0.321-1.659,0.022l-3.885-2.24
			C227.623,377.932,227.618,377.154,228.152,376.844z"/>
		<path id="XMLID_131_" fill="#303768" d="M236.835,381.839l3.878-2.271c0.503-0.295,1.125-0.295,1.632-0.006l3.789,2.188
			c0.527,0.309,0.538,1.068,0.017,1.391l-3.767,2.311c-0.508,0.311-1.144,0.318-1.658,0.021l-3.887-2.236
			C236.303,382.925,236.302,382.154,236.835,381.839z"/>
		<path id="XMLID_130_" fill="#303768" d="M245.266,386.57l3.879-2.271c0.503-0.293,1.125-0.298,1.63-0.004l3.788,2.187
			c0.531,0.308,0.54,1.063,0.018,1.385l-3.766,2.314c-0.508,0.312-1.144,0.319-1.658,0.021l-3.884-2.239
			C244.733,387.658,244.732,386.884,245.266,386.57z"/>
		<path id="XMLID_129_" fill="#303768" d="M254.233,391.455l3.878-2.27c0.504-0.295,1.126-0.295,1.632-0.006l3.786,2.188
			c0.531,0.306,0.541,1.066,0.02,1.388l-3.766,2.312c-0.508,0.312-1.144,0.32-1.658,0.021l-3.888-2.234
			C253.702,392.541,253.7,391.768,254.233,391.455z"/>
		<path id="XMLID_128_" fill="#303768" d="M262.136,396.099l3.878-2.271c0.503-0.293,1.126-0.299,1.629-0.004l3.789,2.186
			c0.528,0.309,0.538,1.068,0.018,1.384l-3.766,2.316c-0.507,0.312-1.143,0.32-1.66,0.021l-3.884-2.24
			C261.604,397.186,261.603,396.41,262.136,396.099z"/>
		<path id="XMLID_127_" fill="#303768" d="M270.163,401.071l3.878-2.274c0.503-0.294,1.125-0.294,1.632-0.005l3.789,2.19
			c0.527,0.303,0.538,1.062,0.017,1.385l-3.766,2.311c-0.508,0.312-1.145,0.32-1.658,0.027l-3.887-2.24
			C269.631,402.153,269.629,401.383,270.163,401.071z"/>
		<path id="XMLID_126_" fill="#303768" d="M278.742,405.773l3.878-2.276c0.503-0.294,1.126-0.294,1.631-0.003l3.788,2.188
			c0.529,0.303,0.539,1.064,0.02,1.386l-3.77,2.311c-0.505,0.312-1.141,0.32-1.656,0.026l-3.886-2.239
			C278.211,406.86,278.208,406.084,278.742,405.773z"/>
		<path id="XMLID_125_" fill="#303768" d="M287.137,410.532l3.877-2.271c0.504-0.298,1.127-0.298,1.631-0.008l3.789,2.189
			c0.531,0.303,0.541,1.063,0.02,1.386l-3.768,2.311c-0.508,0.312-1.144,0.319-1.658,0.026l-3.885-2.239
			C286.604,411.619,286.604,410.844,287.137,410.532z"/>
		<path id="XMLID_124_" fill="#303768" d="M295.389,415.594l3.883-2.271c0.502-0.299,1.123-0.299,1.629-0.009l3.789,2.188
			c0.528,0.303,0.537,1.064,0.017,1.385l-3.767,2.312c-0.506,0.311-1.142,0.318-1.657,0.025l-3.884-2.239
			C294.861,416.681,294.855,415.904,295.389,415.594z"/>
		<path id="XMLID_122_" fill="#303768" d="M304.383,420.889l3.88-2.271c0.504-0.294,1.125-0.294,1.63-0.004l3.789,2.187
			c0.53,0.308,0.539,1.068,0.019,1.39l-3.767,2.311c-0.509,0.312-1.143,0.32-1.657,0.021l-3.886-2.234
			C303.854,421.974,303.848,421.203,304.383,420.889z"/>
		<path id="XMLID_121_" fill="#303768" d="M312.518,425.299l3.879-2.27c0.501-0.295,1.121-0.295,1.63-0.005l3.788,2.186
			c0.527,0.308,0.537,1.068,0.017,1.39l-3.766,2.312c-0.507,0.311-1.143,0.32-1.658,0.021l-3.885-2.234
			C311.985,426.386,311.982,425.615,312.518,425.299z"/>
	</g>
	<g id="XMLID_92_">
		<path id="XMLID_119_" fill="#303768" d="M219.514,381.54l3.877-2.271c0.503-0.295,1.126-0.295,1.632-0.004l3.786,2.187
			c0.531,0.307,0.541,1.067,0.021,1.388l-3.769,2.312c-0.505,0.312-1.143,0.32-1.656,0.021l-3.886-2.233
			C218.981,382.627,218.979,381.855,219.514,381.54z"/>
		<path id="XMLID_118_" fill="#303768" d="M228.197,386.54l3.878-2.271c0.503-0.299,1.126-0.299,1.629-0.004l3.789,2.186
			c0.528,0.303,0.538,1.064,0.018,1.385l-3.767,2.311c-0.505,0.312-1.141,0.32-1.658,0.027l-3.884-2.24
			C227.665,387.627,227.662,386.852,228.197,386.54z"/>
		<path id="XMLID_117_" fill="#303768" d="M236.626,391.27l3.878-2.271c0.502-0.293,1.126-0.293,1.629-0.004l3.789,2.186
			c0.529,0.31,0.541,1.069,0.017,1.391l-3.766,2.311c-0.504,0.312-1.141,0.32-1.658,0.021l-3.884-2.234
			C236.095,392.354,236.092,391.584,236.626,391.27z"/>
		<path id="XMLID_116_" fill="#303768" d="M245.594,396.156l3.879-2.271c0.503-0.298,1.124-0.298,1.629-0.009l3.789,2.19
			c0.529,0.303,0.538,1.062,0.018,1.385l-3.766,2.311c-0.506,0.312-1.143,0.32-1.659,0.027l-3.884-2.239
			C245.063,397.242,245.059,396.468,245.594,396.156z"/>
		<path id="XMLID_115_" fill="#303768" d="M253.495,400.795l3.878-2.27c0.503-0.295,1.126-0.295,1.632-0.006l3.786,2.187
			c0.531,0.308,0.542,1.068,0.02,1.39l-3.766,2.311c-0.508,0.312-1.145,0.319-1.658,0.022l-3.887-2.235
			C252.962,401.881,252.961,401.112,253.495,400.795z"/>
		<path id="XMLID_98_" fill="#303768" d="M261.523,405.769l3.879-2.271c0.503-0.294,1.124-0.298,1.629-0.003l3.788,2.186
			c0.529,0.307,0.539,1.064,0.019,1.385l-3.768,2.314c-0.506,0.312-1.141,0.32-1.658,0.023l-3.884-2.24
			C260.992,406.855,260.988,406.08,261.523,405.769z"/>
		<path id="XMLID_97_" fill="#303768" d="M270.101,410.47l3.878-2.271c0.503-0.294,1.125-0.299,1.631-0.005l3.789,2.188
			c0.527,0.306,0.54,1.063,0.019,1.384l-3.767,2.314c-0.508,0.312-1.144,0.321-1.658,0.021l-3.887-2.237
			C269.572,411.555,269.567,410.781,270.101,410.47z"/>
		<path id="XMLID_96_" fill="#303768" d="M278.498,415.229l3.877-2.271c0.502-0.293,1.127-0.298,1.63-0.005l3.789,2.188
			c0.528,0.308,0.538,1.068,0.017,1.386l-3.766,2.313c-0.506,0.312-1.143,0.32-1.658,0.021l-3.885-2.239
			C277.966,416.314,277.963,415.54,278.498,415.229z"/>
		<path id="XMLID_95_" fill="#303768" d="M286.751,420.291l3.878-2.271c0.504-0.295,1.126-0.3,1.633-0.004l3.785,2.187
			c0.531,0.306,0.541,1.067,0.02,1.384l-3.768,2.314c-0.506,0.312-1.143,0.32-1.658,0.023l-3.885-2.241
			C286.219,421.378,286.218,420.602,286.751,420.291z"/>
		<path id="XMLID_94_" fill="#303768" d="M295.744,425.588l3.877-2.27c0.504-0.299,1.128-0.299,1.633-0.01l3.785,2.189
			c0.531,0.304,0.541,1.062,0.021,1.386l-3.771,2.31c-0.504,0.312-1.142,0.32-1.657,0.026l-3.885-2.238
			C295.213,426.674,295.21,425.9,295.744,425.588z"/>
		<path id="XMLID_93_" fill="#303768" d="M303.876,430.001l3.878-2.271c0.503-0.299,1.125-0.299,1.631-0.006l3.787,2.188
			c0.529,0.303,0.541,1.062,0.021,1.385l-3.768,2.312c-0.507,0.311-1.144,0.318-1.657,0.024l-3.887-2.239
			C303.344,431.086,303.342,430.312,303.876,430.001z"/>
	</g>
	<g id="XMLID_78_">
		<path id="XMLID_91_" fill="#303768" d="M210.872,386.241l3.878-2.271c0.503-0.294,1.125-0.299,1.631-0.005l3.789,2.187
			c0.53,0.303,0.539,1.063,0.018,1.386l-3.767,2.313c-0.507,0.309-1.144,0.316-1.658,0.022l-3.886-2.239
			C210.34,387.328,210.337,386.555,210.872,386.241z"/>
		<path id="XMLID_90_" fill="#303768" d="M219.556,391.236l3.877-2.271c0.503-0.295,1.126-0.299,1.632-0.005l3.786,2.188
			c0.531,0.307,0.541,1.067,0.021,1.384l-3.767,2.315c-0.507,0.312-1.144,0.319-1.658,0.021l-3.887-2.239
			C219.023,392.323,219.021,391.549,219.556,391.236z"/>
		<path id="XMLID_85_" fill="#303768" d="M227.985,395.971l3.878-2.271c0.503-0.299,1.125-0.299,1.632-0.01l3.786,2.19
			c0.53,0.302,0.541,1.064,0.02,1.384l-3.766,2.312c-0.508,0.312-1.144,0.319-1.658,0.026l-3.887-2.239
			C227.453,397.057,227.451,396.281,227.985,395.971z"/>
		<path id="XMLID_84_" fill="#303768" d="M236.953,400.854l3.878-2.271c0.503-0.293,1.125-0.297,1.632-0.005l3.786,2.188
			c0.531,0.308,0.541,1.068,0.02,1.386l-3.767,2.314c-0.507,0.312-1.144,0.32-1.658,0.021l-3.887-2.237
			C236.421,401.938,236.42,401.165,236.953,400.854z"/>
		<path id="XMLID_83_" fill="#303768" d="M245.594,406.009l3.879-2.27c0.503-0.296,1.124-0.296,1.629-0.005l19.717,11.388
			c0.529,0.307,0.539,1.068,0.019,1.389l-3.768,2.312c-0.506,0.312-1.141,0.319-1.658,0.022L245.6,407.406
			C245.063,407.096,245.059,406.324,245.594,406.009z"/>
		<path id="XMLID_82_" fill="#303768" d="M269.856,419.926l3.878-2.271c0.503-0.294,1.125-0.294,1.63-0.005l3.787,2.186
			c0.529,0.308,0.542,1.068,0.02,1.39l-3.766,2.311c-0.507,0.312-1.144,0.32-1.658,0.022l-3.887-2.234
			C269.324,421.012,269.323,420.24,269.856,419.926z"/>
		<path id="XMLID_81_" fill="#303768" d="M278.109,424.987l3.877-2.271c0.504-0.294,1.129-0.294,1.633-0.005l3.789,2.188
			c0.527,0.306,0.537,1.067,0.018,1.388l-3.767,2.312c-0.507,0.312-1.144,0.32-1.658,0.021l-3.887-2.233
			C277.577,426.072,277.576,425.304,278.109,424.987z"/>
		<path id="XMLID_80_" fill="#303768" d="M287.104,430.285l3.879-2.271c0.502-0.294,1.125-0.299,1.631-0.005l3.787,2.187
			c0.527,0.308,0.541,1.067,0.02,1.385l-3.768,2.314c-0.508,0.312-1.145,0.321-1.657,0.022l-3.888-2.234
			C286.57,431.371,286.568,430.597,287.104,430.285z"/>
		<path id="XMLID_79_" fill="#303768" d="M295.234,434.697l3.881-2.271c0.503-0.294,1.123-0.298,1.629-0.005l3.789,2.187
			c0.529,0.308,0.537,1.067,0.017,1.386l-3.767,2.312c-0.508,0.313-1.145,0.32-1.658,0.023l-3.883-2.24
			C294.705,435.783,294.7,435.009,295.234,434.697z"/>
	</g>
</g>
<g id="XMLID_87_">
	<path id="XMLID_89_" fill="#404A8B" d="M113.254,445.476c-1.506-0.872-3.98-0.882-5.496-0.027l-42.902,23.219v1.646
		c0,0.903,0.483,1.736,1.267,2.191l41.788,24.07c1.507,0.869,3.974,0.864,5.48-0.008l41.042-23.827
		c0.819-0.477,1.325-1.354,1.325-2.302v-1.003L113.254,445.476z"/>
	
		<linearGradient id="XMLID_4_" gradientUnits="userSpaceOnUse" x1="64.7568" y1="51.5625" x2="155.7578" y2="51.5625" gradientTransform="matrix(1 0 0 -1 0 521)">
		<stop  offset="0" style="stop-color:#C45B94"/>
		<stop  offset="0.2453" style="stop-color:#C55E96"/>
		<stop  offset="0.4679" style="stop-color:#C8669B"/>
		<stop  offset="0.6817" style="stop-color:#CD74A4"/>
		<stop  offset="0.8889" style="stop-color:#E57751"/>
		<stop  offset="1" style="stop-color:#E48F65"/>
	</linearGradient>
	<path id="XMLID_88_" fill="url(#XMLID_4_)" d="M113.254,443.895c-1.506-0.872-3.98-0.886-5.496-0.025l-41.86,23.716
		c-1.516,0.854-1.522,2.271-0.014,3.142l42.026,24.266c1.507,0.872,3.974,0.867,5.48-0.009l41.239-23.951
		c1.507-0.873,1.504-2.302-0.002-3.175L113.254,443.895z"/>
</g>
<g id="XMLID_16_">
	<path id="XMLID_19_" fill="#404A8B" d="M113.254,431.8c-1.506-0.874-3.98-0.884-5.496-0.028l-42.902,23.218v1.647
		c0,0.903,0.483,1.735,1.267,2.189l41.788,24.072c1.507,0.868,3.974,0.863,5.48-0.01l41.042-23.826
		c0.819-0.478,1.325-1.354,1.325-2.302v-1.002L113.254,431.8z"/>
	
		<linearGradient id="XMLID_5_" gradientUnits="userSpaceOnUse" x1="64.7568" y1="65.2388" x2="155.7578" y2="65.2388" gradientTransform="matrix(1 0 0 -1 0 521)">
		<stop  offset="0" style="stop-color:#C45B94"/>
		<stop  offset="0.2453" style="stop-color:#C55E96"/>
		<stop  offset="0.4679" style="stop-color:#C8669B"/>
		<stop  offset="0.6817" style="stop-color:#CD74A4"/>
		<stop  offset="0.8889" style="stop-color:#E57751"/>
		<stop  offset="1" style="stop-color:#E48F65"/>
	</linearGradient>
	<path id="XMLID_17_" fill="url(#XMLID_5_)" d="M113.254,430.219c-1.506-0.873-3.98-0.886-5.496-0.026l-41.86,23.715
		c-1.516,0.854-1.522,2.271-0.014,3.144l42.026,24.265c1.507,0.872,3.974,0.867,5.48-0.009l41.239-23.953
		c1.507-0.87,1.504-2.302-0.002-3.173L113.254,430.219z"/>
</g>
<g id="XMLID_7_">
	<path id="XMLID_56_" fill="#404A8B" d="M113.254,420.403c-1.506-0.875-3.98-0.885-5.496-0.028l-42.902,23.217v1.647
		c0,0.902,0.483,1.735,1.267,2.189l41.788,24.072c1.507,0.867,3.974,0.862,5.48-0.009l41.042-23.828
		c0.819-0.477,1.325-1.354,1.325-2.302v-1L113.254,420.403z"/>
	
		<linearGradient id="XMLID_9_" gradientUnits="userSpaceOnUse" x1="64.7568" y1="76.6362" x2="155.7578" y2="76.6362" gradientTransform="matrix(1 0 0 -1 0 521)">
		<stop  offset="0" style="stop-color:#C45B94"/>
		<stop  offset="0.2453" style="stop-color:#C55E96"/>
		<stop  offset="0.4679" style="stop-color:#C8669B"/>
		<stop  offset="0.6817" style="stop-color:#CD74A4"/>
		<stop  offset="0.8889" style="stop-color:#E57751"/>
		<stop  offset="1" style="stop-color:#E48F65"/>
	</linearGradient>
	<path id="XMLID_55_" fill="url(#XMLID_9_)" d="M113.254,418.821c-1.506-0.873-3.98-0.887-5.496-0.027l-41.86,23.716
		c-1.516,0.855-1.522,2.271-0.014,3.145l42.026,24.264c1.507,0.873,3.974,0.868,5.48-0.01l41.239-23.951
		c1.507-0.873,1.504-2.302-0.002-3.175L113.254,418.821z"/>
</g>
<g id="XMLID_273_">
	
		<linearGradient id="XMLID_20_" gradientUnits="userSpaceOnUse" x1="149.3418" y1="251.6812" x2="293.5957" y2="251.6812" gradientTransform="matrix(1 0 0 -1 0 521)">
		<stop  offset="0" style="stop-color:#3F65E9"/>
		<stop  offset="0.1" style="stop-color:#4568E8"/>
		<stop  offset="0.6762" style="stop-color:#6474E5"/>
		<stop  offset="1" style="stop-color:#6F79E4"/>
	</linearGradient>
	<path id="XMLID_270_" fill="url(#XMLID_20_)" d="M149.342,193.626l0.363-0.187c1.16-0.602,2.544-0.565,3.675,0.085l137.785,79.578
		c1.338,0.773,2.431,2.668,2.431,4.213v65.771c0,0.81-0.404,1.571-1.082,2.024l-0.769,0.518l-139.231-80.523
		c-1.337-0.771-2.433-2.664-2.433-4.211L149.342,193.626z"/>
	<path id="XMLID_269_" fill="#404A8B" d="M148.678,195.158c0-1.545,1.093-2.177,2.431-1.402l138.648,80.049
		c1.339,0.772,2.433,2.666,2.433,4.211v66.258c0,1.545-1.094,2.178-2.433,1.408l-138.648-79.877
		c-1.338-0.771-2.431-2.666-2.431-4.207V195.158z"/>
	<path id="XMLID_271_" fill="#303768" d="M164.064,231.272c0-0.229,0.165-0.325,0.363-0.209l114.081,65.796
		c0.199,0.113,0.363,0.396,0.363,0.627v9.88c0,0.229-0.165,0.323-0.363,0.211l-114.081-65.769c-0.198-0.116-0.363-0.398-0.363-0.628
		V231.272z"/>
	
		<linearGradient id="XMLID_22_" gradientUnits="userSpaceOnUse" x1="164.064" y1="262.6074" x2="241.0342" y2="262.6074" gradientTransform="matrix(1 0 0 -1 0 521)">
		<stop  offset="0" style="stop-color:#C45B94"/>
		<stop  offset="0.299" style="stop-color:#C9689D"/>
		<stop  offset="0.9017" style="stop-color:#E2885B"/>
		<stop  offset="1" style="stop-color:#E48F65"/>
	</linearGradient>
	<path id="XMLID_272_" fill="url(#XMLID_22_)" d="M164.064,231.272c0-0.229,0.165-0.325,0.363-0.209l76.247,43.941
		c0.198,0.116,0.36,0.396,0.36,0.628v9.882c0,0.229-0.162,0.322-0.36,0.209l-76.247-43.915c-0.198-0.116-0.363-0.398-0.363-0.628
		V231.272z"/>
</g>
<g id="XMLID_6_">
	
		<linearGradient id="XMLID_25_" gradientUnits="userSpaceOnUse" x1="149.8218" y1="328.7314" x2="293.9375" y2="328.7314" gradientTransform="matrix(1 0 0 -1 0 521)">
		<stop  offset="0" style="stop-color:#3F65E9"/>
		<stop  offset="0.1" style="stop-color:#4568E8"/>
		<stop  offset="0.6762" style="stop-color:#6474E5"/>
		<stop  offset="1" style="stop-color:#6F79E4"/>
	</linearGradient>
	<path id="XMLID_15_" fill="url(#XMLID_25_)" d="M149.916,123.924l-0.094,0.058v50.697c0,2.139,1.516,4.764,3.368,5.834
		l137.19,80.721l2.193-1.268c0.845-0.489,1.364-1.391,1.364-2.367v-48.998c0-2.139-1.517-4.764-3.367-5.835l-136.377-78.906
		C152.868,123.094,151.223,123.118,149.916,123.924z"/>
	<path id="XMLID_14_" fill="#404A8B" d="M151.244,124.424c-1.852-1.07-3.367-0.193-3.367,1.945v49.28
		c0,2.142,1.516,4.766,3.37,5.837l137.378,79.315c1.854,1.069,3.369,0.194,3.369-1.945v-49.281c0-2.139-1.518-4.766-3.369-5.834
		L151.244,124.424z"/>
	<polygon id="XMLID_13_" fill="#FFFFFF" points="184.245,156.938 284.061,215.815 284.061,219.797 184.245,161.099 	"/>
	<polygon id="XMLID_12_" fill="#FFFFFF" points="184.245,169.315 284.061,228.192 284.061,232.174 184.245,173.477 	"/>
	<polygon id="XMLID_11_" fill="#FFFFFF" points="184.245,181.693 230.902,209.14 230.902,213.122 184.245,185.854 	"/>
	
		<linearGradient id="XMLID_57_" gradientUnits="userSpaceOnUse" x1="159.2241" y1="355.2793" x2="179.3618" y2="355.2793" gradientTransform="matrix(1 0 0 -1 0 521)">
		<stop  offset="0" style="stop-color:#E48F65"/>
		<stop  offset="0.2122" style="stop-color:#E2885B"/>
		<stop  offset="0.5704" style="stop-color:#CF79A7"/>
		<stop  offset="1" style="stop-color:#C45B94"/>
	</linearGradient>
	<path id="XMLID_10_" fill="url(#XMLID_57_)" d="M173.878,163.495c0.993-0.788,1.594-2.196,1.589-4.111
		c-0.009-4.303-3.054-9.573-6.765-11.717c-3.711-2.142-6.745-0.38-6.745,3.916c0,2.927,1.414,6.304,3.488,8.841
		c-3.679,1.731-6.221,5.467-6.221,9.79v2.693l20.138,11.78v-5.467C179.363,173.455,177.394,167.925,173.878,163.495z"/>
</g>
<g id="XMLID_318_">
	
		<linearGradient id="XMLID_58_" gradientUnits="userSpaceOnUse" x1="148.4248" y1="424.7217" x2="293.9395" y2="424.7217" gradientTransform="matrix(1 0 0 -1 0 521)">
		<stop  offset="0" style="stop-color:#3F65E9"/>
		<stop  offset="0.1" style="stop-color:#4568E8"/>
		<stop  offset="0.6762" style="stop-color:#6474E5"/>
		<stop  offset="1" style="stop-color:#6F79E4"/>
	</linearGradient>
	<path id="XMLID_324_" fill="url(#XMLID_58_)" d="M293.938,89.23c0-2.202-1.558-4.91-3.463-6.017L151.888,2.739
		c-1.905-1.106-3.463-0.209-3.463,1.995v98.592c0,2.203,1.558,4.91,3.463,6.019l138.586,80.471c1.906,1.109,3.465,0.209,3.465-1.994
		V89.23H293.938z"/>
	<path id="XMLID_323_" fill="#303768" d="M292.938,90.231c0-2.202-1.559-4.91-3.463-6.017L150.886,3.741
		c-1.906-1.106-3.464-0.209-3.464,1.994v98.593c0,2.202,1.558,4.91,3.464,6.016l138.588,80.473c1.903,1.108,3.463,0.208,3.463-1.995
		V90.231L292.938,90.231z"/>
	<path id="XMLID_343_" fill="#3B47BA" d="M289.475,84.215L150.886,3.741c-1.906-1.106-3.464-0.209-3.464,1.994v5.612l145.516,84.496
		v-5.612C292.938,88.029,291.379,85.321,289.475,84.215z"/>
	<path id="XMLID_314_" fill="#404A8B" d="M274.709,93.985c-2.716-1.567-4.938-0.277-4.938,2.867c0,3.145,2.228,7.004,4.951,8.576
		c2.725,1.571,4.946,0.281,4.938-2.867C279.652,99.412,277.425,95.553,274.709,93.985z"/>
	<g id="XMLID_307_">
		<path id="XMLID_330_" fill="#FFFFFF" d="M216.089,66.18c-0.28-0.171-0.554-0.367-0.834-0.53
			c-14.623-8.443-26.587-1.495-26.587,15.437c0,1.041,0.049,2.097,0.136,3.162l27.286,15.449L216.089,66.18L216.089,66.18z"/>
		
			<linearGradient id="XMLID_61_" gradientUnits="userSpaceOnUse" x1="194.0044" y1="452.4629" x2="245.9062" y2="382.3501" gradientTransform="matrix(1 0 0 -1 0 521)">
			<stop  offset="0" style="stop-color:#C45B94"/>
			<stop  offset="0.221" style="stop-color:#C55E96"/>
			<stop  offset="0.4561" style="stop-color:#C8669B"/>
			<stop  offset="0.6976" style="stop-color:#DD733E"/>
			<stop  offset="0.9422" style="stop-color:#E2895D"/>
			<stop  offset="1" style="stop-color:#E48F65"/>
		</linearGradient>
		<path id="XMLID_331_" fill="url(#XMLID_61_)" d="M219.441,67.733v37.566l-30.577-17.315c1.513,18.245,14.303,39.308,29.727,48.214
			c16.437,9.49,29.847,1.705,29.8-17.301C248.347,100.257,235.402,77.528,219.441,67.733z"/>
	</g>
</g>
<g>
	
		<linearGradient id="XMLID_62_" gradientUnits="userSpaceOnUse" x1="306.5771" y1="241.8403" x2="501.8623" y2="241.8403" gradientTransform="matrix(1 0 0 -1 0 521)">
		<stop  offset="0" style="stop-color:#3F65E9"/>
		<stop  offset="0.1" style="stop-color:#4568E8"/>
		<stop  offset="0.6762" style="stop-color:#6474E5"/>
		<stop  offset="1" style="stop-color:#6F79E4"/>
	</linearGradient>
	<path id="XMLID_8_" fill="url(#XMLID_62_)" d="M501.862,210.028c0-2.958-2.094-6.594-4.651-8.076L311.224,93.954
		c-2.558-1.484-4.646-0.28-4.646,2.677V348.29c0,2.96,2.09,6.594,4.646,8.075l185.987,108.001c2.559,1.481,4.651,0.281,4.651-2.681
		V210.028z"/>
	<path id="XMLID_334_" fill="#303768" d="M500.518,211.37c0-2.956-2.094-6.592-4.65-8.076L309.879,95.298
		c-2.555-1.484-4.646-0.28-4.646,2.676v251.66c0,2.955,2.093,6.593,4.646,8.075l185.987,107.997c2.558,1.485,4.65,0.279,4.65-2.677
		L500.518,211.37L500.518,211.37z"/>
	<path fill="#404A8B" d="M495.866,203.294L309.879,95.298c-2.555-1.484-4.646-0.28-4.646,2.676v7.531L500.518,218.9v-7.53
		C500.518,208.414,498.424,204.778,495.866,203.294z"/>
	<polygon fill="#404A8B" points="316.655,126.708 316.655,252.671 485.662,349.994 485.662,224.845 	"/>
	<polygon fill="#404A8B" points="316.282,266.258 316.282,340.166 415.447,397.27 415.447,323.84 	"/>
	<polygon fill="#404A8B" points="426.892,330.582 426.892,404.49 485.662,439.126 485.662,365.695 	"/>
	<path id="XMLID_281_" fill="#303768" d="M466.45,227.381c-3.645-2.104-6.626-0.374-6.626,3.847c0,4.22,2.991,9.398,6.645,11.508
		c3.654,2.11,6.639,0.378,6.627-3.847C473.084,234.665,470.094,229.484,466.45,227.381z"/>
	<g id="XMLID_282_">
		<path id="XMLID_287_" fill="#FFFFFF" d="M469.241,237.347c-0.113,0-0.23-0.029-0.337-0.089l-5.568-3.217
			c-0.325-0.189-0.436-0.603-0.25-0.928c0.188-0.325,0.602-0.434,0.93-0.25l5.569,3.215c0.322,0.189,0.437,0.603,0.246,0.93
			C469.707,237.227,469.478,237.347,469.241,237.347z"/>
	</g>
	<g id="XMLID_283_">
		<path id="XMLID_286_" fill="#FFFFFF" d="M469.241,240.974c-0.113,0-0.23-0.032-0.337-0.092l-5.568-3.217
			c-0.325-0.188-0.436-0.603-0.25-0.928c0.188-0.322,0.602-0.432,0.93-0.249l5.569,3.216c0.322,0.189,0.437,0.604,0.246,0.929
			C469.707,240.851,469.478,240.974,469.241,240.974z"/>
	</g>
	<g id="XMLID_280_">
		<path id="XMLID_285_" fill="#FFFFFF" d="M469.241,233.723c-0.113,0-0.23-0.029-0.337-0.089l-5.568-3.217
			c-0.325-0.189-0.436-0.604-0.25-0.928c0.188-0.325,0.602-0.434,0.93-0.252l5.569,3.217c0.322,0.189,0.437,0.603,0.246,0.928
			C469.707,233.601,469.478,233.723,469.241,233.723z"/>
	</g>
	
		<linearGradient id="XMLID_63_" gradientUnits="userSpaceOnUse" x1="316.6553" y1="226.5107" x2="485.6621" y2="226.5107" gradientTransform="matrix(1 0 0 -1 0 521)">
		<stop  offset="0" style="stop-color:#C45B94"/>
		<stop  offset="0.299" style="stop-color:#C9689D"/>
		<stop  offset="0.9017" style="stop-color:#E2885B"/>
		<stop  offset="1" style="stop-color:#E48F65"/>
	</linearGradient>
	<polygon id="XMLID_21_" fill="url(#XMLID_63_)" points="316.655,252.671 485.662,350.248 485.662,252.671 461.521,266.609 
		437.374,266.609 425.304,245.701 413.23,252.671 401.157,259.641 389.087,238.731 377.016,245.701 352.87,245.701 340.799,252.671 
			"/>
</g>
<g id="XMLID_23_">
	<path id="XMLID_72_" fill="#666EA2" d="M111.583,145.531l-1.091,0.913h-9.536l-1.036-0.951c-3.049-2.809-4.785-6.765-4.785-10.911
		v-4.15h21.764v3.727C116.899,138.548,114.951,142.715,111.583,145.531z"/>
	<path id="XMLID_71_" fill="#404A8B" d="M107.402,149.355h-3.555c-1.748,0-3.165-1.416-3.165-3.163l0,0h9.885l0,0
		C110.568,147.939,109.152,149.355,107.402,149.355z"/>
	<path id="XMLID_70_" fill="#289DA2" d="M113.668,126.011c-4.225-2.438-11.138-2.438-15.363,0c-4.225,2.439-4.225,6.433,0,8.871
		c4.225,2.44,11.139,2.44,15.363,0C117.893,132.444,117.893,128.451,113.668,126.011z"/>
	
		<linearGradient id="XMLID_64_" gradientUnits="userSpaceOnUse" x1="86.125" y1="407.832" x2="125.915" y2="407.832" gradientTransform="matrix(1 0 0 -1 0 521)">
		<stop  offset="0" style="stop-color:#C45B94"/>
		<stop  offset="0.221" style="stop-color:#C55E96"/>
		<stop  offset="0.4561" style="stop-color:#C8669B"/>
		<stop  offset="0.6976" style="stop-color:#DD733E"/>
		<stop  offset="0.9422" style="stop-color:#E2895D"/>
		<stop  offset="1" style="stop-color:#E48F65"/>
	</linearGradient>
	<path id="XMLID_69_" opacity="0.88" fill="url(#XMLID_64_)" enable-background="new    " d="M106.021,89.608
		c-10.987,0-19.896,8.907-19.896,19.891c0,6.972,3.593,13.096,9.017,16.648v4.5l0,0c0.062,1.544,1.208,3.107,3.239,4.28
		c4.191,2.419,11.125,2.391,15.315-0.029c2.032-1.171,3.069-2.707,3.129-4.251h0.072v-4.5c5.427-3.552,9.018-9.676,9.018-16.648
		C125.914,98.515,117.008,89.608,106.021,89.608z"/>
	<path id="XMLID_68_" fill="#FFFFFF" d="M94.895,111.672c0-7.186,5.826-13.011,13.009-13.011c6.651,0,6.137-5.545-2.339-5.545
		c-8.478,0-15.351,6.872-15.351,15.351C90.213,113.844,94.895,116.228,94.895,111.672z"/>
	<path id="XMLID_67_" opacity="0.49" fill="#8C93B9" enable-background="new    " d="M113.696,136.637
		c-4.189,2.419-11.124,2.448-15.315,0.028c-2.031-1.173-3.177-2.735-3.239-4.281v1.489c0.062,1.547,1.208,3.109,3.239,4.283
		c4.191,2.417,11.125,2.388,15.315-0.03c2.032-1.172,3.069-2.706,3.129-4.253h0.072v-1.489h-0.072
		C116.765,133.93,115.728,135.463,113.696,136.637z"/>
	<path id="XMLID_66_" opacity="0.49" fill="#8C93B9" enable-background="new    " d="M113.638,140.965
		c-4.189,2.417-11.124,2.447-15.315,0.029c-1.193-0.69-2.072-1.516-2.613-2.393c0.271,0.966,0.641,1.896,1.102,2.787
		c0.43,0.389,0.93,0.759,1.511,1.095c4.191,2.42,11.125,2.391,15.315-0.028c0.475-0.274,0.889-0.568,1.253-0.875
		c0.556-0.961,0.999-1.983,1.329-3.045C115.712,139.423,114.857,140.26,113.638,140.965z"/>
	<g opacity="0.88">
		
			<linearGradient id="SVGID_1_" gradientUnits="userSpaceOnUse" x1="104.3291" y1="440.8789" x2="107.6309" y2="440.8789" gradientTransform="matrix(1 0 0 -1 0 521)">
			<stop  offset="0" style="stop-color:#C45B94"/>
			<stop  offset="0.221" style="stop-color:#C55E96"/>
			<stop  offset="0.4561" style="stop-color:#C8669B"/>
			<stop  offset="0.6976" style="stop-color:#DD733E"/>
			<stop  offset="0.9422" style="stop-color:#E2895D"/>
			<stop  offset="1" style="stop-color:#E48F65"/>
		</linearGradient>
		<path fill="url(#SVGID_1_)" d="M105.949,87.956c-0.002,0-0.004,0-0.006,0c-0.896-0.004-1.619-0.732-1.614-1.629l0.06-12.426
			c0.004-0.895,0.73-1.616,1.621-1.616c0.002,0,0.004,0,0.009,0c0.893,0.005,1.618,0.734,1.612,1.629l-0.061,12.43
			C107.565,87.237,106.842,87.956,105.949,87.956z"/>
	</g>
	<g opacity="0.88">
		
			<linearGradient id="SVGID_2_" gradientUnits="userSpaceOnUse" x1="116.2119" y1="436.8691" x2="125.7295" y2="436.8691" gradientTransform="matrix(1 0 0 -1 0 521)">
			<stop  offset="0" style="stop-color:#C45B94"/>
			<stop  offset="0.221" style="stop-color:#C55E96"/>
			<stop  offset="0.4561" style="stop-color:#C8669B"/>
			<stop  offset="0.6976" style="stop-color:#DD733E"/>
			<stop  offset="0.9422" style="stop-color:#E2895D"/>
			<stop  offset="1" style="stop-color:#E48F65"/>
		</linearGradient>
		<path fill="url(#SVGID_2_)" d="M117.831,91.115c-0.28,0-0.561-0.069-0.816-0.22c-0.772-0.455-1.033-1.447-0.582-2.22l6.277-10.727
			c0.452-0.773,1.447-1.033,2.217-0.579c0.772,0.452,1.033,1.445,0.581,2.217l-6.277,10.725
			C118.929,90.828,118.388,91.115,117.831,91.115z"/>
	</g>
	<g opacity="0.88">
		
			<linearGradient id="SVGID_3_" gradientUnits="userSpaceOnUse" x1="124.9136" y1="425.8887" x2="138.9624" y2="425.8887" gradientTransform="matrix(1 0 0 -1 0 521)">
			<stop  offset="0" style="stop-color:#C45B94"/>
			<stop  offset="0.221" style="stop-color:#C55E96"/>
			<stop  offset="0.4561" style="stop-color:#C8669B"/>
			<stop  offset="0.6976" style="stop-color:#DD733E"/>
			<stop  offset="0.9422" style="stop-color:#E2895D"/>
			<stop  offset="1" style="stop-color:#E48F65"/>
		</linearGradient>
		<path fill="url(#SVGID_3_)" d="M126.537,99.803c-0.565,0-1.113-0.296-1.411-0.822c-0.443-0.779-0.172-1.77,0.608-2.21
			l10.807-6.139c0.781-0.441,1.77-0.169,2.21,0.607c0.442,0.779,0.169,1.77-0.61,2.21l-10.805,6.139
			C127.083,99.734,126.807,99.803,126.537,99.803z"/>
	</g>
	<g opacity="0.88">
		
			<linearGradient id="SVGID_4_" gradientUnits="userSpaceOnUse" x1="73.291" y1="426.1699" x2="87.2002" y2="426.1699" gradientTransform="matrix(1 0 0 -1 0 521)">
			<stop  offset="0" style="stop-color:#C45B94"/>
			<stop  offset="0.221" style="stop-color:#C55E96"/>
			<stop  offset="0.4561" style="stop-color:#C8669B"/>
			<stop  offset="0.6976" style="stop-color:#DD733E"/>
			<stop  offset="0.9422" style="stop-color:#E2895D"/>
			<stop  offset="1" style="stop-color:#E48F65"/>
		</linearGradient>
		<path fill="url(#SVGID_4_)" d="M85.577,99.642c-0.282,0-0.569-0.073-0.83-0.231l-10.667-6.38
			c-0.768-0.459-1.019-1.456-0.559-2.222c0.461-0.77,1.456-1.02,2.223-0.561l10.668,6.379c0.768,0.461,1.017,1.457,0.558,2.226
			C86.667,99.362,86.128,99.642,85.577,99.642z"/>
	</g>
	<g opacity="0.88">
		
			<linearGradient id="SVGID_5_" gradientUnits="userSpaceOnUse" x1="86.6895" y1="437.0303" x2="95.9702" y2="437.0303" gradientTransform="matrix(1 0 0 -1 0 521)">
			<stop  offset="0" style="stop-color:#C45B94"/>
			<stop  offset="0.221" style="stop-color:#C55E96"/>
			<stop  offset="0.4561" style="stop-color:#C8669B"/>
			<stop  offset="0.6976" style="stop-color:#DD733E"/>
			<stop  offset="0.9422" style="stop-color:#E2895D"/>
			<stop  offset="1" style="stop-color:#E48F65"/>
		</linearGradient>
		<path fill="url(#SVGID_5_)" d="M94.349,91.023c-0.569,0-1.122-0.301-1.417-0.833l-6.037-10.864
			c-0.437-0.784-0.154-1.77,0.631-2.206c0.78-0.435,1.769-0.151,2.203,0.632l6.037,10.863c0.434,0.784,0.153,1.772-0.63,2.203
			C94.886,90.959,94.617,91.023,94.349,91.023z"/>
	</g>
</g>
<g>
	
		<linearGradient id="XMLID_73_" gradientUnits="userSpaceOnUse" x1="261.0977" y1="316.5781" x2="329.7314" y2="316.5781" gradientTransform="matrix(1 0 0 -1 0 521)">
		<stop  offset="0" style="stop-color:#3F65E9"/>
		<stop  offset="0.1" style="stop-color:#4568E8"/>
		<stop  offset="0.6762" style="stop-color:#6474E5"/>
		<stop  offset="1" style="stop-color:#6F79E4"/>
	</linearGradient>
	<path id="XMLID_86_" fill="url(#XMLID_73_)" d="M323.184,181.13c3.6,2.079,6.548,7.181,6.548,11.338v62.693
		c0,1.912-1.228,3.611-3.04,4.213l-4.254-1.362c-1.098,0.365-2.555-1.789-3.561-2.356l-48.01-27.354
		c-3.602-2.079-8.12-8.562-8.12-8.562v-64.092c-2.494-0.285-1.707-2.499-0.582-3.277v-1.599c2.315-1.603,5.346-1.735,7.789-0.34
		L323.184,181.13z"/>
	<path id="XMLID_77_" fill="#404A8B" d="M320.927,182.256c3.602,2.08,6.547,7.184,6.547,11.34v62.501
		c0,4.158-2.945,5.858-6.547,3.779l-54.126-31.25c-3.6-2.079-6.547-7.181-6.547-11.336v-62.501c0-4.158,2.947-5.859,6.547-3.78
		L320.927,182.256z"/>
	
		<linearGradient id="XMLID_75_" gradientUnits="userSpaceOnUse" x1="260.2529" y1="342.4844" x2="327.4727" y2="342.4844" gradientTransform="matrix(1 0 0 -1 0 521)">
		<stop  offset="0" style="stop-color:#C45B94"/>
		<stop  offset="0.299" style="stop-color:#C9689D"/>
		<stop  offset="0.9017" style="stop-color:#E2885B"/>
		<stop  offset="1" style="stop-color:#E48F65"/>
	</linearGradient>
	<path id="XMLID_76_" fill="url(#XMLID_75_)" d="M320.927,182.256L266.8,151.008c-3.6-2.08-6.547-0.378-6.547,3.78v12.449
		l67.22,39.673v-13.315C327.474,189.437,324.527,184.336,320.927,182.256z"/>
	<g id="XMLID_110_">
		<path id="XMLID_74_" fill="#FFFFFF" d="M282.781,208.728c0.636-0.532,0.955-1.22,0.955-2.062c0-0.841-0.275-1.707-0.828-2.595
			c-0.555-0.887-1.266-1.581-2.133-2.082c-1.588-0.919-3.092-0.659-4.513,0.782l-4.514-5.287c1.18-1.146,2.472-1.78,3.882-1.902
			c1.408-0.125,3.201,0.442,5.381,1.705c2.179,1.262,4.093,3.062,5.742,5.402c1.647,2.34,2.474,4.7,2.474,7.083
			c0,1.3-0.332,2.355-0.994,3.163s-1.883,1.623-3.666,2.446l-4.548,2.095l9.964,5.771v5.055l-17.802-10.311v-4.188l7.403-3.295
			C281.078,209.856,282.143,209.262,282.781,208.728z"/>
		<path id="XMLID_111_" fill="#FFFFFF" d="M310.207,214.771v4.874l-9.969-5.771v4.225c0.748,0.216,1.604,0.603,2.563,1.16
			c2.435,1.408,4.526,3.356,6.284,5.843c1.756,2.487,2.637,4.975,2.637,7.466c0,2.493-0.908,4.024-2.727,4.597
			c-1.817,0.574-4.062,0.084-6.734-1.462c-3.419-1.979-6.271-4.895-8.56-8.749l2.961-2.401c0.217,0.342,0.508,0.774,0.867,1.295
			c0.36,0.523,1.021,1.322,1.985,2.397c0.965,1.075,1.928,1.893,2.89,2.449c0.961,0.556,1.817,0.763,2.565,0.619
			c0.744-0.147,1.119-0.784,1.119-1.914c0-1.133-0.404-2.24-1.213-3.322c-0.805-1.082-1.847-1.99-3.122-2.729
			c-1.274-0.739-2.759-1.137-4.442-1.2l-2.347-3.886v-12.316L310.207,214.771z"/>
	</g>
</g>
<g opacity="0.2">
	<path d="M236.397,280.734l3.934-4.131c0.263-0.275,0.251-0.713-0.024-0.976l-0.642-0.61c-0.275-0.265-0.713-0.252-0.977,0.022
		l-7.061,7.421c-0.074,0.077-0.076,0.182-0.107,0.277c-0.25,0.337-0.472,0.695-0.634,1.086c-0.165,0.141-0.332,0.277-0.476,0.445
		l-12.274,13.959c-1.524,1.733-3.465,1.312-4.025,1.143c-0.078-0.025-0.187-0.062-0.307-0.111v-9.085
		c0-8.296-3.923-16.026-10.452-20.946c-0.135-0.621-0.273-1.239-0.409-1.857c4.759-1.973,8.11-6.66,8.11-12.134v-8.412
		c0.106-0.099,0.226-0.208,0.329-0.299c2.444-2.259,3.684-4.494,1.215-7.419c-3.726-4.414-12.44-3.103-17.271-1.554
		c-5.945,1.905-13.4,4.129-14.468,11.316c-0.272,1.821-0.077,3.675-0.067,5.517c0.021,4.242-0.968,8.487-2.858,12.286
		c-2.702,5.432-4,8.893-1.137,14.529h0.002l44.136,25.428c1.318-0.691,2.536-1.623,3.571-2.801l9.818-11.165l1.555-1.769
		c2.715-0.137,4.879-2.358,4.879-5.105C240.756,283.221,238.862,281.113,236.397,280.734z"/>
</g>
<g id="XMLID_18_">
	<g id="XMLID_54_">
		<path id="XMLID_65_" fill="#404A8B" d="M120.681,417.747l-2.934-0.844c-4.768-1.377-9.901-0.489-13.938,2.401l-3.055-2.263
			l-3.111,7.176l-15.024-1.276l3.271,13.343c0.208,0.855,0.859,1.539,1.704,1.784l6.174,1.815c5.144,1.502,10.7,0.161,14.583-3.541
			l13.691-13.042C123.887,421.547,123.129,418.449,120.681,417.747z"/>
		<path id="XMLID_60_" fill="#FFFFFF" d="M120.681,417.747l-2.934-0.844c-4.768-1.377-9.901-0.489-13.938,2.401l-3.055-2.263
			l-3.111,7.176l-15.024-1.276l1.698,6.924c0.752,3.066,3.084,5.508,6.118,6.399l2.636,0.773c5.145,1.513,10.703,0.161,14.584-3.535
			l13.689-13.039c0.506-0.479,0.8-1.063,0.935-1.672C121.879,418.317,121.349,417.938,120.681,417.747z"/>
		<path id="XMLID_59_" fill="#404A8B" d="M99.552,422.779c3.15-2.999,2.305-6.442-1.874-7.65c-4.18-1.201-10.159,0.262-13.285,3.261
			c-3.129,2.992-2.284,6.438,1.875,7.646C90.426,427.247,96.405,425.785,99.552,422.779z"/>
	</g>
	<g id="XMLID_50_">
		<path id="XMLID_53_" fill="#404A8B" d="M141.484,436.812l-2.644-1.519c-4.305-2.468-9.505-2.83-14.112-0.986l-2.428-2.92
			l-4.729,6.229l-14.29-4.817v13.74c0,0.881,0.47,1.695,1.232,2.136l5.564,3.232c4.637,2.688,10.357,2.7,15.007,0.034l16.398-9.405
			C143.694,441.268,143.694,438.08,141.484,436.812z"/>
		<path id="XMLID_52_" fill="#FFFFFF" d="M141.484,436.812l-2.644-1.519c-4.305-2.468-9.505-2.83-14.112-0.986l-2.428-2.92
			l-4.729,6.229l-14.29-4.817v7.126c0,3.165,1.684,6.092,4.42,7.674l2.377,1.38c4.637,2.691,10.357,2.707,15.007,0.035l16.398-9.403
			c0.606-0.346,1.029-0.839,1.304-1.398C142.514,437.657,142.091,437.159,141.484,436.812z"/>
		<path id="XMLID_51_" fill="#404A8B" d="M119.77,436.669c3.772-2.164,3.772-5.704,0-7.87c-3.774-2.164-9.93-2.164-13.679,0
			c-3.751,2.166-3.751,5.706,0,7.87C109.84,438.837,115.996,438.837,119.77,436.669z"/>
	</g>
	<g id="XMLID_48_">
		<path id="XMLID_49_" fill="#ECAF91" d="M112.917,435.874c-2.739,0-4.958-2.22-4.958-4.957v-19.12c0-2.737,2.219-4.957,4.958-4.957
			s4.96,2.22,4.96,4.957v19.12C117.876,433.654,115.656,435.874,112.917,435.874z"/>
	</g>
	<g id="XMLID_46_">
		<path id="XMLID_47_" fill="#ECAF91" d="M91.312,423.238c-2.739,0-4.96-2.223-4.96-4.957v-19.114c0-2.737,2.221-4.961,4.96-4.961
			c2.736,0,4.956,2.224,4.956,4.961v19.114C96.269,421.017,94.049,423.238,91.312,423.238z"/>
	</g>
	<g id="XMLID_44_">
		<path id="XMLID_45_" fill="#FFFFFF" d="M91.316,303.172c-1.958,0-3.861-1.018-4.912-2.835l-10.249-17.745
			c-10.661-18.458-5.915-42.109,11.043-55.024l2.805-2.135c2.491-1.896,6.045-1.413,7.942,1.076
			c1.895,2.492,1.413,6.046-1.077,7.943l-2.801,2.136c-12.434,9.464-15.914,26.807-8.099,40.334l10.249,17.75
			c1.567,2.709,0.64,6.174-2.072,7.738C93.253,302.927,92.28,303.172,91.316,303.172z"/>
	</g>
	<polygon id="XMLID_43_" fill="#3F65E9" points="113.875,331.925 85.712,314.223 85.712,278.395 114.681,278.395 	"/>
	<g id="XMLID_41_">
		<path id="XMLID_42_" fill="#3F65E9" d="M112.926,430.323c-0.214,0-0.428-0.006-0.645-0.026c-4.291-0.348-7.481-4.114-7.13-8.405
			l4.207-51.261l-6.342-66.972c-0.27-4.293,5.119-7.995,9.411-8.267c4.29-0.268,7.999,2.993,8.269,7.289l4.284,68.096l-4.294,52.39
			C120.351,427.241,116.942,430.323,112.926,430.323z"/>
	</g>
	<path id="XMLID_40_" opacity="0.2" fill="#ECAF91" enable-background="new    " d="M120.694,302.682
		c-0.27-4.295-3.979-7.556-8.269-7.289c-0.172,0.014-0.35,0.037-0.529,0.062c3.602,0.487,6.488,3.46,6.725,7.229l4.283,68.097
		l-4.294,52.389c-0.304,3.718-3.175,6.578-6.723,7.061c0.134,0.018,0.255,0.061,0.393,0.069c0.217,0.021,0.431,0.026,0.645,0.026
		c4.016,0,7.425-3.082,7.758-7.156l4.294-52.389L120.694,302.682z"/>
	<g id="XMLID_38_">
		<path id="XMLID_39_" fill="#3F65E9" d="M91.319,420.127c-0.119,0-0.238-0.008-0.359-0.014c-4.298-0.19-7.628-3.837-7.435-8.133
			l2.115-46.776l-2.118-74.849c-0.123-4.299,3.267-7.888,7.569-8.01c4.28-0.15,10.013,3.269,10.134,7.569l0.006,75.421l-0.012,0.284
			l-2.124,47.062C98.907,416.859,95.46,420.127,91.319,420.127z"/>
	</g>
	<g id="XMLID_36_">
		<path id="XMLID_37_" opacity="0.56" fill="#ECAF91" enable-background="new    " d="M86.404,300.337
			c1.051,1.817,2.954,2.835,4.912,2.835c0.964,0,1.937-0.245,2.829-0.762c2.712-1.564,3.64-5.029,2.072-7.738l-10.249-17.75
			c-1.696-2.933-2.827-6.052-3.484-9.229c0.053,5.162-0.243,10.32-0.941,15.437l-0.779,7.443L86.404,300.337z"/>
	</g>
	<path id="XMLID_35_" fill="#FFFFFF" d="M82.021,197.855l24.463,14.122c10.848,6.266,17.53,17.841,17.53,30.365v69.654
		c-9.931,6.954-36.658-2.73-41.993-13.619l1.595-15.247c0.826-6.05,1.123-12.157,0.897-18.257L82.021,197.855z"/>
	<path id="XMLID_34_" fill="#F0C0A8" d="M99.761,213.207h-8.24v-33.275h28.82v12.695
		C120.341,203.995,111.126,213.207,99.761,213.207z"/>
	<path id="XMLID_33_" fill="#F0C0A8" d="M102.871,218.742h-3.444c-2.375,0-4.3-1.927-4.3-4.303v-19.798h12.047v19.798
		C107.173,216.815,105.249,218.742,102.871,218.742z"/>
	<path id="XMLID_32_" opacity="0.56" fill="#ECAF91" enable-background="new    " d="M124.014,257.591
		c-0.993-0.4-2.855-1.492-3.194-4.121l-2.281-17.688c-0.402-3.106-3.243-5.292-6.35-4.896c-3.101,0.398-4.335,3.524-3.937,6.629
		l1.326,17.404c0.838,6.51,5.259,11.745,11.536,13.662c0.964,0.296,1.933,0.471,2.899,0.59L124.014,257.591L124.014,257.591z"/>
	<g id="XMLID_30_">
		<path id="XMLID_31_" fill="#FFFFFF" d="M126.022,266.211c-1.626,0-3.278-0.242-4.907-0.736
			c-6.277-1.922-10.697-7.157-11.536-13.664l-2.284-17.689c-0.399-3.106,1.793-5.945,4.895-6.346
			c3.106-0.394,5.948,1.792,6.35,4.894l2.281,17.693c0.396,3.061,2.861,4.042,3.605,4.269c0.75,0.228,3.34,0.79,5.378-1.527
			l16.401-18.652c2.067-2.348,5.649-2.58,7.999-0.516c2.35,2.067,2.579,5.65,0.514,8l-16.401,18.653
			C135.108,264.238,130.66,266.211,126.022,266.211z"/>
	</g>
	<g id="XMLID_28_">
		<path id="XMLID_29_" fill="#F0C0A8" d="M143.501,237.527l2.704-3.076c2.067-2.348,5.649-2.58,7.999-0.516
			c2.35,2.067,2.579,5.65,0.514,8l-3.283,3.733L143.501,237.527z"/>
	</g>
	<circle id="XMLID_27_" fill="#F0C0A8" cx="153.175" cy="236.483" r="6.858"/>
	<path id="XMLID_26_" fill="#F0C0A8" d="M159.353,224.323l-9.215,9.686c-0.415,0.43-1.098,0.449-1.528,0.036l-0.629-0.595
		c-0.434-0.414-0.449-1.099-0.038-1.529l9.216-9.685c0.412-0.433,1.096-0.449,1.53-0.035l0.627,0.593
		C159.748,223.208,159.766,223.892,159.353,224.323z"/>
	<path id="XMLID_24_" fill="#303768" d="M122.403,174.102c-4.977-5.898-16.622-4.144-23.077-2.077
		c-7.945,2.545-17.905,5.518-19.337,15.122c-0.363,2.434-0.101,4.912-0.089,7.372c0.026,5.669-1.291,11.346-3.819,16.419
		c-3.612,7.258-5.346,11.883-1.517,19.414c2.263,4.46,3.712,11.4,8.338,14.141c4.761,2.819,14.845,4.574,19.402,1.12
		c6.351-4.816,9.554-16.473,8.971-23.961c-0.627-8.085-4.667-16.24-2.215-23.967c1.534-4.84,8.039-10.272,11.718-13.668
		C124.047,180.996,125.704,178.013,122.403,174.102z"/>
	<g opacity="0.2">
		<path fill="#ECAF91" d="M122.403,174.102c-2.918-3.46-8.132-4.251-13.246-3.926c3.828,0.234,7.399,1.291,9.625,3.926
			c3.299,3.912,1.642,6.895-1.624,9.914c-3.68,3.396-10.185,8.828-11.719,13.668c-2.452,7.727,1.589,15.882,2.215,23.967
			c0.583,7.489-2.621,19.145-8.971,23.961c-1.456,1.1-3.492,1.626-5.72,1.805c3.588,0.312,7.121-0.124,9.34-1.805
			c6.351-4.816,9.554-16.473,8.971-23.961c-0.627-8.085-4.667-16.24-2.215-23.967c1.534-4.84,8.039-10.272,11.718-13.668
			C124.047,180.996,125.704,178.013,122.403,174.102z"/>
	</g>
</g>
</svg>
