<?xml version="1.0" encoding="utf-8"?>
<!-- Generator: Adobe Illustrator 16.0.0, SVG Export Plug-In . SVG Version: 6.00 Build 0)  -->
<!DOCTYPE svg PUBLIC "-//W3C//DTD SVG 1.1 Basic//EN" "http://www.w3.org/Graphics/SVG/1.1/DTD/svg11-basic.dtd">
<svg version="1.1" baseProfile="basic" id="Layer_1"
	 xmlns="http://www.w3.org/2000/svg" xmlns:xlink="http://www.w3.org/1999/xlink" x="0px" y="0px" width="500px" height="500px"
	 viewBox="0 0 500 500" xml:space="preserve">
<g>
	
		<linearGradient id="XMLID_7_" gradientUnits="userSpaceOnUse" x1="304.4258" y1="512.5117" x2="481.0586" y2="512.5117" gradientTransform="matrix(1 0 0 1 0 -291)">
		<stop  offset="0" style="stop-color:#586DA8"/>
		<stop  offset="0.1676" style="stop-color:#6377AE"/>
		<stop  offset="0.7004" style="stop-color:#7D8EBB"/>
		<stop  offset="1" style="stop-color:#8695C0"/>
	</linearGradient>
	<path id="XMLID_171_" fill="url(#XMLID_7_)" d="M477.365,202.045l-167.838-96.9c-2.268-1.308-5.102,0.328-5.102,2.945v126.488
		c0,2.64,1.408,5.081,3.695,6.401l167.834,96.9c2.268,1.311,5.104-0.328,5.104-2.945V208.447
		C481.061,205.805,479.652,203.366,477.365,202.045z"/>
	<path id="XMLID_170_" fill="#375097" d="M475.197,203.491l-167.838-96.9c-2.271-1.309-5.104,0.327-5.104,2.946v126.486
		c0,2.64,1.412,5.081,3.697,6.402l167.836,96.899c2.268,1.311,5.104-0.327,5.104-2.943V209.894
		C478.893,207.252,477.482,204.812,475.197,203.491z"/>
	
		<linearGradient id="XMLID_8_" gradientUnits="userSpaceOnUse" x1="308.8652" y1="412.4785" x2="467.0223" y2="611.3585" gradientTransform="matrix(1 0 0 1 0 -291)">
		<stop  offset="0" style="stop-color:#F0A888"/>
		<stop  offset="0.1559" style="stop-color:#F0A482"/>
		<stop  offset="0.3726" style="stop-color:#ED956E"/>
		<stop  offset="0.625" style="stop-color:#D868AE"/>
		<stop  offset="0.9023" style="stop-color:#EB72D1"/>
		<stop  offset="1" style="stop-color:#E967CD"/>
	</linearGradient>
	<polygon id="XMLID_169_" fill="url(#XMLID_8_)" points="468.947,211.482 311.012,119.772 311.012,235.475 468.947,327.186 	"/>
	
		<linearGradient id="XMLID_9_" gradientUnits="userSpaceOnUse" x1="187.9058" y1="620.2754" x2="476.2256" y2="620.2754" gradientTransform="matrix(1 0 0 1 0 -291)">
		<stop  offset="0" style="stop-color:#586DA8"/>
		<stop  offset="0.1676" style="stop-color:#6377AE"/>
		<stop  offset="0.7004" style="stop-color:#7D8EBB"/>
		<stop  offset="1" style="stop-color:#8695C0"/>
	</linearGradient>
	<path id="XMLID_168_" fill="url(#XMLID_9_)" d="M295.453,248.519l-107.479,56.694c0,0-0.591,8.393,1.703,9.717l164.671,95.072
		c4.201,2.429,9.379,2.439,13.596,0.029l105.762-60.457c4.373-2.715,1.729-9.736,1.729-9.736l-166.387-91.289
		C304.842,246.121,299.666,246.111,295.453,248.519z"/>
	<path id="XMLID_167_" fill="#4B62A1" d="M295.453,242.012L189.69,302.471c-2.3,1.314-2.308,4.629-0.014,5.952l164.671,95.071
		c4.201,2.429,9.379,2.438,13.596,0.03l105.762-60.458c2.301-1.314,2.309-4.627,0.016-5.952l-164.672-95.072
		C304.842,239.614,299.666,239.604,295.453,242.012z"/>
	<path id="XMLID_165_" fill="#7082B4" d="M286.074,320.297l-27.875,15.938c-0.607,0.348-0.607,1.221-0.004,1.568l43.402,25.059
		c1.107,0.642,2.475,0.645,3.586,0.01l27.875-15.936c0.604-0.348,0.605-1.223,0.004-1.569l-43.404-25.06
		C288.551,319.666,287.186,319.663,286.074,320.297z"/>
	<path id="XMLID_164_" fill="#375097" d="M307.113,251.248l9.111,5.262c0.363,0.21,0.363,0.732,0,0.942l-4.525,2.601
		c-0.363,0.211-0.811,0.207-1.172-0.002l-9.113-5.26c-0.361-0.21-0.361-0.732,0-0.941l4.529-2.602
		C306.307,251.039,306.75,251.039,307.113,251.248z"/>
	<path id="XMLID_163_" fill="#375097" d="M320.467,259.203l9.111,5.26c0.361,0.21,0.361,0.734,0,0.942l-4.527,2.603
		c-0.363,0.208-0.811,0.208-1.172-0.001l-9.113-5.261c-0.361-0.209-0.361-0.734,0-0.941l4.529-2.604
		C319.656,258.993,320.104,258.993,320.467,259.203z"/>
	<path id="XMLID_162_" fill="#375097" d="M333.867,266.732l9.109,5.261c0.363,0.21,0.363,0.733,0,0.942l-4.523,2.604
		c-0.365,0.207-0.812,0.207-1.174-0.002l-9.113-5.262c-0.361-0.209-0.361-0.733,0-0.94l4.527-2.604
		C333.059,266.523,333.504,266.523,333.867,266.732z"/>
	<path id="XMLID_161_" fill="#375097" d="M347.672,274.511l9.113,5.261c0.361,0.209,0.361,0.731-0.004,0.941l-4.525,2.602
		c-0.363,0.211-0.809,0.211-1.174,0l-9.111-5.26c-0.359-0.212-0.359-0.734,0.002-0.943l4.525-2.603
		C346.861,274.3,347.309,274.302,347.672,274.511z"/>
	<path id="XMLID_48_" fill="#375097" d="M360.934,281.902l9.111,5.26c0.363,0.21,0.363,0.734,0,0.941l-4.525,2.604
		c-0.361,0.208-0.812,0.208-1.174-0.002l-9.109-5.26c-0.363-0.211-0.363-0.734,0-0.942l4.525-2.603
		C360.123,281.691,360.57,281.691,360.934,281.902z"/>
	<path id="XMLID_47_" fill="#375097" d="M373.828,289.855l9.111,5.262c0.363,0.21,0.359,0.732-0.004,0.941l-4.523,2.602
		c-0.363,0.21-0.812,0.21-1.174-0.002l-9.111-5.26c-0.363-0.211-0.361-0.732,0.002-0.941l4.525-2.602
		C373.018,289.646,373.465,289.646,373.828,289.855z"/>
	<path id="XMLID_46_" fill="#375097" d="M387.326,297.298l9.113,5.263c0.359,0.209,0.359,0.731,0,0.941l-4.525,2.602
		c-0.365,0.209-0.812,0.209-1.176,0l-9.113-5.263c-0.359-0.209-0.359-0.731,0.002-0.94l4.525-2.603
		C386.518,297.088,386.965,297.088,387.326,297.298z"/>
	<path id="XMLID_148_" fill="#375097" d="M400.625,305.217l9.111,5.262c0.361,0.209,0.361,0.732,0,0.94l-4.525,2.603
		c-0.365,0.209-0.811,0.209-1.174,0l-9.113-5.262c-0.361-0.209-0.361-0.734,0-0.941l4.529-2.603
		C399.816,305.008,400.262,305.008,400.625,305.217z"/>
	<path id="XMLID_147_" fill="#375097" d="M413.701,312.934l9.113,5.262c0.361,0.209,0.359,0.732,0,0.941l-4.525,2.602
		c-0.365,0.211-0.812,0.211-1.176-0.002l-9.111-5.26c-0.361-0.211-0.361-0.73,0-0.94l4.527-2.603
		C412.893,312.725,413.34,312.725,413.701,312.934z"/>
	<path id="XMLID_146_" fill="#375097" d="M427.488,320.877l9.109,5.26c0.363,0.211,0.361,0.733-0.002,0.941l-4.523,2.604
		c-0.363,0.209-0.812,0.209-1.174-0.002l-9.111-5.26c-0.361-0.211-0.361-0.734,0.002-0.941l4.525-2.604
		C426.678,320.667,427.125,320.667,427.488,320.877z"/>
	<path id="XMLID_145_" fill="#375097" d="M440.877,328.389l9.113,5.262c0.359,0.209,0.359,0.732-0.004,0.94l-4.525,2.603
		c-0.363,0.209-0.809,0.209-1.172,0l-9.113-5.262c-0.361-0.209-0.359-0.732,0.002-0.939l4.525-2.604
		C440.068,328.18,440.514,328.18,440.877,328.389z"/>
	<g id="XMLID_133_">
		<path id="XMLID_144_" fill="#375097" d="M288.578,261.162l6.174-3.614c0.801-0.469,1.793-0.473,2.598-0.009l6.029,3.48
			c0.842,0.486,0.859,1.696,0.031,2.207l-5.998,3.681c-0.809,0.495-1.82,0.511-2.641,0.036l-6.188-3.562
			C287.732,262.893,287.729,261.658,288.578,261.162z"/>
		<path id="XMLID_143_" fill="#375097" d="M302.402,269.115l6.174-3.614c0.799-0.469,1.791-0.472,2.594-0.009l6.031,3.48
			c0.844,0.486,0.857,1.696,0.031,2.209l-5.998,3.68c-0.807,0.494-1.818,0.51-2.641,0.037l-6.186-3.562
			C301.557,270.845,301.553,269.614,302.402,269.115z"/>
		<path id="XMLID_142_" fill="#375097" d="M315.82,276.646l6.176-3.614c0.801-0.47,1.791-0.472,2.596-0.009l6.027,3.479
			c0.846,0.486,0.861,1.698,0.033,2.209l-5.996,3.681c-0.809,0.496-1.822,0.51-2.643,0.037l-6.186-3.562
			C314.979,278.375,314.971,277.145,315.82,276.646z"/>
		<path id="XMLID_141_" fill="#375097" d="M330.1,284.423l6.174-3.614c0.803-0.469,1.793-0.473,2.598-0.008l6.031,3.481
			c0.842,0.485,0.855,1.696,0.027,2.206l-5.996,3.683c-0.809,0.494-1.82,0.509-2.643,0.035l-6.186-3.562
			C329.252,286.152,329.248,284.922,330.1,284.423z"/>
		<path id="XMLID_140_" fill="#375097" d="M342.676,291.814l6.176-3.614c0.801-0.47,1.791-0.474,2.598-0.009l6.027,3.479
			c0.844,0.486,0.859,1.697,0.029,2.206l-5.996,3.684c-0.805,0.494-1.816,0.508-2.639,0.035l-6.188-3.562
			C341.83,293.544,341.824,292.312,342.676,291.814z"/>
		<path id="XMLID_139_" fill="#375097" d="M355.459,299.729l6.172-3.614c0.801-0.472,1.793-0.474,2.596-0.009l6.031,3.48
			c0.842,0.487,0.859,1.697,0.029,2.206l-5.996,3.681c-0.809,0.496-1.82,0.51-2.641,0.039l-6.188-3.562
			C354.613,301.457,354.605,300.227,355.459,299.729z"/>
		<path id="XMLID_138_" fill="#375097" d="M369.113,307.212l6.172-3.614c0.803-0.471,1.795-0.473,2.6-0.009l6.029,3.481
			c0.842,0.486,0.859,1.697,0.029,2.207l-5.996,3.68c-0.811,0.497-1.822,0.511-2.643,0.037l-6.184-3.562
			C368.268,308.941,368.262,307.71,369.113,307.212z"/>
		<path id="XMLID_137_" fill="#375097" d="M382.477,314.788l6.178-3.614c0.801-0.469,1.793-0.474,2.596-0.008l6.029,3.48
			c0.844,0.485,0.857,1.696,0.027,2.205l-5.996,3.682c-0.807,0.496-1.818,0.51-2.639,0.037l-6.186-3.562
			C381.631,316.518,381.627,315.287,382.477,314.788z"/>
		<path id="XMLID_136_" fill="#375097" d="M395.619,322.848l6.172-3.615c0.801-0.467,1.793-0.471,2.598-0.008l6.029,3.481
			c0.842,0.487,0.859,1.696,0.031,2.205l-5.998,3.681c-0.811,0.497-1.82,0.512-2.643,0.038l-6.184-3.562
			C394.771,324.575,394.768,323.344,395.619,322.848z"/>
		<path id="XMLID_135_" fill="#375097" d="M409.934,331.279l6.176-3.614c0.803-0.472,1.793-0.474,2.598-0.011l6.027,3.481
			c0.846,0.486,0.857,1.696,0.029,2.206l-5.994,3.682c-0.809,0.494-1.82,0.512-2.643,0.039l-6.186-3.562
			C409.088,333.007,409.084,331.775,409.934,331.279z"/>
		<path id="XMLID_134_" fill="#375097" d="M422.879,338.301l6.176-3.613c0.803-0.471,1.791-0.472,2.598-0.01l6.027,3.483
			c0.846,0.487,0.859,1.696,0.031,2.207l-5.998,3.68c-0.805,0.495-1.818,0.509-2.639,0.038l-6.188-3.562
			C422.035,340.029,422.031,338.8,422.879,338.301z"/>
	</g>
	<g id="XMLID_120_">
		<path id="XMLID_132_" fill="#375097" d="M274.824,268.643l6.174-3.615c0.801-0.469,1.791-0.471,2.594-0.008l6.031,3.481
			c0.844,0.487,0.859,1.695,0.029,2.206l-5.994,3.682c-0.809,0.493-1.82,0.508-2.641,0.036l-6.188-3.562
			C273.979,270.37,273.975,269.139,274.824,268.643z"/>
		<path id="XMLID_131_" fill="#375097" d="M288.646,276.596l6.176-3.613c0.799-0.469,1.791-0.474,2.594-0.01l6.031,3.481
			c0.842,0.485,0.857,1.698,0.031,2.206l-6,3.681c-0.807,0.497-1.818,0.511-2.641,0.038l-6.186-3.562
			C287.799,278.325,287.795,277.095,288.646,276.596z"/>
		<path id="XMLID_130_" fill="#375097" d="M302.066,284.126l6.176-3.614c0.801-0.469,1.791-0.473,2.596-0.009l6.027,3.481
			c0.846,0.484,0.859,1.697,0.031,2.207l-5.996,3.682c-0.809,0.495-1.82,0.509-2.641,0.036l-6.188-3.562
			C301.221,285.855,301.217,284.625,302.066,284.126z"/>
		<path id="XMLID_129_" fill="#375097" d="M316.344,291.902l6.174-3.613c0.805-0.471,1.793-0.473,2.598-0.008l6.027,3.48
			c0.848,0.485,0.859,1.696,0.029,2.205l-5.996,3.682c-0.805,0.494-1.816,0.512-2.639,0.037l-6.188-3.562
			C315.498,293.632,315.494,292.402,316.344,291.902z"/>
		<path id="XMLID_128_" fill="#375097" d="M328.922,299.295l6.172-3.613c0.805-0.471,1.795-0.475,2.602-0.01l6.027,3.48
			c0.844,0.486,0.857,1.697,0.029,2.207l-5.996,3.681c-0.809,0.497-1.822,0.511-2.641,0.037l-6.186-3.562
			C328.076,301.023,328.07,299.793,328.922,299.295z"/>
		<path id="XMLID_127_" fill="#375097" d="M341.701,307.208l6.176-3.616c0.801-0.469,1.789-0.471,2.594-0.009l6.029,3.483
			c0.846,0.485,0.861,1.697,0.031,2.207l-5.996,3.68c-0.809,0.494-1.82,0.508-2.641,0.037l-6.186-3.562
			C340.855,308.936,340.852,307.705,341.701,307.208z"/>
		<path id="XMLID_126_" fill="#375097" d="M355.357,314.693l6.174-3.615c0.803-0.471,1.793-0.473,2.596-0.012l6.031,3.482
			c0.844,0.484,0.857,1.695,0.029,2.206l-5.996,3.683c-0.809,0.494-1.82,0.508-2.643,0.037l-6.186-3.562
			C354.514,316.421,354.508,315.188,355.357,314.693z"/>
		<path id="XMLID_125_" fill="#375097" d="M368.723,322.27l6.176-3.615c0.801-0.471,1.789-0.473,2.596-0.01l6.031,3.482
			c0.842,0.486,0.857,1.697,0.027,2.207l-5.996,3.68c-0.807,0.494-1.818,0.512-2.643,0.037l-6.184-3.562
			C367.877,323.996,367.871,322.766,368.723,322.27z"/>
		<path id="XMLID_124_" fill="#375097" d="M381.863,330.328l6.174-3.617c0.801-0.468,1.791-0.471,2.594-0.006l6.031,3.48
			c0.844,0.484,0.859,1.695,0.029,2.207l-5.994,3.68c-0.811,0.494-1.82,0.509-2.643,0.037l-6.186-3.562
			C381.018,332.055,381.014,330.824,381.863,330.328z"/>
		<path id="XMLID_122_" fill="#375097" d="M396.18,338.758l6.174-3.613c0.801-0.471,1.791-0.472,2.598-0.01l6.027,3.483
			c0.848,0.483,0.859,1.694,0.029,2.204l-5.996,3.683c-0.805,0.495-1.816,0.509-2.639,0.035l-6.188-3.562
			C395.334,340.486,395.33,339.256,396.18,338.758z"/>
		<path id="XMLID_121_" fill="#375097" d="M409.125,345.782l6.174-3.616c0.801-0.468,1.793-0.473,2.596-0.007l6.029,3.479
			c0.844,0.486,0.859,1.696,0.031,2.207l-5.996,3.682c-0.809,0.496-1.818,0.51-2.641,0.037l-6.188-3.562
			C408.277,347.511,408.273,346.279,409.125,345.782z"/>
	</g>
	<g id="XMLID_92_">
		<path id="XMLID_119_" fill="#375097" d="M261.066,276.121l6.176-3.614c0.801-0.469,1.793-0.474,2.596-0.008l6.031,3.479
			c0.842,0.486,0.859,1.696,0.029,2.207l-5.996,3.683c-0.807,0.493-1.82,0.509-2.641,0.034l-6.188-3.562
			C260.221,277.852,260.219,276.619,261.066,276.121z"/>
		<path id="XMLID_118_" fill="#375097" d="M274.893,284.076l6.174-3.614c0.803-0.471,1.793-0.473,2.596-0.011l6.029,3.482
			c0.846,0.485,0.859,1.697,0.029,2.207l-5.996,3.68c-0.807,0.494-1.82,0.512-2.639,0.039l-6.186-3.563
			C274.045,285.805,274.041,284.573,274.893,284.076z"/>
		<path id="XMLID_117_" fill="#375097" d="M288.311,291.605l6.176-3.613c0.803-0.471,1.791-0.473,2.598-0.008l6.027,3.479
			c0.844,0.486,0.861,1.698,0.029,2.207l-5.994,3.682c-0.809,0.496-1.82,0.51-2.643,0.037l-6.186-3.562
			C287.467,293.336,287.461,292.105,288.311,291.605z"/>
		<path id="XMLID_116_" fill="#375097" d="M302.59,299.385l6.172-3.615c0.801-0.471,1.793-0.473,2.6-0.01l6.027,3.481
			c0.844,0.485,0.859,1.696,0.029,2.208l-5.996,3.681c-0.807,0.494-1.82,0.509-2.641,0.036l-6.184-3.562
			C301.742,301.111,301.738,299.881,302.59,299.385z"/>
		<path id="XMLID_115_" fill="#375097" d="M315.168,306.775l6.172-3.614c0.803-0.472,1.791-0.474,2.598-0.009l6.029,3.479
			c0.844,0.487,0.859,1.696,0.029,2.207L324,312.52c-0.807,0.496-1.82,0.513-2.639,0.039l-6.188-3.562
			C314.322,308.502,314.316,307.271,315.168,306.775z"/>
		<path id="XMLID_98_" fill="#375097" d="M327.947,314.688l6.174-3.614c0.801-0.47,1.791-0.474,2.596-0.009l6.029,3.48
			c0.842,0.487,0.855,1.697,0.029,2.208l-5.994,3.681c-0.811,0.496-1.82,0.51-2.645,0.035l-6.184-3.561
			C327.102,316.415,327.096,315.186,327.947,314.688z"/>
		<path id="XMLID_97_" fill="#375097" d="M341.604,322.171l6.174-3.614c0.803-0.469,1.793-0.474,2.598-0.008l6.029,3.48
			c0.844,0.486,0.857,1.697,0.029,2.205l-5.996,3.684c-0.809,0.494-1.82,0.51-2.643,0.036l-6.184-3.562
			C340.758,323.9,340.752,322.67,341.604,322.171z"/>
		<path id="XMLID_96_" fill="#375097" d="M354.967,329.747l6.174-3.614c0.805-0.469,1.793-0.471,2.6-0.008l6.029,3.48
			c0.844,0.485,0.855,1.695,0.027,2.207l-5.998,3.683c-0.805,0.494-1.816,0.508-2.639,0.034l-6.188-3.562
			C354.121,331.479,354.117,330.245,354.967,329.747z"/>
		<path id="XMLID_95_" fill="#375097" d="M368.109,337.807l6.172-3.613c0.801-0.471,1.793-0.475,2.596-0.01l6.031,3.48
			c0.842,0.486,0.857,1.697,0.029,2.207l-5.996,3.684c-0.809,0.493-1.82,0.508-2.643,0.034l-6.186-3.562
			C367.26,339.536,367.258,338.305,368.109,337.807z"/>
		<path id="XMLID_94_" fill="#375097" d="M382.424,346.239l6.174-3.616c0.803-0.468,1.793-0.473,2.6-0.007l6.027,3.479
			c0.844,0.486,0.857,1.696,0.029,2.207l-5.996,3.682c-0.807,0.494-1.819,0.51-2.641,0.037l-6.188-3.563
			C381.578,347.968,381.574,346.736,382.424,346.239z"/>
		<path id="XMLID_93_" fill="#375097" d="M395.369,353.262l6.174-3.613c0.801-0.471,1.795-0.475,2.598-0.01l6.029,3.482
			c0.842,0.484,0.859,1.697,0.029,2.205l-5.996,3.681c-0.809,0.497-1.82,0.511-2.639,0.038l-6.188-3.562
			C394.523,354.991,394.52,353.761,395.369,353.262z"/>
	</g>
	<g id="XMLID_78_">
		<path id="XMLID_91_" fill="#375097" d="M247.313,283.602l6.175-3.612c0.801-0.472,1.791-0.474,2.596-0.009l6.029,3.479
			c0.844,0.487,0.859,1.697,0.029,2.206l-5.996,3.682c-0.807,0.495-1.82,0.51-2.641,0.036l-6.186-3.562
			C246.467,285.331,246.463,284.1,247.313,283.602z"/>
		<path id="XMLID_90_" fill="#375097" d="M261.139,291.555l6.174-3.613c0.799-0.469,1.789-0.471,2.596-0.01l6.029,3.481
			c0.844,0.487,0.857,1.696,0.029,2.206l-5.996,3.683c-0.809,0.495-1.82,0.509-2.643,0.036l-6.182-3.562
			C260.291,293.284,260.287,292.055,261.139,291.555z"/>
		<path id="XMLID_85_" fill="#375097" d="M274.557,299.085l6.174-3.614c0.805-0.469,1.791-0.473,2.598-0.009l6.027,3.481
			c0.846,0.485,0.859,1.697,0.031,2.209l-5.998,3.68c-0.805,0.494-1.816,0.51-2.639,0.036l-6.186-3.562
			C273.711,300.814,273.707,299.584,274.557,299.085z"/>
		<path id="XMLID_84_" fill="#375097" d="M288.834,306.863l6.174-3.614c0.801-0.47,1.791-0.474,2.598-0.009l6.027,3.48
			c0.844,0.485,0.859,1.696,0.031,2.204l-5.998,3.685c-0.805,0.496-1.818,0.51-2.639,0.035l-6.188-3.562
			C287.988,308.592,287.984,307.361,288.834,306.863z"/>
		<path id="XMLID_83_" fill="#375097" d="M302.59,315.073l6.172-3.614c0.801-0.471,1.793-0.473,2.6-0.008l31.387,18.128
			c0.842,0.487,0.855,1.696,0.029,2.207l-5.994,3.68c-0.811,0.497-1.82,0.511-2.645,0.039l-31.541-18.211
			C301.742,316.803,301.738,315.572,302.59,315.073z"/>
		<path id="XMLID_82_" fill="#375097" d="M341.213,337.229l6.174-3.614c0.799-0.47,1.791-0.474,2.598-0.009l6.027,3.481
			c0.848,0.485,0.859,1.697,0.031,2.205l-5.998,3.683c-0.807,0.494-1.818,0.51-2.639,0.037l-6.188-3.562
			C340.367,338.957,340.361,337.727,341.213,337.229z"/>
		<path id="XMLID_81_" fill="#375097" d="M354.352,345.286l6.178-3.614c0.801-0.468,1.793-0.472,2.596-0.007l6.029,3.479
			c0.844,0.486,0.857,1.696,0.027,2.205l-5.996,3.682c-0.805,0.496-1.818,0.512-2.639,0.037l-6.186-3.562
			C353.506,347.016,353.502,345.783,354.352,345.286z"/>
		<path id="XMLID_80_" fill="#375097" d="M368.67,353.719l6.174-3.613c0.799-0.472,1.791-0.475,2.596-0.01l6.029,3.481
			c0.846,0.485,0.859,1.696,0.029,2.206l-5.996,3.681c-0.807,0.494-1.818,0.511-2.639,0.038l-6.188-3.562
			C367.824,355.445,367.816,354.216,368.67,353.719z"/>
		<path id="XMLID_79_" fill="#375097" d="M381.615,360.743l6.174-3.617c0.801-0.47,1.791-0.472,2.596-0.009l6.031,3.482
			c0.842,0.486,0.859,1.695,0.029,2.207l-5.996,3.68c-0.811,0.496-1.82,0.51-2.645,0.039l-6.184-3.562
			C380.768,362.471,380.764,361.239,381.615,360.743z"/>
	</g>
</g>
<g id="XMLID_435_">
	
		<linearGradient id="XMLID_10_" gradientUnits="userSpaceOnUse" x1="339.377" y1="490.9766" x2="497.3125" y2="490.9766" gradientTransform="matrix(1 0 0 1 0 -291)">
		<stop  offset="0" style="stop-color:#586DA8"/>
		<stop  offset="0.1676" style="stop-color:#6377AE"/>
		<stop  offset="0.7004" style="stop-color:#7D8EBB"/>
		<stop  offset="1" style="stop-color:#8695C0"/>
	</linearGradient>
	<path id="XMLID_28_" fill="url(#XMLID_10_)" d="M497.312,194.114c0-3.374-2.389-7.521-5.307-9.214L344.68,99.351
		c-2.918-1.694-5.303-0.319-5.303,3.054v103.437c0,3.373,2.385,7.519,5.303,9.213l147.328,85.548
		c2.918,1.692,5.305,0.32,5.305-3.053V194.114L497.312,194.114z"/>
	<path id="XMLID_6_" fill="#4B62A1" d="M496.291,195.136c0-3.375-2.387-7.519-5.305-9.214l-147.33-85.549
		c-2.916-1.693-5.305-0.319-5.305,3.054v103.436c0,3.374,2.389,7.52,5.305,9.213l147.33,85.549c2.918,1.693,5.305,0.32,5.305-3.055
		V195.136L496.291,195.136z"/>
	<path id="XMLID_420_" fill="#375097" d="M387.467,125.512l-43.811-25.139c-2.916-1.693-5.305-0.319-5.305,3.054v103.438
		c0,3.374,2.389,7.52,5.305,9.213l43.811,25.14V125.512z"/>
	<path id="XMLID_421_" fill="#FFFFFF" d="M349.207,110.745c-1.008-0.581-1.832-0.103-1.832,1.063c0,1.165,0.826,2.595,1.834,3.179
		c1.012,0.583,1.834,0.104,1.832-1.063C351.037,112.757,350.211,111.327,349.207,110.745z"/>
	<path id="XMLID_422_" fill="#FFFFFF" d="M354.299,113.591c-1.006-0.582-1.83-0.104-1.83,1.062s0.826,2.596,1.836,3.178
		c1.012,0.582,1.834,0.105,1.83-1.062S355.307,114.171,354.299,113.591z"/>
	<path id="XMLID_424_" fill="#FFFFFF" d="M359.393,116.435c-1.006-0.582-1.826-0.103-1.826,1.062c0,1.166,0.824,2.596,1.832,3.179
		c1.01,0.583,1.834,0.105,1.83-1.062S360.398,117.017,359.393,116.435z"/>
	<polygon id="XMLID_423_" fill="#7082B4" points="395.549,170.432 424.605,187.208 424.605,193.918 395.549,177.029 	"/>
	<polygon id="XMLID_425_" fill="#7082B4" points="395.549,181.676 442.494,208.794 442.494,215.505 395.549,188.273 	"/>
	<polygon id="XMLID_430_" fill="#7082B4" points="395.549,215.409 454.08,249.239 454.08,255.95 395.549,222.006 	"/>
	<polygon id="XMLID_427_" fill="#7082B4" points="427.918,189.256 484.236,221.623 484.236,228.334 427.918,195.854 	"/>
	
		<linearGradient id="XMLID_11_" gradientUnits="userSpaceOnUse" x1="346.0996" y1="450.2363" x2="376.3574" y2="450.2363" gradientTransform="matrix(1 0 0 1 0 -291)">
		<stop  offset="0" style="stop-color:#F0A888"/>
		<stop  offset="0.1559" style="stop-color:#F0A482"/>
		<stop  offset="0.3726" style="stop-color:#ED956E"/>
		<stop  offset="0.625" style="stop-color:#D868AE"/>
		<stop  offset="0.9023" style="stop-color:#EB72D1"/>
		<stop  offset="1" style="stop-color:#E967CD"/>
	</linearGradient>
	<path id="XMLID_432_" fill="url(#XMLID_11_)" d="M361.207,141.726c-8.309-4.797-15.107-0.85-15.107,8.772
		c0,9.621,6.818,21.429,15.15,26.24c8.334,4.81,15.131,0.864,15.107-8.771C376.334,158.331,369.516,146.523,361.207,141.726z"/>
	<polygon id="XMLID_433_" fill="#7082B4" points="346.701,175.104 375.756,191.88 375.756,198.591 346.701,181.701 	"/>
	<polygon id="XMLID_431_" fill="#7082B4" points="346.701,186.848 375.756,203.624 375.756,210.335 346.701,193.445 	"/>
</g>
<g>
	<g>
		
			<linearGradient id="XMLID_15_" gradientUnits="userSpaceOnUse" x1="1059.54" y1="441.2256" x2="1128.3311" y2="441.2256" gradientTransform="matrix(1 0 0 1 -860.6338 -291)">
			<stop  offset="0" style="stop-color:#586DA8"/>
			<stop  offset="0.1676" style="stop-color:#6377AE"/>
			<stop  offset="0.7004" style="stop-color:#7D8EBB"/>
			<stop  offset="1" style="stop-color:#8695C0"/>
		</linearGradient>
		<path id="XMLID_14_" fill="url(#XMLID_15_)" d="M200.455,62.538l-0.67,3.322c-0.816,0.564-0.879,4.2-0.879,5.191l1.055,125.998
			c0,6.075,3.186,10.512,8.449,13.549l45.047,26.573c0.746,0.428,1.652,2.396,2.465,2.11l4.279,0.89
			c4.492-1.576,7.496-5.814,7.496-10.572V104.196c0-6.075-4.307-13.531-9.566-16.568l-42.72-24.634
			C210.092,59.929,205.503,59.041,200.455,62.538z"/>
		<path id="XMLID_13_" fill="#375097" d="M207.316,63.127c-5.263-3.038-9.567-0.553-9.567,5.522l0.001,127.773
			c0,6.076,4.303,13.531,9.566,16.568l46.348,26.759c5.262,3.039,9.566,0.553,9.566-5.522V106.454
			c0-6.075-4.307-13.531-9.566-16.567L207.316,63.127z"/>
		
			<linearGradient id="XMLID_16_" gradientUnits="userSpaceOnUse" x1="203.874" y1="377.0195" x2="257.45" y2="508.7059" gradientTransform="matrix(1 0 0 1 0 -291)">
			<stop  offset="0" style="stop-color:#F0A888"/>
			<stop  offset="0.1559" style="stop-color:#F0A482"/>
			<stop  offset="0.3726" style="stop-color:#ED956E"/>
			<stop  offset="0.625" style="stop-color:#D868AE"/>
			<stop  offset="0.9023" style="stop-color:#EB72D1"/>
			<stop  offset="1" style="stop-color:#E967CD"/>
		</linearGradient>
		<polygon id="XMLID_12_" fill="url(#XMLID_16_)" points="203.105,83.997 203.105,187.259 257.873,218.88 257.873,115.618 		"/>
	</g>
	<path opacity="0.3" fill="#231F20" d="M220.895,139.448v-8.867c0-1.695-1.201-3.775-2.669-4.622l-21.199-12.239v45.941
		l21.199,12.238c1.468,0.848,2.669,0.155,2.669-1.541V153.76l3.09-0.005c1.585-0.003,2.642-1.641,1.986-3.086L220.895,139.448z"/>
	<g>
		
			<linearGradient id="XMLID_17_" gradientUnits="userSpaceOnUse" x1="116.4312" y1="407.0234" x2="223.9277" y2="407.0234" gradientTransform="matrix(1 0 0 1 0 -291)">
			<stop  offset="0" style="stop-color:#586DA8"/>
			<stop  offset="0.1676" style="stop-color:#6377AE"/>
			<stop  offset="0.7004" style="stop-color:#7D8EBB"/>
			<stop  offset="1" style="stop-color:#8695C0"/>
		</linearGradient>
		<path id="XMLID_261_" fill="url(#XMLID_17_)" d="M116.821,65.835L116.821,65.835c1.347-1.32,3.409-1.58,5.043-0.635l94.121,54.417
			c1.468,0.847,2.668,2.927,2.668,4.623v8.867l5.078,11.221c0.654,1.445-0.401,3.083-1.988,3.086l-3.09,0.005v16.413
			c0,1.584-1.011,2.993-2.51,3.5l0,0c-0.543,0.183-0.857,0.023-1.352-0.263l-95.465-55.172c-1.468-0.847-2.895-2.816-2.895-4.51
			V66.758C116.433,66.412,116.572,66.079,116.821,65.835z"/>
		<path id="XMLID_260_" fill="#4B62A1" d="M116.433,67.521c0-1.694,1.201-2.389,2.669-1.541l95.034,54.87
			c1.468,0.847,2.669,2.927,2.669,4.622v8.867l5.078,11.222c0.654,1.444-0.401,3.083-1.988,3.086l-3.09,0.005v16.599
			c0,1.694-1.201,2.388-2.669,1.54l-95.034-54.868c-1.468-0.848-2.669-2.928-2.669-4.622V67.521z"/>
		<g id="XMLID_259_">
			<polygon fill="#7082B4" points="210.654,143.504 155.678,111.865 155.673,108.304 210.654,139.885 			"/>
		</g>
		<g id="XMLID_258_">
			<polygon fill="#7082B4" points="210.654,151.511 155.673,119.97 155.673,116.412 210.654,147.993 			"/>
		</g>
		<g id="XMLID_30_">
			<polygon fill="#7082B4" points="183.666,120.794 155.673,104.233 155.673,92.836 183.666,109.526 			"/>
		</g>
		
			<linearGradient id="SVGID_1_" gradientUnits="userSpaceOnUse" x1="116.2812" y1="355.916" x2="153.5884" y2="422.098" gradientTransform="matrix(1 0 0 1 0 -291)">
			<stop  offset="0" style="stop-color:#F0A888"/>
			<stop  offset="0.1559" style="stop-color:#F0A482"/>
			<stop  offset="0.3726" style="stop-color:#ED956E"/>
			<stop  offset="0.625" style="stop-color:#D868AE"/>
			<stop  offset="0.9023" style="stop-color:#EB72D1"/>
			<stop  offset="1" style="stop-color:#E967CD"/>
		</linearGradient>
		<path fill="url(#SVGID_1_)" d="M152.038,84.996l-32.937-19.017c-1.468-0.848-2.669-0.153-2.669,1.541v39.777
			c0,1.695,1.201,3.775,2.669,4.622l32.937,19.017V84.996z"/>
		<path id="XMLID_31_" fill="#FFFFFF" d="M142.625,97.707c-0.507-4.64-3.568-9.352-6.84-10.53c-1.656-0.597-3.042-0.167-3.948,1.003
			c-1.245-1.946-2.844-3.45-4.5-4.046c-3.272-1.178-5.512,1.625-5.005,6.265c0.246,2.259,1.104,4.536,2.292,6.414l8.745,13.97
			l8.371-8.053c0.078-0.122,0.275-0.474,0.275-0.474C142.583,101.121,142.826,99.562,142.625,97.707z"/>
	</g>
</g>
<g>
	<g>
		
			<linearGradient id="XMLID_18_" gradientUnits="userSpaceOnUse" x1="172.2939" y1="570.9756" x2="380.3613" y2="570.9756" gradientTransform="matrix(-1 0 0 1 382.3691 -291)">
			<stop  offset="0" style="stop-color:#586DA8"/>
			<stop  offset="0.1676" style="stop-color:#6377AE"/>
			<stop  offset="0.7004" style="stop-color:#7D8EBB"/>
			<stop  offset="1" style="stop-color:#8695C0"/>
		</linearGradient>
		<path id="XMLID_43_" fill="url(#XMLID_18_)" d="M210.075,266.134v2.632c0,1.855-0.992,3.573-2.599,4.504L90.908,340.62
			c-3.522,2.038-9.295,2.048-12.829,0.024L4.6,298.668c-1.595-0.904-2.583-2.595-2.592-4.428l0,0
			c-0.019-3.742,1.968-7.211,5.208-9.083l113.749-65.819c3.525-2.035,9.306-2.059,12.847-0.054l73.806,42.598
			C209.137,262.758,210.075,264.38,210.075,266.134z"/>
		<path id="XMLID_42_" fill="#375097" d="M207.41,261.314c3.541,2.006,3.554,5.312,0.03,7.346L90.907,335.863
			c-3.522,2.035-9.295,2.045-12.829,0.023L4.653,293.711c-3.532-2.021-3.538-5.34-0.015-7.374l116.177-66.999
			c3.524-2.035,9.306-2.059,12.846-0.054L207.41,261.314z"/>
		<polygon id="XMLID_38_" fill="#4B62A1" points="198.164,271.15 117.64,224.188 19.75,280.634 100.778,327.589 		"/>
	</g>
	<g display="none">
		<g id="XMLID_183_" display="inline">
			
				<linearGradient id="SVGID_2_" gradientUnits="userSpaceOnUse" x1="71.314" y1="568.4121" x2="145.375" y2="568.4121" gradientTransform="matrix(1 0 0 1 0 -291)">
				<stop  offset="0" style="stop-color:#F0A888"/>
				<stop  offset="0.1559" style="stop-color:#F0A482"/>
				<stop  offset="0.3726" style="stop-color:#ED956E"/>
				<stop  offset="0.625" style="stop-color:#D868AE"/>
				<stop  offset="0.9023" style="stop-color:#EB72D1"/>
				<stop  offset="1" style="stop-color:#E967CD"/>
			</linearGradient>
			<path fill="url(#SVGID_2_)" d="M108.284,298.911c-9.465,0-18.917-2.072-26.102-6.222c-7.008-4.045-10.868-9.473-10.868-15.277
				c0-5.807,3.86-11.23,10.868-15.276c14.373-8.297,37.819-8.297,52.264,0c7.047,4.046,10.929,9.472,10.929,15.276
				c0,5.807-3.88,11.232-10.929,15.277C127.222,296.839,117.748,298.911,108.284,298.911z M108.284,256.704
				c-9.319,0-18.625,2.044-25.699,6.128c-6.748,3.896-10.467,9.074-10.467,14.58s3.719,10.686,10.467,14.582
				c14.149,8.17,37.233,8.166,51.462,0l0,0c6.788-3.896,10.524-9.076,10.524-14.582s-3.736-10.686-10.524-14.58
				C126.932,258.748,117.604,256.704,108.284,256.704z"/>
		</g>
		<g id="XMLID_5_" display="inline">
			
				<linearGradient id="SVGID_3_" gradientUnits="userSpaceOnUse" x1="86.0542" y1="568.4131" x2="130.6328" y2="568.4131" gradientTransform="matrix(1 0 0 1 0 -291)">
				<stop  offset="0" style="stop-color:#F0A888"/>
				<stop  offset="0.1559" style="stop-color:#F0A482"/>
				<stop  offset="0.3726" style="stop-color:#ED956E"/>
				<stop  offset="0.625" style="stop-color:#D868AE"/>
				<stop  offset="0.9023" style="stop-color:#EB72D1"/>
				<stop  offset="1" style="stop-color:#E967CD"/>
			</linearGradient>
			<path fill="url(#SVGID_3_)" d="M108.31,290.42c-5.685,0-11.364-1.245-15.679-3.738c-4.241-2.447-6.577-5.738-6.577-9.269
				c0-3.531,2.335-6.822,6.577-9.269c8.629-4.981,22.715-4.985,31.392,0c4.263,2.443,6.61,5.736,6.61,9.269
				c0,3.528-2.348,6.821-6.61,9.269C119.684,289.173,113.993,290.42,108.31,290.42z M108.31,265.199
				c-5.54,0-11.071,1.213-15.278,3.641c-3.982,2.299-6.172,5.344-6.172,8.573s2.19,6.274,6.172,8.571
				c8.408,4.854,22.13,4.854,30.592,0l0,0c4.004-2.297,6.206-5.344,6.206-8.571c0-3.229-2.202-6.274-6.206-8.573
				C119.395,266.412,113.847,265.199,108.31,265.199z"/>
		</g>
		<g id="XMLID_29_" display="inline">
			
				<linearGradient id="SVGID_4_" gradientUnits="userSpaceOnUse" x1="98.5688" y1="568.4121" x2="118.1201" y2="568.4121" gradientTransform="matrix(1 0 0 1 0 -291)">
				<stop  offset="0" style="stop-color:#F0A888"/>
				<stop  offset="0.1559" style="stop-color:#F0A482"/>
				<stop  offset="0.3726" style="stop-color:#ED956E"/>
				<stop  offset="0.625" style="stop-color:#D868AE"/>
				<stop  offset="0.9023" style="stop-color:#EB72D1"/>
				<stop  offset="1" style="stop-color:#E967CD"/>
			</linearGradient>
			<path fill="url(#SVGID_4_)" d="M108.33,283.208c-2.475,0-4.949-0.542-6.828-1.627c-1.891-1.093-2.933-2.571-2.933-4.168
				c0-1.599,1.042-3.077,2.933-4.169c3.76-2.17,9.894-2.17,13.67,0c1.901,1.092,2.948,2.568,2.948,4.169
				c0,1.599-1.047,3.075-2.948,4.168C113.283,282.666,110.806,283.208,108.33,283.208z M108.33,272.409
				c-2.33,0-4.658,0.511-6.427,1.53c-1.631,0.94-2.529,2.176-2.529,3.474s0.898,2.53,2.529,3.472c3.537,2.045,9.312,2.045,12.871,0
				l0,0c1.64-0.943,2.543-2.177,2.543-3.472c0-1.296-0.903-2.529-2.543-3.474C112.994,272.92,110.66,272.409,108.33,272.409z"/>
		</g>
		<g display="inline">
			
				<linearGradient id="XMLID_19_" gradientUnits="userSpaceOnUse" x1="76.9189" y1="503.5811" x2="151.0908" y2="503.5811" gradientTransform="matrix(1 0 0 1 0 -291)">
				<stop  offset="0" style="stop-color:#586DA8"/>
				<stop  offset="0.1676" style="stop-color:#6377AE"/>
				<stop  offset="0.7004" style="stop-color:#7D8EBB"/>
				<stop  offset="1" style="stop-color:#8695C0"/>
			</linearGradient>
			<path id="XMLID_438_" fill="url(#XMLID_19_)" d="M79.086,131.923c-1.19-0.704-2.167-0.147-2.167,1.237v115.628
				c0,1.384,0.979,3.088,2.175,3.784l23.247,13.541l5.905,10.273c0.337,0.588,1.095,0.771,1.664,0.406l5.131-3.283l33.88,19.734
				c1.197,0.697,2.172,0.136,2.17-1.248l-0.186-115.149c-0.002-1.384-0.979-3.093-2.17-3.797L79.086,131.923z"/>
			<path id="XMLID_436_" fill="#FFFFFF" d="M78.249,132.762c-1.193-0.704-2.169-0.146-2.169,1.237v115.629
				c0,1.386,0.979,3.086,2.176,3.782l23.246,13.543l5.906,10.273c0.337,0.586,1.093,0.771,1.662,0.406l5.132-3.281l33.88,19.732
				c1.195,0.696,2.172,0.134,2.171-1.251l-0.188-115.147c-0.002-1.384-0.978-3.093-2.171-3.797L78.249,132.762z"/>
			
				<linearGradient id="XMLID_20_" gradientUnits="userSpaceOnUse" x1="76.0801" y1="468.8711" x2="150.1392" y2="468.8711" gradientTransform="matrix(1 0 0 1 0 -291)">
				<stop  offset="0" style="stop-color:#F0A888"/>
				<stop  offset="0.1559" style="stop-color:#F0A482"/>
				<stop  offset="0.3726" style="stop-color:#ED956E"/>
				<stop  offset="0.625" style="stop-color:#D868AE"/>
				<stop  offset="0.9023" style="stop-color:#EB72D1"/>
				<stop  offset="1" style="stop-color:#E967CD"/>
			</linearGradient>
			<path id="XMLID_441_" fill="url(#XMLID_20_)" d="M150.139,223.283l-0.073-45.595c-0.002-1.384-0.978-3.093-2.171-3.797
				l-69.646-41.128c-1.193-0.704-2.169-0.147-2.169,1.237v45.55L150.139,223.283z"/>
			<path id="XMLID_440_" opacity="0.17" fill="#231F20" d="M94.466,151.5c-3.411-1.968-6.199-0.349-6.199,3.6
				c0,3.948,2.796,8.793,6.215,10.767c3.419,1.974,6.21,0.354,6.2-3.6C100.672,158.314,97.875,153.47,94.466,151.5z"/>
			<polygon id="XMLID_439_" opacity="0.17" fill="#231F20" points="76.08,179.549 106.393,169.451 117.717,188.746 139.109,182.874 
				150.253,200.281 150.139,223.283 			"/>
			<polygon id="XMLID_445_" opacity="0.17" fill="#231F20" points="92.69,175.883 93.391,177.87 100.682,177.281 106.393,169.451 
				80.803,177.975 			"/>
			<polygon id="XMLID_446_" opacity="0.17" fill="#231F20" points="132.748,188.186 132.748,190.284 139.109,182.874 
				117.717,188.746 124.849,192.661 			"/>
			<polygon id="XMLID_4_" fill="#C6E8E4" points="82.726,195.947 126.788,221.414 126.788,226.464 82.726,200.913 			"/>
			<polygon id="XMLID_3_" fill="#E0F2F0" points="82.726,210.65 142.674,245.553 142.674,248.308 82.726,213.357 			"/>
			<polygon id="XMLID_1_" fill="#E0F2F0" points="82.726,219.458 142.674,254.361 142.674,257.115 82.726,222.166 			"/>
			<polygon id="XMLID_442_" fill="#E0F2F0" points="82.726,228.267 142.674,263.171 142.674,265.924 82.726,230.974 			"/>
			<polygon id="XMLID_443_" fill="#E0F2F0" points="82.726,237.075 111.007,253.837 111.007,256.592 82.726,239.781 			"/>
		</g>
	</g>
</g>
</svg>
