<?xml version="1.0" encoding="utf-8"?>
<!-- Generator: Adobe Illustrator 16.0.0, SVG Export Plug-In . SVG Version: 6.00 Build 0)  -->
<!DOCTYPE svg PUBLIC "-//W3C//DTD SVG 1.1 Basic//EN" "http://www.w3.org/Graphics/SVG/1.1/DTD/svg11-basic.dtd">
<svg version="1.1" baseProfile="basic" id="Layer_1"
	 xmlns="http://www.w3.org/2000/svg" xmlns:xlink="http://www.w3.org/1999/xlink" x="0px" y="0px" width="500px" height="500px"
	 viewBox="0 0 500 500" xml:space="preserve">
<g>
	<g>
		
			<linearGradient id="XMLID_2_" gradientUnits="userSpaceOnUse" x1="232.79" y1="485.5586" x2="381.5889" y2="485.5586" gradientTransform="matrix(1 0 0 1 0 -291)">
			<stop  offset="0" style="stop-color:#586DA8"/>
			<stop  offset="0.1676" style="stop-color:#6377AD"/>
			<stop  offset="0.7004" style="stop-color:#7D8EBB"/>
			<stop  offset="1" style="stop-color:#8695C0"/>
		</linearGradient>
		<path id="XMLID_291_" fill="url(#XMLID_2_)" d="M236.144,4.884l-1.451,7.186c-1.764,1.221-1.903,9.083-1.903,11.229l2.283,272.541
			c0,13.141,6.891,22.74,18.271,29.311l97.445,57.477c1.613,0.93,3.574,5.186,5.329,4.566l9.261,1.924
			c9.71-3.408,16.21-12.576,16.21-22.867l-0.001-271.252c0-13.14-9.312-29.269-20.691-35.839L268.491,5.874
			C256.986-0.759,247.059-2.679,236.144,4.884z"/>
		<path id="XMLID_290_" fill="#FFFFFF" d="M250.98,6.159c-11.379-6.57-20.69-1.194-20.69,11.947v276.378
			c0,13.144,9.311,29.271,20.69,35.841l100.255,57.881c11.38,6.569,20.689,1.192,20.689-11.947V99.879
			c0-13.141-9.312-29.268-20.689-35.837L250.98,6.159z"/>
		<g id="XMLID_288_">
			<path fill="#4B62A1" d="M316.798,70.795c-0.406,0-0.816-0.103-1.194-0.319l-31.381-18.12c-1.144-0.661-1.533-2.121-0.873-3.265
				c0.657-1.145,2.119-1.538,3.265-0.875l31.381,18.12c1.143,0.66,1.536,2.121,0.875,3.264
				C318.427,70.369,317.622,70.795,316.798,70.795z"/>
		</g>
		<path id="XMLID_28_" opacity="0.09" fill="#233F8C" d="M301.107,318.086c-6.867-4.053-12.485-0.811-12.485,7.209
			s5.618,17.824,12.485,21.789c6.865,3.965,12.482,0.721,12.482-7.207C313.592,331.945,307.975,322.143,301.107,318.086z"/>
	</g>
</g>
<g>
	<path id="XMLID_42_" fill="#375096" d="M245.771,53.607c-2.143-1.238-3.898-0.226-3.898,2.251v214.357
		c0,2.477,1.755,5.514,3.898,6.754l110.675,63.895c2.143,1.238,3.896,0.229,3.896-2.25V124.257c0-2.476-1.754-5.515-3.896-6.752
		L245.771,53.607z"/>
</g>
<g>
	
		<linearGradient id="XMLID_3_" gradientUnits="userSpaceOnUse" x1="220.6802" y1="492.791" x2="340.5576" y2="492.791" gradientTransform="matrix(1 0 0 1 0 -291)">
		<stop  offset="0" style="stop-color:#586DA8"/>
		<stop  offset="0.1676" style="stop-color:#6377AD"/>
		<stop  offset="0.7004" style="stop-color:#7D8EBB"/>
		<stop  offset="1" style="stop-color:#8695C0"/>
	</linearGradient>
	<path id="XMLID_248_" fill="url(#XMLID_3_)" d="M223.408,58.501l-2.728,1.493l1.41,214.406c0,2.476,1.754,5.513,3.898,6.752
		l110.673,63.896c2.145,1.24,3.896,0.229,3.896-2.25V128.441c0-2.476-1.754-5.515-3.896-6.752L227.367,58.547
		C226.148,57.841,224.646,57.824,223.408,58.501z"/>
	<path id="XMLID_226_" fill="#4B62A1" d="M223.738,60.042c-2.145-1.238-3.898-0.224-3.898,2.251V276.65
		c0,2.475,1.754,5.514,3.898,6.754l110.673,63.895c2.145,1.24,3.896,0.227,3.896-2.252V130.692c0-2.476-1.754-5.515-3.896-6.753
		L223.738,60.042z"/>
	
		<linearGradient id="XMLID_4_" gradientUnits="userSpaceOnUse" x1="219.8418" y1="399.8691" x2="338.3125" y2="399.8691" gradientTransform="matrix(1 0 0 1 0 -291)">
		<stop  offset="0" style="stop-color:#EE9A75"/>
		<stop  offset="0.1559" style="stop-color:#ED956E"/>
		<stop  offset="0.3726" style="stop-color:#ED956E"/>
		<stop  offset="0.625" style="stop-color:#DD83C3"/>
		<stop  offset="0.9023" style="stop-color:#D465B5"/>
		<stop  offset="1" style="stop-color:#D159AF"/>
	</linearGradient>
	<path id="XMLID_224_" fill="url(#XMLID_4_)" d="M338.31,130.692c0-2.476-1.754-5.515-3.896-6.753l-55.337-31.948L223.74,60.042
		c-2.145-1.238-3.898-0.224-3.898,2.251v27.533l118.471,68.398L338.31,130.692L338.31,130.692z"/>
	<g id="XMLID_217_">
		<g id="XMLID_220_">
			<path id="XMLID_221_" fill="#FFFFFF" d="M322.993,137.174c-0.809,0-1.674-0.25-2.529-0.745c-2.792-1.612-4.979-5.4-4.979-8.623
				c0-1.752,0.681-3.149,1.86-3.832c1.183-0.679,2.726-0.569,4.229,0.3l0,0c2.786,1.608,4.972,5.396,4.979,8.622
				c0.004,1.752-0.67,3.151-1.853,3.834C324.191,137.027,323.608,137.174,322.993,137.174z M319.062,125.78
				c-0.226,0-0.427,0.048-0.594,0.144c-0.467,0.269-0.734,0.955-0.734,1.882c0,2.411,1.766,5.468,3.854,6.673
				c0.803,0.462,1.526,0.57,1.984,0.303c0.466-0.271,0.73-0.956,0.729-1.882c-0.007-2.416-1.769-5.474-3.853-6.676l0,0
				C319.942,125.931,319.463,125.78,319.062,125.78z"/>
		</g>
		<g id="XMLID_218_">
			
				<rect id="XMLID_219_" x="324.228" y="138.326" transform="matrix(0.4814 0.8765 -0.8765 0.4814 291.5809 -213.9246)" fill="#FFFFFF" width="4.698" height="2.251"/>
		</g>
	</g>
	<polygon id="XMLID_216_" fill="#FFFFFF" points="249.786,86.058 297.854,113.809 297.854,123.06 249.786,95.309 	"/>
	<polygon id="XMLID_215_" fill="#375096" points="233.881,108.202 257.912,122.077 257.912,126.702 233.881,112.827 	"/>
	<polygon id="XMLID_214_" fill="#375096" points="227.621,194.42 262.083,214.317 262.083,220.95 227.621,201.053 	"/>
	<polygon id="XMLID_213_" fill="#375096" points="233.881,117.452 293.796,152.295 293.796,155.146 233.881,120.302 	"/>
	<polygon id="XMLID_212_" fill="#375096" points="227.955,259.025 251.988,272.902 251.988,277.527 227.955,263.65 	"/>
	<polygon id="XMLID_211_" fill="#375096" points="227.955,268.275 287.869,303.121 287.869,305.969 227.955,271.127 	"/>
	<polygon id="XMLID_208_" fill="#375096" points="233.881,124.908 253.844,136.698 253.844,139.548 233.881,127.758 	"/>
	<g id="XMLID_183_">
		
			<linearGradient id="XMLID_6_" gradientUnits="userSpaceOnUse" x1="239.6338" y1="465.3906" x2="284.5215" y2="465.3906" gradientTransform="matrix(1 0 0 1 0 -291)">
			<stop  offset="0" style="stop-color:#EE9A75"/>
			<stop  offset="0.1559" style="stop-color:#ED956E"/>
			<stop  offset="0.3726" style="stop-color:#ED956E"/>
			<stop  offset="0.625" style="stop-color:#DD83C3"/>
			<stop  offset="0.9023" style="stop-color:#D465B5"/>
			<stop  offset="1" style="stop-color:#D159AF"/>
		</linearGradient>
		<path id="XMLID_195_" fill="url(#XMLID_6_)" d="M282.327,162.9c-10.679-6.167-21.567-6.947-29.882-2.148
			c-7.108,4.107-11.631,11.889-12.812,21.78l14.666,8.608l0.384-3.314c0-6.758,1.98-11.779,5.44-13.776
			c3.431-1.98,8.724-1.2,14.521,2.146c0.517,0.299,1.033,0.613,1.543,0.943l8.334-12.895
			C283.799,163.775,283.066,163.327,282.327,162.9z"/>
		<g id="XMLID_184_">
			<path id="XMLID_190_" fill="#FFFFFF" d="M301.959,218.655c-2.216-15.549-12.938-33.229-25.768-41.514l8.332-12.896
				c18.881,12.194,33.155,37.974,33.211,59.965v4.48L301.959,218.655z"/>
		</g>
	</g>
	<polygon id="XMLID_182_" fill="#375096" points="227.955,175.51 329.365,234.974 329.365,236.291 227.955,176.827 	"/>
	
		<linearGradient id="XMLID_7_" gradientUnits="userSpaceOnUse" x1="230.3242" y1="554.6445" x2="311.8379" y2="554.6445" gradientTransform="matrix(1 0 0 1 0 -291)">
		<stop  offset="0" style="stop-color:#EE9A75"/>
		<stop  offset="0.1559" style="stop-color:#ED956E"/>
		<stop  offset="0.3726" style="stop-color:#ED956E"/>
		<stop  offset="0.625" style="stop-color:#DD83C3"/>
		<stop  offset="0.9023" style="stop-color:#D465B5"/>
		<stop  offset="1" style="stop-color:#D159AF"/>
	</linearGradient>
	<path id="XMLID_5_" fill="url(#XMLID_7_)" d="M230.324,251.886v-12.234l8.705,5.022v12.236L230.324,251.886z M251.162,263.859
		v-30.146l-8.702-5.025v30.145L251.162,263.859z M263.296,270.809v-23.98l-8.7-5.023v23.979L263.296,270.809z M275.432,277.754
		v-37.19l-8.701-5.023v37.189L275.432,277.754z M287.566,284.705v-22.514l-8.701-5.025v22.513L287.566,284.705z M299.701,291.65
		v-30.146l-8.702-5.021v30.144L299.701,291.65z M311.838,298.602v-34.551l-8.703-5.025v34.553L311.838,298.602z"/>
</g>
<path opacity="0.3" fill="#231F20" d="M266.475,264.469l-4.77-3.164c-1.43-4.934-4.117-9.268-8.957-12.281
	c-0.553-0.344-1.117-0.676-1.693-0.99l-6.805-3.714v-0.932c7.964-0.42,14.3-6.993,14.3-15.062v-0.719v-14.564
	c0.14-0.021,0.278-0.051,0.417-0.08c0.076-0.016,0.157-0.026,0.234-0.046c0.314-0.078,0.619-0.175,0.915-0.301
	c1.114-0.478,2.506-1.157,3.407-2.125c0.539-0.58,0.899-1.263,0.918-2.068c0.018-0.796-0.176-1.579-0.481-2.312
	c-0.046-0.111-0.067-0.232-0.12-0.34c-0.139-0.282-0.301-0.55-0.479-0.808c-0.059-0.083-0.127-0.158-0.188-0.238
	c-0.128-0.167-0.257-0.329-0.399-0.48c-0.084-0.088-0.174-0.166-0.26-0.247c-0.14-0.129-0.276-0.252-0.425-0.365
	c-0.101-0.076-0.202-0.146-0.309-0.214c-0.149-0.099-0.304-0.188-0.462-0.271c-0.111-0.057-0.221-0.111-0.338-0.16
	c-0.162-0.069-0.332-0.123-0.5-0.172c-0.119-0.034-0.233-0.072-0.354-0.095c-0.187-0.037-0.375-0.051-0.565-0.063
	c-0.112-0.006-0.222-0.024-0.334-0.022c-0.265,0.004-0.533,0.041-0.806,0.099c-0.368,0.081-0.739,0.2-1.108,0.389
	c-1.252,0.638-2.121,0.979-3.348,0.231c-1.627-0.99-2.037-1.627-4.236-1.321c-0.893,0.125-2.062,0.905-2.89,0.884
	c-1.785-0.042-2.946-1.45-5.016-0.827c-1.598,0.481-1.83,0.57-3.47,0.363c-1.149-0.146-2.234-0.156-3.332,0.288
	c-2.115,0.859-1.977,2.442-3.189,3.882c-0.448,0.533-0.983,0.673-1.543,0.762v27.485c0.407,0.552,0.916,1.022,1.529,1.334
	c1.06,0.541,1.109,1.765,1.297,2.901c-0.178-0.021-0.358-0.023-0.539-0.035c-0.063-0.004-0.129-0.011-0.193-0.013
	c-0.513-0.027-1.024-0.018-1.537,0.028l0,0c-0.188,0.018-0.372,0.056-0.558,0.082v55.316c0,13.144,9.311,29.271,20.69,35.841
	l10.627,6.135c-0.014-0.479-0.025-1.004-0.043-1.608c-0.019-0.672-0.041-1.418-0.062-2.215c-0.021-0.777-0.044-1.604-0.064-2.468
	c-0.015-0.451-0.026-0.912-0.039-1.381c-0.019-0.699-0.037-1.422-0.061-2.152c2.434-0.495,4.275-2.547,4.514-5.065l2.086-2.639
	l0.816,0.571l5.323-6.735c5.68-7.187,8.104-16.603,6.651-25.83C279.275,277.701,274.078,269.512,266.475,264.469z M265.497,305.496
	l-4.581,5.799c-0.062-2.27-0.104-3.721-0.104-3.721l1.508-19.389c0.267-3.773,0.652-7.91,0.785-12.078
	c3.535,3.252,5.94,7.676,6.713,12.576C270.768,294.697,269.189,300.822,265.497,305.496z"/>
<g id="XMLID_362_">
	<path id="XMLID_407_" fill="#425A9C" d="M142.438,454.076v10.805c0,2.672,1.42,5.146,3.729,6.486l1.462,1.055
		c6.34,3.689,14.142,3.809,20.589,0.312l19.069-10.338c2.244-1.215,2.284-4.42,0.07-5.688l0,0
		c-3.622-2.084-7.931-5.227-11.837-4.717c-1.831,0.236-3.646,0.574-5.493,0.566l-8.835,1.201L142.438,454.076z"/>
	<path id="XMLID_406_" fill="#FFFFFF" d="M187.288,459.92l-19.069,10.338c-6.447,3.494-14.249,3.377-20.587-0.312l-1.464-1.057
		c-2.31-1.344-3.729-3.812-3.729-6.484v2.477c0,2.672,1.42,5.146,3.729,6.486l1.464,1.055c6.338,3.689,14.141,3.811,20.587,0.312
		l19.069-10.336c1.565-0.85,2.031-2.652,1.437-4.105C188.457,458.945,187.995,459.537,187.288,459.92z"/>
	<g id="XMLID_403_">
		<path id="XMLID_405_" fill="#FFFFFF" d="M173.207,458.84l2.222-1.098l-2.657-5.375c-0.886,0.107-1.774,0.184-2.668,0.186
			L173.207,458.84z"/>
		<polygon id="XMLID_404_" fill="#FFFFFF" points="168.696,459.939 170.916,458.84 167.951,452.842 165.361,453.193 		"/>
	</g>
	<path id="XMLID_402_" fill="#425A9C" d="M173.373,475.797V486.6c0,2.674,1.42,5.145,3.73,6.484l1.462,1.057
		c6.34,3.688,14.143,3.809,20.59,0.312l19.068-10.338c2.243-1.217,2.282-4.422,0.07-5.691l0,0c-3.622-2.08-7.931-5.223-11.839-4.715
		c-1.828,0.238-3.644,0.576-5.491,0.568l-8.834,1.203L173.373,475.797z"/>
	<path id="XMLID_401_" fill="#FFFFFF" d="M218.224,481.637l-19.068,10.338c-6.447,3.496-14.25,3.379-20.59-0.312l-1.462-1.053
		c-2.31-1.348-3.73-3.816-3.73-6.486v2.477c0,2.674,1.42,5.145,3.73,6.484l1.462,1.057c6.34,3.688,14.143,3.809,20.59,0.312
		l19.068-10.338c1.563-0.85,2.032-2.654,1.438-4.105C219.394,480.666,218.932,481.256,218.224,481.637z"/>
	<g id="XMLID_399_">
		<path id="XMLID_400_" fill="#425A9C" d="M148.95,319.094c-1.468,0-2.938-0.547-4.077-1.646l-10.986-10.611
			c-8.113-7.834-12.478-18.789-11.977-30.055c0.503-11.269,5.824-21.789,14.6-28.873l12.187-9.832
			c2.521-2.04,6.216-1.64,8.252,0.882c2.035,2.521,1.64,6.216-0.882,8.252l-12.187,9.833c-6.159,4.97-9.893,12.354-10.246,20.261
			c-0.352,7.907,2.713,15.594,8.405,21.094l10.984,10.606c2.333,2.252,2.398,5.97,0.146,8.3
			C152.019,318.492,150.485,319.094,148.95,319.094z"/>
	</g>
	<g id="XMLID_396_">
		<g id="XMLID_397_">
			<path id="XMLID_398_" fill="#FAFAFA" d="M151.708,465.602c-5.672,0-9.195-4.598-9.195-10.27l3.224-64.992l-4.298-70.695
				c0-5.67,4.597-10.27,10.269-10.27s16.717,4.6,16.717,10.27l-6.447,135.688C161.978,461.004,157.38,465.602,151.708,465.602z"/>
		</g>
	</g>
	<path id="XMLID_395_" opacity="0.2" fill="#DE89C6" d="M165.53,375l2.269-43.408l0.517-12.861
		c-1.09-5.24-11.244-9.354-16.607-9.354c-5.672,0-10.269,4.602-10.269,10.271l2.497,41.062c2.217,3.748,5.384,6.938,9.296,9.174
		L165.53,375z"/>
	<g id="XMLID_392_">
		<g id="XMLID_393_">
			<path id="XMLID_394_" fill="#FAFAFA" d="M183.702,487.604c-5.673,0-10.27-4.598-10.27-10.27l1.312-69.473l-7.76-66.215
				c0-5.672,11.043-10.271,16.717-10.271c5.671,0,10.27,4.6,10.27,10.271v135.688C193.972,483.006,189.374,487.604,183.702,487.604z
				"/>
		</g>
	</g>
	<g id="XMLID_390_" opacity="0.2">
		<path id="XMLID_391_" fill="#DE89C6" d="M183.702,331.377c-0.626,0-1.238,0.066-1.833,0.174c4.794,0.865,8.435,5.051,8.435,10.096
			v135.688c0,5.047-3.641,9.23-8.435,10.098c0.596,0.107,1.207,0.174,1.833,0.174c5.671,0,10.27-4.6,10.27-10.271V341.646
			C193.972,335.975,189.374,331.377,183.702,331.377z"/>
	</g>
	<g id="XMLID_388_">
		<path id="XMLID_389_" fill="#FAFAFA" d="M144.663,308.002l-4.401,32.666c0,4.129,2.202,7.941,5.777,10.006l26.789,15.045
			c7.168,4.139,16.127-1.035,16.127-9.312v-66.3c0-4.129,8.597-1.286,5.021-3.353l-37.587-21.698
			C149.221,260.918,144.663,299.727,144.663,308.002z"/>
	</g>
	<g id="XMLID_386_">
		<path id="XMLID_387_" fill="#425A9C" d="M141.083,255.547l2.033,31.637c-0.679,6.736-0.449,13.471-1.129,20.207
			c-0.392,3.893-2.541,28.748-1.754,32.527c0.505,2.428,7.162,7.717,16.049,12.336c0.814,0.424,1.646-20.213,2.494-19.805
			c0.785,0.379,1.583,21.803,2.392,22.164c11.3,5.059,24.755,8.312,33.867,3.91c0.004-0.002-1.062-38.662-1.062-38.662l1.873-24.115
			c1.165-16.521,4.346-38.58-11.903-48.701c-0.688-0.429-1.391-0.84-2.108-1.229l-17.293-9.443c-4.082-2.356-9.113-2.356-13.193,0
			h-0.001C144.558,240.292,140.58,247.725,141.083,255.547z"/>
	</g>
	<g id="XMLID_384_" opacity="0.2">
		<path id="XMLID_385_" fill="#DE89C6" d="M183.942,247.045c-0.688-0.429-1.391-0.84-2.108-1.231l-17.293-9.441
			c-2.412-1.392-5.153-1.938-7.835-1.688c1.857,0.177,3.688,0.724,5.357,1.688l17.293,9.441c0.718,0.391,1.42,0.802,2.108,1.231
			c16.249,10.121,13.068,32.18,11.905,48.701l-1.875,24.115c0,0,1.066,38.66,1.062,38.662c-2.693,1.301-5.772,1.918-9.056,2.033
			c4.218,0.166,8.173-0.41,11.534-2.033c0.004-0.002-1.062-38.662-1.062-38.662l1.875-24.115
			C197.009,279.225,200.19,257.166,183.942,247.045z"/>
	</g>
	<g id="XMLID_381_">
		<g id="XMLID_382_">
			<path id="XMLID_383_" fill="#F2B1B5" d="M167.504,247.114c-3.243,0-5.869-2.629-5.869-5.869v-23.07
				c0-3.241,2.626-5.869,5.869-5.869c3.24,0,5.866,2.628,5.866,5.869v23.07C173.371,244.484,170.744,247.114,167.504,247.114z"/>
		</g>
	</g>
	<g id="XMLID_379_">
		<path id="XMLID_380_" fill="#F2B1B5" d="M171.48,240.086h-9.263v-39.09h28.938v19.415
			C191.156,231.276,182.346,240.086,171.48,240.086z"/>
	</g>
	<path id="XMLID_378_" fill="#F5C5C8" d="M189.006,200.996v20.307c0,10.373-8.41,18.783-18.783,18.783h2.15
		c10.373,0,18.783-8.41,18.783-18.783v-20.307H189.006z"/>
	<g id="XMLID_376_">
		<path id="XMLID_377_" fill="#F2B1B5" d="M196.524,339.359c1.4-0.158,2.739-0.861,3.7-2.076l9.273-11.736
			c6.85-8.664,9.771-20.025,8.017-31.162c-1.754-11.141-8.02-21.02-17.189-27.102l-12.734-8.445
			c-2.635-1.752-6.113-0.953-7.768,1.771c-1.655,2.729-0.861,6.354,1.774,8.104l12.734,8.445
			c6.436,4.268,10.832,11.201,12.063,19.018c1.23,7.816-0.821,15.787-5.626,21.869l-9.273,11.736
			c-1.97,2.488-1.612,6.188,0.802,8.258C193.528,339.1,195.058,339.527,196.524,339.359z"/>
	</g>
	<path id="XMLID_375_" fill="#425A9C" d="M218.738,294.191c-1.809-11.484-8.271-21.668-17.73-27.939l-12.731-8.447
		c-1.119-0.742-2.407-1.137-3.728-1.137c-2.367,0-4.53,1.234-5.785,3.301c-1.992,3.283-1.029,7.672,2.15,9.777l12.733,8.441
		c6.146,4.08,10.347,10.703,11.522,18.182c1.178,7.477-0.781,15.094-5.372,20.906l-7.432,9.406l11.481,8.012l6.624-8.379
		C217.532,317.379,220.544,305.672,218.738,294.191z"/>
	<path id="XMLID_374_" opacity="0.2" fill="#DE89C6" d="M218.738,294.191c-1.809-11.484-8.271-21.668-17.73-27.939l-9.074-6.02
		c0,0-0.178,0.531,1.992,2.287c0.785,0.639,1.609,1.191,2.455,1.748c9.468,6.205,18.15,18.934,19.88,29.924
		c1.807,11.479-1.206,23.188-8.269,32.123l-5.742,7.266l1.595,1.113l6.624-8.379C217.532,317.379,220.544,305.672,218.738,294.191z"
		/>
	<circle id="XMLID_373_" fill="#F2B1B5" cx="193.195" cy="336.602" r="7.107"/>
	<path id="XMLID_371_" fill="#375096" d="M197.733,193.253c-1.455-2.974-4.803-4.981-8.116-3.292
		c-1.556,0.793-2.637,1.218-4.163,0.288c-2.022-1.232-2.535-2.024-5.267-1.644c-1.11,0.153-2.565,1.125-3.596,1.1
		c-2.22-0.053-3.662-1.805-6.236-1.029c-1.989,0.599-2.275,0.709-4.315,0.45c-1.429-0.181-2.78-0.194-4.144,0.36
		c-2.631,1.068-2.458,3.037-3.967,4.827c-1.273,1.509-3.086,0.507-4.604,1.911c-1.298,1.199-1.707,3.26-0.966,4.865
		c0.347,0.752,0.932,1.555,0.622,2.323c-0.218,0.542-0.806,0.822-1.219,1.237c-1.511,1.52-0.302,4.05,0.85,5.857
		c0.225,0.351,0.453,0.733,0.439,1.15c-0.019,0.548-0.442,0.979-0.774,1.417c-1.571,2.06-1.248,5.319,0.699,7.028
		c0.901,0.792,2.171,1.416,2.355,2.601c0.101,0.657-0.177,1.301-0.342,1.945c-0.628,2.47,0.649,5.295,2.923,6.453
		c2.653,1.353,0.224,6.155,4.312,6.54c3.207,0.299,6.137-3.686,6.821-6.381c-0.104,0.405,2.071-0.716,2.247-0.916
		c0.611-0.693,0.692-1.792,0.974-2.636c0.594-1.775,0.923-3.336,1.051-5.242c0.044-0.668-0.092-8.172,0.611-8.192
		c1.413-0.041,2.857-0.089,4.176-0.6c3.146-1.221,1.833-3.269,3.027-5.479c0.58-1.075,1.952-1.304,2.594-2.389
		c0.703-1.191,0.517-2.77,0.352-4.074c2.809,0.604,6.297,1.208,9.027,0.039c2.216-0.952,5.321-2.546,5.381-5.216
		C198.509,195.411,198.234,194.275,197.733,193.253z"/>
	<path id="XMLID_368_" opacity="0.2" fill="#DE89C6" d="M198.485,196.551c-0.06,2.67-3.166,4.264-5.381,5.214
		c-1.521,0.653-3.275,0.745-5.019,0.603c0.886-0.083,1.748-0.261,2.541-0.603c2.218-0.951,5.322-2.544,5.381-5.214
		c0.026-1.14-0.25-2.276-0.75-3.298c-0.899-1.837-2.521-3.297-4.41-3.755c2.882-0.712,5.61,1.15,6.885,3.755
		C198.234,194.275,198.509,195.411,198.485,196.551z M181.599,201.729c0.167,1.305,0.352,2.883-0.352,4.074
		c-0.643,1.084-2.014,1.313-2.594,2.389c-1.194,2.211,0.121,4.259-3.027,5.479c-1.318,0.511-2.763,0.56-4.174,0.6
		c-0.706,0.021-0.569,7.524-0.613,8.192c-0.126,1.906-0.458,3.467-1.049,5.242c-0.281,0.844-0.365,1.943-0.976,2.636
		c-0.175,0.2-2.348,1.321-2.246,0.916c-0.569,2.249-2.712,5.364-5.269,6.17c0.268,0.097,0.562,0.176,0.925,0.211
		c3.207,0.299,6.137-3.686,6.821-6.381c-0.104,0.405,2.071-0.716,2.247-0.916c0.611-0.693,0.692-1.792,0.974-2.636
		c0.594-1.775,0.923-3.336,1.051-5.242c0.044-0.668-0.092-8.172,0.611-8.192c1.413-0.041,2.855-0.089,4.176-0.6
		c3.146-1.221,1.833-3.269,3.027-5.479c0.58-1.075,1.952-1.304,2.594-2.389c0.622-1.054,0.545-2.401,0.404-3.604
		C183.253,202.067,182.398,201.9,181.599,201.729z"/>
	<g id="XMLID_366_">
		<circle id="XMLID_367_" fill="#F2B1B5" cx="176.23" cy="217.705" r="4.248"/>
	</g>
	<g id="XMLID_363_">
		<path id="XMLID_365_" fill="#FFFFFF" d="M204.143,480.561l2.22-1.1l-2.656-5.377c-0.886,0.109-1.773,0.188-2.67,0.189
			L204.143,480.561z"/>
		<polygon id="XMLID_364_" fill="#FFFFFF" points="199.632,481.656 201.852,480.561 198.887,474.562 196.297,474.912 		"/>
	</g>
</g>
</svg>
