<svg baseProfile="basic" xmlns="http://www.w3.org/2000/svg" width="500" height="500"><linearGradient id="a" gradientUnits="userSpaceOnUse" x1="232.8" y1="485.6" x2="381.6" y2="485.6" gradientTransform="translate(0 -291)"><stop offset="0" stop-color="#586da8"/><stop offset=".2" stop-color="#6377ad"/><stop offset=".7" stop-color="#7d8ebb"/><stop offset="1" stop-color="#8695c0"/></linearGradient><path fill="url(#a)" d="M236.1 4.9l-1.4 7.2c-1.8 1.2-2 9-2 11.2l2.4 272.5c0 13.2 6.9 22.8 18.2 29.4l97.5 57.4c1.6 1 3.6 5.2 5.3 4.6l9.3 2a24.2 24.2 0 0 0 16.2-23V95a46 46 0 0 0-20.7-35.8L268.5 5.9C257-.8 247-2.7 236 4.9z"/><path fill="#FFF" d="M251 6.2c-11.4-6.6-20.7-1.2-20.7 12v276.3a46 46 0 0 0 20.7 35.8l100.2 58c11.4 6.5 20.7 1.1 20.7-12V99.9A46 46 0 0 0 351.2 64L251 6.2z"/><path fill="#4B62A1" d="M316.8 70.8l-1.2-.3-31.4-18.1a2.4 2.4 0 1 1 2.4-4.2L318 66.3a2.4 2.4 0 0 1-1.2 4.5z"/><path opacity=".1" fill="#233F8C" d="M301.1 318c-6.9-4-12.5-.7-12.5 7.3s5.6 17.8 12.5 21.8 12.5.7 12.5-7.2c0-8-5.6-17.8-12.5-21.8z"/><g><path fill="#375096" d="M245.8 53.6c-2.2-1.2-4-.2-4 2.3v214.3c0 2.5 1.8 5.5 4 6.8l110.6 63.9c2.2 1.2 4 .2 4-2.3V124.3c0-2.5-1.8-5.6-4-6.8L245.8 53.6z"/></g><g><linearGradient id="b" gradientUnits="userSpaceOnUse" x1="220.7" y1="492.8" x2="340.6" y2="492.8" gradientTransform="translate(0 -291)"><stop offset="0" stop-color="#586da8"/><stop offset=".2" stop-color="#6377ad"/><stop offset=".7" stop-color="#7d8ebb"/><stop offset="1" stop-color="#8695c0"/></linearGradient><path fill="url(#b)" d="M223.4 58.5l-2.7 1.5 1.4 214.4c0 2.5 1.7 5.5 3.9 6.8L336.7 345c2.1 1.3 3.9.3 3.9-2.2V128.4c0-2.4-1.8-5.5-4-6.7L227.5 58.5a4 4 0 0 0-4 0z"/><path fill="#4B62A1" d="M223.7 60c-2.1-1.2-3.9-.2-3.9 2.3v214.3c0 2.5 1.8 5.6 4 6.8l110.6 63.9c2.2 1.2 4 .2 4-2.3V130.7c0-2.5-1.8-5.5-4-6.8L223.7 60z"/><linearGradient id="c" gradientUnits="userSpaceOnUse" x1="219.8" y1="399.9" x2="338.3" y2="399.9" gradientTransform="translate(0 -291)"><stop offset="0" stop-color="#ee9a75"/><stop offset=".2" stop-color="#ed956e"/><stop offset=".4" stop-color="#ed956e"/><stop offset=".6" stop-color="#dd83c3"/><stop offset=".9" stop-color="#d465b5"/><stop offset="1" stop-color="#d159af"/></linearGradient><path fill="url(#c)" d="M338.3 130.7c0-2.5-1.7-5.5-3.9-6.8l-55.3-32L223.7 60c-2.1-1.2-3.9-.2-3.9 2.3v27.5l118.5 68.4v-27.5z"/><path fill="#FFF" d="M323 137.2a5 5 0 0 1-2.5-.8c-2.8-1.6-5-5.4-5-8.6 0-1.7.7-3.1 1.8-3.8 1.2-.7 2.8-.6 4.3.3 2.8 1.6 5 5.4 5 8.6 0 1.7-.7 3.1-1.9 3.8-.5.3-1 .5-1.7.5zm-4-11.4l-.5.1c-.5.3-.8 1-.8 2 0 2.3 1.8 5.4 3.9 6.6.8.4 1.5.5 2 .3.4-.3.7-1 .7-1.9 0-2.4-1.8-5.5-3.9-6.7-.5-.3-1-.4-1.3-.4zM326.4 136.8l2.3 4.1-2 1.1-2.3-4zM249.8 86l48 27.8v9.3l-48-27.8z"/><path fill="#375096" d="M233.9 108.2l24 13.9v4.6l-24-13.9zM227.6 194.4l34.5 20v6.5l-34.5-19.8zM233.9 117.5l59.9 34.8v2.8l-60-34.8zM228 259l24 13.9v4.6l-24-13.9zM228 268.3l59.9 34.8v2.9l-60-34.9zM233.9 125l20 11.7v2.8l-20-11.7z"/><linearGradient id="d" gradientUnits="userSpaceOnUse" x1="239.6" y1="465.4" x2="284.5" y2="465.4" gradientTransform="translate(0 -291)"><stop offset="0" stop-color="#ee9a75"/><stop offset=".2" stop-color="#ed956e"/><stop offset=".4" stop-color="#ed956e"/><stop offset=".6" stop-color="#dd83c3"/><stop offset=".9" stop-color="#d465b5"/><stop offset="1" stop-color="#d159af"/></linearGradient><path fill="url(#d)" d="M282.3 162.9c-10.7-6.2-21.5-7-29.9-2.1-7 4-11.6 11.8-12.8 21.7l14.7 8.6.4-3.3c0-6.7 2-11.8 5.4-13.7 3.5-2 8.7-1.2 14.5 2.1l1.6 1 8.3-13-2.2-1.3z"/><path fill="#FFF" d="M302 218.7a64.3 64.3 0 0 0-25.8-41.6l8.3-12.9a77.8 77.8 0 0 1 33.2 60v4.5l-15.7-10z"/><path fill="#375096" d="M228 175.5L329.4 235v1.3L228 176.8z"/><linearGradient id="e" gradientUnits="userSpaceOnUse" x1="230.3" y1="554.6" x2="311.8" y2="554.6" gradientTransform="translate(0 -291)"><stop offset="0" stop-color="#ee9a75"/><stop offset=".2" stop-color="#ed956e"/><stop offset=".4" stop-color="#ed956e"/><stop offset=".6" stop-color="#dd83c3"/><stop offset=".9" stop-color="#d465b5"/><stop offset="1" stop-color="#d159af"/></linearGradient><path fill="url(#e)" d="M230.3 251.9v-12.2l8.7 5v12.2l-8.7-5zm20.9 12v-30.2l-8.7-5v30.1l8.7 5zm12.1 7v-24l-8.7-5v23.9l8.7 5zm12.1 6.9v-37.2l-8.7-5v37.1l8.7 5zm12.2 6.9v-22.5l-8.7-5v22.5l8.7 5zm12.1 7v-30.2l-8.7-5v30.1l8.7 5zm12.1 6.9v-34.5l-8.7-5v34.5l8.7 5z"/></g><path opacity=".3" fill="#231F20" d="M266.5 264.5l-4.8-3.2a20.5 20.5 0 0 0-10.6-13.3l-6.8-3.7v-1c8-.3 14.3-7 14.3-15V213H259.2a10.3 10.3 0 0 0 4.3-2.4c.6-.7 1-1.4 1-2.2 0-.8-.2-1.6-.5-2.3l-.2-.3-.4-.8-.2-.3-.4-.5-.3-.2a5.8 5.8 0 0 0-1.2-.9 4.8 4.8 0 0 0-.8-.3h-.4l-.5-.1H258.4l-1 .4c-1.3.7-2.2 1-3.4.3-1.7-1-2-1.7-4.3-1.4-.9.2-2 1-2.9 1-1.7-.1-3-1.5-5-1-1.6.6-1.8.7-3.4.5a6.4 6.4 0 0 0-3.4.2c-2 .9-2 2.5-3.2 4-.4.5-1 .6-1.5.7v27.5c.4.5 1 1 1.5 1.3 1 .5 1.1 1.8 1.3 3l-.5-.1h-2.3v55.4a46 46 0 0 0 20.7 35.8l10.6 6.2v-1.6l-.1-2.3v-2.4l-.1-1.4v-2.2a5.7 5.7 0 0 0 4.5-5l2-2.7.9.6 5.3-6.7a33.4 33.4 0 0 0-7.6-48.3zm-1 41l-4.6 5.8v-3.7l1.4-19.4c.3-3.8.7-8 .8-12a21.7 21.7 0 0 1 2.4 29.3z"/><g><path fill="#425A9C" d="M142.4 454V465c0 2.7 1.5 5.1 3.8 6.5l1.4 1a21 21 0 0 0 20.6.3l19-10.3a3.3 3.3 0 0 0 .2-5.7c-3.7-2-8-5.2-11.9-4.7-1.8.2-3.6.6-5.5.6l-8.8 1.2-18.8.3z"/><path fill="#FFF" d="M187.3 460l-19 10.3a21 21 0 0 1-20.7-.4l-1.4-1a7.5 7.5 0 0 1-3.8-6.5v2.5c0 2.7 1.5 5.1 3.8 6.5l1.4 1a21 21 0 0 0 20.6.3l19-10.3c1.7-.9 2.1-2.7 1.5-4.1-.2.6-.7 1.2-1.4 1.6z"/><g fill="#FFF"><path d="M173.2 458.8l2.2-1-2.6-5.4-2.7.2 3.1 6.2zM168.7 460l2.2-1.2-3-6-2.5.4z"/></g><path fill="#425A9C" d="M173.4 475.8v10.8c0 2.7 1.4 5.1 3.7 6.5l1.5 1a21 21 0 0 0 20.6.4l19-10.4a3.3 3.3 0 0 0 0-5.7c-3.5-2-7.8-5.2-11.7-4.7-1.9.2-3.7.6-5.5.6l-8.9 1.2-18.7.3z"/><path fill="#FFF" d="M218.2 481.6l-19 10.4a21 21 0 0 1-20.6-.3l-1.5-1a7.5 7.5 0 0 1-3.7-6.6v2.5c0 2.7 1.4 5.1 3.7 6.5l1.5 1a21 21 0 0 0 20.6.4l19-10.4c1.6-.8 2-2.6 1.5-4-.3.6-.8 1.2-1.5 1.5z"/><path fill="#425A9C" d="M149 319c-1.5 0-3-.5-4.1-1.6l-11-10.6a39.4 39.4 0 0 1 2.6-58.9l12.2-9.8a5.9 5.9 0 1 1 7.4 9.1l-12.2 9.8a27.6 27.6 0 0 0-1.9 41.4l11 10.6a5.9 5.9 0 0 1-4 10z"/><path fill="#FAFAFA" d="M151.7 465.6c-5.7 0-9.2-4.6-9.2-10.3l3.2-65-4.3-70.7c0-5.6 4.6-10.2 10.3-10.2s16.7 4.6 16.7 10.2L162 455.3c0 5.7-4.6 10.3-10.3 10.3z"/><path opacity=".2" fill="#DE89C6" d="M165.5 375l2.3-43.4.5-12.9c-1-5.2-11.2-9.3-16.6-9.3-5.7 0-10.3 4.6-10.3 10.2l2.5 41.1c2.3 3.8 5.4 7 9.3 9.2l12.3 5.1z"/><path fill="#FAFAFA" d="M183.7 487.6c-5.7 0-10.3-4.6-10.3-10.3l1.3-69.4-7.7-66.3c0-5.6 11-10.2 16.7-10.2 5.7 0 10.3 4.6 10.3 10.2v135.7c0 5.7-4.6 10.3-10.3 10.3z"/><path fill="#DE89C6" d="M183.7 331.4c-.6 0-1.2 0-1.8.2 4.8.8 8.4 5 8.4 10v135.7c0 5-3.6 9.3-8.4 10.1l1.8.2c5.7 0 10.3-4.6 10.3-10.3V341.6c0-5.6-4.6-10.2-10.3-10.2z" opacity=".2"/><path fill="#FAFAFA" d="M144.7 308l-4.4 32.7c0 4.1 2.2 8 5.7 10l26.8 15c7.2 4.2 16.2-1 16.2-9.3v-66.3c0-4.1 8.6-1.3 5-3.3L156.4 265c-7.2-4.2-11.7 34.6-11.7 42.9z"/><path fill="#425A9C" d="M141 255.5l2.1 31.7c-.7 6.7-.4 13.5-1.1 20.2-.4 3.9-2.6 28.7-1.8 32.5.5 2.4 7.2 7.7 16 12.4.9.4 1.7-20.3 2.6-19.9.8.4 1.6 21.9 2.4 22.2 11.3 5 24.7 8.3 33.8 4l-1-38.7 1.8-24.2c1.2-16.5 4.4-38.5-11.9-48.7l-2-1.2-17.4-9.4c-4-2.4-9-2.4-13.2 0a20.6 20.6 0 0 0-10.2 19.1z"/><path fill="#DE89C6" d="M184 247l-2.2-1.2-17.3-9.4c-2.4-1.4-5.1-2-7.8-1.7 1.9.2 3.7.7 5.4 1.7l17.3 9.4 2 1.2c16.3 10.2 13.1 32.2 12 48.7l-2 24.2 1.2 38.6c-2.7 1.3-5.8 2-9.1 2 4.2.2 8.2-.4 11.5-2l-1-38.6 1.8-24.2c1.2-16.5 4.4-38.5-11.9-48.7z" opacity=".2"/><path fill="#F2B1B5" d="M167.5 247.1a5.9 5.9 0 0 1-5.9-5.9v-23a5.9 5.9 0 1 1 11.8 0v23c0 3.3-2.7 6-5.9 6z"/><path fill="#F2B1B5" d="M171.5 240h-9.3v-39h29v19.4c0 10.9-8.9 19.7-19.7 19.7z"/><path fill="#F5C5C8" d="M189 201v20.3c0 10.4-8.4 18.8-18.8 18.8h2.2c10.3 0 18.8-8.4 18.8-18.8V201H189z"/><path fill="#F2B1B5" d="M196.5 339.4c1.4-.2 2.8-.9 3.7-2.1l9.3-11.8a40.2 40.2 0 0 0-9.2-58.2l-12.7-8.5a5.5 5.5 0 0 0-7.8 1.8 6 6 0 0 0 1.8 8.1l12.7 8.5a28.3 28.3 0 0 1 6.4 40.9l-9.2 11.7a6 6 0 0 0 .8 8.2c1.2 1.1 2.8 1.5 4.2 1.4z"/><path fill="#425A9C" d="M218.7 294.2a41.2 41.2 0 0 0-17.7-28l-12.7-8.4a6.7 6.7 0 0 0-9.5 2.2c-2 3.3-1 7.6 2.1 9.7l12.7 8.5a27 27 0 0 1 6.2 39l-7.4 9.5 11.4 8 6.7-8.4c7-9 10-20.6 8.2-32.1z"/><path opacity=".2" fill="#DE89C6" d="M218.7 294.2a41.2 41.2 0 0 0-17.7-28l-9-6s-.2.6 2 2.3c.7.7 1.5 1.2 2.4 1.8a49 49 0 0 1 19.9 29.9 41.5 41.5 0 0 1-8.3 32.1l-5.8 7.3 1.6 1 6.7-8.3c7-9 10-20.6 8.2-32.1z"/><circle fill="#F2B1B5" cx="193.2" cy="336.6" r="7.1"/><path fill="#375096" d="M197.7 193.3c-1.4-3-4.8-5-8-3.3-1.6.8-2.7 1.2-4.2.2-2-1.2-2.6-2-5.3-1.6-1.1.2-2.6 1.1-3.6 1.1-2.2 0-3.7-1.8-6.2-1-2 .6-2.3.7-4.4.4a8 8 0 0 0-4.1.4c-2.6 1-2.5 3-4 4.8-1.2 1.5-3 .5-4.6 2a4.3 4.3 0 0 0-1 4.8c.4.7 1 1.5.7 2.3-.2.6-.8.8-1.2 1.2-1.5 1.6-.3 4.1.8 6 .2.3.5.6.5 1 0 .6-.5 1-.8 1.5-1.6 2-1.3 5.3.7 7 .9.8 2.1 1.4 2.3 2.6.1.7-.1 1.3-.3 2-.6 2.4.6 5.2 3 6.4 2.6 1.4.1 6.2 4.2 6.5 3.2.3 6.2-3.6 6.8-6.3 0 .4 2.1-.8 2.3-1 .6-.7.7-1.7 1-2.6.6-1.8.9-3.3 1-5.2 0-.7 0-8.2.6-8.2 1.4 0 2.9-.1 4.2-.6 3.1-1.2 1.8-3.3 3-5.5.6-1 2-1.3 2.6-2.4.7-1.2.5-2.8.4-4 2.8.5 6.3 1.1 9 0 2.2-1 5.3-2.6 5.4-5.2 0-1.2-.3-2.3-.8-3.3z"/><path opacity=".2" fill="#DE89C6" d="M198.5 196.6c0 2.6-3.2 4.2-5.4 5.2-1.5.6-3.3.7-5 .6.9-.1 1.7-.3 2.5-.6 2.2-1 5.3-2.6 5.4-5.2 0-1.2-.2-2.3-.7-3.3a7 7 0 0 0-4.5-3.8c3-.7 5.7 1.1 7 3.8.4 1 .7 2.1.7 3.3zm-16.9 5.1c.2 1.3.4 3-.4 4.1-.6 1-2 1.3-2.5 2.4-1.2 2.2 0 4.3-3 5.5-1.4.5-2.8.5-4.2.6-.8 0-.6 7.5-.7 8.2 0 1.9-.4 3.4-1 5.2-.3.8-.4 2-1 2.6-.2.2-2.3 1.4-2.2 1-.6 2.2-2.7 5.3-5.3 6.1l1 .2c3.1.3 6-3.6 6.7-6.3 0 .4 2.1-.8 2.3-1 .6-.7.7-1.8 1-2.6.6-1.8.9-3.3 1-5.2 0-.7 0-8.2.6-8.2 1.4 0 2.9-.1 4.2-.6 3.1-1.2 1.8-3.3 3-5.5.6-1 2-1.3 2.6-2.4.6-1 .6-2.4.4-3.6l-2.5-.5z"/><circle fill="#F2B1B5" cx="176.2" cy="217.7" r="4.2"/><g fill="#FFF"><path d="M204.1 480.6l2.3-1.1-2.7-5.4-2.7.2 3.1 6.3zM199.6 481.7l2.3-1.1-3-6-2.6.3z"/></g></g></svg>