<svg baseProfile="basic" xmlns="http://www.w3.org/2000/svg" width="500" height="500"><linearGradient id="a" gradientUnits="userSpaceOnUse" x1="304.4" y1="512.5" x2="481.1" y2="512.5" gradientTransform="translate(0 -291)"><stop offset="0" stop-color="#586da8"/><stop offset=".2" stop-color="#6377ae"/><stop offset=".7" stop-color="#7d8ebb"/><stop offset="1" stop-color="#8695c0"/></linearGradient><path fill="url(#a)" d="M477.4 202l-167.9-96.9a3.4 3.4 0 0 0-5 3v126.5c0 2.6 1.3 5 3.6 6.4L476 337.9a3.4 3.4 0 0 0 5-3V208.4c0-2.6-1.3-5-3.6-6.4z"/><path fill="#375097" d="M475.2 203.5l-167.8-97a3.4 3.4 0 0 0-5.1 3V236c0 2.7 1.4 5.1 3.7 6.4l167.8 97a3.4 3.4 0 0 0 5-3V209.9c0-2.6-1.3-5-3.6-6.4z"/><linearGradient id="b" gradientUnits="userSpaceOnUse" x1="308.9" y1="412.5" x2="467" y2="611.4" gradientTransform="translate(0 -291)"><stop offset="0" stop-color="#f0a888"/><stop offset=".2" stop-color="#f0a482"/><stop offset=".4" stop-color="#ed956e"/><stop offset=".6" stop-color="#d868ae"/><stop offset=".9" stop-color="#eb72d1"/><stop offset="1" stop-color="#e967cd"/></linearGradient><path fill="url(#b)" d="M469 211.5l-158-91.7v115.7l158 91.7z"/><linearGradient id="c" gradientUnits="userSpaceOnUse" x1="187.9" y1="620.3" x2="476.2" y2="620.3" gradientTransform="translate(0 -291)"><stop offset="0" stop-color="#586da8"/><stop offset=".2" stop-color="#6377ae"/><stop offset=".7" stop-color="#7d8ebb"/><stop offset="1" stop-color="#8695c0"/></linearGradient><path fill="url(#c)" d="M295.5 248.5L188 305.2s-.6 8.4 1.7 9.7L354.3 410c4.2 2.4 9.4 2.4 13.6 0l105.8-60.4c4.4-2.7 1.7-9.8 1.7-9.8L309 248.5a13.6 13.6 0 0 0-13.5 0z"/><path fill="#4B62A1" d="M295.5 242l-105.8 60.5a3.4 3.4 0 0 0 0 6l164.6 95c4.2 2.4 9.4 2.4 13.6 0l105.8-60.4a3.4 3.4 0 0 0 0-6l-164.7-95a13.6 13.6 0 0 0-13.5 0z"/><path fill="#7082B4" d="M286 320.3l-27.8 16a.9.9 0 0 0 0 1.5l43.4 25c1.1.7 2.5.7 3.6 0L333 347a1 1 0 0 0 0-1.5l-43.4-25a3.6 3.6 0 0 0-3.6-.1z"/><path fill="#375097" d="M307.1 251.2l9.1 5.3c.4.2.4.7 0 1l-4.5 2.6c-.4.2-.8.2-1.2 0l-9-5.3a.5.5 0 0 1 0-1l4.4-2.6c.4-.2.9-.2 1.2 0zM320.5 259.2l9 5.3c.4.2.4.7 0 .9l-4.4 2.6c-.4.2-.9.2-1.2 0l-9.1-5.3a.5.5 0 0 1 0-.9l4.5-2.6c.4-.2.8-.2 1.2 0zM333.9 266.7l9 5.3c.4.2.4.7 0 1l-4.4 2.5c-.4.2-.9.2-1.2 0l-9.1-5.2a.5.5 0 0 1 0-1l4.5-2.6c.4-.2.8-.2 1.2 0zM347.7 274.5l9 5.3c.4.2.4.7 0 1l-4.4 2.5c-.4.2-.9.2-1.2 0l-9.1-5.2a.5.5 0 0 1 0-1l4.5-2.6c.4-.2.8-.2 1.2 0zM361 281.9l9 5.3c.4.2.4.7 0 .9l-4.5 2.6c-.3.2-.8.2-1.2 0l-9-5.3a.5.5 0 0 1 0-.9l4.5-2.6c.3-.2.8-.2 1.1 0zM373.8 289.9l9.1 5.2c.4.2.4.7 0 1l-4.5 2.6c-.4.2-.8.2-1.2 0l-9-5.3a.5.5 0 0 1 0-1l4.5-2.5c.3-.3.8-.3 1.1 0zM387.3 297.3l9.1 5.3c.4.2.4.7 0 .9l-4.5 2.6c-.4.2-.8.2-1.2 0l-9-5.3a.5.5 0 0 1 0-.9l4.5-2.6c.3-.2.8-.2 1.1 0zM400.6 305.2l9.1 5.3c.4.2.4.7 0 1l-4.5 2.5c-.4.2-.8.2-1.2 0l-9-5.2a.5.5 0 0 1 0-1l4.5-2.6c.3-.2.8-.2 1.1 0zM413.7 313l9.1 5.2c.4.2.4.7 0 1l-4.5 2.5c-.4.2-.8.2-1.2 0l-9.1-5.2a.5.5 0 0 1 0-1l4.5-2.6c.4-.2.8-.2 1.2 0zM427.5 320.9l9.1 5.2c.4.2.4.8 0 1l-4.5 2.6c-.4.2-.8.2-1.2 0l-9.1-5.3a.5.5 0 0 1 0-1l4.5-2.5c.4-.2.8-.2 1.2 0zM440.9 328.4l9 5.3c.4.2.4.7 0 .9l-4.4 2.6c-.4.2-.8.2-1.2 0l-9.1-5.3a.5.5 0 0 1 0-1l4.5-2.5c.4-.2.8-.2 1.2 0z"/><g fill="#375097"><path d="M288.6 261.2l6.2-3.7c.8-.4 1.7-.4 2.5 0l6 3.5c1 .5 1 1.7.1 2.2l-6 3.7c-.8.5-1.8.5-2.6 0l-6.2-3.5c-.9-.5-.9-1.7 0-2.2zM302.4 269.1l6.2-3.6c.8-.5 1.8-.5 2.6 0l6 3.5c.8.5.9 1.7 0 2.2l-6 3.7c-.8.5-1.8.5-2.6 0l-6.2-3.6c-.8-.5-.8-1.7 0-2.2zM315.8 276.6l6.2-3.6c.8-.4 1.8-.4 2.6 0l6 3.5c.9.5.9 1.7 0 2.2l-6 3.7c-.8.5-1.8.5-2.6 0l-6.2-3.5c-.8-.5-.8-1.8 0-2.3zM330.1 284.4l6.2-3.6c.8-.5 1.8-.5 2.6 0l6 3.5c.8.5.9 1.7 0 2.2l-6 3.7c-.8.5-1.8.5-2.6 0l-6.2-3.6c-.8-.4-.9-1.7 0-2.2zM342.7 291.8l6.2-3.6c.8-.5 1.7-.5 2.5 0l6 3.5c1 .5 1 1.7.1 2.2l-6 3.7c-.8.5-1.8.5-2.6 0l-6.2-3.6c-.9-.5-.9-1.7 0-2.2zM355.5 299.7l6.1-3.6c.8-.5 1.8-.5 2.6 0l6 3.5c.9.5 1 1.7 0 2.2l-6 3.7c-.7.5-1.7.5-2.5 0l-6.2-3.5c-.9-.5-.9-1.8 0-2.3zM369.1 307.2l6.2-3.6c.8-.5 1.8-.5 2.6 0l6 3.5c.9.5.9 1.7 0 2.2l-6 3.7c-.8.5-1.8.5-2.6 0l-6.2-3.6c-.8-.5-.8-1.7 0-2.2zM382.5 314.8l6.2-3.6c.8-.5 1.7-.5 2.6 0l6 3.4c.8.5.8 1.7 0 2.3l-6 3.6c-.8.5-1.8.5-2.6 0l-6.2-3.5c-.9-.5-.9-1.7 0-2.2zM395.6 322.8l6.2-3.6c.8-.4 1.8-.4 2.6 0l6 3.5c.9.5.9 1.7 0 2.2l-6 3.7c-.8.5-1.8.5-2.6 0l-6.2-3.5c-.8-.5-.8-1.8 0-2.3zM410 331.3l6.1-3.6c.8-.5 1.8-.5 2.6 0l6 3.4c.9.5.9 1.7 0 2.2l-6 3.7c-.7.5-1.8.5-2.6 0l-6.2-3.5c-.8-.5-.8-1.7 0-2.2zM422.9 338.3l6.2-3.6c.8-.5 1.7-.5 2.6 0l6 3.5c.8.4.8 1.7 0 2.2l-6 3.6c-.8.5-1.8.6-2.6 0l-6.2-3.5c-.9-.5-.9-1.7 0-2.2z"/></g><g fill="#375097"><path d="M274.8 268.6l6.2-3.6c.8-.4 1.8-.4 2.6 0l6 3.5c.9.5.9 1.7 0 2.2l-6 3.7c-.8.5-1.8.5-2.6 0l-6.2-3.5c-.8-.5-.8-1.8 0-2.3zM288.6 276.6l6.2-3.6c.8-.5 1.8-.5 2.6 0l6 3.5c.9.4.9 1.7 0 2.2l-6 3.6c-.7.5-1.7.6-2.6 0l-6.1-3.5c-.9-.5-.9-1.7 0-2.2zM302 284.1l6.2-3.6c.8-.5 1.8-.5 2.6 0l6 3.5c1 .5 1 1.7.1 2.2l-6 3.7c-.8.5-1.8.5-2.6 0l-6.2-3.6c-.9-.4-.9-1.7 0-2.2zM316.3 291.9l6.2-3.6c.8-.5 1.8-.5 2.6 0l6 3.5c.9.4.9 1.7 0 2.2l-6 3.6c-.7.5-1.7.6-2.6 0l-6.2-3.5c-.8-.5-.8-1.7 0-2.2zM329 299.3l6-3.6c.9-.5 1.9-.5 2.7 0l6 3.5c.9.4.9 1.6 0 2.2l-6 3.6c-.8.5-1.8.6-2.6 0l-6.2-3.5c-.8-.5-.8-1.7 0-2.2zM341.7 307.2l6.2-3.6c.8-.5 1.8-.5 2.6 0l6 3.5c.8.5.9 1.7 0 2.2l-6 3.7c-.8.4-1.8.5-2.6 0l-6.2-3.6c-.8-.5-.8-1.7 0-2.2zM355.4 314.7l6.1-3.6c.8-.5 1.8-.5 2.6 0l6 3.4c.9.5 1 1.7 0 2.3l-6 3.6c-.7.5-1.7.5-2.6 0l-6.1-3.5c-.9-.5-.9-1.7 0-2.2zM368.7 322.3l6.2-3.6c.8-.5 1.8-.5 2.6 0l6 3.4c.9.5.9 1.7 0 2.2l-6 3.7c-.7.5-1.8.5-2.6 0l-6.2-3.5c-.8-.5-.8-1.7 0-2.2zM381.9 330.3l6.1-3.6c.8-.5 1.8-.5 2.6 0l6 3.5c1 .5 1 1.7 0 2.2l-5.9 3.7c-.8.5-1.8.5-2.6 0l-6.2-3.6c-.9-.4-.9-1.7 0-2.2zM396.2 338.8l6.2-3.7c.8-.4 1.7-.4 2.6 0l6 3.5c.8.5.8 1.7 0 2.2l-6 3.7c-.8.5-1.8.5-2.6 0l-6.2-3.5c-.9-.5-.9-1.7 0-2.2zM409.1 345.8l6.2-3.6c.8-.5 1.8-.5 2.6 0l6 3.4c.9.5.9 1.7 0 2.2l-6 3.7c-.7.5-1.8.5-2.6 0l-6.2-3.5c-.8-.5-.8-1.7 0-2.2z"/></g><g fill="#375097"><path d="M261 276.1l6.2-3.6c.8-.5 1.8-.5 2.6 0l6 3.5c1 .5 1 1.7.1 2.2l-6 3.7c-.8.5-1.8.5-2.6 0l-6.2-3.6c-.9-.4-.9-1.7 0-2.2zM274.9 284l6.2-3.5c.8-.5 1.8-.5 2.6 0l6 3.4c.8.5.9 1.7 0 2.2l-6 3.7c-.8.5-1.8.5-2.6 0l-6.2-3.5c-.9-.5-.9-1.7 0-2.2zM288.3 291.6l6.2-3.6c.8-.5 1.8-.5 2.6 0l6 3.5c.9.4.9 1.7 0 2.2l-6 3.7c-.8.4-1.8.5-2.6 0l-6.2-3.6c-.8-.5-.8-1.7 0-2.2zM302.6 299.4l6.2-3.6c.8-.5 1.8-.5 2.6 0l6 3.4c.8.5.8 1.7 0 2.2l-6 3.7c-.8.5-1.8.5-2.6 0l-6.2-3.5c-.9-.5-.9-1.7 0-2.2zM315.2 306.8l6.1-3.6c.8-.5 1.8-.5 2.6 0l6 3.4c1 .5 1 1.7.1 2.2l-6 3.7c-.8.5-1.8.5-2.6 0l-6.2-3.5c-.9-.5-.9-1.7 0-2.2zM328 314.7l6.1-3.6c.8-.5 1.8-.5 2.6 0l6 3.4c.9.5.9 1.7 0 2.3l-6 3.6c-.7.5-1.7.5-2.6 0L328 317c-.9-.5-.9-1.7 0-2.2zM341.6 322.2l6.2-3.6c.8-.5 1.8-.5 2.6 0l6 3.4c.8.5.9 1.7 0 2.2l-6 3.7c-.8.5-1.8.5-2.6 0l-6.2-3.5c-.8-.5-.8-1.7 0-2.2zM355 329.7l6.1-3.6c.8-.4 1.8-.4 2.6 0l6 3.5c1 .5 1 1.7.1 2.2l-6 3.7c-.8.5-1.8.5-2.6 0L355 332c-.9-.5-.9-1.8 0-2.3zM368.1 337.8l6.2-3.6c.8-.5 1.8-.5 2.6 0l6 3.5c.9.5.9 1.7 0 2.2l-6 3.7c-.8.4-1.8.5-2.6 0l-6.2-3.6c-.8-.5-.8-1.7 0-2.2zM382.4 346.2l6.2-3.6c.8-.4 1.8-.5 2.6 0l6 3.5c.9.5.9 1.7 0 2.2l-6 3.7c-.7.5-1.8.5-2.6 0l-6.2-3.5c-.8-.5-.8-1.8 0-2.3zM395.4 353.3l6.1-3.7c.8-.4 1.8-.4 2.6 0l6 3.5c1 .5 1 1.7.1 2.2l-6 3.7c-.8.5-1.8.5-2.6 0l-6.2-3.5c-.9-.5-.9-1.7 0-2.2z"/></g><g fill="#375097"><path d="M247.3 283.6l6.2-3.6c.8-.5 1.8-.5 2.6 0l6 3.5c.9.4.9 1.7 0 2.2l-6 3.6c-.8.5-1.8.6-2.6 0l-6.2-3.5c-.8-.5-.8-1.7 0-2.2zM261.1 291.6l6.2-3.7c.8-.4 1.8-.4 2.6 0l6 3.5c.9.5.9 1.7 0 2.2l-6 3.7c-.7.5-1.7.5-2.6 0l-6.2-3.5c-.8-.5-.8-1.7 0-2.2zM274.6 299l6.1-3.5c.8-.5 1.8-.5 2.6 0l6 3.4c.9.5 1 1.7 0 2.3l-6 3.6c-.7.5-1.7.5-2.6 0l-6.1-3.5c-.9-.5-.9-1.7 0-2.2zM288.8 306.9l6.2-3.7c.8-.4 1.8-.4 2.6 0l6 3.5c.9.5.9 1.7 0 2.2l-6 3.7c-.7.5-1.8.5-2.6 0l-6.2-3.5c-.8-.5-.8-1.7 0-2.2zM302.6 315l6.2-3.5c.8-.5 1.8-.5 2.6 0l31.3 18c.9.6.9 1.8 0 2.3l-6 3.7c-.7.5-1.7.5-2.6 0l-31.5-18.2c-.9-.5-.9-1.7 0-2.2zM341.2 337.2l6.2-3.6c.8-.5 1.8-.5 2.6 0l6 3.5c.9.5.9 1.7 0 2.2l-6 3.7c-.8.5-1.8.5-2.6 0l-6.2-3.6c-.8-.4-.8-1.7 0-2.2zM354.4 345.3l6.1-3.6c.8-.5 1.8-.5 2.6 0l6 3.4c.9.5 1 1.7 0 2.2l-6 3.7c-.7.5-1.7.5-2.6 0l-6.1-3.5c-.9-.5-.9-1.7 0-2.2zM368.7 353.7l6.1-3.6c.8-.5 1.8-.5 2.6 0l6 3.5c1 .5 1 1.7.1 2.2l-6 3.7c-.8.5-1.8.5-2.6 0l-6.2-3.6c-.9-.5-.9-1.7 0-2.2zM381.6 360.7l6.2-3.6c.8-.4 1.8-.4 2.6 0l6 3.5c.9.5.9 1.7 0 2.2l-6 3.7c-.8.5-1.8.5-2.6 0l-6.2-3.5c-.8-.5-.8-1.8 0-2.3z"/></g><g><linearGradient id="d" gradientUnits="userSpaceOnUse" x1="339.4" y1="491" x2="497.3" y2="491" gradientTransform="translate(0 -291)"><stop offset="0" stop-color="#586da8"/><stop offset=".2" stop-color="#6377ae"/><stop offset=".7" stop-color="#7d8ebb"/><stop offset="1" stop-color="#8695c0"/></linearGradient><path fill="url(#d)" d="M497.3 194.1c0-3.4-2.4-7.5-5.3-9.2L344.7 99.4c-3-1.7-5.3-.4-5.3 3v103.4c0 3.4 2.4 7.6 5.3 9.3L492 300.6c3 1.7 5.3.3 5.3-3V194z"/><path fill="#4B62A1" d="M496.3 195.1c0-3.3-2.4-7.5-5.3-9.2l-147.3-85.5c-3-1.7-5.3-.3-5.3 3V207c0 3.3 2.3 7.5 5.3 9.2L491 301.6c2.9 1.7 5.3.3 5.3-3V195z"/><path fill="#375097" d="M387.5 125.5l-43.8-25.1c-3-1.7-5.3-.3-5.3 3V207c0 3.3 2.3 7.5 5.3 9.2l43.8 25.1V125.5z"/><path fill="#FFF" d="M349.2 110.7c-1-.5-1.8 0-1.8 1.1a4 4 0 0 0 1.8 3.2c1 .6 1.8 0 1.8-1a4 4 0 0 0-1.8-3.3zM354.3 113.6c-1-.6-1.8-.1-1.8 1s.8 2.6 1.8 3.2c1 .6 1.8.1 1.8-1s-.8-2.6-1.8-3.2zM359.4 116.4c-1-.5-1.8 0-1.8 1.1a4 4 0 0 0 1.8 3.2c1 .6 1.8 0 1.8-1s-.8-2.7-1.8-3.3z"/><path fill="#7082B4" d="M395.5 170.4l29.1 16.8v6.7l-29-16.9zM395.5 181.7l47 27v6.8l-47-27.2zM395.5 215.4l58.6 33.8v6.8l-58.6-34zM428 189.3l56.2 32.3v6.7L428 196z"/><linearGradient id="e" gradientUnits="userSpaceOnUse" x1="346.1" y1="450.2" x2="376.4" y2="450.2" gradientTransform="translate(0 -291)"><stop offset="0" stop-color="#f0a888"/><stop offset=".2" stop-color="#f0a482"/><stop offset=".4" stop-color="#ed956e"/><stop offset=".6" stop-color="#d868ae"/><stop offset=".9" stop-color="#eb72d1"/><stop offset="1" stop-color="#e967cd"/></linearGradient><path fill="url(#e)" d="M361.2 141.7c-8.3-4.8-15.1-.8-15.1 8.8 0 9.6 6.8 21.4 15.2 26.2 8.3 4.8 15 .9 15-8.7 0-9.7-6.8-21.5-15-26.3z"/><path fill="#7082B4" d="M346.7 175.1l29 16.8v6.7l-29-16.9zM346.7 186.8l29 16.8v6.7l-29-16.9z"/></g><g><linearGradient id="f" gradientUnits="userSpaceOnUse" x1="1059.5" y1="441.2" x2="1128.3" y2="441.2" gradientTransform="translate(-860.6 -291)"><stop offset="0" stop-color="#586da8"/><stop offset=".2" stop-color="#6377ae"/><stop offset=".7" stop-color="#7d8ebb"/><stop offset="1" stop-color="#8695c0"/></linearGradient><path fill="url(#f)" d="M200.5 62.5l-.7 3.4c-.8.5-.9 4.2-.9 5.2l1 126c0 6 3.2 10.5 8.5 13.5l45 26.6c.8.4 1.7 2.4 2.5 2l4.3 1c4.5-1.6 7.5-5.8 7.5-10.6V104.2c0-6-4.3-13.5-9.6-16.6L215.4 63c-5.3-3-9.9-4-15-.5z"/><path fill="#375097" d="M207.3 63.1c-5.2-3-9.6-.5-9.6 5.5v127.8c0 6.1 4.4 13.6 9.6 16.6l46.4 26.7c5.2 3 9.5.6 9.5-5.5V106.5c0-6.1-4.3-13.6-9.5-16.6L207.3 63z"/><linearGradient id="g" gradientUnits="userSpaceOnUse" x1="203.9" y1="377" x2="257.4" y2="508.7" gradientTransform="translate(0 -291)"><stop offset="0" stop-color="#f0a888"/><stop offset=".2" stop-color="#f0a482"/><stop offset=".4" stop-color="#ed956e"/><stop offset=".6" stop-color="#d868ae"/><stop offset=".9" stop-color="#eb72d1"/><stop offset="1" stop-color="#e967cd"/></linearGradient><path fill="url(#g)" d="M203.1 84v103.3l54.8 31.6V115.6z"/><path opacity=".3" fill="#231F20" d="M220.9 139.4v-8.8a6 6 0 0 0-2.7-4.6L197 113.7v46l21.2 12.2c1.5.8 2.7.2 2.7-1.5v-16.6h3c1.7 0 2.7-1.7 2-3.1l-5-11.3z"/><g><linearGradient id="h" gradientUnits="userSpaceOnUse" x1="116.4" y1="407" x2="223.9" y2="407" gradientTransform="translate(0 -291)"><stop offset="0" stop-color="#586da8"/><stop offset=".2" stop-color="#6377ae"/><stop offset=".7" stop-color="#7d8ebb"/><stop offset="1" stop-color="#8695c0"/></linearGradient><path fill="url(#h)" d="M116.8 65.8a4.2 4.2 0 0 1 5-.6l94.2 54.4a6 6 0 0 1 2.7 4.6v9l5 11.1c.7 1.5-.4 3.1-2 3.1h-3v16.4c0 1.6-1 3-2.6 3.5-.5.2-.8 0-1.3-.2l-95.5-55.2c-1.4-.8-2.9-2.8-2.9-4.5V66.8c0-.4.2-.7.4-1z"/><path fill="#4B62A1" d="M116.4 67.5c0-1.7 1.2-2.4 2.7-1.5l95 54.9a6 6 0 0 1 2.7 4.6v8.8l5 11.3c.7 1.4-.3 3-1.9 3h-3v16.7c0 1.6-1.3 2.3-2.8 1.5l-95-54.9a6 6 0 0 1-2.7-4.6V67.5z"/><path fill="#7082B4" d="M210.7 143.5l-55-31.6v-3.6l55 31.6zM210.7 151.5l-55-31.5v-3.6l55 31.6zM183.7 120.8l-28-16.6V92.8l28 16.7z"/><linearGradient id="i" gradientUnits="userSpaceOnUse" x1="116.3" y1="355.9" x2="153.6" y2="422.1" gradientTransform="translate(0 -291)"><stop offset="0" stop-color="#f0a888"/><stop offset=".2" stop-color="#f0a482"/><stop offset=".4" stop-color="#ed956e"/><stop offset=".6" stop-color="#d868ae"/><stop offset=".9" stop-color="#eb72d1"/><stop offset="1" stop-color="#e967cd"/></linearGradient><path fill="url(#i)" d="M152 85l-32.9-19c-1.5-.9-2.7-.2-2.7 1.5v39.8a6 6 0 0 0 2.7 4.6l33 19V85z"/><path fill="#FFF" d="M142.6 97.7c-.5-4.6-3.5-9.3-6.8-10.5-1.7-.6-3-.2-4 1a9.7 9.7 0 0 0-4.5-4c-3.2-1.2-5.5 1.6-5 6.2.3 2.3 1.1 4.5 2.3 6.4l8.8 14 8.3-8 .3-.5c.6-1.2.8-2.7.6-4.6z"/></g></g><g><linearGradient id="j" gradientUnits="userSpaceOnUse" x1="172.3" y1="571" x2="380.4" y2="571" gradientTransform="matrix(-1 0 0 1 382.4 -291)"><stop offset="0" stop-color="#586da8"/><stop offset=".2" stop-color="#6377ae"/><stop offset=".7" stop-color="#7d8ebb"/><stop offset="1" stop-color="#8695c0"/></linearGradient><path fill="url(#j)" d="M210 266.1v2.7c0 1.8-1 3.5-2.5 4.5L90.9 340.6c-3.5 2-9.3 2-12.8 0l-73.5-42a5.1 5.1 0 0 1-2.6-4.4c0-3.7 2-7.2 5.2-9L121 219.3c3.5-2 9.3-2 12.8 0l73.8 42.6a5 5 0 0 1 2.5 4.2z"/><path fill="#375097" d="M207.4 261.3c3.6 2 3.6 5.3 0 7.4L91 335.9c-3.5 2-9.3 2-12.8 0L4.7 293.7c-3.6-2-3.6-5.3 0-7.4l116.1-67c3.5-2 9.3-2 12.9 0l73.7 42z"/><path fill="#4B62A1" d="M198.2 271.1l-80.6-47-97.8 56.5 81 47z"/></g></svg>