<?xml version="1.0" encoding="utf-8"?>
<!-- Generator: Adobe Illustrator 16.0.0, SVG Export Plug-In . SVG Version: 6.00 Build 0)  -->
<!DOCTYPE svg PUBLIC "-//W3C//DTD SVG 1.1 Basic//EN" "http://www.w3.org/Graphics/SVG/1.1/DTD/svg11-basic.dtd">
<svg version="1.1" baseProfile="basic" id="Layer_1"
	 xmlns="http://www.w3.org/2000/svg" xmlns:xlink="http://www.w3.org/1999/xlink" x="0px" y="0px" width="500px" height="500px"
	 viewBox="0 0 500 500" xml:space="preserve">
<g>
	<polygon id="XMLID_55_" fill="#7383AF" points="197.679,442.41 11.391,334.857 11.391,332.342 279.521,187.173 420.466,312.908 	
		"/>
	<polygon id="XMLID_54_" fill="#3E5491" points="197.679,439.896 11.391,332.342 279.521,184.659 420.466,310.395 	"/>
	<polygon id="XMLID_53_" fill="#96A2C3" points="205.221,437.381 18.933,329.829 17.675,295.607 287.062,179.63 428.007,305.365 	
		"/>
	<polygon id="XMLID_52_" display="none" fill="#7383AF" points="309.451,122.265 11.391,291.836 11.391,294.35 197.679,401.903 
		495.738,229.818 	"/>
	<polygon id="XMLID_51_" fill="#3E5491" points="309.451,119.75 11.391,291.836 197.679,399.388 495.738,227.304 	"/>
	<polygon id="XMLID_50_" display="none" fill="#52669C" points="270.623,159.964 186.896,208.13 336.739,294.645 420.466,246.479 	
		"/>
	<polygon id="XMLID_49_" display="none" fill="#7383AF" points="493.225,228.56 493.225,270.411 197.679,442.41 195.166,440.956 
		195.166,400.646 	"/>
	<polygon id="XMLID_40_" fill="#52669C" points="495.738,227.304 495.738,269.154 197.679,442.41 197.679,399.388 	"/>
	
		<linearGradient id="XMLID_3_" gradientUnits="userSpaceOnUse" x1="135.0327" y1="720.5811" x2="185.078" y2="689.384" gradientTransform="matrix(1 0 0 1 0 -291)">
		<stop  offset="0" style="stop-color:#D35FA7"/>
		<stop  offset="0.1594" style="stop-color:#D565AB"/>
		<stop  offset="0.4286" style="stop-color:#DA79B5"/>
		<stop  offset="0.7724" style="stop-color:#ED956E"/>
		<stop  offset="1" style="stop-color:#F1AB8C"/>
	</linearGradient>
	<path id="XMLID_200_" display="none" fill="url(#XMLID_3_)" d="M141.149,376.895l-0.22,46.938
		c-0.002,0.896,0.967,1.459,1.745,1.011l19.619-11.327l20.049,34.73c0.302,0.518,1.093,0.306,1.093-0.294v-46.645L141.149,376.895z"
		/>
</g>
<g>
	<g opacity="0.3">
		<path fill="#231F20" d="M338.875,298.825l1.188-0.681c1.065-0.611,1.94-2.117,1.94-3.348l4.099-30.607
			c0-0.606-0.214-1.033-0.558-1.238v-0.006l-0.007-0.002c-0.013-0.008-0.029-0.006-0.04-0.012l-0.573-0.168
			c-0.578-0.166-1.201-0.094-1.725,0.206l-26.065,14.925l-17.959-3.97l-44.271,16.831c0,7.896,1.566,16.688,7.904,19.036
			l28.932,13.438l-0.033,0.256c0,0.293,0.145,0.568,0.383,0.734l0.454,0.313c0.052,0.038,0.099,0.077,0.155,0.104l0.078,0.058
			l0.05-0.029c0.325,0.106,0.718,0.086,1.163-0.169l0.217-0.124l8.184,3.8c8.056,4.639,13.058,13.29,13.058,22.588v22.883
			l20.475-11.9v-10.98c0-15.469-7.766-29.939-20.466-38.539l2.638-1.513l7.845,4.155c8.056,4.639,13.058,13.292,13.058,22.588
			v22.504l20.475-11.902v-10.602C359.467,321.934,351.65,307.413,338.875,298.825z"/>
	</g>
	<g id="XMLID_223_">
		<circle id="XMLID_374_" fill="#32498A" cx="289.473" cy="286.951" r="15.015"/>
		<path id="XMLID_373_" fill="#52669C" d="M341.148,392.852v7.601c0,2.087,1.078,4.024,2.854,5.122l23.109,14.278
			c2.395,1.479,5.415,1.49,7.82,0.03l7.073-4.005c1.405-0.794,2.271-2.286,2.267-3.899l-0.021-4.365c0,0-0.952,0.338-2.393-0.535
			l-15.38-9.319v-4.903h-25.332v-0.004H341.148z"/>
		<path id="XMLID_372_" fill="#FFFFFF" d="M341.148,388.614v7.6c0,2.089,1.078,4.025,2.854,5.125l23.109,14.279
			c2.395,1.478,5.415,1.488,7.82,0.025l6.932-4.205c3.226-1.96,3.223-6.644-0.004-8.601l-15.38-9.316v-4.907H341.148
			L341.148,388.614z"/>
		<g id="XMLID_370_">
			<polygon id="XMLID_371_" fill="#52669C" points="356.726,403.202 356.726,401.67 365.615,396.536 365.635,397.931 			"/>
		</g>
		<g id="XMLID_368_">
			<polygon id="XMLID_369_" fill="#52669C" points="360.076,406.179 360.076,404.718 368.967,399.584 369.021,400.885 			"/>
		</g>
		<g id="XMLID_366_">
			<polygon id="XMLID_367_" fill="#52669C" points="364.521,409.306 364.521,407.838 373.413,402.704 373.366,404.165 			"/>
		</g>
		<path id="XMLID_365_" fill="#3E5491" d="M344.848,393.791c-4.935-2.846-4.935-7.506,0-10.354c4.935-2.851,13.002-2.851,17.937,0
			c4.931,2.848,4.931,7.508,0,10.354C357.85,396.639,349.78,396.639,344.848,393.791z"/>
		<path id="XMLID_364_" fill="#52669C" d="M347.896,392.029c-3.255-1.879-3.255-4.95,0-6.829c3.256-1.882,8.578-1.882,11.834,0
			c3.255,1.879,3.255,4.95,0,6.829C356.477,393.908,351.152,393.908,347.896,392.029z"/>
		<path id="XMLID_363_" fill="#52669C" d="M317.532,406.911v7.6c0,2.086,1.081,4.025,2.854,5.122l23.11,14.279
			c2.394,1.479,5.415,1.491,7.82,0.03l7.072-4.005c1.406-0.797,2.271-2.286,2.268-3.899l-0.021-4.367c0,0-0.951,0.339-2.393-0.534
			l-15.379-9.319v-4.904L317.532,406.911L317.532,406.911z"/>
		<path id="XMLID_362_" fill="#FFFFFF" d="M317.532,402.674v7.602c0,2.089,1.081,4.025,2.854,5.122l23.11,14.28
			c2.394,1.479,5.415,1.489,7.82,0.028l6.931-4.208c3.228-1.959,3.225-6.642-0.004-8.599l-15.379-9.318v-4.907H317.532
			L317.532,402.674z"/>
		<g id="XMLID_360_">
			<polygon id="XMLID_361_" fill="#52669C" points="333.109,417.262 333.109,415.73 342,410.596 342.019,411.99 			"/>
		</g>
		<g id="XMLID_348_">
			<polygon id="XMLID_359_" fill="#52669C" points="336.46,420.239 336.46,418.778 345.35,413.644 345.405,414.945 			"/>
		</g>
		<g id="XMLID_346_">
			<polygon id="XMLID_347_" fill="#52669C" points="340.906,423.363 340.906,421.897 349.796,416.764 349.751,418.225 			"/>
		</g>
		<path id="XMLID_345_" fill="#3E5491" d="M321.232,407.852c-4.935-2.848-4.935-7.507,0-10.354c4.932-2.85,13.002-2.85,17.935,0
			c4.933,2.847,4.933,7.506,0,10.354C334.234,410.698,326.164,410.698,321.232,407.852z"/>
		<path id="XMLID_344_" fill="#52669C" d="M324.283,406.09c-3.256-1.879-3.256-4.952,0-6.83c3.253-1.881,8.578-1.881,11.833,0
			c3.253,1.878,3.253,4.951,0,6.83C332.861,407.969,327.536,407.969,324.283,406.09z"/>
		<g id="XMLID_342_">
			<path id="XMLID_343_" fill="#32498A" d="M353.628,393.854c-5.657,0-10.239-4.582-10.239-10.235v-49.095
				c0-9.297-5.003-17.948-13.057-22.588l-38.559-20.43c-7.89-4.542-9.719-13.02-9.719-22.124v-2.225
				c0-5.656,4.584-10.239,10.238-10.239s10.234,4.583,10.234,10.239v2.225c0,1.802,0.974,3.479,2.533,4.38l35.483,20.43
				c14.383,8.279,23.316,23.736,23.316,40.332v49.095C363.864,389.271,359.281,393.854,353.628,393.854z"/>
		</g>
		<path opacity="0.15" fill="#E08DC1" d="M340.548,294.191l-35.483-20.431c-1.562-0.898-2.531-2.577-2.531-4.38v-2.225
			c0-5.656-4.582-10.239-10.236-10.239c-0.502,0-0.98,0.079-1.465,0.147c4.952,0.717,8.771,4.938,8.771,10.092v2.225
			c0,1.803,0.969,3.479,2.53,4.38l35.485,20.431c14.382,8.279,23.312,23.735,23.312,40.332v49.092c0,5.154-3.816,9.375-8.77,10.091
			c0.479,0.069,0.961,0.147,1.465,0.147c5.653,0,10.236-4.582,10.236-10.238v-49.092
			C363.864,317.928,354.931,302.471,340.548,294.191z"/>
		<g id="XMLID_340_">
			<path id="XMLID_341_" fill="#32498A" d="M330.082,407.164c-5.658,0-10.24-4.585-10.24-10.238v-49.093
				c0-9.297-5.003-17.951-13.057-22.589l-39.581-18.381c-7.89-4.543-8.694-15.068-8.694-24.17v-2.229
				c0-5.652,4.582-10.234,10.238-10.234c5.654,0,10.236,4.582,10.236,10.234v2.229c0,1.802,0.969,3.477,2.533,4.377L317,307.5
				c14.382,8.282,23.315,23.734,23.315,40.333v49.093C340.317,402.579,335.735,407.164,330.082,407.164z"/>
		</g>
		<g id="XMLID_337_">
			<path id="XMLID_339_" fill="#7383AF" d="M298.807,320.596l-27.522-12.582c-2.632-1.443-2.675-5.211-0.076-6.712l41.917-24.228
				l30.948,18.39L298.807,320.596z"/>
			<path id="XMLID_338_" fill="#96A2C3" d="M302.559,318.161l-24-10.697c-2.271-1.243-2.308-4.493-0.062-5.79l38.343-22.167
				l26.704,15.869L302.559,318.161z"/>
		</g>
		<g id="XMLID_335_">
			<path id="XMLID_336_" fill="#FFFFFF" d="M315.389,294.225c-3.393,0-6.144-2.748-6.144-6.143v-23.914
				c0-14.198-1.96-21.003-5.815-34.668l-7.162-25.352c-0.926-3.263,0.977-6.657,4.239-7.581c3.253-0.918,6.659,0.977,7.581,4.242
				l7.162,25.351c4.167,14.754,6.278,22.68,6.278,38.007v23.914C321.528,291.477,318.78,294.225,315.389,294.225z"/>
		</g>
		<path opacity="0.15" fill="#E08DC1" d="M315.25,226.161l-7.16-25.351c-0.906-3.208-4.207-5.077-7.408-4.272
			c2.084,0.507,3.854,2.062,4.478,4.272l7.162,25.351c4.167,14.754,6.277,22.68,6.277,38.007v23.914
			c0,2.889-1.996,5.288-4.678,5.947c0.474,0.117,0.96,0.195,1.468,0.195c3.394,0,6.142-2.75,6.142-6.145v-23.914
			C321.528,248.841,319.417,240.915,315.25,226.161z"/>
		<path id="XMLID_334_" fill="#FFFFFF" d="M282.607,183.11l-5.057,2.917c-16.764,9.68-28.069,26.625-30.503,45.831
			c-2.797,22.044,5.815,62.748,5.815,62.748c25.312-1.426,51.134-26.912,51.134-26.912c-4.468-28.461,4.625-42.881,4.811-61.98
			C308.909,195.608,294.721,176.116,282.607,183.11z"/>
		<path opacity="0.15" fill="#E08DC1" d="M308.809,205.709c0.103-10.102-14.088-29.593-26.199-22.6l-5.057,2.917
			c-5.26,3.039-9.98,6.792-14.062,11.106c3.737-3.696,7.948-6.956,12.597-9.64l5.055-2.917c12.113-6.994,26.302,12.498,26.2,22.601
			c-0.185,19.082-9.254,33.479-4.819,61.902c0.931-0.854,1.478-1.387,1.478-1.387C299.531,239.229,308.623,224.81,308.809,205.709z"
			/>
		<path id="XMLID_333_" fill="#F2B1B5" d="M281.266,199.914h-1.939c-2.688,0-4.867-2.179-4.867-4.867v-14.222h11.671v14.222
			C286.128,197.734,283.951,199.914,281.266,199.914z"/>
		<polygon id="XMLID_332_" fill="#52669C" points="274.457,186.44 271.245,188.146 276.143,215.602 282.693,199.385 		"/>
		<polygon id="XMLID_331_" fill="#52669C" points="282.693,199.385 286.128,181.993 287.622,181.993 294.229,205.039 		"/>
		<g id="XMLID_329_">
			<path id="XMLID_330_" fill="#F2B1B5" d="M293.038,312.469c-1.834,0-3.646-0.816-4.854-2.375l-18.365-23.619
				c-10-12.865-15.073-28.91-14.291-45.183l1.464-23.069c0.161-3.389,3.053-6.022,6.431-5.841c3.391,0.164,6.004,3.043,5.839,6.431
				l-1.462,23.068c-0.645,13.346,3.52,26.503,11.719,37.053l18.367,23.621c2.083,2.678,1.602,6.535-1.078,8.619
				C295.684,312.044,294.354,312.469,293.038,312.469z"/>
		</g>
		<path id="XMLID_328_" fill="#F2B1B5" d="M297.377,299.973l-18.322-6.856c-1.037-0.392-1.562-1.548-1.174-2.587l0.278-0.75
			c0.389-1.036,1.547-1.564,2.585-1.176l18.318,6.858c1.039,0.39,1.565,1.547,1.179,2.584l-0.281,0.75
			C299.568,299.837,298.414,300.361,297.377,299.973z"/>
		<g id="XMLID_324_">
			<path id="XMLID_327_" fill="#7383AF" d="M349.94,260.016l-0.622-0.182c-0.577-0.168-1.199-0.094-1.725,0.205l-45.441,26.015
				c-1.065,0.615-1.942,2.123-1.95,3.355l-4.101,31.146c0,0.291,0.144,0.567,0.385,0.735l0.687,0.478l46.729-27.111
				c1.064-0.61,1.938-2.116,1.938-3.35L349.94,260.016z"/>
			<path id="XMLID_326_" fill="#96A2C3" d="M350.499,261.259c0-1.229-0.872-1.733-1.938-1.116l-45.852,26.472
				c-1.064,0.614-1.941,2.127-1.95,3.354l-4.301,30.476c-0.007,1.23,0.858,1.738,1.931,1.128l46.067-26.356
				c1.066-0.609,1.938-2.115,1.938-3.346L350.499,261.259z"/>
			<path id="XMLID_325_" fill="#B9C1D7" d="M327.494,288.33c-1.884,0.654-3.948,3.013-4.589,5.236
				c-0.643,2.227,0.372,3.509,2.251,2.85c1.881-0.658,3.944-3.014,4.591-5.234C330.391,288.958,329.379,287.677,327.494,288.33z"/>
		</g>
		<path id="XMLID_323_" opacity="0.33" fill="#E08DC1" d="M276.113,263.404c-3.982-7.198-7.582-15.469-7.293-21.473
			c0,0-0.668-23.222-4.621-23.413c-3.896-0.174-5.993-4.297-6.186-0.345l-1.464,23.071c-0.786,16.411,4.29,32.588,14.306,45.597
			l2.022,2.349c5.403-2.463,10.47-5.475,14.875-8.465C283.432,275.261,279.491,269.502,276.113,263.404z"/>
		<g id="XMLID_321_">
			<path id="XMLID_322_" fill="#FFFFFF" d="M286.686,287.085l-5.992-8.26c0,0-12.502-23.791-11.873-36.894l1.464-23.069
				c0.19-3.954-2.86-7.312-6.812-7.502c-3.895-0.174-7.312,2.861-7.505,6.813l-1.462,23.071
				c-0.788,16.411,4.289,32.588,14.309,45.597l8.158,9.474L286.686,287.085z"/>
		</g>
		<path id="XMLID_320_" fill="#F2B1B5" d="M277.564,183.595l-5.338-1.066c-3.475-0.693-5.728-4.07-5.033-7.543l5.811-29.103
			l32.117,6.412l-2.975,14.899C299.889,178.511,288.882,185.854,277.564,183.595z"/>
		<path id="XMLID_317_" fill="#52669C" d="M310.359,150.634c-0.547-2.617-2.785-4.589-5.459-4.657
			c-2.305-0.058-5.073-0.704-7.131-2.99c-2.938-3.267-7.58-4.668-11.896-5.494c-4.315-0.826-9.276,0.208-11.972,3.68
			c-1.756-2.283-5.498-2.067-7.754-0.275s-3.354,4.644-4.205,7.396c-1.696,5.479-2.817,11.343-1.551,16.937
			c0.317,1.409,0.785,2.779,1.25,4.147c1.176,3.457,1.604,7.075,2.975,10.499c0.179,0.446,0.385,0.913,0.775,1.19
			c0.564,0.401,1.379,0.278,1.94-0.125c0.565-0.404,0.925-1.029,1.222-1.655c1.42-3.017-0.15-4.685-0.037-7.772
			c0.063-1.657,0.83-3.388,2.312-4.14c1.982-1.007,4.327,0.03,6.521,0.416c5.146,0.903,16.217-4.517,13.053-11.132
			C297.551,158.597,307.688,159.573,310.359,150.634L310.359,150.634z"/>
		<g opacity="0.15">
			<path fill="#E08DC1" d="M304.9,145.977c-2.305-0.058-5.073-0.704-7.131-2.99c-2.938-3.267-7.58-4.668-11.896-5.494
				c-4.315-0.826-9.276,0.208-11.972,3.68c-1.756-2.283-5.498-2.067-7.754-0.275c-0.519,0.412-0.963,0.892-1.365,1.4
				c2.262-1.726,5.92-1.912,7.654,0.341c2.691-3.472,7.653-4.506,11.97-3.68c4.313,0.825,8.958,2.228,11.896,5.494
				c2.057,2.286,4.825,2.931,7.129,2.99c2.676,0.068,4.912,2.039,5.459,4.656c-0.433,1.446-1.074,2.609-1.854,3.574
				c1.475-1.138,2.64-2.765,3.319-5.039C309.812,148.017,307.574,146.045,304.9,145.977z"/>
		</g>
	</g>
</g>
<g>
	<g>
		<path opacity="0.3" fill="#231F20" d="M185.545,205.257c2.568,1.894,5.142,3.326,7.689,4.414l0.576,0.331l0.04-0.071
			c20.937,8.48,39.983-7.422,39.983-7.422c4.041-3.652,5.461-13.028,5.113-19.573c0.411-1.484,0.837-3.263,1.36-5.462
			c1.241-5.216,1.821-11.738,1.92-18.831l-83.741,48.347v1.438l16.249-9.379L185.545,205.257z"/>
	</g>
	<g id="XMLID_296_">
		<g id="XMLID_230_">
			<path id="XMLID_234_" fill="#52669C" d="M224.917,190.495l-38.743-22.243v23.179l-21.825,12.602v-39.689
				c0-7.075,3.658-13.41,9.786-16.947c6.131-3.54,13.446-3.536,19.572,0.001l42.125,24.198L224.917,190.495z"/>
		</g>
		<g id="XMLID_232_">
			<path id="XMLID_235_" fill="#52669C" d="M199.672,205.605l-38.745-22.245v23.181l-21.826,12.6v-39.689
				c0-7.075,3.658-13.41,9.788-16.947c6.128-3.54,13.447-3.537,19.57,0l42.125,24.198L199.672,205.605z"/>
		</g>
		<g opacity="0.15">
			<path fill="#E08DC1" d="M142.034,179.452c0-7.075,3.656-13.41,9.785-16.947c2.619-1.513,5.454-2.337,8.318-2.557
				c-3.839-0.296-7.737,0.53-11.248,2.557c-6.129,3.537-9.788,9.872-9.788,16.947v39.689l2.933-1.692V179.452z"/>
		</g>
		<path id="XMLID_231_" fill="#52669C" d="M191.406,200.861c23.912,17.627,48.289-2.75,48.289-2.75
			c5.207-4.705,6.077-18.93,4.397-24.331l-6.602-6.675l-34.187,19.014L191.406,200.861z"/>
		<g id="XMLID_308_">
			<path id="XMLID_306_" fill="#7383AF" d="M132.313,126.513l47.447-27.394c0.643-0.37,1.444,0.093,1.444,0.833l13.334,36.343
				c0,0.747-0.398,1.436-1.045,1.81l-47.447,27.393c-0.64,0.37-1.093-0.098-1.442-0.832l-13.336-36.343
				C131.268,127.576,131.667,126.887,132.313,126.513z"/>
			<path id="XMLID_305_" fill="#52669C" d="M132.926,126.922l47.447-27.394c0.643-0.37,1.198,0.2,1.444,0.833l13.334,36.343
				c0,0.746-0.399,1.436-1.045,1.809l-47.446,27.394c-0.64,0.37-1.075-0.124-1.442-0.833l-13.336-36.342
				C131.881,127.986,132.28,127.296,132.926,126.922z"/>
			
				<linearGradient id="XMLID_5_" gradientUnits="userSpaceOnUse" x1="134.4609" y1="423.7871" x2="192.6768" y2="423.7871" gradientTransform="matrix(1 0 0 1 0 -291)">
				<stop  offset="0" style="stop-color:#D35FA7"/>
				<stop  offset="0.33" style="stop-color:#D975B3"/>
				<stop  offset="1" style="stop-color:#F1AB8C"/>
			</linearGradient>
			<polygon id="XMLID_304_" fill="url(#XMLID_5_)" points="134.461,128.683 180.5,102.648 192.677,136.548 146.814,162.927 			"/>
			<path id="XMLID_303_" fill="#7383AF" d="M197.259,139.659l30.385,16.028c0,0,0.166,2.372-0.48,2.746l-46.555,26.878
				c-1.188,0.686-2.652,0.69-3.842,0.009l-29.9-17.092c-1.236-0.767-0.489-2.752-0.489-2.752l47.039-25.808
				C194.605,138.981,196.067,138.979,197.259,139.659z"/>
			<path id="XMLID_302_" fill="#F7F7F7" d="M197.259,137.82l29.9,17.092c0.649,0.371,0.651,1.308,0.005,1.681l-46.555,26.877
				c-1.188,0.688-2.652,0.689-3.842,0.008l-29.9-17.091c-0.649-0.373-0.651-1.31-0.001-1.684l46.552-26.876
				C194.605,137.142,196.067,137.138,197.259,137.82z"/>
			<path id="XMLID_301_" fill="#7383AF" d="M199.911,159.951l7.88,4.505c0.172,0.097,0.172,0.345,0,0.444l-12.271,7.083
				c-0.312,0.181-0.699,0.181-1.012,0.002l-7.88-4.505c-0.172-0.098-0.172-0.345-0.003-0.444l12.273-7.084
				C199.211,159.772,199.595,159.771,199.911,159.951z"/>
			<path id="XMLID_300_" fill="#52669C" d="M193.962,140.431l-2.574,1.486c-0.103,0.06-0.103,0.208,0,0.266l1.279,0.737
				c0.103,0.058,0.229,0.058,0.332-0.001l2.576-1.487c0.103-0.06,0.103-0.208,0-0.267l-1.28-0.734
				C194.191,140.371,194.065,140.371,193.962,140.431z"/>
			<path id="XMLID_299_" fill="#52669C" d="M190.187,142.679l-2.574,1.488c-0.103,0.058-0.103,0.206,0,0.266l1.279,0.735
				c0.103,0.058,0.229,0.058,0.332,0l2.579-1.489c0.102-0.058,0.102-0.206-0.003-0.266l-1.28-0.735
				C190.416,142.621,190.29,142.621,190.187,142.679z"/>
			<path id="XMLID_298_" fill="#52669C" d="M186.399,144.808l-2.574,1.488c-0.103,0.059-0.103,0.207,0,0.267l1.278,0.735
				c0.103,0.059,0.229,0.059,0.333,0l2.575-1.488c0.103-0.059,0.103-0.207,0-0.266l-1.28-0.735
				C186.628,144.749,186.501,144.749,186.399,144.808z"/>
			<path id="XMLID_297_" fill="#52669C" d="M182.497,147.007l-2.575,1.487c-0.105,0.059-0.103,0.208,0,0.266l1.278,0.735
				c0.103,0.06,0.229,0.06,0.333,0l2.576-1.487c0.103-0.059,0.103-0.207,0-0.266l-1.28-0.736
				C182.726,146.948,182.6,146.948,182.497,147.007z"/>
			<path id="XMLID_295_" fill="#52669C" d="M178.748,149.097l-2.576,1.487c-0.103,0.058-0.103,0.207,0,0.266l1.279,0.735
				c0.103,0.059,0.23,0.059,0.333,0l2.574-1.487c0.103-0.061,0.103-0.208,0-0.266l-1.278-0.737
				C178.977,149.037,178.851,149.037,178.748,149.097z"/>
			<path id="XMLID_294_" fill="#52669C" d="M175.103,151.345l-2.577,1.486c-0.103,0.06-0.103,0.208,0,0.267l1.281,0.736
				c0.103,0.059,0.229,0.059,0.33,0l2.578-1.488c0.103-0.059,0.103-0.208,0-0.266l-1.28-0.735
				C175.333,151.285,175.206,151.285,175.103,151.345z"/>
			<path id="XMLID_293_" fill="#52669C" d="M171.288,153.449l-2.579,1.486c-0.103,0.06-0.1,0.208,0,0.267l1.283,0.736
				c0.103,0.058,0.229,0.058,0.332,0l2.574-1.488c0.103-0.059,0.103-0.207,0-0.266l-1.279-0.735
				C171.517,153.389,171.39,153.389,171.288,153.449z"/>
			<path id="XMLID_292_" fill="#52669C" d="M167.528,155.688l-2.577,1.487c-0.103,0.059-0.103,0.207,0,0.266l1.278,0.737
				c0.103,0.058,0.229,0.058,0.333-0.001l2.578-1.487c0.103-0.058,0.103-0.206,0-0.266l-1.283-0.735
				C167.754,155.628,167.63,155.628,167.528,155.688z"/>
			<path id="XMLID_289_" fill="#52669C" d="M163.828,157.869l-2.574,1.486c-0.103,0.06-0.103,0.208,0,0.267l1.279,0.736
				c0.103,0.059,0.229,0.059,0.332,0l2.579-1.488c0.103-0.059,0.103-0.207,0-0.267l-1.282-0.734
				C164.058,157.809,163.931,157.809,163.828,157.869z"/>
			<path id="XMLID_288_" fill="#52669C" d="M159.934,160.115l-2.578,1.487c-0.102,0.06-0.102,0.208,0,0.266l1.279,0.736
				c0.105,0.059,0.229,0.059,0.333-0.001l2.577-1.486c0.103-0.06,0.103-0.208,0-0.266l-1.281-0.736
				C160.164,160.055,160.037,160.055,159.934,160.115z"/>
			<path id="XMLID_287_" fill="#52669C" d="M156.149,162.238l-2.578,1.488c-0.103,0.059-0.103,0.208,0,0.266l1.282,0.735
				c0.103,0.06,0.229,0.06,0.331,0l2.576-1.487c0.103-0.06,0.103-0.208,0-0.266l-1.28-0.736
				C156.377,162.179,156.251,162.179,156.149,162.238z"/>
			<g id="XMLID_275_">
				<path id="XMLID_286_" fill="#52669C" d="M199.202,143.232l-1.746-1.021c-0.226-0.132-0.505-0.134-0.731-0.003l-1.707,0.985
					c-0.237,0.137-0.241,0.479-0.008,0.623l1.694,1.041c0.229,0.141,0.516,0.144,0.748,0.011l1.746-1.007
					C199.443,143.722,199.443,143.373,199.202,143.232z"/>
				<path id="XMLID_285_" fill="#52669C" d="M195.294,145.482l-1.744-1.022c-0.226-0.132-0.506-0.134-0.735-0.002l-1.704,0.984
					c-0.239,0.137-0.243,0.479-0.01,0.624l1.697,1.041c0.227,0.139,0.513,0.145,0.744,0.01l1.75-1.007
					C195.533,145.97,195.536,145.623,195.294,145.482z"/>
				<path id="XMLID_284_" fill="#52669C" d="M191.5,147.611l-1.746-1.022c-0.227-0.133-0.505-0.133-0.732-0.003l-1.706,0.985
					c-0.236,0.137-0.242,0.479-0.008,0.625l1.694,1.041c0.23,0.139,0.517,0.144,0.749,0.01l1.746-1.007
					C191.741,148.099,191.741,147.751,191.5,147.611z"/>
				<path id="XMLID_283_" fill="#52669C" d="M187.464,149.809l-1.745-1.021c-0.227-0.134-0.505-0.134-0.732-0.002l-1.707,0.983
					c-0.239,0.139-0.242,0.48-0.008,0.624l1.695,1.041c0.229,0.141,0.516,0.145,0.748,0.011l1.746-1.007
					C187.706,150.299,187.706,149.95,187.464,149.809z"/>
				<path id="XMLID_282_" fill="#52669C" d="M183.907,151.898l-1.744-1.021c-0.227-0.132-0.506-0.134-0.733-0.003l-1.706,0.984
					c-0.236,0.139-0.242,0.481-0.007,0.625l1.694,1.04c0.229,0.141,0.516,0.144,0.747,0.011l1.749-1.007
					C184.148,152.388,184.148,152.04,183.907,151.898z"/>
				<path id="XMLID_281_" fill="#52669C" d="M180.297,154.136l-1.748-1.021c-0.227-0.132-0.505-0.134-0.732-0.002l-1.704,0.984
					c-0.238,0.138-0.244,0.48-0.01,0.625l1.696,1.04c0.228,0.14,0.514,0.145,0.746,0.011l1.75-1.007
					C180.536,154.624,180.536,154.276,180.297,154.136z"/>
				<path id="XMLID_280_" fill="#52669C" d="M176.435,156.25l-1.743-1.021c-0.227-0.132-0.507-0.134-0.736-0.002l-1.704,0.984
					c-0.239,0.138-0.244,0.48-0.01,0.624l1.698,1.041c0.227,0.14,0.513,0.145,0.744,0.012l1.75-1.007
					C176.673,156.74,176.676,156.393,176.435,156.25z"/>
				<path id="XMLID_279_" fill="#52669C" d="M172.656,158.394l-1.743-1.022c-0.227-0.133-0.51-0.133-0.736-0.002l-1.704,0.984
					c-0.239,0.137-0.243,0.479-0.007,0.624l1.695,1.041c0.227,0.139,0.513,0.144,0.744,0.009l1.75-1.006
					C172.896,158.882,172.898,158.535,172.656,158.394z"/>
				<path id="XMLID_278_" fill="#52669C" d="M168.944,160.67l-1.748-1.021c-0.227-0.132-0.505-0.134-0.732-0.003l-1.707,0.984
					c-0.235,0.138-0.241,0.48-0.008,0.625l1.696,1.041c0.228,0.14,0.515,0.144,0.747,0.011l1.75-1.007
					C169.182,161.16,169.182,160.811,168.944,160.67z"/>
				<path id="XMLID_277_" fill="#52669C" d="M164.896,163.055l-1.746-1.021c-0.227-0.134-0.508-0.134-0.734-0.003l-1.704,0.983
					c-0.24,0.139-0.244,0.481-0.01,0.625l1.697,1.04c0.227,0.142,0.513,0.146,0.745,0.011l1.75-1.006
					C165.135,163.544,165.135,163.195,164.896,163.055z"/>
				<path id="XMLID_276_" fill="#52669C" d="M161.235,165.041l-1.745-1.022c-0.227-0.132-0.507-0.132-0.733-0.001L157.05,165
					c-0.239,0.139-0.24,0.481-0.007,0.624l1.695,1.041c0.229,0.14,0.516,0.144,0.747,0.01l1.748-1.007
					C161.476,165.53,161.476,165.181,161.235,165.041z"/>
			</g>
			<g id="XMLID_260_">
				<path id="XMLID_274_" fill="#52669C" d="M203.092,145.347l-1.747-1.021c-0.225-0.133-0.507-0.134-0.733-0.002l-1.704,0.984
					c-0.238,0.138-0.244,0.48-0.009,0.624l1.694,1.04c0.229,0.141,0.515,0.144,0.747,0.011l1.75-1.007
					C203.33,145.836,203.33,145.488,203.092,145.347z"/>
				<path id="XMLID_273_" fill="#52669C" d="M199.183,147.597l-1.746-1.022c-0.227-0.133-0.506-0.134-0.733-0.002l-1.707,0.984
					c-0.236,0.137-0.24,0.48-0.007,0.624l1.694,1.041c0.23,0.14,0.517,0.145,0.747,0.011l1.748-1.008
					C199.423,148.084,199.423,147.738,199.183,147.597z"/>
				<path id="XMLID_272_" fill="#52669C" d="M195.39,149.726l-1.747-1.023c-0.225-0.132-0.506-0.133-0.733-0.002l-1.704,0.985
					c-0.239,0.136-0.244,0.479-0.009,0.624l1.694,1.041c0.229,0.139,0.515,0.144,0.747,0.011l1.749-1.007
					C195.628,150.214,195.628,149.867,195.39,149.726z"/>
				<path id="XMLID_271_" fill="#52669C" d="M191.354,151.924l-1.748-1.021c-0.224-0.133-0.505-0.134-0.732-0.002l-1.704,0.983
					c-0.239,0.139-0.244,0.481-0.011,0.624l1.695,1.041c0.229,0.141,0.516,0.145,0.748,0.011l1.749-1.007
					C191.593,152.413,191.593,152.064,191.354,151.924z"/>
				<path id="XMLID_270_" fill="#52669C" d="M187.798,154.013l-1.747-1.022c-0.224-0.133-0.506-0.133-0.733-0.002l-1.704,0.983
					c-0.238,0.138-0.242,0.48-0.009,0.624l1.694,1.041c0.229,0.141,0.516,0.146,0.747,0.011l1.75-1.007
					C188.036,154.503,188.039,154.154,187.798,154.013z"/>
				<path id="XMLID_269_" fill="#52669C" d="M184.185,156.249l-1.745-1.021c-0.227-0.133-0.508-0.133-0.734-0.003l-1.704,0.984
					c-0.239,0.138-0.244,0.48-0.009,0.625l1.697,1.04c0.227,0.14,0.512,0.144,0.744,0.011l1.75-1.007
					C184.423,156.738,184.426,156.39,184.185,156.249z"/>
				<path id="XMLID_268_" fill="#52669C" d="M180.324,158.366l-1.745-1.022c-0.227-0.133-0.506-0.133-0.733-0.003l-1.706,0.984
					c-0.236,0.138-0.242,0.48-0.007,0.625l1.695,1.041c0.229,0.139,0.516,0.144,0.746,0.011l1.748-1.007
					C180.564,158.854,180.564,158.507,180.324,158.366z"/>
				<path id="XMLID_267_" fill="#52669C" d="M176.545,160.507l-1.745-1.022c-0.227-0.132-0.505-0.133-0.735-0.002l-1.705,0.985
					c-0.236,0.137-0.24,0.479-0.007,0.624l1.695,1.041c0.229,0.14,0.516,0.143,0.746,0.01l1.748-1.007
					C176.786,160.997,176.786,160.648,176.545,160.507z"/>
				<path id="XMLID_263_" fill="#52669C" d="M172.831,162.786l-1.745-1.022c-0.226-0.132-0.508-0.134-0.734-0.003l-1.704,0.985
					c-0.239,0.138-0.244,0.48-0.009,0.625l1.697,1.041c0.227,0.14,0.512,0.143,0.744,0.01l1.75-1.006
					C173.07,163.274,173.073,162.927,172.831,162.786z"/>
				<path id="XMLID_262_" fill="#52669C" d="M168.784,165.169l-1.746-1.021c-0.227-0.132-0.505-0.133-0.734-0.002l-1.704,0.983
					c-0.239,0.139-0.244,0.481-0.009,0.625l1.696,1.041c0.227,0.141,0.513,0.144,0.748,0.011l1.747-1.007
					C169.022,165.659,169.025,165.31,168.784,165.169z"/>
				<path id="XMLID_261_" fill="#52669C" d="M165.125,167.155l-1.748-1.021c-0.224-0.134-0.505-0.134-0.732-0.002l-1.705,0.983
					c-0.238,0.139-0.243,0.479-0.009,0.625l1.694,1.041c0.23,0.14,0.517,0.144,0.749,0.011l1.749-1.007
					C165.364,167.643,165.364,167.296,165.125,167.155z"/>
			</g>
			<g id="XMLID_247_">
				<path id="XMLID_259_" fill="#52669C" d="M206.979,147.461l-1.744-1.021c-0.227-0.133-0.507-0.134-0.736-0.002l-1.704,0.984
					c-0.239,0.137-0.244,0.48-0.009,0.624l1.697,1.042c0.226,0.139,0.513,0.143,0.744,0.009l1.75-1.007
					C207.218,147.951,207.221,147.603,206.979,147.461z"/>
				<path id="XMLID_258_" fill="#52669C" d="M203.073,149.711l-1.748-1.022c-0.227-0.132-0.505-0.132-0.732-0.002l-1.705,0.985
					c-0.238,0.137-0.243,0.479-0.009,0.624l1.694,1.041c0.229,0.14,0.516,0.145,0.748,0.011l1.749-1.007
					C203.312,150.199,203.312,149.852,203.073,149.711z"/>
				<path id="XMLID_256_" fill="#52669C" d="M199.278,151.84l-1.744-1.023c-0.227-0.132-0.509-0.134-0.736-0.002l-1.704,0.984
					c-0.238,0.137-0.244,0.479-0.009,0.624l1.697,1.041c0.227,0.14,0.513,0.145,0.744,0.01l1.75-1.007
					C199.516,152.328,199.519,151.981,199.278,151.84z"/>
				<path id="XMLID_255_" fill="#52669C" d="M195.242,154.038l-1.746-1.021c-0.227-0.133-0.507-0.134-0.734-0.003l-1.704,0.983
					c-0.239,0.138-0.244,0.481-0.009,0.625l1.695,1.041c0.229,0.139,0.514,0.144,0.746,0.01l1.749-1.007
					C195.481,154.527,195.483,154.179,195.242,154.038z"/>
				<path id="XMLID_254_" fill="#52669C" d="M191.687,156.128l-1.745-1.022c-0.227-0.132-0.507-0.133-0.735-0.002l-1.705,0.983
					c-0.238,0.139-0.242,0.48-0.009,0.624l1.697,1.041c0.227,0.141,0.513,0.145,0.745,0.011l1.75-1.006
					C191.925,156.617,191.926,156.269,191.687,156.128z"/>
				<path id="XMLID_253_" fill="#52669C" d="M188.072,158.365l-1.743-1.022c-0.227-0.132-0.507-0.133-0.733-0.002l-1.707,0.984
					c-0.239,0.138-0.244,0.479-0.007,0.624l1.695,1.041c0.229,0.14,0.514,0.145,0.747,0.01l1.747-1.006
					C188.313,158.854,188.313,158.506,188.072,158.365z"/>
				<path id="XMLID_252_" fill="#52669C" d="M184.214,160.48l-1.748-1.022c-0.227-0.132-0.505-0.133-0.732-0.002l-1.705,0.984
					c-0.239,0.137-0.243,0.479-0.01,0.624l1.694,1.041c0.23,0.139,0.517,0.144,0.749,0.011l1.749-1.007
					C184.453,160.969,184.453,160.621,184.214,160.48z"/>
				<path id="XMLID_251_" fill="#52669C" d="M180.436,162.622l-1.748-1.021c-0.226-0.132-0.505-0.133-0.731-0.002l-1.705,0.985
					c-0.239,0.137-0.243,0.48-0.009,0.624l1.694,1.041c0.229,0.14,0.516,0.144,0.748,0.01l1.749-1.006
					C180.675,163.111,180.675,162.762,180.436,162.622z"/>
				<path id="XMLID_250_" fill="#52669C" d="M176.719,164.901l-1.744-1.023c-0.227-0.132-0.507-0.133-0.736-0.002l-1.704,0.984
					c-0.239,0.138-0.242,0.48-0.007,0.625l1.695,1.041c0.227,0.14,0.513,0.144,0.747,0.01l1.748-1.006
					C176.958,165.39,176.96,165.041,176.719,164.901z"/>
				<path id="XMLID_249_" fill="#52669C" d="M172.671,167.284l-1.743-1.021c-0.228-0.134-0.507-0.134-0.733-0.003l-1.707,0.984
					c-0.236,0.138-0.241,0.48-0.007,0.624l1.695,1.041c0.228,0.141,0.514,0.144,0.746,0.011l1.747-1.007
					C172.913,167.773,172.913,167.425,172.671,167.284z"/>
				<path id="XMLID_248_" fill="#52669C" d="M169.013,169.27l-1.745-1.022c-0.227-0.132-0.508-0.132-0.735-0.001l-1.704,0.983
					c-0.239,0.139-0.244,0.48-0.011,0.625l1.697,1.041c0.227,0.14,0.513,0.144,0.745,0.011l1.749-1.007
					C169.251,169.759,169.254,169.41,169.013,169.27z"/>
			</g>
			<g id="XMLID_233_">
				<path id="XMLID_246_" fill="#52669C" d="M210.867,149.577l-1.744-1.022c-0.227-0.132-0.507-0.133-0.733-0.002l-1.707,0.984
					c-0.239,0.137-0.241,0.479-0.007,0.623l1.694,1.041c0.229,0.141,0.516,0.145,0.747,0.011l1.748-1.007
					C211.108,150.065,211.108,149.717,210.867,149.577z"/>
				<path id="XMLID_245_" fill="#52669C" d="M206.961,151.826l-1.746-1.023c-0.226-0.132-0.508-0.133-0.734-0.002l-1.704,0.985
					c-0.238,0.137-0.244,0.48-0.01,0.625l1.697,1.041c0.226,0.139,0.513,0.144,0.745,0.011l1.75-1.007
					C207.199,152.313,207.202,151.966,206.961,151.826z"/>
				<path id="XMLID_244_" fill="#52669C" d="M203.165,153.955l-1.744-1.022c-0.227-0.132-0.507-0.134-0.733-0.002l-1.707,0.984
					c-0.236,0.137-0.242,0.48-0.006,0.624l1.694,1.041c0.229,0.14,0.516,0.144,0.747,0.011l1.748-1.007
					C203.406,154.443,203.406,154.095,203.165,153.955z"/>
				<path id="XMLID_243_" fill="#52669C" d="M199.13,156.153l-1.744-1.021c-0.227-0.133-0.506-0.133-0.733-0.002l-1.706,0.984
					c-0.239,0.138-0.244,0.479-0.007,0.624l1.694,1.041c0.227,0.139,0.514,0.144,0.747,0.011l1.746-1.007
					C199.369,156.642,199.371,156.294,199.13,156.153z"/>
				<path id="XMLID_242_" fill="#52669C" d="M195.242,158.474l-1.746-1.021c-0.227-0.134-0.507-0.134-0.734-0.002l-8.874,5.124
					c-0.239,0.139-0.244,0.481-0.007,0.625l1.695,1.041c0.229,0.141,0.514,0.144,0.747,0.011l8.916-5.148
					C195.481,158.963,195.483,158.615,195.242,158.474z"/>
				<path id="XMLID_241_" fill="#52669C" d="M184.323,164.736l-1.745-1.021c-0.227-0.132-0.508-0.134-0.735-0.003l-1.704,0.985
					c-0.238,0.138-0.244,0.479-0.011,0.625l1.697,1.04c0.227,0.14,0.514,0.143,0.746,0.01l1.749-1.006
					C184.562,165.226,184.564,164.878,184.323,164.736z"/>
				<path id="XMLID_239_" fill="#52669C" d="M180.607,167.015l-1.745-1.022c-0.227-0.132-0.507-0.133-0.733-0.002l-1.707,0.984
					c-0.236,0.138-0.24,0.479-0.007,0.624l1.695,1.041c0.229,0.14,0.516,0.143,0.747,0.01l1.75-1.006
					C180.848,167.504,180.848,167.155,180.607,167.015z"/>
				<path id="XMLID_237_" fill="#52669C" d="M176.562,169.399l-1.747-1.022c-0.226-0.133-0.506-0.133-0.733-0.002l-1.704,0.983
					c-0.239,0.138-0.244,0.48-0.009,0.624l1.695,1.041c0.229,0.141,0.516,0.145,0.746,0.011l1.749-1.007
					C176.8,169.889,176.8,169.54,176.562,169.399z"/>
				<path id="XMLID_236_" fill="#52669C" d="M172.901,171.385l-1.746-1.023c-0.227-0.132-0.505-0.132-0.734,0l-1.704,0.983
					c-0.238,0.139-0.244,0.481-0.008,0.624l1.694,1.041c0.229,0.141,0.516,0.146,0.748,0.011l1.747-1.007
					C173.139,171.873,173.142,171.525,172.901,171.385z"/>
			</g>
		</g>
		<path id="XMLID_229_" fill="#8A97BC" d="M194.282,130.694c-0.489-7.97,3.067-22.971,5.798-28.322
			c3.401-6.664,9.15-12.436,15.461-16.079l6.231-3.597c7.996-4.617,11.535,3.785,17.99,10.386
			c25.281,25.849,7.792,69.209,6.733,92.451c-0.527,11.569-27.513,14.289-35.447,14.296c-11.276,0.013-27.367-7.883-25.677-12.398
			C198.876,151.346,195.635,152.804,194.282,130.694z"/>
		<path opacity="0.15" fill="#E08DC1" d="M239.762,93.082c-5.655-5.781-9.074-12.944-15.21-11.529
			c4.436,1.021,7.593,6.738,12.278,11.529c25.281,25.849,7.792,69.209,6.735,92.451c-0.492,10.788-23.984,13.879-33.585,14.253
			c0.356,0.015,0.721,0.043,1.069,0.043c7.934-0.008,34.92-2.729,35.447-14.296C247.554,162.291,265.043,118.931,239.762,93.082z"/>
		<path id="XMLID_228_" fill="#F2B1B5" d="M219.251,93.971h-2.19c-2.371,0-4.292-1.921-4.292-4.291V75.543
			c0-2.371,1.921-4.292,4.292-4.292h2.19c2.371,0,4.292,1.922,4.292,4.292V89.68C223.543,92.05,221.622,93.971,219.251,93.971z"/>
		<path id="XMLID_226_" fill="#F2B1B5" d="M227.911,80.955l-6.748,2.142c-11.124,3.53-23.003-2.625-26.534-13.748l-6.813-21.469
			l33.2-10.538l11.204,35.297C233.326,76.127,231.395,79.85,227.911,80.955z"/>
		<path fill="#5F71A4" d="M230.815,41.635c-1.112-3.396-3.11-7.575-7.146-7.902c-2.758-0.224-5.5,1.379-6.94,3.743
			c-2.21-2.644-6.207-2.721-9.625-2.275c-6.292,0.818-13.3,2.371-18.43,6.181c-3.755,2.788-8.608,6.373-7.491,11.773
			c0.592,2.871,2.984,4.986,5.64,6.003c1.301,0.501,2.582,0.437,3.788,1.091c1.277,0.694,2.011,2.092,3.421,2.636
			c1.832,0.709,4.078-0.221,5.782,0.758c1.796,1.032,1.954,3.49,2.27,5.538c0.508,3.32,1.52,5.994,3.644,8.689
			c1.392,1.767,3.055,3.389,5.105,4.313c1.683,0.757,3.539,1.01,5.368,1.253c0.435,0.059,0.871,0.107,1.308,0.149
			c5.31,0.495,10.88-0.348,14.403-4.82c2.205-2.8,3.25-6.361,3.658-9.901C236.639,59.637,233.708,50.465,230.815,41.635z"/>
		<g opacity="0.15">
			<path fill="#E08DC1" d="M213.799,37.477c0.317-0.522,0.706-0.998,1.135-1.433c-1.869-1.007-4.243-1.163-6.511-0.982
				C210.514,35.244,212.479,35.896,213.799,37.477z"/>
			<path fill="#E08DC1" d="M230.815,41.635c-1.112-3.396-3.11-7.575-7.146-7.902c-0.707-0.058-1.411,0.008-2.096,0.172
				c3.468,0.806,5.279,4.583,6.31,7.729c2.893,8.83,5.822,18.001,4.755,27.23c-0.41,3.54-1.456,7.101-3.66,9.901
				c-2.613,3.318-6.353,4.633-10.276,4.89c4.938,0.261,9.946-0.75,13.208-4.89c2.205-2.8,3.25-6.361,3.658-9.901
				C236.639,59.637,233.708,50.465,230.815,41.635z"/>
		</g>
		<path opacity="0.3" fill="#231F20" d="M218.369,142.495l-3.691-26.61c-0.519-3.729-3.962-6.341-7.695-5.817
			c-3.73,0.516-6.336,3.961-5.818,7.692l3.691,26.612c0.732,5.271-0.979,10.481-4.694,14.292c-1.857,1.903-4.077,3.314-6.495,4.176
			c-1.016,3.873-2.513,8.561-4.641,14.581c7.86-0.266,15.301-3.488,20.902-9.233C216.607,161.336,219.683,151.972,218.369,142.495z"
			/>
		<g id="XMLID_290_">
			<path fill="#F2B1B5" d="M187.981,173.076c-1.119,0-2.241-0.06-3.367-0.182l-8.353-0.56c-3.76-0.253-6.602-3.503-6.349-7.263
				c0.251-3.759,3.553-6.574,7.259-6.348l8.815,0.599c5.283,0.592,10.458-1.243,14.174-5.055c3.716-3.81,5.426-9.021,4.694-14.292
				l-3.691-26.612c-0.519-3.731,2.088-7.176,5.818-7.693c3.733-0.524,7.177,2.087,7.695,5.817l3.691,26.61
				c1.314,9.478-1.761,18.842-8.441,25.693C204.077,169.792,196.227,173.076,187.981,173.076z"/>
		</g>
		<g id="XMLID_2_">
			<path fill="#8A97BC" d="M218.922,139.459l-4.002-28.84c-0.562-4.042-4.293-6.872-8.339-6.305
				c-4.042,0.561-6.869,4.295-6.308,8.339l4.002,28.841L218.922,139.459z"/>
		</g>
		<path id="XMLID_291_" fill="#F2B1B5" d="M177.12,161.599h-13.081c-0.68,0-1.229-0.55-1.229-1.229v-0.49
			c0-0.679,0.549-1.228,1.229-1.228h13.081c0.679,0,1.229,0.548,1.229,1.228v0.49C178.349,161.049,177.799,161.599,177.12,161.599z"
			/>
		<path id="XMLID_311_" fill="#F2B1B5" d="M184.51,163.205l-11.385-6.448c-0.589-0.333-0.797-1.084-0.462-1.674l0.241-0.426
			c0.334-0.591,1.085-0.798,1.676-0.465l11.381,6.449c0.592,0.334,0.8,1.083,0.462,1.674l-0.241,0.426
			C185.849,163.332,185.099,163.538,184.51,163.205z"/>
		<path id="XMLID_307_" fill="#F2B1B5" d="M174.834,165.82H161.75c-0.677,0-1.226-0.55-1.226-1.229v-0.49
			c0-0.678,0.549-1.228,1.226-1.228h13.084c0.677,0,1.226,0.55,1.226,1.228v0.49C176.06,165.27,175.511,165.82,174.834,165.82z"/>
		<path id="XMLID_309_" fill="#F2B1B5" d="M177.22,168.407l-13.019,1.296c-0.676,0.068-1.277-0.425-1.344-1.1l-0.048-0.487
			c-0.069-0.676,0.425-1.277,1.1-1.345l13.017-1.297c0.676-0.066,1.277,0.427,1.344,1.101l0.05,0.487
			C178.388,167.738,177.894,168.34,177.22,168.407z"/>
		<path id="XMLID_310_" fill="#F2B1B5" d="M178.851,171.948l-13.017,1.296c-0.675,0.068-1.276-0.425-1.346-1.1l-0.048-0.487
			c-0.066-0.676,0.424-1.277,1.1-1.345l13.02-1.296c0.674-0.068,1.275,0.426,1.343,1.1l0.048,0.487
			C180.017,171.279,179.527,171.88,178.851,171.948z"/>
	</g>
</g>
<g>
	<path opacity="0.3" fill="#231F20" d="M161.297,313.469c1.485-0.547-6.308-7.434-6.308-7.434l-55.104,10.928l-15.587,8.35
		c-3.172,1.854-6.213,3.863-8.888,6.316l-9.596,5.542c-0.495,0.286-0.738,0.659-0.755,1.035l-0.012,0.007v0.956
		c0,0.504,0.267,0.97,0.704,1.22l2.487,1.436c-1.596,3.898-2.537,8.599-2.537,14.447c0,0-0.363,4.117-0.587,9.604l29.008,16.747
		c0.205,0.048,0.422,0.102,0.627,0.15v0.211l13.026,7.521v-4.728c1.234,0.332,2.267,0.652,3.041,0.964
		c4.248,1.721,5.406-19.563,5.406-19.563s0.32-5.697,8.047-10.154l26.051-15.018C160.95,335.895,164.579,323.755,161.297,313.469z"
		/>
	<g id="XMLID_4_">
		<path id="XMLID_83_" fill="#E6E8E8" d="M69.036,407.303l-30.917,18.104l-0.012,3.149c-0.015,2.806,1.437,5.411,3.828,6.876
			l5.926,3.636c1.642,1.009,3.714,1.011,5.36,0.009l23.996-14.041c2.332-1.42,3.754-3.955,3.754-6.687v-3.576L69.036,407.303z"/>
		<path id="XMLID_68_" fill="#FFFFFF" d="M61.685,408.493l-20.337,11.76c-4.334,2.617-4.354,8.896-0.038,11.543l5.43,3.33
			c2.332,1.43,5.27,1.435,7.604,0.01l23.003-13.438c4.921-2.999,4.812-10.183-0.198-13.03l-0.647-0.368
			C71.893,405.678,66.224,405.751,61.685,408.493z"/>
		<g id="XMLID_67_">
			<path fill="#F2B1B5" d="M76.083,414.939c-0.32-1.958-1.413-3.809-3.379-4.929l-0.594-0.338c-1.573-0.892-3.282-1.442-5.019-1.656
				c-1.248,0.187-2.468,0.611-3.585,1.287l-10.945,6.382c-2.857,1.728-2.872,5.868-0.024,7.612l3.579,2.195
				c1.538,0.941,3.476,0.946,5.015,0.006l12.704-7.49C75.045,417.274,75.791,416.152,76.083,414.939z"/>
		</g>
		<path id="XMLID_66_" fill="#E6E8E8" d="M95.998,421.992L65.084,440.09l-0.015,3.153c-0.014,2.805,1.44,5.411,3.829,6.877
			l5.927,3.634c1.644,1.008,3.713,1.009,5.359,0.008l23.995-14.041c2.332-1.42,3.757-3.956,3.757-6.686v-3.577L95.998,421.992z"/>
		<path id="XMLID_65_" fill="#FFFFFF" d="M88.647,423.182L68.311,434.94c-4.334,2.616-4.354,8.896-0.036,11.547l5.427,3.328
			c2.332,1.432,5.27,1.435,7.606,0.009l23-13.438c4.92-3.003,4.813-10.185-0.199-13.032l-0.647-0.367
			C98.854,420.364,93.187,420.438,88.647,423.182z"/>
		<g id="XMLID_60_">
			<path fill="#F2B1B5" d="M103.046,429.627c-0.318-1.959-1.413-3.806-3.378-4.926l-0.596-0.336
				c-1.573-0.896-3.279-1.447-5.019-1.658c-1.249,0.183-2.468,0.61-3.583,1.286l-10.945,6.381c-2.859,1.729-2.874,5.87-0.026,7.613
				l3.58,2.194c1.539,0.942,3.475,0.945,5.017,0.01l12.702-7.492C102.008,431.962,102.752,430.842,103.046,429.627z"/>
		</g>
		<g id="XMLID_58_">
			<g id="XMLID_59_">
				<path fill="#F2B1B5" d="M69.943,419.319c-3.6,0-6.516-2.916-6.516-6.518v-42.166c0-3.602,2.916-6.517,6.516-6.517
					c3.596,0,6.513,2.915,6.513,6.517v42.166C76.456,416.403,73.539,419.319,69.943,419.319z"/>
			</g>
		</g>
		<path opacity="0.3" fill="#E08DC1" d="M64.893,412.804v-42.17c0-3.347,2.534-6.069,5.782-6.438
			c-0.246-0.025-0.482-0.072-0.732-0.072c-3.6,0-6.516,2.915-6.516,6.513v42.17c0,3.602,2.916,6.518,6.516,6.518
			c0.25,0,0.487-0.048,0.732-0.073C67.427,418.875,64.893,416.149,64.893,412.804z"/>
		<g id="XMLID_56_">
			<g id="XMLID_57_">
				<path fill="#F2B1B5" d="M96.867,434.095c-3.599,0-6.515-2.916-6.515-6.516v-61.706c0-3.6,2.917-6.518,6.515-6.518
					c3.597,0,6.513,2.918,6.513,6.518v61.706C103.38,431.179,100.464,434.095,96.867,434.095z"/>
			</g>
		</g>
		<path id="XMLID_46_" fill="#3E5491" d="M114.564,275.732l-12.552,34.806l-22.109,11.843c-9.917,5.795-18.597,13.068-18.597,30.959
			c0,0-0.442,4.975-0.654,11.295c-0.389,11.662,37.475,15.821,45.769,19.176c4.249,1.723,5.406-19.562,5.406-19.562
			s0.32-5.7,8.048-10.156l26.05-15.018c16.229-9.333,16.251-32.744,0.036-42.104L114.564,275.732z"/>
		<path opacity="0.15" fill="#E08DC1" d="M63.582,364.635c0.213-6.32,0.654-11.295,0.654-11.295c0-17.891,8.68-25.164,18.596-30.959
			l22.113-11.843l11.973-33.211l-2.355-1.595l-12.552,34.806l-22.109,11.843c-9.917,5.795-18.597,13.068-18.597,30.959
			c0,0-0.442,4.975-0.654,11.295c-0.389,11.662,37.475,15.821,45.769,19.176c0.576,0.234,1.089,0.021,1.554-0.479
			C97.564,380.047,63.21,375.748,63.582,364.635z"/>
		<g id="XMLID_39_">
			<path id="XMLID_45_" fill="#E6E8E8" d="M60.649,335.283v0.953c0,0.505,0.269,0.97,0.706,1.221l28.189,16.244
				c1.023,0.592,2.699,0.592,3.724,0.004l43.852-25.241c0.563-0.323,0.909-0.923,0.909-1.571v-0.371l-28.843-16.635
				c-1.021-0.595-2.694-0.597-3.718-0.006L60.649,335.283z"/>
			<path id="XMLID_44_" fill="#FFFFFF" d="M61.417,334.24c-1.023,0.589-1.023,1.556,0,2.146l28.127,16.239
				c1.023,0.592,2.699,0.592,3.724,0.003l44.047-25.34c1.024-0.587,1.027-1.558,0.003-2.149l-28.132-16.328
				c-1.021-0.594-2.694-0.597-3.718-0.004L61.417,334.24z"/>
			
				<linearGradient id="XMLID_6_" gradientUnits="userSpaceOnUse" x1="69.2998" y1="621.0977" x2="131.6758" y2="621.0977" gradientTransform="matrix(1 0 0 1 0 -291)">
				<stop  offset="0" style="stop-color:#D35FA7"/>
				<stop  offset="0.33" style="stop-color:#D975B3"/>
				<stop  offset="1" style="stop-color:#F1AB8C"/>
			</linearGradient>
			<polygon id="XMLID_43_" fill="url(#XMLID_6_)" points="69.3,332.118 96.886,348.163 131.676,328.15 104.091,312.031 			"/>
			<g id="XMLID_41_">
				<path id="XMLID_42_" fill="#52669C" d="M81.689,343.678c-0.09,0-0.183-0.021-0.267-0.072l-5.907-3.41
					c-0.258-0.146-0.346-0.475-0.198-0.732c0.148-0.257,0.477-0.348,0.734-0.193l5.907,3.412c0.255,0.146,0.343,0.473,0.195,0.729
					C82.055,343.581,81.876,343.678,81.689,343.678z"/>
			</g>
		</g>
		<g id="XMLID_38_">
			<path fill="#F2B1B5" d="M105.26,320.872c-1.751,0-3.505-0.622-4.91-1.888c-12.522-11.317-19.589-26.844-19.899-43.717
				c-0.308-16.882,6.186-32.654,18.289-44.418l1.411-1.374c2.904-2.823,7.537-2.761,10.363,0.137
				c2.823,2.898,2.763,7.538-0.137,10.362l-1.416,1.377c-9.172,8.916-14.088,20.864-13.856,33.646
				c0.234,12.78,5.587,24.54,15.071,33.108c3.003,2.713,3.237,7.349,0.525,10.351C109.253,320.061,107.263,320.872,105.26,320.872z"
				/>
		</g>
		
			<linearGradient id="XMLID_7_" gradientUnits="userSpaceOnUse" x1="91.5708" y1="498.2539" x2="144.4795" y2="498.2539" gradientTransform="matrix(1 0 0 1 0 -291)">
			<stop  offset="0" style="stop-color:#F1AB8C"/>
			<stop  offset="0.2276" style="stop-color:#ED956E"/>
			<stop  offset="0.5714" style="stop-color:#DA79B5"/>
			<stop  offset="0.8406" style="stop-color:#D565AB"/>
			<stop  offset="1" style="stop-color:#D35FA7"/>
		</linearGradient>
		<path id="XMLID_36_" fill="url(#XMLID_7_)" d="M92.251,193.048l0.542-2.529c0.084-2.07,1.826-3.777,3.778-4.476
			c1.952-0.699,4.086-0.601,6.155-0.495c3.755,0.193,7.506,0.386,11.261,0.579c7.286,0.375,15.725,1.393,19.585,7.584
			c2.682,4.304,2.348,10.115,5.518,14.073c1.064,1.326,2.463,2.358,3.477,3.721c2.672,3.593,2.126,8.617,0.885,12.919
			c-0.394,1.369-0.898,2.797-2,3.699c-1.885,1.541-4.754,0.928-6.833-0.336c-2.081-1.264-3.831-3.091-6.083-4.016
			c-3.546-1.457-7.692-0.427-11.334-1.631c-7.171-2.374-9.553-12.146-16.554-14.991c-2.201-0.895-4.759-1.047-6.613-2.53
			C90.812,202.046,91.377,197.079,92.251,193.048z"/>
		<path id="XMLID_35_" fill="#FFFFFF" d="M155.812,246.072c-2.196-5.73-8.31-12.957-13.625-16.026l-18.676-10.783l-13.224,0.193
			c-2.664,0.039-5.191,1.188-6.972,3.17l0,0c-1.575,1.755-2.447,5.831-2.447,8.189v6.911l-3.618,13.741
			c-0.672,2.557-0.169,5.278,1.375,7.424l2.394,3.481c4.315,6.278,6.379,13.836,5.857,21.438l-1.611,23.426
			c10.088,20.478,53.989,2.396,53.989,2.396C154.884,277.216,165.072,270.229,155.812,246.072z"/>
		<path opacity="0.15" fill="#E08DC1" d="M108.196,307.236l1.611-23.424c0.525-7.604-1.539-15.16-5.856-21.439l-2.394-3.482
			c-1.544-2.145-2.048-4.865-1.375-7.423l3.618-13.741v-6.911c0-2.358,0.874-6.434,2.446-8.189c1.78-1.983,4.308-3.131,6.974-3.17
			l10.363-0.15l-0.072-0.043l-13.224,0.193c-2.664,0.039-5.191,1.187-6.972,3.17c-1.575,1.755-2.447,5.831-2.447,8.189v6.911
			l-3.618,13.741c-0.672,2.558-0.169,5.278,1.375,7.423l2.394,3.482c4.315,6.279,6.379,13.836,5.857,21.439l-1.611,23.424
			c3.845,7.805,12.604,10.004,21.969,9.74C119.012,316.717,111.638,314.221,108.196,307.236z"/>
		<g id="XMLID_33_">
			<g id="XMLID_34_">
				<path fill="#F2B1B5" d="M128.625,235.511c3.597,0,6.513-2.916,6.513-6.514v-23.099c0-3.599-2.916-6.515-6.513-6.515
					c-3.599,0-6.513,2.917-6.513,6.515v23.099C122.112,232.595,125.027,235.511,128.625,235.511z"/>
			</g>
		</g>
		<g id="XMLID_32_">
			<path fill="#F2B1B5" d="M119.927,222.764l11.711-3.587l-10.607-34.622l-26.539,8.131l6.064,19.792
				C103.065,220.668,111.737,225.274,119.927,222.764z"/>
		</g>
		<path opacity="0.33" fill="#E08DC1" d="M129.542,316.865c7.602-0.518,15.366-2.461,21.05-4.208
			c12.144-21.952,10.122-49.826-6.062-69.812c-2.547-3.144-5.504,7.486-5.504,7.486c14.169,17.497,8.279,44.629-5.899,62.114
			L129.542,316.865z"/>
		<g id="XMLID_31_">
			<path fill="#F2B1B5" d="M113.38,335.438c-2.263,0-4.494-1.041-5.928-3.011c-2.385-3.271-1.666-7.854,1.606-10.239l15.176-11.062
				c18.189-13.261,24.715-37.807,15.509-58.354c-1.657-3.692-0.003-8.027,3.689-9.682c3.692-1.664,8.029-0.003,9.683,3.689
				c12.02,26.829,3.503,58.872-20.248,76.189l-15.177,11.064C116.387,334.98,114.876,335.438,113.38,335.438z"/>
		</g>
		<path opacity="0.3" fill="#E08DC1" d="M153.115,246.778c-1.322-2.952-4.358-4.57-7.408-4.264c2.515,0.26,4.833,1.79,5.942,4.264
			c12.02,26.828,3.504,58.873-20.248,76.189l-15.176,11.064c-1.048,0.762-2.232,1.191-3.433,1.337
			c0.196,0.017,0.39,0.067,0.587,0.067c1.497,0,3.007-0.457,4.311-1.404l15.177-11.064
			C156.619,305.65,165.135,273.605,153.115,246.778z"/>
		<g id="XMLID_30_">
			<path fill="#F2B1B5" d="M105.26,320.872c-1.751,0-3.508-0.622-4.91-1.894c-15.219-13.75-22.379-34.072-19.155-54.36
				c0.637-3.992,4.375-6.742,8.387-6.083c3.998,0.635,6.724,4.389,6.086,8.387c-2.445,15.373,2.981,30.77,14.508,41.188
				c3.003,2.711,3.237,7.348,0.523,10.35C109.253,320.061,107.263,320.872,105.26,320.872z"/>
		</g>
		
			<linearGradient id="XMLID_8_" gradientUnits="userSpaceOnUse" x1="79.4155" y1="453.5547" x2="189.0985" y2="558.3511" gradientTransform="matrix(1 0 0 1 0 -291)">
			<stop  offset="0" style="stop-color:#F1AB8C"/>
			<stop  offset="0.1577" style="stop-color:#ED956E"/>
			<stop  offset="0.3693" style="stop-color:#EE9B77"/>
			<stop  offset="0.6115" style="stop-color:#DE89BE"/>
			<stop  offset="0.8746" style="stop-color:#D76DAF"/>
			<stop  offset="1" style="stop-color:#D35FA7"/>
		</linearGradient>
		<path id="XMLID_27_" fill="url(#XMLID_8_)" d="M149.879,252.8c1.952-0.028,3.912,0.363,5.703,1.144
			c1.662,0.728,3.393,1.812,5.152,1.361c2.369-0.605,3.181-3.502,3.574-5.918c0.341-2.09,0.681-4.248,0.194-6.31
			c-0.642-2.716-2.613-4.878-4.154-7.205c-2.244-3.387-3.65-7.322-4.062-11.364c-0.311-3.05-0.065-6.139-0.398-9.188
			c-0.395-3.578-2.011-5.91-3.808-8.851c-2.132-3.495-2.751-7.676-4.99-11.095c-2.214-3.379-6.031-5.649-8.513-8.909
			c-2.651-3.481-4.121-5.751-8.105-7.982c-2.974-1.667-5.759-4.162-9.191-4.887c-2.723-0.574-4.921,0.53-7.48,0.862
			c-2.632,0.344-5.241,0.011-7.912,0.61c-5.239,1.175-10.246,3.815-13.866,7.823c-2.893,3.202-3.599,7.261,0.661,9.517
			c4.795,2.543,9.105,0.607,14.057,0.325c0.905-0.051,1.854,0.042,2.62,0.524c2.067,1.303,1.129,6.524,1.702,8.78
			c0.601,2.382,1.799,4.691,3.75,6.186c1.726,1.32,3.883,1.904,5.914,2.676c2.031,0.773,4.1,1.87,5.139,3.779
			c1.938,3.566-0.546,7.895-0.437,11.949c0.064,2.412,1.117,4.782,2.861,6.447c1.177,1.122,2.662,1.953,3.552,3.311
			c0.899,1.38,1.052,3.095,1.243,4.73c0.253,2.172,0.619,4.349,1.427,6.379c1.678,4.219,4.826,6.259,9.482,6.012
			c1.673-0.087,3.311-0.529,4.981-0.662C149.275,252.816,149.578,252.803,149.879,252.8z"/>
		<g opacity="0.15">
			<path fill="#E08DC1" d="M164.308,249.387c-0.278,1.707-0.777,3.639-1.876,4.846c0.178-0.637,0.308-1.291,0.411-1.914
				c0.341-2.089,0.68-4.248,0.193-6.311c-0.641-2.716-2.613-4.878-4.155-7.206c-2.242-3.386-3.649-7.322-4.061-11.362
				c-0.31-3.051-0.065-6.14-0.398-9.188c-0.395-3.577-2.013-5.909-3.808-8.851c-2.133-3.494-2.751-7.676-4.993-11.095
				c-2.212-3.38-6.028-5.649-8.511-8.909c-2.651-3.481-4.122-5.749-8.104-7.982c-2.975-1.666-5.759-4.161-9.192-4.887
				c-2.723-0.575-4.921,0.529-7.479,0.864c-2.633,0.343-5.241,0.009-7.911,0.608c-5.239,1.175-10.246,3.815-13.867,7.823
				c-0.268,0.295-0.494,0.604-0.723,0.914c0.32-1.309,1.098-2.637,2.189-3.845c3.62-4.008,8.627-6.647,13.866-7.823
				c2.67-0.599,5.279-0.266,7.912-0.61c2.559-0.333,4.757-1.436,7.48-0.862c3.432,0.725,6.217,3.22,9.191,4.887
				c3.984,2.231,5.454,4.501,8.105,7.982c2.482,3.26,6.299,5.53,8.513,8.908c2.238,3.419,2.857,7.601,4.99,11.094
				c1.797,2.942,3.414,5.274,3.808,8.852c0.333,3.049,0.088,6.138,0.398,9.188c0.412,4.042,1.818,7.977,4.062,11.364
				c1.541,2.327,3.512,4.489,4.154,7.205C164.989,245.139,164.649,247.294,164.308,249.387z"/>
		</g>
		<g id="XMLID_26_">
			<path fill="#F2B1B5" d="M98.104,304.432l14.176,4.123c1.096,0.319,2.234-0.339,2.509-1.445l0,0
				c0.255-1.041-0.351-2.099-1.377-2.401l-14.109-4.201L98.104,304.432z"/>
		</g>
		<g id="XMLID_25_">
			<path fill="#F2B1B5" d="M110.633,322.006l-11.74,8.953c-0.908,0.691-1.056,1.999-0.325,2.876l0,0
				c0.683,0.823,1.893,0.966,2.749,0.322l11.762-8.855L110.633,322.006z"/>
		</g>
		<g id="XMLID_24_">
			<path fill="#F2B1B5" d="M118.12,320.92l-11.738,8.952c-0.907,0.692-1.057,2-0.327,2.879l0,0c0.685,0.819,1.895,0.964,2.75,0.319
				l11.764-8.854L118.12,320.92z"/>
		</g>
	</g>
</g>
</svg>
