<svg baseProfile="basic" xmlns="http://www.w3.org/2000/svg" width="500" height="500"><path fill="#7383AF" d="M197.7 442.4L11.4 335v-2.6l268.1-145.1 141 125.7z"/><path fill="#3E5491" d="M197.7 439.9L11.4 332.3l268.1-147.6 141 125.7z"/><path fill="#96A2C3" d="M205.2 437.4L19 329.8l-1.2-34.2 269.4-116 141 125.8z"/><path fill="#3E5491" d="M309.5 119.8l-298.1 172 186.3 107.6 298-172.1z"/><path fill="#52669C" d="M495.7 227.3v41.9l-298 173.2v-43z"/><linearGradient id="a" gradientUnits="userSpaceOnUse" x1="135" y1="720.6" x2="185.1" y2="689.4" gradientTransform="translate(0 -291)"><stop offset="0" stop-color="#d35fa7"/><stop offset=".2" stop-color="#d565ab"/><stop offset=".4" stop-color="#da79b5"/><stop offset=".8" stop-color="#ed956e"/><stop offset="1" stop-color="#f1ab8c"/></linearGradient><g><path fill="#231F20" d="M338.9 298.8l1.2-.7c1-.6 1.9-2 1.9-3.3l4.1-30.6c0-.6-.2-1-.6-1.2l-.6-.2c-.6-.2-1.2-.1-1.7.2l-26 14.9-18-4-44.3 16.9c0 7.9 1.6 16.6 8 19l28.8 13.4v.3c0 .3.2.6.4.7l.4.3.2.1h.1c.4.2.7.2 1.2-.1l.2-.1 8.2 3.8c8 4.6 13 13.3 13 22.6v22.8l20.5-11.9v-11c0-15.4-7.7-29.9-20.4-38.5l2.6-1.5 7.8 4.2c8.1 4.6 13.1 13.3 13.1 22.6V360l20.5-12v-10.5c0-15.6-7.9-30-20.6-38.7z" opacity=".3"/><circle fill="#32498A" cx="289.5" cy="287" r="15"/><path fill="#52669C" d="M341.1 392.9v7.6c0 2 1.1 4 2.9 5l23.1 14.4a7.5 7.5 0 0 0 7.8 0l7.1-4a4.5 4.5 0 0 0 2.3-4v-4.3s-1 .4-2.4-.5l-15.4-9.3v-5H341z"/><path fill="#FFF" d="M341.1 388.6v7.6c0 2.1 1.1 4 2.9 5.1l23.1 14.3a7.5 7.5 0 0 0 7.8 0l7-4.2a5 5 0 0 0 0-8.6l-15.4-9.3v-4.9H341z"/><path fill="#52669C" d="M356.7 403.2v-1.5l9-5.2v1.4zM360 406.2v-1.5l9-5.1v1.3zM364.5 409.3v-1.5l9-5.1-.1 1.5z"/><path fill="#3E5491" d="M344.8 393.8c-4.9-2.9-4.9-7.5 0-10.4 5-2.8 13-2.8 18 0 5 2.9 5 7.5 0 10.4-5 2.8-13 2.8-18 0z"/><path fill="#52669C" d="M347.9 392c-3.3-1.9-3.3-5 0-6.8 3.3-1.9 8.6-1.9 11.8 0 3.3 1.9 3.3 5 0 6.8a13.1 13.1 0 0 1-11.8 0zM317.5 407v7.5c0 2.1 1.1 4 2.9 5.1l23.1 14.3a7.5 7.5 0 0 0 7.8 0l7-4a4.5 4.5 0 0 0 2.4-3.9v-4.3s-1 .3-2.5-.6l-15.3-9.3V407h-25.4z"/><path fill="#FFF" d="M317.5 402.7v7.6c0 2 1.1 4 2.9 5.1l23.1 14.3a7.5 7.5 0 0 0 7.8 0l7-4.2a5 5 0 0 0 0-8.6l-15.4-9.3v-5h-25.4z"/><path fill="#52669C" d="M333.1 417.3v-1.6l8.9-5.1v1.4zM336.5 420.2v-1.4l8.9-5.2v1.3zM341 423.4v-1.5l8.8-5.1v1.4z"/><path fill="#3E5491" d="M321.2 407.9c-4.9-2.9-4.9-7.6 0-10.4 5-2.9 13-2.9 18 0 4.9 2.8 4.9 7.5 0 10.4-5 2.8-13 2.8-18 0z"/><path fill="#52669C" d="M324.3 406c-3.3-1.8-3.3-4.9 0-6.7 3.2-2 8.6-2 11.8 0 3.3 1.8 3.3 5 0 6.8a13.1 13.1 0 0 1-11.8 0z"/><path fill="#32498A" d="M353.6 393.9c-5.6 0-10.2-4.6-10.2-10.3v-49c0-9.4-5-18-13-22.7l-38.6-20.4c-8-4.5-9.7-13-9.7-22.1v-2.2a10.2 10.2 0 1 1 20.4 0v2.2a5 5 0 0 0 2.6 4.4l35.4 20.4a46.7 46.7 0 0 1 23.4 40.3v49.1c0 5.7-4.6 10.3-10.3 10.3z"/><path opacity=".1" fill="#E08DC1" d="M340.5 294.2l-35.4-20.4a5 5 0 0 1-2.6-4.4v-2.2c0-5.7-4.5-10.3-10.2-10.3l-1.5.2c5 .7 8.8 4.9 8.8 10v2.3a5 5 0 0 0 2.5 4.4l35.5 20.4a46.7 46.7 0 0 1 23.3 40.3v49.1c0 5.2-3.8 9.4-8.7 10.1l1.4.2c5.7 0 10.3-4.6 10.3-10.3v-49c0-16.7-9-32.1-23.4-40.4z"/><path fill="#32498A" d="M330 407.2c-5.6 0-10.2-4.6-10.2-10.3v-49c0-9.4-5-18-13-22.7L267.2 307c-7.9-4.6-8.7-15.1-8.7-24.2v-2.2a10.2 10.2 0 0 1 20.5 0v2.2a5 5 0 0 0 2.5 4.4l35.5 20.4a46.7 46.7 0 0 1 23.3 40.3V397c0 5.7-4.6 10.3-10.2 10.3z"/><path fill="#7383AF" d="M298.8 320.6L271.3 308a3.9 3.9 0 0 1 0-6.7l41.8-24.2 31 18.4-45.3 25.1z"/><path fill="#96A2C3" d="M302.6 318.2l-24-10.7a3.3 3.3 0 0 1-.1-5.8l38.3-22.2 26.7 15.9-41 22.8z"/><path fill="#FFF" d="M315.4 294.2a6.1 6.1 0 0 1-6.2-6.1v-24c0-14.1-2-21-5.8-34.6l-7.1-25.4a6.1 6.1 0 1 1 11.8-3.3l7.1 25.4c4.2 14.7 6.3 22.6 6.3 38V288c0 3.4-2.7 6.1-6.1 6.1z"/><path opacity=".1" fill="#E08DC1" d="M315.3 226.2l-7.2-25.4c-1-3.2-4.2-5-7.4-4.3 2 .5 3.8 2.1 4.5 4.3l7.1 25.4c4.2 14.7 6.3 22.6 6.3 38V288c0 2.9-2 5.3-4.7 6a6 6 0 0 0 7.6-6v-24c0-15.3-2-23.2-6.3-38z"/><path fill="#FFF" d="M282.6 183.1l-5 3a62 62 0 0 0-30.6 45.8c-2.7 22 5.9 62.7 5.9 62.7 25.3-1.4 51.1-27 51.1-27-4.5-28.4 4.6-42.8 4.8-61.9.1-10-14-29.6-26.2-22.6z"/><path opacity=".1" fill="#E08DC1" d="M308.8 205.7c.1-10-14-29.6-26.2-22.6l-5 3c-5.3 3-10 6.7-14.1 11 3.7-3.7 8-7 12.6-9.6l5-3c12.2-7 26.3 12.6 26.2 22.7-.1 19-9.2 33.5-4.8 61.9l1.5-1.4c-4.5-28.5 4.6-42.9 4.8-62z"/><path fill="#F2B1B5" d="M281.3 200h-2a4.9 4.9 0 0 1-4.8-5v-14.2H286V195c0 2.7-2.1 5-4.8 5z"/><path fill="#52669C" d="M274.5 186.4l-3.3 1.7 5 27.5 6.5-16.2zM282.7 199.4L286 182h1.5l6.6 23z"/><path fill="#F2B1B5" d="M293 312.5c-1.8 0-3.6-.8-4.8-2.4l-18.4-23.6c-10-12.9-15-29-14.3-45.2l1.5-23a6.1 6.1 0 1 1 12.3.5l-1.5 23a56 56 0 0 0 11.7 37.1l18.4 23.7a6.1 6.1 0 0 1-4.9 9.9z"/><path fill="#F2B1B5" d="M297.4 300L279 293a2 2 0 0 1-1.2-2.6l.3-.7a2 2 0 0 1 2.5-1.2l18.4 6.9a2 2 0 0 1 1.1 2.5l-.2.8a2 2 0 0 1-2.6 1.2z"/><path fill="#7383AF" d="M350 260l-.7-.2c-.6-.1-1.2 0-1.7.2l-45.4 26c-1.1.7-2 2.2-2 3.4l-4.1 31.2c0 .2.1.5.4.7l.7.5 46.7-27.1c1-.7 2-2.2 2-3.4l4-31.3z"/><path fill="#96A2C3" d="M350.5 261.3c0-1.3-.9-1.8-2-1.2l-45.8 26.5c-1 .6-2 2.1-2 3.4l-4.2 30.4c0 1.3.8 1.8 1.9 1.2l46-26.4c1.1-.6 2-2.1 2-3.3l4.1-30.6z"/><path fill="#B9C1D7" d="M327.5 288.3c-1.9.7-4 3-4.6 5.3-.6 2.2.4 3.5 2.3 2.8 1.8-.6 3.9-3 4.5-5.2.7-2.2-.3-3.5-2.2-2.9z"/><path opacity=".3" fill="#E08DC1" d="M276.1 263.4c-4-7.2-7.6-15.5-7.3-21.5 0 0-.6-23.2-4.6-23.4-3.9-.2-6-4.3-6.2-.3l-1.5 23a69.3 69.3 0 0 0 14.4 45.6l2 2.4c5.4-2.5 10.4-5.5 14.9-8.5a128 128 0 0 1-11.7-17.3z"/><path fill="#FFF" d="M286.7 287l-6-8.2S268.2 255 268.8 242l1.5-23a7.2 7.2 0 1 0-14.3-.7l-1.5 23a69.3 69.3 0 0 0 14.3 45.6l8.2 9.5 9.7-9.2z"/><path fill="#F2B1B5" d="M277.6 183.6l-5.4-1c-3.4-.8-5.7-4.1-5-7.6l5.8-29.1 32.1 6.4-3 14.9a20.9 20.9 0 0 1-24.5 16.4z"/><path fill="#52669C" d="M310.4 150.6a5.8 5.8 0 0 0-5.5-4.6c-2.3 0-5-.7-7.1-3-3-3.3-7.6-4.7-12-5.5-4.2-.8-9.2.2-11.9 3.7-1.8-2.3-5.5-2-7.8-.3s-3.3 4.6-4.2 7.4a33.1 33.1 0 0 0-1.5 17l1.2 4c1.2 3.5 1.6 7.2 3 10.6.2.4.4.9.8 1.2.6.4 1.4.2 2-.2.5-.4.9-1 1.2-1.6 1.4-3-.2-4.7 0-7.8 0-1.6.7-3.4 2.2-4.1 2-1 4.4 0 6.5.4 5.2.9 16.3-4.5 13.1-11.1 7.2 1.9 17.3 2.9 20-6z"/><g opacity=".1"><path fill="#E08DC1" d="M304.9 146c-2.3 0-5-.7-7.1-3-3-3.3-7.6-4.7-12-5.5-4.2-.8-9.2.2-11.9 3.7-1.8-2.3-5.5-2-7.8-.3-.5.4-1 .9-1.3 1.4 2.2-1.7 5.9-2 7.6.3 2.7-3.4 7.7-4.5 12-3.6 4.3.8 9 2.2 11.9 5.5 2 2.2 4.8 2.9 7.1 3 2.7 0 5 2 5.5 4.6-.4 1.4-1 2.6-1.9 3.6a9.6 9.6 0 0 0 3.4-5 5.8 5.8 0 0 0-5.5-4.7z"/></g></g><g><path opacity=".3" fill="#231F20" d="M185.5 205.3c2.6 1.9 5.2 3.3 7.7 4.4l.6.3c21 8.4 40-7.5 40-7.5 4-3.6 5.5-13 5.1-19.6.5-1.4.9-3.2 1.4-5.4a89.9 89.9 0 0 0 2-18.9L158.4 207v1.4l16.2-9.4 10.8 6.3z"/><path fill="#52669C" d="M225 190.5l-38.8-22.2v23.1L164.3 204v-39.7c0-7 3.7-13.4 9.8-16.9a19.4 19.4 0 0 1 19.6 0l42.1 24.2-10.9 18.9z"/><path fill="#52669C" d="M199.7 205.6l-38.8-22.2v23.1l-21.8 12.6v-39.6c0-7.1 3.7-13.5 9.8-17a19.4 19.4 0 0 1 19.6 0l42 24.2-10.8 19z"/><path fill="#E08DC1" d="M142 179.5a19.4 19.4 0 0 1 18.1-19.6c-3.8-.2-7.7.6-11.2 2.6a19.4 19.4 0 0 0-9.8 17V219l3-1.7v-38z" opacity=".1"/><path fill="#52669C" d="M191.4 200.9c24 17.6 48.3-2.8 48.3-2.8 5.2-4.7 6-19 4.4-24.3l-6.6-6.7-34.2 19-11.9 14.8z"/><path fill="#7383AF" d="M132.3 126.5l47.5-27.4a1 1 0 0 1 1.4.9l13.3 36.3a2 2 0 0 1-1 1.8L146 165.5c-.6.4-1-.1-1.4-.8l-13.3-36.4a2 2 0 0 1 1-1.8z"/><path fill="#52669C" d="M133 127l47.4-27.5c.6-.3 1.2.2 1.4.9l13.4 36.3a2 2 0 0 1-1 1.8L146.6 166c-.7.4-1.1-.1-1.5-.8L132 128.7a2 2 0 0 1 1-1.8z"/><linearGradient id="b" gradientUnits="userSpaceOnUse" x1="134.5" y1="423.8" x2="192.7" y2="423.8" gradientTransform="translate(0 -291)"><stop offset="0" stop-color="#d35fa7"/><stop offset=".3" stop-color="#d975b3"/><stop offset="1" stop-color="#f1ab8c"/></linearGradient><path fill="url(#b)" d="M134.5 128.7l46-26 12.2 33.8-45.9 26.4z"/><path fill="#7383AF" d="M197.3 139.7l30.3 16s.2 2.4-.4 2.7l-46.6 27c-1.2.6-2.6.6-3.8 0l-30-17.2c-1.2-.7-.4-2.7-.4-2.7l47-25.8c1.2-.7 2.7-.7 3.9 0z"/><path fill="#F7F7F7" d="M197.3 137.8l29.9 17.1a1 1 0 0 1 0 1.7l-46.6 26.9c-1.2.7-2.6.7-3.8 0l-30-17.1a1 1 0 0 1 0-1.7l46.6-26.9c1.2-.7 2.7-.7 3.9 0z"/><path fill="#7383AF" d="M200 160l7.8 4.5c.2 0 .2.3 0 .4l-12.3 7a1 1 0 0 1-1 0l-7.9-4.4a.3.3 0 0 1 0-.5l12.3-7a1 1 0 0 1 1 0z"/><path fill="#52669C" d="M194 140.4l-2.6 1.5v.3l1.3.7h.3l2.6-1.5v-.2l-1.3-.8h-.3zM190.2 142.7l-2.6 1.5v.2l1.3.8h.3l2.6-1.5v-.3l-1.3-.7h-.3zM186.4 144.8l-2.6 1.5v.3l1.3.7h.3l2.6-1.5v-.3l-1.3-.7h-.3zM182.5 147l-2.6 1.5v.3l1.3.7h.3l2.6-1.5v-.3l-1.3-.7h-.3zM178.7 149.1l-2.5 1.5v.3l1.3.7h.3l2.6-1.5v-.3l-1.3-.7h-.4zM175.1 151.3l-2.6 1.5v.3l1.3.7h.3l2.6-1.5c.1 0 .1-.2 0-.2l-1.3-.8h-.3zM171.3 153.4l-2.6 1.5v.3l1.3.7h.3l2.6-1.5c.1 0 .1-.2 0-.2l-1.3-.8h-.3zM167.5 155.7l-2.5 1.5c-.2 0-.2.2 0 .2l1.2.8h.4l2.5-1.5v-.3l-1.2-.7h-.4zM163.8 157.9l-2.5 1.5c-.1 0-.1.2 0 .2l1.2.8h.4l2.5-1.5v-.3l-1.2-.7h-.4zM160 160.1l-2.6 1.5v.3l1.2.7h.4l2.5-1.5c.1 0 .1-.2 0-.2l-1.2-.8h-.4zM156.1 162.2l-2.5 1.5v.3l1.3.7h.3l2.6-1.5v-.2l-1.3-.8h-.4z"/><g fill="#52669C"><path d="M199.2 143.2l-1.7-1a.7.7 0 0 0-.8 0l-1.7 1c-.2.1-.2.5 0 .6l1.7 1c.2.2.5.2.8 0l1.7-1c.2 0 .2-.4 0-.6zM195.3 145.5l-1.8-1a.7.7 0 0 0-.7 0l-1.7 1c-.2 0-.2.4 0 .6l1.7 1c.2.1.5.2.7 0l1.8-1c.2-.1.2-.5 0-.6zM191.5 147.6l-1.7-1a.7.7 0 0 0-.8 0l-1.7 1c-.2.1-.2.5 0 .6l1.7 1c.2.2.5.2.8 0l1.7-1c.2-.1.2-.4 0-.6zM187.5 149.8l-1.8-1a.7.7 0 0 0-.7 0l-1.7 1c-.3.1-.3.4 0 .6l1.7 1c.2.2.5.2.7 0l1.8-1c.2-.1.2-.5 0-.6zM184 151.9l-1.8-1a.7.7 0 0 0-.8 0l-1.7 1c-.2.1-.2.4 0 .6l1.7 1c.2.2.5.2.8 0l1.7-1c.2-.1.2-.5 0-.6zM180.3 154.1l-1.8-1a.7.7 0 0 0-.7 0l-1.7 1c-.2.1-.2.5 0 .6l1.7 1c.2.2.5.2.7 0l1.8-1c.2 0 .2-.4 0-.6zM176.4 156.3l-1.7-1a.7.7 0 0 0-.7 0l-1.7 1c-.3 0-.3.4 0 .5l1.6 1c.3.2.6.2.8 0l1.7-1c.3 0 .3-.4 0-.6zM172.7 158.4l-1.8-1a.7.7 0 0 0-.7 0l-1.7 1c-.3 0-.3.4 0 .6l1.7 1c.2.2.5.2.7 0l1.8-1c.2-.1.2-.5 0-.6zM169 160.7l-1.8-1a.7.7 0 0 0-.7 0l-1.7 1c-.3 0-.3.4 0 .6l1.6 1c.3.1.6.1.8 0l1.7-1c.3-.1.3-.5 0-.6zM164.9 163l-1.8-1a.7.7 0 0 0-.7 0l-1.7 1c-.2.2-.2.5 0 .6l1.7 1c.2.2.5.2.7 0l1.8-1c.2 0 .2-.4 0-.5zM161.2 165l-1.7-1a.7.7 0 0 0-.7 0l-1.8 1c-.2.1-.2.5 0 .6l1.7 1c.3.2.6.2.8 0l1.7-1c.3 0 .3-.4 0-.6z"/></g><g fill="#52669C"><path d="M203 145.3l-1.7-1a.7.7 0 0 0-.7 0l-1.7 1c-.2.1-.2.5 0 .6l1.7 1c.2.2.5.2.7 0l1.8-1c.2 0 .2-.4 0-.6zM199.2 147.6l-1.8-1a.7.7 0 0 0-.7 0l-1.7 1c-.2 0-.2.4 0 .6l1.7 1c.2.2.5.2.7 0l1.8-1c.2-.1.2-.5 0-.6zM195.4 149.7l-1.8-1a.7.7 0 0 0-.7 0l-1.7 1c-.2.1-.2.5 0 .6l1.7 1c.2.2.5.2.7 0l1.8-1c.2 0 .2-.4 0-.6zM191.4 152l-1.8-1.1a.7.7 0 0 0-.7 0l-1.7 1c-.3.1-.3.5 0 .6l1.7 1c.2.2.5.2.7 0l1.8-1c.2 0 .2-.4 0-.6zM187.8 154l-1.7-1a.7.7 0 0 0-.8 0l-1.7 1c-.2.1-.2.5 0 .6l1.7 1c.2.2.5.2.7 0l1.8-1c.2-.1.2-.4 0-.6zM184.2 156.2l-1.8-1a.7.7 0 0 0-.7 0l-1.7 1c-.2.1-.2.5 0 .6l1.7 1c.2.2.5.2.7 0l1.8-1c.2 0 .2-.4 0-.6zM180.3 158.4l-1.7-1a.7.7 0 0 0-.8 0l-1.7 1c-.2 0-.2.4 0 .6l1.7 1c.3.1.5.1.8 0l1.7-1c.3-.1.3-.5 0-.6zM176.5 160.5l-1.7-1a.7.7 0 0 0-.7 0l-1.7 1c-.3.1-.3.4 0 .6l1.6 1c.3.2.6.2.8 0l1.7-1c.3-.1.3-.5 0-.6zM172.8 162.8l-1.7-1a.7.7 0 0 0-.7 0l-1.8 1c-.2 0-.2.4 0 .6l1.7 1c.3.2.5.2.8 0l1.7-1c.3-.1.3-.5 0-.6zM168.8 165.2l-1.8-1a.7.7 0 0 0-.7 0l-1.7 1c-.2 0-.2.4 0 .6l1.7 1h.7l1.8-1c.2-.1.2-.5 0-.6zM165.1 167.2l-1.7-1a.7.7 0 0 0-.8 0l-1.7 1c-.2 0-.2.4 0 .5l1.7 1c.3.2.5.2.8 0l1.7-1c.3 0 .3-.4 0-.5z"/></g><g fill="#52669C"><path d="M207 147.5l-1.8-1a.7.7 0 0 0-.7 0l-1.7 1c-.2 0-.2.4 0 .5l1.7 1c.2.2.5.2.7.1l1.8-1c.2-.1.2-.5 0-.6zM203 149.7l-1.7-1a.7.7 0 0 0-.7 0l-1.7 1c-.3.1-.3.5 0 .6l1.7 1c.2.2.5.2.7 0l1.8-1c.2-.1.2-.4 0-.6zM199.3 151.8l-1.8-1a.7.7 0 0 0-.7 0l-1.7 1c-.2.1-.3.5 0 .6l1.7 1c.2.2.5.2.7 0l1.8-1c.2 0 .2-.4 0-.6zM195.2 154l-1.7-1a.7.7 0 0 0-.7 0l-1.7 1c-.3.1-.3.5 0 .6l1.6 1c.3.2.6.2.8 0l1.7-1c.3 0 .3-.4 0-.6zM191.7 156.1l-1.8-1a.7.7 0 0 0-.7 0l-1.7 1c-.2.1-.2.5 0 .6l1.7 1c.2.2.5.2.7 0l1.8-1c.2 0 .2-.4 0-.6zM188 158.4l-1.7-1a.7.7 0 0 0-.7 0l-1.7 1c-.2 0-.3.4 0 .5l1.7 1c.2.2.5.2.7.1l1.8-1c.2-.1.2-.5 0-.6zM184.2 160.5l-1.7-1a.7.7 0 0 0-.8 0l-1.7 1c-.2 0-.2.4 0 .6l1.7 1c.2.1.5.1.8 0l1.7-1c.3-.1.3-.5 0-.6zM180.4 162.6l-1.7-1a.7.7 0 0 0-.7 0l-1.7 1c-.3.1-.3.5 0 .6l1.6 1c.3.2.6.2.8 0l1.7-1c.3 0 .3-.4 0-.6zM176.7 164.9l-1.7-1a.7.7 0 0 0-.8 0l-1.7 1c-.2.1-.2.4 0 .6l1.7 1c.2.2.5.2.8 0l1.7-1c.3-.1.3-.5 0-.6zM172.7 167.3l-1.8-1a.7.7 0 0 0-.7 0l-1.7 1c-.2 0-.3.4 0 .6l1.7 1c.2.2.5.2.7 0l1.8-1c.2-.1.2-.5 0-.6zM169 169.3l-1.7-1a.7.7 0 0 0-.8 0l-1.7 1c-.2 0-.2.4 0 .6l1.7 1c.2.1.5.1.8 0l1.7-1c.3-.1.3-.5 0-.6z"/></g><g fill="#52669C"><path d="M210.9 149.6l-1.8-1a.7.7 0 0 0-.7 0l-1.7 1c-.3 0-.3.4 0 .6l1.7 1h.7l1.8-1c.2-.1.2-.5 0-.6zM207 151.8l-1.8-1a.7.7 0 0 0-.7 0l-1.7 1c-.3.1-.3.5 0 .6l1.7 1c.2.2.5.2.7 0l1.8-1c.2 0 .2-.4 0-.6zM203.2 154l-1.8-1a.7.7 0 0 0-.7 0l-1.7 1c-.3 0-.3.4 0 .5l1.7 1c.2.2.5.2.7 0l1.8-1c.2 0 .2-.4 0-.5zM199.1 156.2l-1.7-1a.7.7 0 0 0-.7 0l-1.8 1c-.2 0-.2.4 0 .5l1.7 1c.3.2.5.2.8 0l1.7-1c.3 0 .3-.4 0-.5zM195.2 158.5l-1.7-1a.7.7 0 0 0-.7 0l-9 5c-.2.2-.2.6 0 .7l1.8 1c.2.2.5.2.7 0l9-5.1c.2-.1.2-.5 0-.6zM184.3 164.7l-1.7-1a.7.7 0 0 0-.8 0l-1.7 1c-.2.1-.2.5 0 .6l1.7 1c.3.2.5.2.8 0l1.7-1c.3 0 .3-.4 0-.6zM180.6 167l-1.7-1a.7.7 0 0 0-.8 0l-1.7 1c-.2.1-.2.5 0 .6l1.7 1c.2.2.5.2.8 0l1.7-1c.2-.1.2-.4 0-.6zM176.6 169.4l-1.8-1a.7.7 0 0 0-.7 0l-1.7 1c-.3.1-.3.4 0 .6l1.7 1c.2.2.5.2.7 0l1.8-1c.2-.1.2-.5 0-.6zM172.9 171.4l-1.7-1a.7.7 0 0 0-.8 0l-1.7 1c-.2 0-.2.4 0 .6l1.7 1c.2.2.5.2.8 0l1.7-1c.2-.1.2-.5 0-.6z"/></g><path fill="#8A97BC" d="M194.3 130.7c-.5-8 3-23 5.8-28.3a40.4 40.4 0 0 1 15.4-16.1l6.3-3.6c8-4.6 11.5 3.8 18 10.4 25.2 25.8 7.8 69.2 6.7 92.4-.5 11.6-27.5 14.3-35.5 14.3-11.2 0-27.3-7.9-25.6-12.4 13.5-36 10.2-34.6 8.9-56.7z"/><path opacity=".1" fill="#E08DC1" d="M239.8 93c-5.7-5.7-9.1-12.9-15.2-11.4 4.4 1 7.5 6.7 12.2 11.5 25.3 25.8 7.8 69.2 6.8 92.4-.5 10.8-24 14-33.6 14.3h1c8 0 35-2.7 35.5-14.3 1-23.2 18.5-66.6-6.7-92.4z"/><path fill="#F2B1B5" d="M219.3 94H217c-2.4 0-4.3-2-4.3-4.3V75.5c0-2.3 1.9-4.2 4.3-4.2h2.2c2.3 0 4.2 1.9 4.2 4.2v14.2c0 2.3-1.9 4.3-4.2 4.3z"/><path fill="#F2B1B5" d="M228 81l-6.8 2.1a21.1 21.1 0 0 1-26.6-13.8L187.8 48 221 37.3l11.2 35.3A6.6 6.6 0 0 1 228 81z"/><path fill="#5F71A4" d="M230.8 41.6c-1.1-3.4-3.1-7.5-7.1-7.9a7.7 7.7 0 0 0-7 3.8c-2.2-2.7-6.2-2.7-9.6-2.3-6.3.8-13.3 2.4-18.4 6.2-3.8 2.8-8.6 6.4-7.5 11.8.6 2.8 3 5 5.6 6 1.3.5 2.6.4 3.8 1 1.3.7 2 2.1 3.4 2.7 1.9.7 4.1-.2 5.8.7 1.8 1 2 3.5 2.3 5.6a17.4 17.4 0 0 0 8.7 13 19 19 0 0 0 6.7 1.4c5.3.5 10.9-.4 14.4-4.8 2.2-2.8 3.3-6.4 3.7-10 1-9.2-1.9-18.3-4.8-27.2z"/><g opacity=".1" fill="#E08DC1"><path d="M213.8 37.5l1.1-1.5a12 12 0 0 0-6.5-1c2.1.2 4 .9 5.4 2.5zM230.8 41.6c-1.1-3.4-3.1-7.5-7.1-7.9-.7 0-1.4 0-2.1.2 3.4.8 5.3 4.6 6.3 7.7 2.9 8.9 5.8 18 4.7 27.3-.4 3.5-1.4 7-3.6 9.9a13.6 13.6 0 0 1-10.3 4.9c5 .2 10-.8 13.2-5 2.2-2.7 3.3-6.3 3.7-9.8 1-9.3-1.9-18.4-4.8-27.3z"/></g><path opacity=".3" fill="#231F20" d="M218.4 142.5l-3.7-26.6a6.8 6.8 0 1 0-13.5 1.9l3.7 26.6a17 17 0 0 1-11.2 18.4c-1 4-2.5 8.6-4.7 14.6a30.5 30.5 0 0 0 29.4-35z"/><g><path fill="#F2B1B5" d="M188 173l-3.4-.1-8.3-.6a6.8 6.8 0 0 1 .9-13.6l8.8.6a17 17 0 0 0 18.9-19.3l-3.7-26.6a6.8 6.8 0 1 1 13.5-2l3.7 26.7a30.6 30.6 0 0 1-30.4 35z"/></g><g><path fill="#8A97BC" d="M219 139.5l-4-28.9a7.4 7.4 0 1 0-14.7 2l4 28.9 14.6-2z"/></g><path fill="#F2B1B5" d="M177.1 161.6h-13c-.7 0-1.3-.6-1.3-1.2v-.5c0-.7.6-1.2 1.2-1.2h13.1c.7 0 1.2.5 1.2 1.2v.5c0 .6-.5 1.2-1.2 1.2z"/><path fill="#F2B1B5" d="M184.5 163.2l-11.4-6.4c-.6-.4-.8-1.1-.4-1.7l.2-.4c.3-.6 1-.8 1.7-.5l11.4 6.4c.6.4.8 1.1.4 1.7l-.2.4c-.4.6-1.1.8-1.7.5zM174.8 165.8h-13c-.7 0-1.3-.5-1.3-1.2v-.5c0-.7.6-1.2 1.3-1.2h13c.7 0 1.3.5 1.3 1.2v.5c0 .7-.6 1.2-1.3 1.2z"/><path fill="#F2B1B5" d="M177.2 168.4l-13 1.3c-.7 0-1.3-.4-1.3-1.1v-.5c-.2-.7.3-1.3 1-1.3l13-1.3c.7 0 1.3.4 1.4 1v.6c0 .6-.4 1.2-1 1.3zM178.9 172l-13 1.2c-.7.1-1.3-.4-1.4-1v-.5c-.1-.7.4-1.3 1-1.4l13-1.3c.7 0 1.3.4 1.4 1.1v.5c.1.7-.4 1.3-1 1.3z"/></g><g><path opacity=".3" fill="#231F20" d="M161.3 313.5c1.5-.6-6.3-7.5-6.3-7.5l-55.1 11-15.6 8.3a51.2 51.2 0 0 0-8.9 6.3l-9.6 5.6c-.5.3-.7.6-.7 1v1c0 .5.2 1 .7 1.2l2.4 1.4a37.7 37.7 0 0 0-2.5 14.5s-.4 4-.6 9.6l29 16.7.6.2v.2l13 7.5v-4.7c1.3.3 2.3.6 3.1 1 4.3 1.7 5.4-19.6 5.4-19.6s.3-5.7 8-10.2l26.1-15a24.2 24.2 0 0 0 11-28.5z"/><path fill="#E6E8E8" d="M69 407.3l-30.9 18.1v3.2a8 8 0 0 0 3.8 6.8l6 3.7c1.6 1 3.7 1 5.3 0l24-14c2.3-1.5 3.8-4 3.8-6.8v-3.5l-12-7.5z"/><path fill="#FFF" d="M61.7 408.5l-20.4 11.8a6.8 6.8 0 0 0 0 11.5l5.4 3.3a7.3 7.3 0 0 0 7.6 0l23-13.4c5-3 4.9-10.2-.2-13l-.6-.4a14.7 14.7 0 0 0-14.8.2z"/><path fill="#F2B1B5" d="M76 415c-.2-2-1.3-3.9-3.3-5l-.6-.3c-1.6-1-3.3-1.5-5-1.7-1.3.2-2.5.6-3.6 1.3l-11 6.4a4.5 4.5 0 0 0 0 7.6l3.6 2.2c1.6 1 3.5 1 5 0l12.7-7.5c1.2-.7 2-1.8 2.3-3z"/><path fill="#E6E8E8" d="M96 422l-31 18v3.2a8 8 0 0 0 3.9 7l6 3.6c1.6 1 3.6 1 5.3 0l24-14c2.3-1.5 3.7-4 3.7-6.8v-3.5L96 422z"/><path fill="#FFF" d="M88.6 423.2l-20.3 11.7a6.8 6.8 0 0 0 0 11.6l5.4 3.3a7.3 7.3 0 0 0 7.6 0l23-13.4c5-3 4.8-10.2-.2-13l-.6-.4a14.6 14.6 0 0 0-14.9.2z"/><path fill="#F2B1B5" d="M103 429.6c-.3-2-1.4-3.8-3.3-4.9l-.6-.3c-1.6-1-3.3-1.5-5-1.7-1.3.2-2.5.6-3.6 1.3l-11 6.4a4.5 4.5 0 0 0 0 7.6l3.6 2.2c1.5 1 3.5 1 5 0l12.7-7.5a5 5 0 0 0 2.2-3zM70 419.3c-3.7 0-6.6-2.9-6.6-6.5v-42.2a6.5 6.5 0 1 1 13 0v42.2c0 3.6-2.9 6.5-6.5 6.5z"/><path opacity=".3" fill="#E08DC1" d="M64.9 412.8v-42.2c0-3.3 2.5-6 5.8-6.4h-.8c-3.6 0-6.5 2.8-6.5 6.4v42.2c0 3.6 3 6.5 6.5 6.5h.8a6.5 6.5 0 0 1-5.8-6.5z"/><path fill="#F2B1B5" d="M96.9 434.1c-3.6 0-6.5-3-6.5-6.5v-61.7a6.5 6.5 0 1 1 13 0v61.7c0 3.6-3 6.5-6.5 6.5z"/><path fill="#3E5491" d="M114.6 275.7L102 310.5 80 322.4c-10 5.8-18.6 13-18.6 31 0 0-.4 5-.6 11.2-.4 11.7 37.4 15.9 45.7 19.2 4.3 1.7 5.4-19.6 5.4-19.6s.3-5.7 8-10.1l26.1-15a24.3 24.3 0 0 0 0-42.1l-31.3-21.3z"/><path opacity=".1" fill="#E08DC1" d="M63.6 364.6c.2-6.3.6-11.3.6-11.3 0-17.9 8.7-25.1 18.6-31l22.1-11.8 12-33.2-2.3-1.6-12.6 34.8L80 322.4c-10 5.8-18.6 13-18.6 31 0 0-.4 5-.6 11.2-.4 11.7 37.4 15.9 45.7 19.2.6.2 1.1 0 1.6-.5-10.4-3.3-44.8-7.6-44.4-18.7z"/><path fill="#E6E8E8" d="M60.6 335.3v1c0 .4.3 1 .8 1.2l28.1 16.2c1 .6 2.7.6 3.8 0l43.8-25.2c.6-.4 1-1 1-1.6v-.4L109 310c-1-.6-2.6-.6-3.6 0l-44.9 25.4z"/><path fill="#FFF" d="M61.4 334.2c-1 .6-1 1.6 0 2.2l28.1 16.2c1 .6 2.7.6 3.8 0l44-25.3c1-.6 1-1.6 0-2.2l-28.1-16.3c-1-.6-2.7-.6-3.7 0l-44 25.4z"/><linearGradient id="c" gradientUnits="userSpaceOnUse" x1="69.3" y1="621.1" x2="131.7" y2="621.1" gradientTransform="translate(0 -291)"><stop offset="0" stop-color="#d35fa7"/><stop offset=".3" stop-color="#d975b3"/><stop offset="1" stop-color="#f1ab8c"/></linearGradient><path fill="url(#c)" d="M69.3 332.1l27.6 16 34.8-20-27.6-16z"/><path fill="#52669C" d="M81.7 343.7h-.3l-5.9-3.5a.5.5 0 1 1 .6-1l5.9 3.5a.5.5 0 0 1-.3 1z"/><path fill="#F2B1B5" d="M105.3 320.9c-1.8 0-3.5-.6-5-2a59.8 59.8 0 0 1-19.8-43.6 59.8 59.8 0 0 1 18.2-44.5l1.5-1.3a7.3 7.3 0 0 1 10.2 10.5l-1.4 1.4a45.3 45.3 0 0 0 1.2 66.8 7.3 7.3 0 0 1-5 12.7z"/><linearGradient id="d" gradientUnits="userSpaceOnUse" x1="91.6" y1="498.3" x2="144.5" y2="498.3" gradientTransform="translate(0 -291)"><stop offset="0" stop-color="#f1ab8c"/><stop offset=".2" stop-color="#ed956e"/><stop offset=".6" stop-color="#da79b5"/><stop offset=".8" stop-color="#d565ab"/><stop offset="1" stop-color="#d35fa7"/></linearGradient><path fill="url(#d)" d="M92.3 193l.5-2.5c0-2 1.8-3.8 3.8-4.5 2-.7 4-.6 6.1-.5l11.3.6c7.3.4 15.7 1.4 19.6 7.6 2.7 4.3 2.3 10.1 5.5 14 1 1.4 2.5 2.4 3.5 3.8 2.6 3.6 2 8.6.9 13-.4 1.3-1 2.7-2 3.6-2 1.6-4.8 1-6.9-.3-2-1.3-3.8-3.1-6-4-3.6-1.5-7.8-.5-11.4-1.7-7.2-2.3-9.6-12.1-16.6-15-2.2-.8-4.7-1-6.6-2.5-3.2-2.6-2.6-7.5-1.7-11.6z"/><path fill="#FFF" d="M155.8 246c-2.2-5.7-8.3-12.9-13.6-16l-18.7-10.7-13.2.2a9.6 9.6 0 0 0-7 3.1c-1.6 1.8-2.4 5.9-2.4 8.2v7l-3.6 13.7a8.9 8.9 0 0 0 1.3 7.4l2.4 3.5a33.8 33.8 0 0 1 5.9 21.4l-1.6 23.4c10 20.5 54 2.4 54 2.4-4.4-32.4 5.8-39.4-3.5-63.5z"/><path opacity=".1" fill="#E08DC1" d="M108.2 307.2l1.6-23.4c.5-7.6-1.5-15.1-5.8-21.4l-2.4-3.5a8.8 8.8 0 0 1-1.4-7.4l3.6-13.8v-6.9c0-2.3.9-6.4 2.4-8.2 1.8-2 4.4-3.1 7-3.1l10.4-.2-13.3.2a9.6 9.6 0 0 0-7 3.1c-1.6 1.8-2.4 5.9-2.4 8.2v7l-3.7 13.7a8.9 8.9 0 0 0 1.4 7.4l2.4 3.5a33.8 33.8 0 0 1 5.9 21.4l-1.6 23.4c3.8 7.8 12.6 10 22 9.8-8.3-.3-15.7-2.8-19.1-9.8z"/><path fill="#F2B1B5" d="M128.6 235.5c3.6 0 6.5-3 6.5-6.5v-23.1a6.5 6.5 0 1 0-13 0V229c0 3.6 3 6.5 6.5 6.5z"/><path fill="#F2B1B5" d="M120 222.8l11.6-3.6-10.6-34.6-26.5 8 6 19.9a15.5 15.5 0 0 0 19.4 10.3z"/><path opacity=".3" fill="#E08DC1" d="M129.5 316.9c7.6-.6 15.4-2.5 21-4.2a63 63 0 0 0-6-69.9c-2.5-3.1-5.5 7.5-5.5 7.5 14.2 17.5 8.3 44.7-5.9 62.1l-3.6 4.5z"/><path fill="#F2B1B5" d="M113.4 335.4a7.3 7.3 0 0 1-4.3-13.2l15.1-11a48.2 48.2 0 0 0 15.5-58.4 7.3 7.3 0 1 1 13.4-6A63 63 0 0 1 133 323l-15.2 11a7.3 7.3 0 0 1-4.3 1.4z"/><path opacity=".3" fill="#E08DC1" d="M153.1 246.8a7.3 7.3 0 0 0-7.4-4.3c2.5.3 4.8 1.8 6 4.3a63 63 0 0 1-20.3 76.2l-15.2 11c-1 .8-2.2 1.2-3.4 1.4h.6c1.5 0 3-.4 4.3-1.4l15.2-11a63 63 0 0 0 20.2-76.2z"/><path fill="#F2B1B5" d="M105.3 320.9c-1.8 0-3.5-.6-5-2a60.3 60.3 0 0 1-19.1-54.3c.6-4 4.4-6.7 8.4-6 4 .6 6.7 4.3 6 8.3a45.7 45.7 0 0 0 14.6 41.2 7.3 7.3 0 0 1-5 12.8z"/><linearGradient id="e" gradientUnits="userSpaceOnUse" x1="79.4" y1="453.6" x2="189.1" y2="558.4" gradientTransform="translate(0 -291)"><stop offset="0" stop-color="#f1ab8c"/><stop offset=".2" stop-color="#ed956e"/><stop offset=".4" stop-color="#ee9b77"/><stop offset=".6" stop-color="#de89be"/><stop offset=".9" stop-color="#d76daf"/><stop offset="1" stop-color="#d35fa7"/></linearGradient><path fill="url(#e)" d="M149.9 252.8c2 0 3.9.4 5.7 1.1 1.6.8 3.4 1.9 5.1 1.4 2.4-.6 3.2-3.5 3.6-6 .3-2 .7-4.2.2-6.2-.6-2.7-2.6-4.9-4.2-7.2a25.3 25.3 0 0 1-4-11.4c-.3-3 0-6.1-.4-9.2-.4-3.6-2-5.9-3.8-8.8-2.2-3.5-2.8-7.7-5-11.1-2.2-3.4-6-5.7-8.5-9-2.7-3.4-4.1-5.7-8.1-8-3-1.6-5.8-4-9.2-4.8-2.7-.6-5 .5-7.5.9-2.6.3-5.2 0-8 .6a26.5 26.5 0 0 0-13.8 7.8c-2.9 3.2-3.6 7.3.7 9.5 4.8 2.6 9 .6 14 .3 1 0 1.9 0 2.7.6 2 1.3 1 6.5 1.7 8.7.6 2.4 1.8 4.7 3.7 6.2 1.7 1.3 3.9 2 6 2.7 2 .8 4 1.9 5 3.8 2 3.5-.5 7.9-.4 12 0 2.3 1.1 4.7 2.9 6.4 1.2 1.1 2.7 2 3.5 3.3 1 1.4 1 3 1.3 4.7a25 25 0 0 0 1.4 6.4c1.7 4.2 4.8 6.3 9.5 6 1.7 0 3.3-.5 5-.7h.9z"/><g opacity=".1"><path fill="#E08DC1" d="M164.3 249.4a9.7 9.7 0 0 1-1.9 4.8l.4-1.9c.4-2 .7-4.2.2-6.3-.6-2.7-2.6-4.9-4.1-7.2a25.3 25.3 0 0 1-4-11.4c-.4-3-.1-6.1-.5-9.1-.4-3.6-2-6-3.8-8.9-2.1-3.5-2.7-7.7-5-11-2.2-3.5-6-5.7-8.5-9-2.6-3.5-4.1-5.8-8-8-3-1.7-5.9-4.1-9.3-4.9-2.7-.5-5 .6-7.5.9-2.6.3-5.2 0-7.9.6a26.5 26.5 0 0 0-13.8 7.8l-.8 1a9.2 9.2 0 0 1 2.2-4c3.6-4 8.7-6.6 13.9-7.7 2.7-.6 5.3-.3 7.9-.6 2.6-.4 4.8-1.5 7.5-.9 3.4.7 6.2 3.2 9.2 4.9 4 2.2 5.4 4.5 8 8 2.6 3.2 6.4 5.5 8.6 8.9 2.2 3.4 2.8 7.6 5 11 1.8 3 3.4 5.3 3.8 9 .3 3 0 6 .4 9.1.4 4 1.8 8 4 11.4 1.6 2.3 3.6 4.5 4.2 7.2.5 2 .1 4.2-.2 6.3z"/></g><g><path fill="#F2B1B5" d="M98.1 304.4l14.2 4.2a2 2 0 1 0 1.1-3.8l-14.1-4.3-1.2 4z"/></g><g><path fill="#F2B1B5" d="M110.6 322L99 331c-1 .6-1 2-.3 2.8a2 2 0 0 0 2.7.4l11.8-8.9-2.5-3.3z"/></g><g><path fill="#F2B1B5" d="M118.1 321l-11.7 8.9c-1 .7-1 2-.3 2.9a2 2 0 0 0 2.7.3l11.8-8.9-2.5-3.3z"/></g></g></svg>