<?xml version="1.0" encoding="utf-8"?>
<!-- Generator: Adobe Illustrator 16.0.0, SVG Export Plug-In . SVG Version: 6.00 Build 0)  -->
<!DOCTYPE svg PUBLIC "-//W3C//DTD SVG 1.1//EN" "http://www.w3.org/Graphics/SVG/1.1/DTD/svg11.dtd">
<svg version="1.1" id="example_global_subsidiaries"
	 xmlns="http://www.w3.org/2000/svg" xmlns:xlink="http://www.w3.org/1999/xlink" x="0px" y="0px" width="1190.551px"
	 height="737.008px" viewBox="0 0 1190.551 737.008" enable-background="new 0 0 1190.551 737.008" xml:space="preserve">
<polygon id="Spain_4_" fill="#E86477" points="540.08,321.457 540.08,297.679 535.186,297.679 539.644,293.218 551.529,293.221 
	557.312,287.437 568.875,293.22 573.22,293.22 562.364,304.059 562.364,315.947 556.857,321.457 "/>
<polygon id="Denmark_4_" fill="#F28466" points="593.13,232.29 587.622,226.78 587.622,221.886 593.564,221.888 593.564,215.942 
	598.021,215.942 598.021,232.29 "/>
<polygon id="Portugal_4_" fill="#E86477" points="534.136,315.949 534.136,299.165 538.594,299.165 538.594,320.405 "/>
<polygon id="Singapore_4_" fill="#5252A3" points="909.566,446.291 912.972,442.883 912.972,446.291 "/>
<polygon id="Thailand_4_" fill="#5252A3" points="896.196,428.456 890.688,422.948 890.687,411.676 896.631,405.73 896.631,393.228 
	890.996,387.588 895.888,382.695 901.521,388.333 907.463,388.333 912.972,393.842 912.972,399.172 907.029,405.115 
	907.029,409.573 901.83,404.373 895.145,411.059 895.145,423.564 900.037,428.456 "/>
<polygon id="Cambodia_4_" fill="#5252A3" points="908.516,411.059 908.516,405.73 914.022,400.224 918.914,400.222 918.914,411.059 
	913.715,416.262 "/>
<polygon id="Vietnam_4_" fill="#303F8C" points="914.458,417.619 920.401,411.676 920.401,393.227 914.458,387.282 914.46,381.337 
	908.516,375.393 908.516,370.498 919.35,370.498 924.551,375.7 918.914,381.336 918.914,387.897 930.799,399.787 930.799,405.117 
	914.458,421.462 "/>
<polygon id="Laos_4_" fill="#303F8C" points="914.458,393.227 908.079,386.846 902.138,386.846 897.68,382.387 902.573,382.383 
	902.573,376.007 907.029,371.549 907.029,376.009 912.974,381.952 912.972,387.896 918.914,393.842 918.914,398.736 
	914.458,398.737 "/>
<polygon id="Myanmar_4_" fill="#303F8C" points="890.688,399.171 884.003,392.483 877.752,398.735 873.912,398.735 878.804,393.842 
	878.804,387.281 872.861,381.336 872.861,376.009 884.746,364.119 884.746,358.174 890.688,352.229 890.688,347.771 
	895.145,352.229 895.145,357.559 888.893,363.811 895.145,370.063 895.145,376.442 901.086,376.442 901.086,380.898 
	895.579,380.901 888.895,387.588 895.145,393.841 895.145,405.115 890.687,409.573 "/>
<rect id="Bhutan_5_" x="860.977" y="346.721" fill="#E8E8E8" width="10.398" height="4.459"/>
<polygon id="Nepal_4_" fill="#303F8C" points="836.775,351.179 831.571,345.9 836.46,341.081 842.098,346.721 859.49,346.721 
	859.49,351.179 "/>
<polygon id="Bangladesh_4_" fill="#303F8C" points="860.977,374.957 860.977,363.502 855.341,357.868 860.233,352.973 
	871.375,364.119 871.375,374.957 "/>
<g id="India_4_">
	<path fill="#F28466" d="M813.438,411.059V399.17l-5.943-5.943v-11.891l-11.577-11.581l5.636-5.636v-11.89l17.827-17.833
		l-0.006-10.402l16.035,16.035l-5.939,5.856l6.683,6.779h22.289l-5.2,5.203l6.25,6.25v10.839h-5.508l-24.206,24.213v17.986
		l-5.19,5.056L813.438,411.059z M872.861,363.502l-10.835-10.838h10.835v-5.944h16.34v4.895l-5.941,5.944v5.944l-10.398,10.405
		V363.502L872.861,363.502z"/>
</g>
<g id="Malaysia_4_">
	<path fill="#5252A3" d="M933.336,446.291l10.399-10.402h5.942l5.942-5.944h4.892l0.002,4.457h-5.51l-11.885,11.89H933.336z
		 M902.573,440.783l0.004-5.945l-4.896-4.896l9.348,0.003v5.511l5.635,5.635l-4.892,4.894L902.573,440.783z"/>
</g>
<polygon id="Pakistan_4_" fill="#F28466" points="789.231,363.068 771.84,363.068 771.84,346.721 783.289,346.721 789.22,340.797 
	795.176,340.775 801.553,334.397 801.553,322.942 807.059,322.942 812.693,317.306 817.887,322.507 817.893,333.781 
	800.065,351.615 800.065,363.502 794.866,368.704 "/>
<polygon id="Afghanistan_4_" fill="#E8E8E8" points="771.84,345.235 771.84,339.726 765.897,333.781 765.897,322.942 
	777.347,322.942 783.29,316.998 810.9,316.998 806.443,321.457 800.065,321.457 800.065,333.781 794.557,339.292 788.604,339.314 
	782.674,345.235 "/>
<polygon id="Tajikistan_4_" fill="#E8E8E8" points="789.667,315.512 789.667,310.619 795.178,305.109 800.501,305.109 
	806.753,311.361 811.951,306.162 811.951,315.512 "/>
<polygon id="Uzbekistan_4_" fill="#E8E8E8" points="783.29,315.512 759.214,291.426 754.013,296.628 754.013,281.331 
	758.903,281.331 764.847,287.275 770.788,287.279 782.673,299.165 800.065,299.187 800.065,303.624 794.561,303.624 
	788.181,310.003 788.181,315.512 "/>
<polygon id="Turkmenistan_4_" fill="#E8E8E8" points="765.462,321.457 759.521,315.512 748.07,315.512 748.07,310.003 
	742.128,304.059 742.128,299.165 753.577,299.165 759.214,293.528 781.931,316.255 776.731,321.457 "/>
<polygon id="Kazakhstan_4_" fill="#303F8C" points="783.29,297.679 771.405,285.794 765.462,285.79 759.521,279.845 
	752.525,279.845 752.525,297.679 741.692,297.679 736.186,292.169 736.186,281.331 742.128,281.331 742.128,273.9 729.191,273.9 
	726.721,276.373 724.311,274.302 724.311,257.119 729.808,251.618 759.531,251.635 783.336,227.831 806.46,227.831 830.231,251.609 
	842.119,251.609 853.57,263.062 853.553,268.392 842.095,279.848 835.721,279.914 835.725,291.735 824.889,291.735 818.944,285.79 
	812.389,285.79 806.443,291.735 800.065,291.735 800.065,297.701 "/>
<polygon id="Kyrgyzstan_4_" fill="#E8E8E8" points="801.553,304.059 801.553,293.22 807.059,293.22 813.004,287.275 
	818.329,287.275 824.271,293.22 834.674,293.22 824.271,303.624 812.386,303.624 806.753,309.26 "/>
<polygon id="Iran_4_" fill="#E8E8E8" points="759.521,363.068 753.577,357.123 741.692,357.123 724.301,339.728 724.301,333.781 
	718.355,327.836 718.358,321.892 712.416,315.947 712.416,311.054 728.756,311.054 728.756,316.565 735.134,322.942 
	741.692,322.942 747.636,316.998 758.903,316.998 764.41,322.507 764.41,334.397 770.354,340.341 770.354,363.068 "/>
<polygon id="Azerbaiian_4_" fill="#E8E8E8" points="723.866,309.568 718.669,304.372 723.955,299.165 728.756,299.165 
	728.756,309.568 "/>
<polygon id="Armenia_4_" fill="#E8E8E8" points="712.416,309.568 712.416,304.674 717.923,299.165 721.838,299.165 716.56,304.365 
	721.764,309.568 "/>
<polygon id="Georgia_4_" fill="#E8E8E8" points="701.58,303.624 706.473,298.729 706.473,294.271 711.368,299.165 715.821,299.165 
	711.364,303.624 "/>
<polygon id="Turkey_4_" fill="#5252A3" points="664.445,321.457 652.992,310.003 652.992,305.109 664.877,305.109 664.877,299.165 
	687.595,299.165 693.536,305.109 710.93,305.109 710.93,315.512 681.651,315.512 675.71,321.457 "/>
<polygon id="Syria_4_" fill="#E8E8E8" points="688.646,333.346 688.646,327.401 682.703,327.401 682.703,322.507 688.211,316.998 
	704.986,316.998 704.986,321.892 693.536,333.346 "/>
<polygon id="Iraq_4_" fill="#5252A3" points="711.98,345.235 706.038,339.291 694.588,339.291 694.588,334.397 706.473,322.507 
	706.473,316.998 711.364,316.998 716.871,322.507 716.869,328.453 722.814,334.397 722.814,340.343 727.706,345.235 "/>
<rect id="Lebanon_4_" x="682.703" y="328.887" fill="#E8E8E8" width="4.456" height="4.459"/>
<polygon id="Jordan_4_" fill="#303F8C" points="682.703,334.832 693.102,334.832 693.102,339.291 687.159,339.291 687.159,345.67 
	682.703,350.126 "/>
<polygon id="Israel_4_" fill="#303F8C" points="677.068,340.033 681.217,335.884 681.217,344.184 "/>
<polygon id="Saudi_Arabia_4_" fill="#E86477" points="711.673,386.541 705.731,392.483 700.531,387.281 700.531,381.336 
	694.588,375.393 694.588,369.446 682.703,357.559 682.703,352.227 688.646,346.285 688.646,340.776 705.422,340.776 
	711.364,346.721 716.871,346.721 716.871,352.664 722.813,352.664 722.806,358.582 728.756,358.605 728.756,364.529 
	734.699,364.529 734.699,370.063 741.076,376.442 746.584,376.443 746.584,380.901 741.076,380.901 735.134,386.846 
	729.325,386.846 717.762,392.63 "/>
<polygon id="Yemen_4_" fill="#E8E8E8" points="706.782,393.533 711.673,388.643 717.469,394.438 729.675,388.333 735.134,388.333 
	740.337,393.533 735.134,398.735 723.249,398.735 717.614,404.372 "/>
<polygon id="Oman_4_" fill="#303F8C" points="736.493,387.59 741.692,382.388 748.07,382.388 748.068,370.063 753.269,364.862 
	758.903,370.498 764.41,370.498 764.41,375.393 752.962,386.846 747.019,386.846 741.387,392.483 "/>
<polygon id="United_Arab_Emirates_4_" fill="#5252A3" points="741.692,374.955 736.186,369.446 736.186,365.587 741.383,370.808 
	747.636,364.553 751.476,364.553 746.582,369.446 746.582,374.957 "/>
<polygon id="Egypt_4_" fill="#303F8C" points="647.049,374.957 647.049,340.776 675.71,340.776 681.217,346.285 681.217,356.072 
	675.274,350.128 675.274,358.174 681.217,364.119 681.217,370.062 686.11,374.957 "/>
<polygon id="Germany_4_" fill="#F28466" points="593.131,267.957 587.622,262.448 587.622,239.72 593.564,239.72 593.564,233.775 
	598.457,233.775 604.401,239.72 609.908,239.72 609.908,250.558 603.658,256.81 609.601,262.757 604.401,267.957 "/>
<polygon id="Netherlands_4_" fill="#E86477" points="576.786,250.123 581.679,245.229 581.679,239.72 586.136,239.72 
	586.136,250.123 "/>
<polygon id="Belgium_4_" fill="#E86477" points="570.844,256.067 575.301,251.609 586.136,251.609 586.136,256.067 "/>
<rect id="Luxembourg_4_" x="581.679" y="257.553" fill="#5252A3" width="4.457" height="4.459"/>
<polygon id="Switzerland_4_" fill="#E86477" points="587.622,279.845 587.622,274.951 593.131,269.442 598.021,269.442 
	598.021,279.845 "/>
<polygon id="Austria_4_" fill="#F28466" points="599.508,269.442 605.016,269.442 610.961,263.5 616.286,263.498 621.485,268.699 
	616.286,273.899 599.508,273.9 "/>
<polygon id="Czech_Republic_4_" fill="#5252A3" points="605.759,256.81 610.651,251.917 616.288,257.553 622.228,257.553 
	626.685,262.01 610.961,262.013 "/>
<polygon id="Slovakia_4_" fill="#5252A3" points="622.843,267.957 618.387,263.498 639.62,263.498 639.62,267.957 "/>
<polygon id="Croatia_4_" fill="#E8E8E8" points="616.9,285.79 612.445,281.331 627.735,281.331 627.735,285.79 "/>
<polygon id="Slovenia_4_" fill="#E8E8E8" points="611.395,275.385 616.286,275.385 620.743,279.842 611.395,279.845 "/>
<polygon id="Hungary_4_" fill="#E86477" points="622.843,279.842 617.644,274.642 622.843,269.442 638.569,269.442 628.172,279.845 
	"/>
<polygon id="Serbia_4_" fill="#E8E8E8" points="635.166,291.735 635.166,285.79 629.223,285.79 629.223,280.896 633.678,276.438 
	633.678,280.896 639.62,286.84 639.62,291.735 "/>
<rect id="Macedonia_4_" x="635.166" y="293.22" fill="#E8E8E8" width="4.454" height="4.459"/>
<polygon id="Greece_4_" fill="#F28466" points="635.216,315.95 635.216,310.051 630.271,305.109 635.166,305.109 635.166,299.165 
	644.512,299.165 639.313,304.367 645.257,310.312 639.62,315.947 639.62,320.395 "/>
<polygon id="Bulgaria_4_" fill="#E86477" points="641.107,297.679 641.107,287.275 651.94,287.275 657.447,292.783 657.447,297.679 
	"/>
<polygon id="Romania_4_" fill="#E86477" points="652.557,285.79 640.672,285.79 635.164,280.28 635.164,274.951 640.672,269.442 
	651.94,269.442 657.445,274.951 657.447,290.682 "/>
<polygon id="Bosnia_and_Herzegovina_4_" fill="#E8E8E8" points="622.843,291.735 618.387,287.275 628.172,287.275 632.629,291.735 
	"/>
<polygon id="Montenegro_4_" fill="#E8E8E8" points="628.786,297.679 624.33,293.22 633.68,293.22 633.68,297.679 "/>
<rect id="Albania_4_" x="629.223" y="299.165" fill="#E8E8E8" width="4.457" height="4.458"/>
<polygon id="France_4_" fill="#5252A3" points="569.226,291.735 557.908,286.074 557.909,274.337 551.965,268.393 551.965,263.498 
	563.415,263.498 569.358,257.553 580.194,257.553 580.194,263.498 586.571,263.498 591.772,268.699 586.136,274.337 
	586.136,291.735 "/>
<polygon id="Italia_4_" fill="#E86477" points="611.395,304.059 599.072,291.735 587.622,291.735 587.622,281.331 599.508,281.331 
	599.508,275.386 609.908,275.386 609.908,279.845 603.966,279.845 603.966,286.84 616.286,299.165 621.793,299.165 621.793,303.625 
	615.851,303.627 615.851,310.003 611.395,314.46 "/>
<polygon id="Moldova_4_" fill="#E8E8E8" points="658.932,274.337 652.557,267.957 648.1,267.957 652.557,263.498 657.882,263.498 
	663.39,269.007 663.39,280.28 658.933,284.739 "/>
<polygon id="Tunisia_4_" fill="#303F8C" points="593.564,339.291 593.564,323.994 603.966,334.396 603.961,339.291 "/>
<polygon id="Algeria_4_" fill="#5252A3" points="557.908,369.384 557.908,328.453 563.415,322.942 592.08,322.942 592.08,340.776 
	603.96,340.776 603.966,369.011 598.021,369.011 598.021,375.393 586.571,386.843 581.185,386.846 "/>
<polygon id="Morocco_4_" fill="#303F8C" points="545.586,363.068 533.701,351.179 529.244,351.179 534.136,346.285 534.136,340.341 
	545.586,328.886 556.422,328.887 556.422,363.068 "/>
<polygon id="Libya_4_" fill="#303F8C" points="616.9,380.901 605.45,369.446 605.45,334.832 610.343,334.832 616.286,340.776 
	628.786,340.776 634.729,334.832 640.055,334.832 645.562,340.341 645.562,380.901 "/>
<polygon id="Chad_4_" fill="#E8E8E8" points="622.843,422.513 611.395,411.059 611.393,387.897 616.9,382.388 645.562,382.388 
	645.562,392.79 639.62,392.79 639.62,411.063 628.172,422.513 "/>
<polygon id="Sudan_4_" fill="#E8E8E8" points="664.441,434.401 641.107,411.063 641.107,394.276 647.049,394.276 647.049,376.444 
	687.159,376.444 687.159,393.227 675.274,405.115 675.274,434.401 "/>
<polygon id="Eritrea_4_" fill="#E8E8E8" points="677.812,404.68 688.646,393.842 688.646,389.384 703.937,404.68 "/>
<polygon id="Ethiopia_4_" fill="#E8E8E8" points="676.762,434.401 676.762,406.166 704.987,406.166 704.995,411.678 
	716.882,423.563 716.872,428.892 711.364,434.401 "/>
<polygon id="Somalia_4_" fill="#303F8C" points="700.532,452.238 700.558,435.889 711.98,435.889 718.356,429.509 718.369,422.949 
	713.476,418.055 717.923,418.055 723.866,412.11 734.699,412.11 734.699,417.004 728.756,422.948 728.756,428.903 705.422,452.238 
	"/>
<polygon id="Kenya_4_" fill="#E8E8E8" points="682.703,452.675 682.703,435.962 699.071,435.892 699.043,453.726 703.937,453.726 
	693.845,463.817 "/>
<rect id="Uganda_4_" x="664.877" y="435.889" fill="#E8E8E8" width="16.34" height="16.351"/>
<polygon id="Tanzania_4_" fill="#303F8C" points="682.269,481.955 676.327,476.015 664.877,475.979 664.877,453.727 
	681.651,453.727 693.102,465.176 693.102,477.065 698,481.957 "/>
<polygon id="Mozambique_4_" fill="#E8E8E8" points="670.818,535.458 670.818,518.676 682.703,506.791 682.703,483.441 
	699.053,483.444 699.053,500.226 681.223,518.06 681.223,529.949 675.716,535.458 "/>
<polygon id="South_Africa_4_" fill="#303F8C" points="628.792,571.124 623.282,565.615 623.279,553.73 618.387,548.833 
	628.786,548.833 640.672,536.944 652.557,536.944 664.441,525.06 669.332,525.056 669.332,536.944 675.281,536.944 675.281,547.781 
	663.83,559.235 657.881,559.235 651.944,565.182 645.997,565.185 640.06,571.124 "/>
<polygon id="Namibia_4_" fill="#303F8C" points="617.34,547.347 617.34,536.026 605.45,512.248 605.45,507.222 633.678,507.222 
	633.678,541.84 628.172,547.347 "/>
<polygon id="Botswana_4_" fill="#E8E8E8" points="635.164,507.225 645.996,507.279 663.082,524.317 651.94,535.458 640.055,535.458 
	635.164,540.353 "/>
<polygon id="Angola_4_" fill="#E8E8E8" points="605.45,505.737 605.45,500.843 611.395,494.898 611.395,482.394 605.45,476.448 
	605.45,471.555 616.284,471.555 622.228,477.499 628.172,477.504 639.62,488.954 639.62,505.766 "/>
<polygon id="Zimbabwe_4_" fill="#E8E8E8" points="648.095,507.272 658.657,507.22 664.446,501.277 669.767,501.277 675.276,506.787 
	675.276,512.115 669.332,518.06 669.332,523.569 664.44,523.573 "/>
<polygon id="Malawi_4_" fill="#E8E8E8" points="676.764,506.17 670.818,500.226 670.818,495.333 676.762,495.333 676.762,478.551 
	681.217,483.007 681.217,506.175 676.764,510.629 "/>
<polygon id="Zambia_4_" fill="#E8E8E8" points="641.107,489.389 658.934,489.389 658.934,483.007 664.441,477.463 675.274,477.497 
	675.274,493.846 669.332,493.846 669.332,499.791 663.82,499.791 658.027,505.737 641.107,505.765 "/>
<rect id="Rwanda_4_" x="659.053" y="453.727" fill="#E8E8E8" width="4.338" height="4.336"/>
<rect id="Burundi_4_" x="658.934" y="459.55" fill="#E8E8E8" width="4.456" height="4.574"/>
<polygon id="Democratic_Republic_of_the_Congo_4_" fill="#E8E8E8" points="640.672,487.902 628.786,476.018 622.843,476.014 
	617.334,470.503 617.338,459.231 629.223,447.347 629.223,435.889 663.39,435.889 663.39,452.239 657.574,452.239 657.441,465.611 
	663.39,465.611 663.39,476.413 657.447,482.396 657.447,487.902 "/>
<polygon id="Congo_4_" fill="#E8E8E8" points="605.016,470.068 599.509,464.56 599.509,459.666 611.395,459.666 611.395,441.833 
	627.735,441.833 627.735,446.729 615.851,458.614 615.849,470.068 "/>
<rect id="Equatorial_Guinea_4_" x="599.508" y="441.835" fill="#E8E8E8" width="4.458" height="4.456"/>
<polygon id="Gabon_4_" fill="#E8E8E8" points="599.508,458.18 599.508,447.777 605.45,447.777 605.45,441.835 609.909,441.835 
	609.908,458.18 "/>
<polygon id="Cameroon_4_" fill="#E8E8E8" points="593.872,435.146 611.395,417.624 611.395,413.161 621.485,423.256 
	615.851,428.891 615.851,440.347 599.072,440.349 "/>
<polygon id="Central_African_Republic_4_" fill="#E8E8E8" points="617.338,440.347 617.338,429.507 622.843,423.999 
	628.786,423.999 640.363,412.422 662.339,434.401 627.735,434.401 627.735,440.347 "/>
<polygon id="Nigeria_4_" fill="#303F8C" points="587.187,434.401 581.244,428.458 575.736,428.458 575.736,406.166 609.908,406.166 
	609.908,417.008 592.514,434.401 "/>
<polygon id="Niger_4_" fill="#E8E8E8" points="569.793,404.68 569.793,400.222 575.301,400.222 581.679,393.842 581.679,388.332 
	587.187,388.33 599.508,376.009 599.508,370.498 604.401,370.498 615.543,381.645 609.905,387.281 609.908,404.68 "/>
<polygon id="Western_Sahara_4_" fill="#303F8C" points="510.364,374.957 510.364,370.063 527.758,352.664 533.085,352.664 
	537.543,357.122 533.085,357.123 520.765,369.442 520.765,374.957 "/>
<polygon id="Mauritania_4_" fill="#E8E8E8" points="510.364,392.79 510.364,376.444 522.25,376.444 522.25,370.06 533.701,358.609 
	539.029,358.607 544.536,364.119 544.536,392.79 "/>
<rect id="Benin_4_" x="569.793" y="412.11" fill="#E8E8E8" width="4.457" height="16.349"/>
<polygon id="Togo_4_" fill="#E8E8E8" points="563.85,428.458 563.85,417.619 568.308,413.161 568.308,428.458 "/>
<rect id="Ghana_4_" x="557.908" y="418.055" fill="#E8E8E8" width="4.457" height="10.404"/>
<polygon id="Ivory_Cost_4_" fill="#E8E8E8" points="540.078,434.401 540.08,417.619 545.281,412.418 550.914,418.052 
	556.422,418.054 556.422,428.458 550.915,428.458 544.972,434.401 "/>
<polygon id="Liberia_4_" fill="#E8E8E8" points="529.244,423.999 533.085,423.999 538.593,429.509 538.593,433.351 "/>
<polygon id="Sierra_Leone_4_" fill="#303F8C" points="527.758,422.513 523.3,418.055 527.141,418.055 531.6,422.513 "/>
<polygon id="Guinea_4_" fill="#E8E8E8" points="527.756,416.568 521.814,416.568 517.36,412.127 538.594,412.11 538.593,427.407 "/>
<polygon id="Mali_4_" fill="#E8E8E8" points="540.08,410.624 528.191,410.632 528.143,394.276 546.022,394.276 546.022,364.553 
	556.422,364.553 556.422,370.127 580.194,387.96 580.194,393.227 574.686,398.735 550.479,398.735 550.479,405.115 540.08,415.519 
	"/>
<polygon id="Burkina_Faso_4_" fill="#E8E8E8" points="551.529,416.565 546.331,411.367 551.965,405.729 551.965,400.222 
	568.308,400.222 568.308,406.166 574.25,406.166 574.25,410.624 568.743,410.624 562.799,416.568 "/>
<rect id="Gambia_5_" x="510.364" y="400.222" fill="#E8E8E8" width="4.458" height="4.458"/>
<polygon id="Guinea-Bissau_4_" fill="#E8E8E8" points="515.872,410.632 511.414,406.166 526.708,406.166 526.708,410.632 "/>
<polygon id="Senegal_4_" fill="#E8E8E8" points="516.307,404.68 516.307,398.735 510.364,398.735 510.364,394.276 526.655,394.276 
	526.655,404.68 "/>
<polygon id="Mongolia_4_" fill="#303F8C" points="902.138,297.679 896.194,291.735 884.312,291.735 866.919,274.337 866.94,263.063 
	878.396,251.609 913.434,251.609 925.319,263.495 948.627,263.498 948.627,269.442 960.512,269.442 960.512,273.9 955.004,273.9 
	949.061,279.845 937.176,279.845 925.291,291.73 919.35,291.735 913.404,297.679 "/>
<polygon id="South_Korea_4_" fill="#303F8C" points="985.767,327.401 985.767,316.565 990.968,311.365 996.166,316.563 
	996.168,321.892 990.658,327.401 "/>
<polygon id="North_Korea_4_" fill="#E8E8E8" points="979.827,315.512 979.827,304.672 985.332,299.165 991.303,299.165 
	1008.074,282.394 1008.06,291.735 1002.543,291.735 990.223,304.059 990.223,310.005 984.716,315.513 "/>
<polygon id="Poland_4_" fill="#F28466" points="628.786,262.01 622.843,256.067 616.903,256.067 611.395,250.558 611.395,239.285 
	616.9,233.775 639.62,233.775 639.62,262.011 "/>
<polygon id="Latvia_4_" fill="#E86477" points="646.614,226.345 640.672,220.401 635.164,220.401 635.164,215.942 640.055,215.942 
	647.049,222.938 647.049,215.942 657.447,215.942 657.447,226.345 "/>
<polygon id="Lithuania_4_" fill="#E86477" points="641.107,232.725 635.164,226.78 635.164,221.887 640.055,221.887 
	645.997,227.831 651.505,227.831 651.505,232.725 645.997,238.232 641.107,238.233 "/>
<polygon id="Ukraine_4_" fill="#5252A3" points="676.326,279.845 670.384,273.9 664.877,273.9 664.877,268.393 658.499,262.012 
	651.94,262.012 645.997,267.957 641.107,267.957 641.107,251.61 664.441,251.635 670.385,245.665 675.71,245.665 687.596,257.555 
	693.536,257.539 699.053,263.053 699.053,268.392 694.588,272.851 694.588,266.906 681.651,279.845 "/>
<polygon id="Estonia_4_" fill="#E86477" points="646.614,214.457 641.413,209.255 646.614,204.057 657.447,204.057 657.447,214.457 
	"/>
<polygon id="Belarus_4_" fill="#5252A3" points="641.107,250.123 641.107,239.72 646.614,239.718 652.992,233.34 652.992,227.831 
	658.934,227.831 658.934,222.937 669.338,233.339 669.332,239.284 674.224,244.179 669.766,244.179 663.825,250.148 "/>
<polygon id="Norway_5_" fill="#E8E8E8" points="581.244,214.457 575.736,208.949 575.736,191.729 581.244,186.22 587.188,186.22 
	599.508,173.896 599.508,167.951 611.395,156.062 611.395,150.118 617.338,144.173 617.338,138.229 634.729,120.831 
	640.672,120.831 646.614,114.89 657.882,114.89 663.39,120.396 663.39,125.289 658.911,125.289 658.911,119.345 651.857,119.345 
	645.562,125.727 645.562,131.151 633.678,131.151 633.678,131.233 627.735,131.233 627.735,143.558 615.851,155.444 
	615.851,167.336 603.966,179.225 603.966,207.46 599.074,202.567 592.08,202.567 592.08,208.946 586.573,214.457 "/>
<polygon id="Schweden_5_" fill="#F28466" points="610.961,226.345 605.45,220.836 605.45,179.84 617.338,167.951 617.338,156.06 
	629.223,144.173 629.223,132.719 634.113,132.719 639.62,138.229 639.622,155.447 633.678,161.391 633.678,167.336 621.793,179.225 
	621.793,191.729 627.735,197.673 627.735,203.002 621.793,208.946 621.793,214.891 615.851,220.836 615.851,226.345 "/>
<polygon id="Finland_5_" fill="#E86477" points="640.672,196.622 635.164,191.114 635.164,179.84 647.049,167.951 647.049,155.012 
	641.109,155.012 641.107,137.613 636.133,132.637 647.049,132.637 647.049,126.336 652.479,120.831 657.425,120.831 
	657.425,126.774 663.39,126.774 663.395,191.114 657.883,196.623 "/>
<g id="Argentina_4_">
	<path fill="#5252A3" d="M338.021,666.236l0.018-9.332l4.438,4.438v4.894H338.021z M332.076,654.348v-5.946h-6.377l-5.507-5.509
		v-11.274l5.942-5.942v-47.558l5.942-5.943v-23.777l5.942-5.944v-17.398h22.723l5.507,5.51v5.944l6.686,6.687l11.142-11.146v9.788
		l-5.944,5.943l0.001,5.51h-5.967l0.023,6.382l-6.249,6.251l6.25,6.252l0.002,5.329l-17.393,17.399h-6.383l0.002,6.379l-5.945,5.944
		v5.944l-6.25,6.253l6.25,6.253v5.328l-5.942,5.943v17.401L332.076,654.348z"/>
</g>
<polygon id="Costa_Rica_4_" fill="#5252A3" points="279.64,412.11 283.482,412.11 288.682,417.312 286.761,419.232 "/>
<polygon id="Nicaragua_4_" fill="#303F8C" points="278.154,410.624 272.955,405.423 278.154,400.224 283.047,400.224 
	283.047,410.624 "/>
<polygon id="El_Salvador_4_" fill="#303F8C" points="266.269,404.68 261.811,400.222 271.161,400.222 271.161,404.68 "/>
<polygon id="Mexico_4_" fill="#5252A3" points="248.439,392.79 230.613,392.79 224.667,386.846 218.726,386.846 213.216,381.336 
	213.216,369.446 189.446,345.67 189.446,339.291 182.017,339.291 182.017,346.285 193.902,358.174 193.902,364.119 198.795,369.011 
	194.953,369.011 189.446,363.502 189.446,357.559 177.56,345.67 177.56,334.832 188.396,334.832 194.338,340.774 212.167,340.774 
	218.113,346.721 229.996,346.721 241.138,357.866 235.503,363.502 235.503,376.009 247.824,388.333 254.383,388.333 
	266.269,376.444 271.161,376.444 271.161,386.846 259.275,386.846 259.275,393.227 254.075,398.428 "/>
<polygon id="Panama_4_" fill="#5252A3" points="290.043,422.513 287.813,420.283 290.04,418.055 305.768,418.055 301.31,422.513 "/>
<polygon id="Honduras_4_" fill="#303F8C" points="272.646,398.735 266.704,398.735 266.704,388.333 271.161,388.333 
	271.161,394.276 277.54,394.276 281.996,398.736 277.54,398.737 272.646,403.629 "/>
<polygon id="Guatemala_4_" fill="#303F8C" points="255.869,398.735 260.761,393.842 260.761,388.333 265.219,388.333 
	265.219,398.735 "/>
<polygon id="Uruguay_4_" fill="#5252A3" points="373.242,571.124 368.042,565.924 373.677,560.287 373.677,554.778 378.569,554.778 
	384.514,560.722 388.969,560.722 378.569,571.124 "/>
<polygon id="French_Guiana_4_" fill="#E8E8E8" points="380.67,440.347 385.87,435.146 380.67,429.944 384.511,429.944 
	389.712,435.152 384.512,440.347 "/>
<polygon id="Suriname_4_" fill="#E8E8E8" points="373.677,434.837 373.677,429.944 378.569,429.944 383.769,435.152 
	378.877,440.039 "/>
<polygon id="Guyana_4_" fill="#E8E8E8" points="367.733,446.291 367.733,440.779 361.791,434.837 361.791,423.997 366.683,423.987 
	372.191,429.508 372.191,435.453 377.827,441.09 372.626,446.291 "/>
<polygon id="Venezuela_4_" fill="#303F8C" points="343.527,440.347 338.018,434.837 338.018,428.458 331.641,428.458 
	320.499,417.312 325.697,412.112 336.969,412.11 342.915,418.055 360.764,418.055 365.204,422.505 360.306,422.515 360.306,434.401 
	354.799,434.401 348.855,440.347 "/>
<polygon id="Colombia_4_" fill="#5252A3" points="319.755,452.235 313.812,452.235 307.869,446.291 303.412,446.29 308.304,441.398 
	308.304,428.892 302.669,423.256 313.812,412.11 323.597,412.111 318.396,417.312 331.026,429.944 336.533,429.944 336.533,435.453 
	341.426,440.347 336.968,440.347 330.59,446.726 330.59,463.074 "/>
<polygon id="Peru_4_" fill="#5252A3" points="325.697,505.736 308.304,488.337 308.304,476.448 297.469,465.611 302.361,465.611 
	302.361,459.666 307.869,459.666 313.812,453.723 319.139,453.723 329.54,464.124 319.139,464.124 312.453,470.81 319.138,477.496 
	325.082,477.5 330.59,483.009 330.59,505.736 "/>
<polygon id="Bolivia_4_" fill="#303F8C" points="338.018,523.568 338.018,505.736 332.076,505.736 332.076,483.444 337.584,483.444 
	343.219,477.808 371.883,506.479 366.683,511.678 354.362,511.68 354.362,523.568 "/>
<polygon id="Chile_4_" fill="#5252A3" points="331.641,666.236 314.247,648.838 314.247,619.732 320.19,613.787 320.19,572.177 
	326.132,566.232 326.132,542.454 332.076,536.51 332.076,512.115 327.183,507.222 336.533,507.222 336.533,541.838 330.59,547.781 
	330.59,571.561 324.646,577.502 324.646,625.06 318.704,631.003 318.704,643.51 325.082,649.89 330.59,649.89 330.59,655.832 
	336.553,655.835 336.534,666.236 "/>
<polygon id="Praguay_4_" fill="#303F8C" points="367.733,535.893 367.733,529.949 361.356,523.568 355.848,523.568 355.848,513.167 
	367.298,513.165 372.191,508.272 372.191,518.676 383.769,530.257 372.934,541.096 "/>
<g id="USA_4_">
	<path fill="#E86477" d="M290.475,357.559v-5.944l-6.377-6.38h-36.271l-6.379,6.38v4.458l-10.836-10.838h-11.883l-5.946-5.945
		h-17.828l-5.942-5.942h-11.886l-23.337-23.343v-46.505h94.037l5.942,5.942h23.772l17.834,17.834h12.496l5.942-5.942h11.886
		l10.841-10.839v9.783l-23.777,23.782v11.889l-24.081,24.086l6.253,6.251v15.731L290.475,357.559z M30.037,226.343l10.835-10.835
		v-6.995H28.55l-17.393-17.398v-10.839h11.451l6.377-6.379V166.9H10.722l-5.507-5.509v-4.894h17.828v-6.995l-11.886-11.889v-4.894
		h5.507l23.772-23.778H57.65l11.886,11.889h23.337v81.737h-4.894l-5.942-5.944h-5.942l-5.942-5.944H51.272l0.001,18.268
		l-17.396,17.398L30.037,226.343z"/>
</g>
<g id="Canada_4_">
	<path fill="#F28466" d="M343.963,285.79v-5.944h-5.938v-12.939l-12.941,12.941h-11.886l-5.942,5.942h-11.264l-17.834-17.834
		h-23.772l-5.942-5.943h-95.089l-23.336-23.343V226.78l-24.207-24.213H94.358v-80.686l10.835,10.837h12.502l11.886-11.888
		l29.099,0.002l11.886,11.886h11.451v5.945h19.314v-5.944l10.836,0.002l11.886,11.886h18.444l6.378-6.379v-12.505l-5.942-5.945
		v-16.784h4.893l5.507,5.51v11.889l5.942,5.944v5.945l12.321,12.324h6.993v-17.834h10.4v22.728l-5.507,5.51h-5.942l-6.378,6.379
		l0.003,5.945l-11.453,11.453h-5.942l-6.378,6.381l-0.006,18.448l24.213,24.214h5.939l5.512,5.509v5.947l12.628,12.629l6.686-6.688
		v-30.338l-5.942-5.945v-11.273l11.451-11.454h5.328l5.942,5.946h5.942l5.507,5.507v12.324l6.993-0.002l6.378-6.378v-5.509h4.457
		v5.509l5.943,5.944v5.945l23.463,23.47l-17.086,17.09h-17.829l-7.428,7.431h12.937v11.889h10.835l-10.401,10.403L343.963,285.79
		L343.963,285.79z M379.184,273.9l-5.942-5.944h-5.507v-4.894l5.942-5.945v-5.944l4.457-4.458v10.402l5.943,5.945l-0.001,10.838
		H379.184L379.184,273.9z M337.584,184.734h-5.943l-5.501-5.504l0.108-5.941l-6.349-6.39h-6.703l-5.635,5.637l-5.2-5.202v-5.089
		l5.521-6.095l12.308,0.37v-24.852l-12.321-12.324h-23.771l-5.942-5.944h-5.507v-5.509l-5.941-5.945l-0.001-17.218l5.507-5.51h4.893
		v23.343l6.377,6.38h8.033l-6.983-7.047l-0.002-17.166l4.46-4.459v16.783l18.263,0.007l5.942,5.938h5.942l17.394,17.399v11.89
		l17.83,17.833v5.33l-5.201,5.227l-12.629-12.663v13.994l11.886,11.89v9.785l-10.836-10.838h-8.043l12.936,12.94v3.843
		L337.584,184.734z M272.955,173.586l5.635-5.635v-5.509h4.893l10.4,10.408h-10.4l-5.632,5.632L272.955,173.586z M189.164,131.233
		l-6.103-5.945h-5.501v-4.458h11.886v-7.43h-17.83V96.438l11.448-11.275h5.33l5.942,5.942h5.507v12.942l7.428-7.432V80.274
		l4.457,4.455v23.778l11.886,11.889v5.33l-5.201,5.201l-5.635-5.636h-12.501l-5.942,5.944L189.164,131.233L189.164,131.233z
		 M153.504,107.457l-5.66-11.323v-17.35l5.507-5.51h11.264l5.949,5.945h5.507v4.897l-5.507,5.506h-6.377v12.325l-5.507,5.51H153.504
		z M231.046,101.947L219.16,90.058v-4.894h4.894l6.993,6.994v-8.044l-5.635-5.637l4.894-4.893l5.202,5.201v11.889l5.632,5.636
		l-10.092,10.094V101.947L231.046,101.947z M248.439,95.567l-5.507-5.508V78.784l5.509-5.51h5.326l5.51,5.51v5.329l-5.945,5.944
		v5.51H248.439z M296.418,89.622V79.219h4.893l5.507,5.507v4.895L296.418,89.622L296.418,89.622z"/>
</g>
<polygon id="Brazil_4_" fill="#5252A3" points="385.128,559.235 379.619,553.727 379.618,548.398 385.563,542.454 385.563,529.949 
	373.677,518.06 373.677,506.172 361.574,494.061 343.219,475.706 336.968,481.957 331.641,481.957 325.698,476.014 319.755,476.009 
	314.555,470.81 319.755,465.611 332.077,465.611 332.076,447.342 337.584,441.833 349.47,441.833 355.415,435.889 360.741,435.889 
	366.248,441.396 366.248,447.777 373.242,447.777 379.184,441.833 385.127,441.833 390.761,436.202 414.227,459.668 
	426.112,459.668 432.055,465.611 443.94,465.611 449.449,471.12 449.451,476.449 431.62,494.282 431.62,518.06 426.112,523.568 
	414.229,523.568 401.906,535.893 401.906,547.784 390.455,559.235 "/>
<polygon id="Ecuador_4_" fill="#5252A3" points="296.418,464.124 296.418,453.284 301.926,447.775 307.252,447.777 312.454,452.979 
	307.253,458.18 300.875,458.18 300.875,464.124 "/>
<polygon id="Madagascar_4_" fill="#E8E8E8" points="712.425,529.95 712.416,512.73 724.3,500.845 724.31,494.898 729.5,489.697 
	734.701,494.898 734.701,500.226 728.756,506.17 728.756,518.06 722.814,524.004 722.814,529.949 717.614,535.149 "/>
<g id="Australia_4_">
	<path fill="#E86477" d="M1050.7,606.792l-5.471-5.508v-4.896h10.397l-0.034,10.403H1050.7z M1032.915,583.015l-23.779-23.78
		l-18.479,0.002l-5.942,5.943h-11.852l-5.975,5.943H955.62l-5.48-5.509l-0.03-5.946l-5.939-5.942v-5.945l-5.943-5.943v-11.272
		l11.45-11.454h11.885l17.825-17.833l5.941,0.031l5.978-5.978h5.91l5.943-5.944h11.271l5.54,5.51v5.945l6.396,6.379h6.979v-6.381
		l5.905-5.946v-5.518l4.494,0.009v11.457l5.94,5.941l-0.038,5.945l23.771,23.78l0.002,17.217l-11.888,11.89l0.039,11.89l-5.507,5.51
		H1032.915L1032.915,583.015z"/>
</g>
<g id="New_Zealand_4_">
	<path fill="#E86477" d="M1116.501,619.116v-5.329l11.889-11.89l-0.004-5.509h4.892l5.202,5.205l-11.423,11.573l-0.149,5.941
		l-5.208,5.207L1116.501,619.116z M1139.836,594.903l-5.201-5.202l5.636-5.637v-6.562l-5.943-5.943v-3.836l16.342,16.341l0.002,5.33
		l-5.509,5.509H1139.836L1139.836,594.903z"/>
</g>
<g id="Japan_4_">
	<path fill="#303F8C" d="M997.652,334.397l11.45-11.455h5.943l5.942-5.944h6.377v-6.379l5.943-5.945v-5.509h4.455v10.838
		l-5.942,5.942v5.947l-5.51,5.509h-5.939l-5.945,5.945h-5.939l-10.835,10.833V334.397L997.652,334.397z M1028.415,297.679
		l4.892-4.895v-5.945l5.201-5.201l5.633,5.636h4.456l-4.456,4.457l-5.943,0.003l-5.941,5.944H1028.415L1028.415,297.679z"/>
</g>
<polygon id="Taiwan_4_" fill="#5252A3" points="962.305,369.755 972.398,359.66 972.396,363.502 966.451,369.446 966.453,373.905 
	"/>
<polygon id="Sri_Lanka_4_" fill="#303F8C" points="831.265,428.458 831.265,423.564 835.721,419.107 835.721,428.458 "/>
<g id="Indonesia_4_">
	<path fill="#F28466" d="M1020.986,464.124l-5.942-0.002l-5.943-5.942h-5.942l-4.457-4.457h9.783l6.251,6.249l6.25-6.249h5.326
		l5.509,5.509v15.731L1020.986,464.124z M890.688,446.728v-5.946l-10.833-10.835l3.839,0.003l23.771,23.771h5.941l5.2,5.203
		l-5.635,5.637v4.459L890.688,446.728z M943.735,464.122l-5.942-5.942h-5.942l-5.508-5.509v-4.894h17.393l11.885-11.889h3.843
		l-4.895,4.893v11.89l-5.941,5.943v5.508H943.735z"/>
</g>
<polygon id="Ireland_4_" fill="#F28466" points="529.244,250.123 534.136,245.229 534.136,238.669 528.5,233.033 533.701,227.832 
	538.594,227.833 538.594,239.718 543.486,239.719 533.085,250.123 "/>
<polygon id="Papua_New_Guinea_4_" fill="#E8E8E8" points="1056.641,481.957 1050.699,476.014 1033.307,476.014 1033.307,459.666 
	1038.197,459.666 1044.141,465.611 1049.647,465.611 1049.647,471.12 1056.025,477.5 1061.532,477.5 1061.532,481.957 "/>
<g id="Russia_4_">
	<path fill="#5252A3" d="M711.985,297.679l-11.89-11.89h-5.943l-5.201-5.202l11.588-11.581v-6.569l-6.388-6.387l-5.941,0.015
		l-17.392-17.397l0.007-5.946l-11.892-11.887v-16.783h6.993l-6.686-6.687l5.641-5.637v-69.841l4.885,4.886h11.885l17.393,17.399
		v5.329l-5.508,5.509h-5.325l-5.942-5.945h-5.94l-6.996-6.995v8.045l5.942,5.944v5.945l12.627,12.632l6.252-6.253h6.378v-11.888
		h11.885v-22.726l4.455,4.458v12.324h7.43l-0.004-6.379l11.454-11.454h4.89v12.941l12.937-12.941h12.32v-11.888h4.891l5.943,5.947
		h5.941l6.994,6.993v-8.048l-5.947-5.948l-0.092-5.326l6.039-5.939v-5.95l5.942-5.942V91.11h10.399l0.001,4.895l-5.944,5.944v6.56
		l5.942,5.944l0.002,23.163l-5.944,5.945v5.51h-12.935l7.427,7.43l5.943,0.002l6.993,6.993v-13.375l5.943-5.944v-11.458h4.456
		v18.883l7.429-7.428v-12.505l-6.377-6.38h-5.508v-22.728l11.143-11.146l11.142,11.146v5.945l7.429,7.431v-13.991l-11.885-11.889
		v-4.893h5.508L872.428,49.5h11.268l12.937,12.936V43.115l5.942-5.942v-5.944l5.199-5.199l5.199,5.199v19.32l6.994-6.995h11.269
		l5.507,5.508v11.273l-24.076,24.086l6.992,6.995l12.193-12.196h5.322l5.946,5.944h11.885l5.942,5.943h6.994v-6.379l5.199-5.199
		l5.634,5.635h5.942l5.509,5.508v11.89l6.685,6.686l5.943-5.942l5.635,5.636h18.878V96.617l5.507-5.506h5.326l5.943,5.941h11.883
		l5.509,5.51v6.379l18.263,0.004l18.135,18.135l6.252-6.25l11.268,0.001l5.507,5.507v6.38h7.43v-11.888l16.776,0.005l17.827,17.828
		l5.943,0.004l11.885,11.885h5.507v4.893l-5.941,5.944v5.509h-4.892l-11.885-11.889h-6.995v5.944h-5.507l-6.685,6.688l6.695,6.696
		l5.496-0.169v4.628l-11.451,0.157l-12.096,11.938l-5.729,5.729h-11.886l-6.16,6.162l-6.129,6.162v12.153l-0.028,5.679l-5.945,5.945
		v5.947l-5.941,5.942v5.509h-4.89l-5.509-5.509v-23.165l23.77-23.776v-19.934l-7.43,7.432v5.945l-4.41,4.446v-11.879l-7.475,7.475
		l0.002,5.9l-5.944,5.944v5.51h-10.794l-6.29-6.251l-5.942,5.942l-5.634-5.636h-12.502l-6.377,6.379v5.945l-11.449,11.454h-5.941
		l-7.43,7.43h19.312l5.508,5.509v23.164l-5.942,5.944v5.944l-16.307,16.312v-16.318l-23.771-23.773v-12.324H972.87l-23.778,23.778
		l-23.154-0.003l-11.888-11.886h-36.271l-11.889,11.889h-11.268l-11.889-11.889h-11.886l-23.771-23.778H782.72l-23.801,23.803
		l-29.728-0.021l-6.367,6.376v18.483l2.843,2.441l-2.853,2.853v12.504l4.892,4.895H711.985z M1033.613,268.699l5.636-5.635v-22.293
		l4.456,4.456v17.22l-5.942,5.943v4.46L1033.613,268.699z M630.271,232.29l4.149-4.151l4.147,4.151H630.271z"/>
</g>
<g id="United_Kingdom_4_">
	<path fill="#E86477" d="M546.022,257.119l6.25-6.251l-5.942-5.946l5.636-5.636l-0.004-6.562l-5.939-5.941v-5.944l-5.636-5.636
		l5.2-5.201h4.893v5.944h5.942v11.454l5.942,5.944v5.945l5.942,5.944v4.894h-5.507l-5.942,5.945h-5.942l-4.893,4.893V257.119z
		 M540.08,238.232v-9.349l4.457,4.457v4.892H540.08z"/>
</g>
<g id="China_4_">
	<path fill="#5252A3" d="M926.343,386.846v-4.458h9.349l-4.457,4.458H926.343z M925.91,374.957l-5.944-5.946h-12.501l-5.943,5.944
		h-4.891v-5.509l-5.638-5.635l5.638-5.636v-6.56l-6.378-6.38h-47.539l-23.56-23.561l-5.717-5.726V305.11h11.449l12.324-12.325
		l-0.004-11.4l5.51-0.057l12.32-12.32l0.018-5.511h10.398l-0.021,11.453l18.263,18.269h11.883l5.944,5.945h12.499l5.945-5.945
		l5.942-0.004l11.885-11.885h11.885l5.942-5.944h6.377v-7.43h-11.885v-4.893l23.372-23.343h10.829v11.454l23.771,23.771
		l-0.008,5.344l-17.391,17.39h-5.971l-11.885,11.889h-4.891l0.002-12.94l-13.681,13.683l6.684,6.687h10.402l-4.459,4.459h-6.377v7
		l11.885,11.885l0.002,5.329l-11.887,11.89v5.946l-5.508,5.506h-12.32v5.946H925.91z"/>
</g>
<polygon id="Kosovo_4_" fill="#E8E8E8" points="630.271,287.275 633.68,287.275 633.68,290.684 "/>
<rect x="265.539" y="689.026" fill="#E86477" width="57.74" height="28.1"/>
<rect x="12.848" y="689.026" fill="#F28466" width="57.74" height="28.101"/>
<rect x="518.229" y="689.026" fill="#5252A3" width="57.74" height="28.1"/>
<rect x="770.92" y="689.026" fill="#303F8C" width="57.74" height="28.1"/>
<rect x="1023.611" y="689.026" fill="#E8E8E8" width="57.74" height="28.101"/>
<text transform="matrix(1 0 0 1 77.1143 710.8447)" fill="#424242" font-family="'Lato-Regular'" font-size="24">More than 25%</text>
<text transform="matrix(1 0 0 1 329.8496 710.8447)" fill="#424242" font-family="'Lato-Regular'" font-size="24">15% - 24%</text>
<text transform="matrix(1 0 0 1 581.6851 710.8447)" fill="#424242" font-family="'Lato-Regular'" font-size="24">5% - 14%</text>
<text transform="matrix(1 0 0 1 834.5303 710.8447)" fill="#424242" font-family="'Lato-Regular'" font-size="24">Less than 5%</text>
<text transform="matrix(1 0 0 1 1090.8779 710.8447)" fill="#424242" font-family="'Lato-Regular'" font-size="24">No data</text>
</svg>
