<svg xmlns="http://www.w3.org/2000/svg" width="1191" height="737" version="1"><path fill="#E86477" d="M540 321v-23h-5l5-5h12l5-6 12 6h4l-11 11v12l-5 5z"/><path fill="#F28466" d="M593 232l-5-5v-5h6v-6h4v16z"/><path fill="#E86477" d="M534 316v-17h5v21z"/><path fill="#5252A3" d="M910 446l3-3v3zM896 428l-5-5v-11l6-6v-13l-6-5 5-5 6 5h5l6 6v5l-6 6v5l-5-6-7 7v13l5 4z"/><path fill="#5252A3" d="M909 411v-5l5-6h5v11l-5 5z"/><path fill="#303F8C" d="M914 418l6-6v-19l-6-6v-6l-5-6v-5h10l6 6-6 5v7l12 12v5l-17 16z"/><path fill="#303F8C" d="M914 393l-6-6h-6l-4-5h5v-6l4-4v4l6 6v6l6 6v5h-5z"/><path fill="#303F8C" d="M891 399l-7-7-6 7h-4l5-5v-7l-6-6v-5l12-12v-6l6-6v-4l4 4v6l-6 6 6 6v6h6v5h-5l-7 7 6 6v11l-4 5z"/><path fill="#E8E8E8" d="M861 347h10v4h-10z"/><path fill="#303F8C" d="M837 351l-5-5 4-5 6 6h17v4zM861 375v-11l-6-6 5-5 11 11v11z"/><path fill="#F28466" d="M813 411v-12l-6-6v-12l-11-11 6-6v-12l17-18v-10l16 16-6 6 7 7h22l-5 5 6 6v11h-5l-24 24v18l-5 5-12-11zm60-47l-11-11h11v-6h16v5l-6 6v6l-10 10v-10z"/><path fill="#5252A3" d="M933 446l11-10h6l6-6h5v4h-6l-12 12h-10zm-30-5v-6l-5-5h9v5l6 6-5 5-5-5z"/><path fill="#F28466" d="M789 363h-17v-16h11l6-6h6l7-7v-11h5l6-6 5 6v11l-18 18v12l-5 5z"/><path fill="#E8E8E8" d="M772 345v-5l-6-6v-11h11l6-6h28l-5 4h-6v13l-5 5h-6l-6 6zM790 316v-5l5-6h6l6 6 5-5v10z"/><path fill="#E8E8E8" d="M783 316l-24-25-5 6v-16h5l6 6h6l12 12h17v5h-5l-7 6v6z"/><path fill="#E8E8E8" d="M765 321l-5-5h-12v-6l-6-6v-5h12l5-5 23 22-5 5z"/><path fill="#303F8C" d="M783 298l-12-12h-6l-5-6h-7v18h-11l-6-6v-11h6v-7h-13l-2 2-3-2v-17l6-5h30l23-24h23l24 24h12l12 11v5l-12 12h-6v12h-11l-6-6h-7l-6 6h-6v6z"/><path fill="#E8E8E8" d="M802 304v-11h5l6-6h5l6 6h11l-11 11h-12l-5 5zM760 363l-6-6h-12l-18-17v-6l-6-6v-6l-6-6v-5h17v6l6 6h7l6-6h11l5 6v11l6 6v23zM724 310l-5-6 5-5h5v11z"/><path fill="#E8E8E8" d="M712 310v-5l6-6h4l-5 5 5 6zM702 304l4-5v-5l5 5h5l-5 5z"/><path fill="#5252A3" d="M664 321l-11-11v-5h12v-6h23l6 6h17v11h-29l-6 5z"/><path fill="#E8E8E8" d="M689 333v-6h-6v-4l5-6h17v5l-11 11z"/><path fill="#5252A3" d="M712 345l-6-6h-11v-5l11-11v-6h5l6 6v5l6 6v6l5 5z"/><path fill="#E8E8E8" d="M683 329h4v4h-4z"/><path fill="#303F8C" d="M683 335h10v4h-6v7l-4 4zM677 340l4-4v8z"/><path fill="#E86477" d="M712 387l-6 5-5-5v-6l-6-6v-6l-12-11v-6l6-6v-5h16l6 6h6v6h6v6h6v6h6v5l6 6h6v5h-6l-6 6h-6l-11 6z"/><path fill="#E8E8E8" d="M707 394l5-5 5 5 13-6h5l5 6-5 5h-12l-5 5z"/><path fill="#303F8C" d="M736 388l6-6h6v-12l5-5 6 5h5v5l-11 12h-6l-6 5z"/><path fill="#5252A3" d="M742 375l-6-6v-3l5 5 7-6h3l-4 4v6z"/><path fill="#303F8C" d="M647 375v-34h29l5 5v10l-6-6v8l6 6v6l5 5z"/><path fill="#F28466" d="M593 268l-5-6v-22h6v-6h4l6 6h6v11l-6 6 6 6-6 5z"/><path fill="#E86477" d="M577 250l5-5v-5h4v10zM571 256l4-4h11v4z"/><path fill="#5252A3" d="M582 258h4v4h-4z"/><path fill="#E86477" d="M588 280v-5l5-6h5v11z"/><path fill="#F28466" d="M600 269h5l6-5 5-1 5 6-5 5h-16z"/><path fill="#5252A3" d="M606 257l5-5 5 6h6l5 4h-16zM623 268l-5-5h22v5z"/><path fill="#E8E8E8" d="M617 286l-5-5h16v5zM611 275h5l5 5h-10z"/><path fill="#E86477" d="M623 280l-5-5 5-6h16l-11 11z"/><path fill="#E8E8E8" d="M635 292v-6h-6v-5l5-5v5l6 6v5zM635 293h4v4h-4z"/><path fill="#F28466" d="M635 316v-6l-5-5h5v-6h10l-6 5 6 6-5 6v4z"/><path fill="#E86477" d="M641 298v-11h11l5 6v5z"/><path fill="#E86477" d="M653 286h-12l-6-6v-5l6-6h11l5 6v16z"/><path fill="#E8E8E8" d="M623 292l-5-5h10l5 5zM629 298l-5-5h10v5zM629 299h4v4h-4z"/><path fill="#5252A3" d="M569 292l-11-6v-12l-6-6v-5h11l6-5h11v5h7l5 6-6 5v18z"/><path fill="#E86477" d="M611 304l-12-12h-11v-11h12v-6h10v5h-6v7l12 12h6v5h-6v6l-5 4z"/><path fill="#E8E8E8" d="M659 274l-6-6h-5l5-5h5l5 6v11l-4 5z"/><path fill="#303F8C" d="M594 339v-15l10 10v5z"/><path fill="#5252A3" d="M558 369v-41l5-5h29v18h12v28h-6v6l-11 12h-6z"/><path fill="#303F8C" d="M546 363l-12-12h-5l5-5v-6l12-11h10v34zM617 381l-12-12v-34h5l6 6h13l6-6h5l6 5v41z"/><path fill="#E8E8E8" d="M623 423l-12-12v-23l6-6h29v11h-6v18l-12 12z"/><path fill="#E8E8E8" d="M664 434l-23-23v-17h6v-18h40v17l-12 12v29z"/><path fill="#E8E8E8" d="M678 405l11-11v-5l15 16zM677 434v-28h28v6l12 12v5l-6 5z"/><path fill="#303F8C" d="M701 452v-16h11l6-6v-7l-5-5h5l6-6h11v5l-6 6v6l-24 23z"/><path fill="#E8E8E8" d="M683 453v-17h16v18h5l-10 10zM665 436h16v16h-16z"/><path fill="#303F8C" d="M682 482l-6-6h-11v-22h17l11 11v12l5 5z"/><path fill="#E8E8E8" d="M671 535v-16l12-12v-24h16v17l-18 18v12l-5 5z"/><path fill="#303F8C" d="M629 571l-6-5v-12l-5-5h11l12-12h12l11-12h5v12h6v11l-11 11h-6l-6 6h-6l-6 6z"/><path fill="#303F8C" d="M617 547v-11l-12-24v-5h29v35l-6 5z"/><path fill="#E8E8E8" d="M635 507h11l17 17-11 11h-12l-5 5zM605 506v-5l6-6v-13l-6-6v-4h11l6 5 6 1 12 11v17zM648 507h11l5-6h6l5 6v5l-6 6v6h-5z"/><path fill="#E8E8E8" d="M677 506l-6-6v-5h6v-16l4 4v23l-4 5z"/><path fill="#E8E8E8" d="M641 489h18v-6l5-6h11v17h-6v6h-5l-6 6h-17zM659 454h4v4h-4zM659 460h4v5h-4z"/><path fill="#E8E8E8" d="M641 488l-12-12h-6l-6-5v-12l12-12v-11h34v16h-5l-1 14h6v10l-6 6v6z"/><path fill="#E8E8E8" d="M605 470l-5-5v-5h11v-18h17v5l-12 12v11zM600 442h4v4h-4z"/><path fill="#E8E8E8" d="M600 458v-10h5v-6h5v16zM594 435l17-17v-5l10 10-5 6v11h-17z"/><path fill="#E8E8E8" d="M617 440v-10l6-6h6l11-12 22 22h-34v6z"/><path fill="#303F8C" d="M587 434l-6-6h-5v-22h34v11l-17 17z"/><path fill="#E8E8E8" d="M570 405v-5h5l7-6v-6h5l13-12v-6h4l12 12-6 5v18z"/><path fill="#303F8C" d="M510 375v-5l18-17h5l5 4h-5l-12 12v6z"/><path fill="#E8E8E8" d="M510 393v-17h12v-6l12-11h5l6 5v29zM570 412h4v16h-4zM564 428v-10l4-5v15zM558 418h4v10h-4zM540 434v-16l5-6 6 6h5v10h-5l-6 6zM529 424h4l6 6v3z"/><path fill="#303F8C" d="M528 423l-5-5h4l5 5z"/><path fill="#E8E8E8" d="M528 417h-6l-5-5h22v15z"/><path fill="#E8E8E8" d="M540 411h-12v-17h18v-29h10v5l24 18v5l-5 6h-25v6l-10 11z"/><path fill="#E8E8E8" d="M552 417l-6-6 6-5v-6h16v6h6v5h-5l-6 6zM510 400h4v4h-4zM516 411l-5-5h16v5z"/><path fill="#E8E8E8" d="M516 405v-6h-6v-5h17v11z"/><path fill="#303F8C" d="M902 298l-6-6h-12l-17-18v-11l11-11h35l12 11h24v6h12v5h-6l-6 6h-12l-12 12h-6l-6 6zM986 327v-10l5-6 5 6v5l-5 5z"/><path fill="#E8E8E8" d="M980 316v-11l5-6h6l17-17v10h-5l-13 12v6l-5 6z"/><path fill="#F28466" d="M629 262l-6-6h-6l-6-5v-12l6-5h23v28z"/><path fill="#E86477" d="M647 226l-6-6h-6v-4h5l7 7v-7h10v10z"/><path fill="#E86477" d="M641 233l-6-6v-5h5l6 6h6v5l-6 5h-5z"/><path fill="#5252A3" d="M676 280l-6-6h-5v-6l-7-6h-6l-6 6h-5v-16h23l6-6h6l12 12h6l5 5v5l-4 5v-6l-13 13z"/><path fill="#E86477" d="M647 214l-6-5 6-5h10v10z"/><path fill="#5252A3" d="M641 250v-10h6l6-7v-5h6v-5l10 10v6l5 5h-4l-6 6z"/><path fill="#E8E8E8" d="M581 214l-5-5v-17l5-6h6l13-12v-6l11-12v-6l6-6v-6l18-17h6l6-6h11l5 5v5h-4v-6h-7l-6 7v5h-18v13l-12 11v12l-12 12v28l-5-4h-7v6l-5 5z"/><path fill="#F28466" d="M611 226l-6-5v-41l12-12v-12l12-12v-11h5l6 5v17l-6 6v6l-12 12v13l6 6v5l-6 6v6l-6 6v5z"/><path fill="#E86477" d="M641 197l-6-6v-11l12-12v-13h-6v-17l-5-5h11v-7l5-5h5v6h6v64l-5 6z"/><path fill="#5252A3" d="M338 666v-9l4 4v5h-4zm-6-12v-6h-6l-6-5v-11l6-6v-48l6-6v-24l6-6v-17h23l5 6v6l7 6 11-11v10l-6 6v5h-6v7l-6 6 6 6v6l-17 17h-7v6l-6 6v6l-6 6 6 7v5l-5 6v17h-5zM280 412h3l6 5-2 2z"/><path fill="#303F8C" d="M278 411l-5-6 5-5h5v11zM266 405l-4-5h9v5z"/><path fill="#5252A3" d="M248 393h-17l-6-6h-6l-6-6v-12l-24-23v-7h-7v7l12 12v6l5 5h-4l-6-5v-6l-11-12v-11h10l6 6h18l6 6h12l11 11-5 6v12l12 12h6l12-12h5v11h-12v6l-5 5zM290 423l-2-3 2-2h16l-5 5z"/><path fill="#303F8C" d="M273 399h-6v-11h4v6h7l4 5h-4l-5 5zM256 399l5-5v-6h4v11z"/><path fill="#5252A3" d="M373 571l-5-5 6-6v-5h5l6 6h4l-10 10z"/><path fill="#E8E8E8" d="M381 440l5-5-5-5h4l5 5-5 5z"/><path fill="#E8E8E8" d="M374 435v-5h5l5 5-5 5z"/><path fill="#E8E8E8" d="M368 446v-5l-6-6v-11h5l5 6v5l6 6-5 5z"/><path fill="#303F8C" d="M344 440l-6-5v-7h-6l-12-11 6-5h11l6 6h18l4 5h-5v11h-5l-6 6z"/><path fill="#5252A3" d="M320 452h-6l-6-6h-5l5-5v-12l-5-6 11-11h10l-6 5 13 13h6v5l4 5h-4l-6 7v16z"/><path fill="#5252A3" d="M326 506l-18-18v-12l-11-10h5v-6h6l6-6h5l11 10h-11l-7 7 7 6 6 1 6 5v23z"/><path fill="#303F8C" d="M338 524v-18h-6v-23h6l5-5 29 28-5 6h-13v12z"/><path fill="#5252A3" d="M332 666l-18-17v-29l6-6v-42l6-6v-24l6-5v-25l-5-5h10v35l-6 6v24l-6 6v47l-6 6v13l6 6h6v6h6v10z"/><path fill="#303F8C" d="M368 536v-6l-7-6h-5v-11h11l5-5v11l12 11-11 11z"/><path fill="#E86477" d="M290 358v-6l-6-7h-36l-7 7v4l-10-11h-12l-6-6h-18l-6-6h-12l-23-23v-47h94l6 6h24l17 18h13l6-6h12l11-11v10l-24 24v12l-24 24 6 6v16l-5-4zM30 226l11-10v-7H29l-18-18v-11h12l6-6v-7H11l-6-6v-5h18v-6l-12-12v-5h6l23-24h18l12 12h23v82h-5l-6-6h-6l-6-6H51v18l-17 17h-4z"/><path fill="#F28466" d="M344 286v-6h-6v-13l-13 13h-12l-6 6h-11l-18-18h-24l-6-6h-95l-23-23v-12l-24-24H94v-81l11 11h13l12-12h29l12 12h11v6h19v-6h11l12 12h18l7-7v-12l-6-6v-17h5l5 6v11l6 6v6l13 13h7v-18h10v23l-6 5h-5l-7 6v6l-11 12h-6l-7 6v19l25 24h6l5 5v6l13 13 6-7v-30l-6-6v-11l12-12h5l6 6h6l6 6v12h7l6-6v-6h4v6l6 6v6l24 23-17 17h-18l-8 7h13v12h11l-10 11h-5zm35-12l-6-6h-5v-5l6-6v-6l4-4v10l6 6v11h-5zm-41-89h-6l-6-6v-6l-6-6h-7l-5 6-6-6v-5l6-6 12 1v-25l-12-13h-24l-6-6h-5v-5l-6-6V85l5-6h5v24l6 6h9l-7-7V85l4-5v17h18l6 6h6l18 17v12l17 18v5l-5 6-12-13v14l11 12v10l-10-11h-8l12 13v4l-4-5zm-65-11l6-6v-6h4l11 11h-11l-5 5-5-4zm-84-43l-6-6h-5v-4h11v-8h-17V96l11-11h5l6 6h6v13l7-7V80l5 5v24l12 11v6l-6 5-5-6h-13l-6 6h-5zm-35-24l-6-11V79l5-6h12l6 6h5v5l-5 6h-7v12l-5 5h-5zm77-5l-12-12v-5h5l7 7v-8l-6-6 5-4 6 5v12l5 5-10 10v-4zm17-6l-5-6V79l5-6h6l5 6v5l-6 6v6h-5zm48-6V79h5l6 6v5h-11z"/><path fill="#5252A3" d="M385 559l-5-5v-6l6-6v-12l-12-12v-12l-12-12-19-18-6 6h-5l-6-6h-6l-5-5 5-5h12v-19l6-5h11l6-6h6l5 5v7h7l6-6h6l6-6 23 24h12l6 6h12l5 5v5l-17 18v24l-6 6h-12l-12 12v12l-12 11zM296 464v-11l6-5h5l5 5-5 5h-6v6z"/><path fill="#E8E8E8" d="M712 530v-17l12-12v-6l6-5 5 5v5l-6 6v12l-6 6v6l-5 5z"/><path fill="#E86477" d="M1051 607l-6-6v-5h11v11h-5zm-18-24l-24-24h-18l-6 6h-12l-6 6h-11l-6-5v-6l-6-6v-6l-6-6v-11l12-12h12l17-18h6l6-6h6l6-6h11l6 6v6l6 6h7v-6l6-6v-6h5v12l6 6v6l23 24v17l-11 12v12l-6 5h-23zM1117 619v-5l11-12v-6h5l5 6-11 11v6l-5 5-5-5zm23-24l-5-5 5-6v-6l-6-6v-4l17 16v5l-6 6h-5z"/><path fill="#303F8C" d="M998 334l11-11h6l6-6h6v-6l6-6v-6h5v11l-6 6v6l-6 5h-6l-6 6h-6l-10 11v-10zm30-36l5-5v-6l6-5 5 5h5l-5 5h-6l-6 6h-4z"/><path fill="#5252A3" d="M962 370l10-10v4l-6 5v5z"/><path fill="#303F8C" d="M831 428v-4l5-5v9z"/><path fill="#F28466" d="M1021 464h-6l-6-6h-6l-4-4h9l7 6 6-6h5l6 5v16l-11-11zm-130-17v-6l-11-11h4l23 24h6l6 5-6 6v4l-22-22zm53 17l-6-6h-6l-6-5v-5h18l12-12h3l-4 5v12l-6 6v5h-5zM529 250l5-5v-6l-5-6 5-5h5v12h4l-10 10z"/><path fill="#E8E8E8" d="M1057 482l-6-6h-18v-16h5l6 6h6v5l6 7h6v4z"/><path fill="#5252A3" d="M712 298l-12-12h-6l-5-5 12-12v-7l-7-6h-6l-17-17v-6l-12-12v-17h7l-7-7 6-5v-70l5 5h12l17 17v6l-5 5h-6l-6-6h-6l-7-7v8l6 6v6l13 13 6-7h7v-12h11v-22l5 4v13h7v-7l12-11h5v13l13-13h12v-12h5l6 6h6l7 7v-8l-6-6v-6l6-5v-6l6-6v-6h10v5l-6 6v7l6 5v24l-6 6v5h-13l8 8h6l6 6v-13l6-6v-11h5v19l7-8v-12l-6-7h-6v-22l12-12 11 12v6l7 7v-14l-12-12v-5h6l35-35h12l13 12V43l6-6v-6l5-5 5 5v20l7-7h11l6 5v11l-24 24 7 7 12-12h5l6 6h12l6 6h7v-6l5-5 6 5h6l5 6v12l7 6 6-6 5 6h19V97l6-6h5l6 6h12l6 6v6h18l18 18 6-6h11l6 5v7h7v-12h17l18 18h6l12 12h5v4l-6 6v6h-5l-11-12h-7v6h-6l-7 7 7 6h6v5h-12l-12 12-6 6h-12l-6 6-6 6v18l-6 6v6l-6 6v5h-5l-5-5v-24l24-23v-20l-8 7v6l-4 5v-12l-8 7v6l-6 6v6h-10l-7-7-6 6-5-5h-13l-6 6v6l-12 11h-6l-7 8h19l6 5v23l-6 6v6l-16 17v-17l-24-23v-13h-13l-24 24h-23l-12-12h-36l-12 12h-11l-12-12h-12l-24-24h-24l-24 24h-30l-6 6v19l3 2-3 3v13l5 5h-16zm322-29l5-6v-22l5 4v17l-6 6v5l-4-4zm-404-37l4-4 5 4h-9z"/><path fill="#E86477" d="M546 257l6-6-6-6 6-6v-6l-6-6v-6l-6-6 6-5h4v6h6v11l6 6v6l6 6v5h-5l-6 6h-6l-5 5v-4zm-6-19v-9l5 4v5h-5z"/><path fill="#5252A3" d="M926 387v-5h10l-5 5h-5zm0-12l-6-6h-13l-5 6h-5v-6l-6-5 6-6v-6l-7-7h-47l-24-23-6-6v-11h12l12-12v-12h6l12-12v-6h10v12l19 18h12l6 6h12l6-6h6l12-12h12l6-6h6v-7h-12v-5l23-23h11v11l24 24v5l-17 18h-6l-12 12h-5v-13l-14 13 7 7h10l-4 4h-6v7l11 12v6l-11 12v6l-6 5h-12v6h-17z"/><path fill="#E8E8E8" d="M630 287h4v4z"/><path fill="#E86477" d="M266 689h58v28h-58z"/><path fill="#F28466" d="M13 689h58v28H13z"/><path fill="#5252A3" d="M518 689h58v28h-58z"/><path fill="#303F8C" d="M771 689h58v28h-58z"/><path fill="#E8E8E8" d="M1024 689h58v28h-58z"/><text fill="#424242" font-family="'Lato-Regular'" font-size="24" transform="translate(77 711)">More than 25%</text><text fill="#424242" font-family="'Lato-Regular'" font-size="24" transform="translate(330 711)">15% - 24%</text><text fill="#424242" font-family="'Lato-Regular'" font-size="24" transform="translate(582 711)">5% - 14%</text><text fill="#424242" font-family="'Lato-Regular'" font-size="24" transform="translate(835 711)">Less than 5%</text><text fill="#424242" font-family="'Lato-Regular'" font-size="24" transform="translate(1091 711)">No data</text></svg>